<svg width="175" height="30" viewBox="0 0 175 30" fill="none" xmlns="http://www.w3.org/2000/svg">
<g clip-path="url(#clip0_901_116)">
<path d="M2.18 29.5L2.13232 29.2175C4.61123 28.9821 6.89945 28.6997 9.28301 28.3701L10.2364 28.2289C10.9992 28.1347 11.8096 28.0406 12.62 27.9935C12.906 27.9935 13.192 27.9464 13.4781 27.9464C14.4792 27.8523 15.1942 27.711 15.9093 27.5227C16.3384 27.4286 16.7197 27.3344 17.2441 27.2403C18.8173 26.9578 20.7241 26.8166 22.5356 26.7224C23.4414 26.6753 24.2994 26.6282 25.1099 26.5341L34.0244 25.7338C35.0731 25.6396 36.0742 25.5455 37.123 25.4513C39.1729 25.263 41.2704 25.0276 43.3203 24.8864C44.2737 24.8393 45.0841 24.8393 45.8945 24.8864C46.4666 24.8864 47.0863 24.9334 47.7537 24.8864C49.0885 24.8393 50.471 24.6981 51.8534 24.5568C52.5685 24.4627 53.2836 24.4156 53.9509 24.3214L78.8353 22.0617C80.4561 21.9205 82.077 21.7792 83.6501 21.5909C86.7964 21.3084 90.0381 20.9789 93.232 20.7435C94.4238 20.6493 95.5679 20.5552 96.712 20.5081C99.9537 20.2727 103.052 20.0373 106.437 19.5666C111.252 18.8604 116.4 18.4838 121.406 18.1071C123.885 17.9188 126.459 17.7305 128.89 17.5422C131.56 17.3068 134.277 17.1185 136.899 16.9302C139.568 16.7419 142.286 16.5536 145.051 16.3182L161.307 14.8588L161.354 15.1412L145.098 16.5065C142.381 16.7419 139.616 16.9302 136.947 17.1185C134.325 17.3068 131.607 17.4951 128.938 17.7305C126.507 17.9659 123.932 18.1542 121.453 18.2955C116.448 18.6721 111.299 19.0016 106.485 19.7549C103.1 20.2727 100.001 20.461 96.712 20.6964C95.5679 20.7906 94.4238 20.8377 93.232 20.9318C90.0381 21.1672 86.7964 21.4968 83.6501 21.7792C82.0293 21.9205 80.4085 22.0617 78.8353 22.25L53.9986 24.5097C53.3312 24.5568 52.6162 24.651 51.9011 24.7451C50.5186 24.8864 49.0885 25.0747 47.7537 25.1218C47.0386 25.1218 46.4666 25.1218 45.8468 25.1218C45.0364 25.0747 44.2737 25.0747 43.3203 25.1218C41.2704 25.263 39.1729 25.4513 37.123 25.6867C36.0742 25.7808 35.0731 25.875 34.0244 25.9692L25.1099 26.7695C24.2994 26.8636 23.4414 26.9107 22.5356 26.9578C20.7241 27.0519 18.8173 27.1932 17.2918 27.4756C16.7674 27.5698 16.386 27.664 15.957 27.7581C15.2419 27.9464 14.5268 28.1347 13.5257 28.1818C13.2397 28.2289 12.9537 28.2289 12.6677 28.2289C11.8573 28.276 11.0468 28.3701 10.2841 28.4643L9.33068 28.6055C6.94712 28.9351 4.6589 29.2646 2.18 29.5Z" fill="black"/>
<path d="M0.988101 28.1818L0.94043 27.8994C3.22865 27.7111 5.4692 27.4286 7.66207 27.1461C9.90262 26.8637 12.1908 26.6283 14.5267 26.3929C15.7185 26.2987 16.7673 26.2516 17.7684 26.2046C18.6265 26.1575 19.4845 26.1575 20.438 26.0633C21.9634 25.9221 23.5843 25.7809 25.1097 25.6396C25.9202 25.5455 26.6829 25.4984 27.4933 25.4042C30.0676 25.1689 32.6895 24.9805 35.1684 24.8393C37.6473 24.651 40.2692 24.5098 42.8911 24.2744L61.7689 22.5796C64.9629 22.2971 68.2522 21.9205 71.3985 21.5909C74.5925 21.2614 77.8818 20.8848 81.1234 20.6023L98.0467 19.0487C104.387 18.4838 110.775 17.8247 116.925 17.2127C123.122 16.6007 129.51 15.9416 135.85 15.3766C140.331 14.9529 144.86 14.6234 149.198 14.2939C153.488 13.9643 157.969 13.6348 162.403 13.2111L162.451 13.4935C158.017 13.9172 153.584 14.2468 149.246 14.5763C144.908 14.9059 140.379 15.2354 135.898 15.6591C129.557 16.224 123.169 16.8831 116.972 17.4952C110.823 18.1072 104.435 18.7663 98.0944 19.3312L81.1711 20.8848C77.8818 21.1672 74.5925 21.5439 71.4462 21.8734C68.2999 22.2029 65.0582 22.5796 61.8166 22.862L42.9388 24.5568C40.3169 24.7922 37.7426 24.9805 35.216 25.1218C32.7371 25.3101 30.1629 25.4513 27.541 25.6867C26.7306 25.7809 25.9678 25.8279 25.1574 25.9221C23.6319 26.0633 22.0588 26.2046 20.4856 26.3458C19.5322 26.44 18.6265 26.44 17.7684 26.487C16.7673 26.5341 15.7185 26.5341 14.5744 26.6283C12.2385 26.8637 9.95029 27.099 7.70974 27.3815C5.51687 27.7111 3.22865 27.9935 0.988101 28.1818Z" fill="black"/>
<path d="M1.03571 28.7939L0.988037 28.5114C6.42256 28.0406 11.9047 27.5698 17.2439 27.0991C22.5831 26.6283 28.0653 26.1575 33.4521 25.6867C36.1217 25.4513 38.7437 25.2159 41.4132 24.9806C46.2757 24.5569 51.2812 24.0861 56.239 23.6153C57.5261 23.4741 58.4795 23.5211 59.5283 23.5211C60.1004 23.5211 60.7201 23.5211 61.3875 23.5211C62.4839 23.5211 63.6757 23.3328 64.8675 23.2387C65.4872 23.1445 66.1069 23.0974 66.679 23.0504L76.5946 22.1559C105.197 19.5666 133.8 16.9773 162.355 14.388C162.689 14.3409 163.976 14.2468 164.262 14.1997H164.31L164.453 14.2939C164.453 14.3409 164.453 14.388 164.31 14.4351V14.4822H164.262C164.024 14.5293 163.499 14.5763 162.355 14.6705C133.752 17.2598 105.15 19.8491 76.5946 22.4383L66.7267 23.3328C66.1546 23.3799 65.5349 23.4741 64.9152 23.5211C63.7234 23.6624 62.5316 23.8036 61.4352 23.8036C60.7678 23.8036 60.148 23.8036 59.576 23.8036C58.5272 23.8036 57.5738 23.7565 56.2867 23.8978C51.3289 24.3685 46.3234 24.7922 41.4609 25.263C38.7913 25.4984 36.1694 25.7338 33.4998 25.9692C28.113 26.44 22.5831 26.9107 17.2916 27.3815C11.9524 27.8523 6.47023 28.3231 1.03571 28.7939Z" fill="black"/>
<path d="M2.70435 29.5V29.2175C6.18435 28.8879 9.61667 28.5113 12.9537 28.1818C16.2906 27.8052 19.7706 27.4285 23.2506 27.099C25.6342 26.8636 28.0178 26.7224 30.2583 26.5811C32.5465 26.4399 34.8824 26.2987 37.3137 26.0633L99.5723 20.4139C102.242 20.1785 104.959 19.9902 107.533 19.849C108.964 19.7548 110.441 19.6607 111.871 19.5665C114.207 19.3782 116.543 19.0957 118.784 18.8133C120.595 18.5779 122.502 18.3425 124.409 18.1542L161.307 14.8116L161.354 15.0941L124.457 18.4366C122.55 18.625 120.691 18.8603 118.831 19.0957C116.591 19.3782 114.255 19.6607 111.919 19.849C110.489 19.9431 109.011 20.0373 107.581 20.1315C105.007 20.2727 102.29 20.461 99.62 20.6964L37.3613 26.3457C34.9778 26.5811 32.5942 26.7224 30.306 26.8636C28.0178 27.0048 25.6819 27.1461 23.2983 27.3815C19.8183 27.711 16.3383 28.0876 13.0013 28.4642C9.66434 28.7938 6.18435 29.1704 2.70435 29.5Z" fill="black"/>
<path d="M2.22754 20.7905L2.37055 19.5194L2.89494 19.4724L3.75302 12.2694L2.84727 12.3165L2.99028 11.0454L9.71192 10.6217L9.4259 13.211L7.85275 13.3051L7.99576 11.987L5.46918 12.1282L5.18316 14.6233L7.37603 14.4821L7.23302 15.9886L5.04014 16.1298L4.65877 19.3311L7.37603 19.1428L7.56672 17.5892L9.13987 17.4951L8.80617 20.3198L2.22754 20.7905Z" fill="black"/>
<path d="M16.6244 18.6721L17.4348 18.625L17.2918 19.8019L15.1942 19.9432L15.2419 19.3782C14.9559 19.6136 14.6222 19.8019 14.2885 19.9432C13.9548 20.0844 13.6211 20.1786 13.2397 20.1786C12.334 20.2256 11.6189 19.9902 11.1422 19.4253C10.6655 18.8604 10.3794 18.1542 10.3318 17.3539C10.2841 16.4123 10.5701 15.612 11.1898 14.9058C11.8572 14.1997 12.62 13.823 13.5734 13.7289H13.6211C13.6211 13.7289 13.6688 13.7289 13.7164 13.7289C14.0978 13.7289 14.4792 13.776 14.8129 13.9172C15.1942 14.0584 15.4803 14.2467 15.7663 14.4821L15.8616 13.7289L17.8638 13.5876L17.7208 14.8117L17.0057 14.8588L16.6244 18.6721ZM14.8129 18.4838C15.0989 18.2013 15.2419 17.9188 15.3372 17.5893C15.3849 17.401 15.4326 17.2126 15.4326 17.0243C15.4326 16.836 15.4326 16.6948 15.4326 16.6006C15.4326 16.5536 15.4326 16.5536 15.4326 16.5065C15.4326 16.4594 15.4326 16.4594 15.4326 16.4594C15.4326 16.4123 15.4326 16.3652 15.3849 16.3182C15.3849 16.2711 15.3849 16.224 15.3372 16.1769C15.2419 15.8945 15.0989 15.612 14.8605 15.3766C14.6222 15.1412 14.2408 15.0471 13.7641 15.0471C13.1444 15.0941 12.6677 15.3295 12.334 15.7532C12.0003 16.1769 11.8096 16.6948 11.8572 17.2597C11.9049 17.7776 12.0479 18.2013 12.2863 18.5308C12.5246 18.8604 12.9537 19.0016 13.5734 18.9545C14.1455 18.9075 14.5745 18.7191 14.8129 18.4838Z" fill="black"/>
<path d="M21.3437 13.3523L22.2971 13.3052L22.1541 14.5293L21.2006 14.5763L20.8669 17.4952C20.8669 17.5422 20.8669 17.5422 20.8669 17.5893C20.8669 17.6364 20.8669 17.6364 20.8669 17.6835V17.7306V17.7776C20.8669 17.8247 20.8669 17.8718 20.8193 17.9189C20.8193 17.9659 20.8193 18.013 20.8193 18.013C20.8193 18.2013 20.8669 18.2955 20.9623 18.3896C21.0576 18.4367 21.2006 18.4838 21.3913 18.4838L21.9157 18.4367L21.8204 19.5195L20.3426 19.6137C19.9612 19.6608 19.6752 19.6137 19.5798 19.5195C19.4368 19.4254 19.3891 19.2371 19.3891 18.9546C19.3891 18.9075 19.3891 18.8604 19.3891 18.7663C19.3891 18.6721 19.3891 18.578 19.4368 18.4367C19.4368 18.3896 19.4368 18.2955 19.4368 18.2484C19.4368 18.2013 19.4368 18.1543 19.4368 18.1072L19.8182 14.7176L18.8647 14.7646L19.0078 13.5406L19.9612 13.4935L20.1995 11.375L21.582 11.2809L21.3437 13.3523Z" fill="black"/>
<path d="M26.6353 19.1899L26.7783 17.9188L27.4933 17.8717L28.3514 10.6688L27.541 10.7159L27.6363 9.44478L30.9257 9.25647L30.7826 10.5276L30.0199 10.5747L29.1618 17.7776L31.6884 17.6363L31.8791 16.0828L33.4046 15.9886L33.0709 18.8133L26.6353 19.1899Z" fill="black"/>
<path d="M34.1197 15.8474C34.072 14.8588 34.3104 14.0114 34.9301 13.3052C35.5498 12.599 36.3602 12.2224 37.4567 12.1753C38.3624 12.1282 39.1252 12.3636 39.7449 12.8815C40.3646 13.3993 40.6983 14.1055 40.746 15C40.7936 15.9416 40.5553 16.789 39.9832 17.4951C39.4112 18.2013 38.5531 18.5779 37.3613 18.6721C36.4556 18.7191 35.6928 18.4838 35.1208 17.9659C34.5487 17.448 34.215 16.7419 34.1197 15.8474ZM38.7438 16.7419C39.0775 16.3653 39.2682 15.7532 39.1728 14.9529C39.1252 14.4351 38.9345 14.0584 38.6008 13.776C38.2671 13.5406 37.838 13.3993 37.3613 13.4464C36.7893 13.4935 36.4079 13.7289 36.1219 14.1526C35.8358 14.5763 35.6928 15.0471 35.6928 15.5649C35.6928 15.612 35.6928 15.6591 35.6928 15.7062C35.6928 15.7532 35.6928 15.8003 35.6928 15.8474C35.6928 16.3182 35.8835 16.7419 36.2172 16.9773C36.5509 17.2597 36.9323 17.3539 37.4567 17.3539C37.9334 17.3539 38.3624 17.1185 38.7438 16.7419Z" fill="black"/>
<path d="M46.3234 13.9643C46.2758 13.776 46.1804 13.6347 46.0851 13.4935C45.9897 13.3523 45.8467 13.2581 45.7037 13.164C45.5607 13.0698 45.4177 13.0227 45.227 12.9757C45.084 12.9286 44.8933 12.9286 44.7026 12.9286C44.1782 12.9757 43.7492 13.164 43.4632 13.5877C43.1771 14.0114 43.0341 14.4821 43.0818 15.0942C43.1295 15.6591 43.2725 16.1299 43.6062 16.4123C43.8922 16.7419 44.3212 16.836 44.8456 16.836C45.1317 16.836 45.37 16.7419 45.6084 16.6007C45.8467 16.4594 46.0851 16.2711 46.2758 16.1299C46.3234 16.0828 46.3234 16.0828 46.3711 16.0357C46.4188 15.9886 46.4188 15.9886 46.4665 15.9416L47.2769 16.836C46.9432 17.2127 46.6095 17.4951 46.1804 17.7305C45.7514 17.9659 45.2747 18.0601 44.7026 18.1071C43.8445 18.1542 43.1295 17.9659 42.5097 17.4951C41.89 17.0244 41.5563 16.2711 41.5086 15.1883C41.461 14.2938 41.6993 13.4935 42.2237 12.7873C42.7481 12.0812 43.5108 11.7045 44.5119 11.6575C44.798 11.6575 45.1317 11.6575 45.4177 11.7516C45.7037 11.8458 45.9897 11.987 46.2281 12.1282L46.3234 11.6104L47.4675 11.5162L47.2769 13.776L46.3234 13.9643Z" fill="black"/>
<path d="M54.6659 16.177L55.4763 16.1299L55.3333 17.3539L53.2357 17.4952L53.2834 16.9302C52.9974 17.1656 52.6637 17.3539 52.33 17.4952C51.9963 17.6364 51.6626 17.7306 51.2812 17.7306C50.3755 17.7776 49.6604 17.5422 49.1837 16.9773C48.707 16.4124 48.4209 15.7062 48.3733 14.9059C48.3256 13.9643 48.6116 13.164 49.2314 12.4578C49.8988 11.7517 50.6615 11.375 51.6149 11.2809H51.6626C51.6626 11.2809 51.7103 11.2809 51.7579 11.2809C52.1393 11.2809 52.5207 11.328 52.8544 11.4692C53.2357 11.6104 53.5218 11.7987 53.8078 12.0341L53.9031 11.2809L55.9053 11.1396L55.7623 12.3637L55.0472 12.4108L54.6659 16.177ZM52.902 15.9887C53.1881 15.7062 53.3311 15.4237 53.4264 15.0942C53.4741 14.9059 53.5218 14.7176 53.5218 14.5293C53.5218 14.3409 53.5218 14.1997 53.5218 14.1056C53.5218 14.0585 53.5218 14.0585 53.5218 14.0114C53.5218 13.9643 53.5218 13.9643 53.5218 13.9643C53.5218 13.9172 53.5218 13.8702 53.4741 13.8231C53.4741 13.776 53.4741 13.7289 53.4264 13.6819C53.3311 13.3994 53.1881 13.1169 52.9497 12.8815C52.7114 12.6461 52.33 12.552 51.8533 12.552C51.2335 12.5991 50.7568 12.8345 50.4231 13.2582C50.0894 13.6819 49.8988 14.1997 49.9464 14.7646C49.9941 15.2825 50.1371 15.7062 50.3755 16.0358C50.6138 16.3653 51.0429 16.5065 51.6626 16.4595C52.187 16.4124 52.616 16.2711 52.902 15.9887Z" fill="black"/>
<path d="M56.7158 17.2597L56.8588 16.0357L57.5739 15.9886L58.3843 8.64448L57.3355 8.69155L57.4786 7.46753L60.0051 7.32629L59.0517 15.8945L59.8621 15.8474L59.7191 17.0714L56.7158 17.2597Z" fill="black"/>
<path d="M61.2446 16.9773L61.3876 15.7532L62.1027 15.7062L62.9131 8.36201L61.8644 8.40908L62.0074 7.18506L64.5339 7.04382L63.5805 15.612L64.3909 15.5649L64.2479 16.789L61.2446 16.9773Z" fill="black"/>
<path d="M65.7734 19.4723L65.9164 18.2483L66.7745 18.2012L67.8709 16.0827L66.4408 11.6574L65.6304 11.7045L65.7734 10.4805L68.872 10.2922L68.729 11.5162L67.9186 11.5633L68.8243 14.3409L70.3498 11.422L69.5394 11.4691L69.6824 10.2451L72.7811 10.0568L72.638 11.2808L71.923 11.3279L68.3476 18.1542L69.3487 18.1071L69.2057 19.3311L65.7734 19.4723Z" fill="black"/>
<path d="M71.8277 16.0357C71.5893 15.8474 71.4463 15.565 71.4463 15.2354C71.4463 14.9059 71.5416 14.6234 71.7323 14.3409C71.9707 14.1055 72.209 13.9643 72.5427 13.9172C72.8764 13.9172 73.1625 14.0114 73.4008 14.1997C73.6392 14.4351 73.7822 14.7176 73.8299 15.0471C73.8299 15.3767 73.7345 15.6591 73.5438 15.8945C73.3055 16.1299 73.0671 16.2711 72.7334 16.2711C72.352 16.3653 72.066 16.2711 71.8277 16.0357Z" fill="black"/>
<path d="M78.4539 15.8474L78.5969 14.5763L79.1213 14.5292L79.9317 7.32632L79.0259 7.37339L79.1689 6.10229L85.8906 5.67859L85.6045 8.26787L84.0314 8.36203L84.1744 7.04385L81.6478 7.18508L81.3618 9.68021L83.5547 9.53898L83.4117 11.0455L81.2188 11.1867L80.8374 14.388L83.5547 14.1997L83.7454 12.6461L85.3185 12.552L84.9848 15.3766L78.4539 15.8474Z" fill="black"/>
<path d="M86.987 9.06823L89.3705 8.92699L89.2752 9.68024C89.4659 9.53901 89.6089 9.39777 89.7996 9.30362C89.9903 9.16238 90.1333 9.06823 90.324 9.02115C90.5146 8.92699 90.7053 8.87992 90.9437 8.83284C91.1344 8.78576 91.3727 8.73868 91.6111 8.73868C92.0878 8.6916 92.4692 8.78576 92.7075 8.97407C92.9459 9.16238 93.1366 9.35069 93.2319 9.58608C93.2319 9.63316 93.2796 9.72732 93.2796 9.7744C93.2796 9.82147 93.2796 9.91563 93.3272 9.96271C93.3272 10.0569 93.3272 10.1981 93.3272 10.2923C93.3272 10.3864 93.3272 10.5276 93.2796 10.6218C93.2796 10.6689 93.2796 10.6689 93.2796 10.716C93.2796 10.716 93.2796 10.763 93.2796 10.8101L92.9459 13.8231L93.804 13.776L93.6609 15L90.5623 15.0942L90.7053 13.8702L91.4681 13.8231L91.7064 11.2809C91.7064 11.2338 91.7064 11.2338 91.7064 11.1867C91.7064 11.1397 91.7064 11.1397 91.7064 11.0926C91.7064 11.0455 91.7064 10.9513 91.7541 10.9043C91.7541 10.8572 91.7541 10.8101 91.7541 10.763C91.7541 10.4806 91.6587 10.2923 91.4681 10.151C91.325 10.0098 91.0867 9.96271 90.8483 10.0098C90.753 10.0098 90.6577 10.0569 90.5623 10.0569C90.467 10.1039 90.3716 10.151 90.2763 10.1981C90.1333 10.2923 90.0379 10.3393 89.8949 10.4335C89.7519 10.5276 89.6566 10.6218 89.5612 10.716C89.5135 10.763 89.4182 10.8101 89.3705 10.8572C89.3229 10.9043 89.2752 10.9513 89.1798 10.9984L88.8461 13.9643L89.6566 13.9173L89.5135 15.1413L86.5103 15.3296L86.6533 14.1056L87.3683 14.0585L87.7497 10.2452L86.7963 10.2923L86.987 9.06823Z" fill="black"/>
<path d="M95.3295 8.5503L97.713 8.40907L97.0933 15C97.0933 15.0471 97.0933 15.0941 97.0933 15.1412C97.0933 15.1883 97.0933 15.2354 97.0933 15.3295C96.998 15.8474 96.855 16.3652 96.5689 16.836C96.2829 17.3068 95.7585 17.5422 94.9958 17.5893C94.9004 17.5893 94.8528 17.5893 94.7574 17.5893C94.6621 17.5893 94.6144 17.5893 94.5667 17.5893C94.5191 17.5893 94.4714 17.5893 94.4237 17.5893C94.376 17.5893 94.3284 17.5893 94.3284 17.5893L94.376 16.3182C94.4237 16.3182 94.5191 16.3182 94.5667 16.3182C94.6144 16.3182 94.7097 16.3182 94.7574 16.3182C94.9958 16.3182 95.1865 16.1769 95.3295 15.9886C95.4725 15.8003 95.5678 15.4237 95.6155 15L96.1399 9.72725L95.2341 9.77433L95.3295 8.5503ZM97.856 5.63147L97.713 7.2792L95.7585 7.42043L95.9015 5.7727L97.856 5.63147Z" fill="black"/>
<path d="M98.7142 11.6575C98.6665 10.6688 98.9048 9.82142 99.5246 9.11525C100.144 8.40908 100.955 8.03245 102.051 7.98538C102.957 7.9383 103.72 8.17369 104.339 8.69155C104.959 9.2094 105.293 9.91557 105.34 10.8101C105.388 11.7516 105.15 12.599 104.578 13.3052C104.006 14.0114 103.148 14.388 101.956 14.4821C101.05 14.5292 100.287 14.2938 99.7152 13.776C99.0955 13.2581 98.7618 12.5519 98.7142 11.6575ZM103.291 12.5519C103.624 12.1753 103.815 11.5633 103.72 10.763C103.672 10.2451 103.481 9.86849 103.148 9.58603C102.814 9.35064 102.385 9.2094 101.908 9.25648C101.336 9.30356 100.955 9.53895 100.669 9.96265C100.383 10.3864 100.24 10.8571 100.24 11.375C100.24 11.4221 100.24 11.4691 100.24 11.5162C100.24 11.5633 100.24 11.6104 100.24 11.6575C100.24 12.1282 100.43 12.5519 100.764 12.7873C101.098 13.0698 101.479 13.1639 102.003 13.1639C102.48 13.1639 102.909 12.9756 103.291 12.5519Z" fill="black"/>
<path d="M106.246 16.836L106.389 15.612L107.247 15.5649L108.344 13.4464L106.914 9.02106L106.103 9.06814L106.246 7.84411L109.345 7.6558L109.202 8.87983L108.391 8.9269L109.297 11.7045L110.823 8.78567L110.012 8.83275L110.155 7.60872L113.254 7.42041L113.111 8.64444L112.396 8.69151L108.821 15.5178L109.822 15.4707L109.679 16.6948L106.246 16.836Z" fill="black"/>
<path d="M124.599 6.33769C124.599 6.33769 124.599 6.29061 124.599 6.24354C124.599 6.19646 124.599 6.19646 124.552 6.14938C124.456 5.72568 124.17 5.39613 123.741 5.06659C123.312 4.73704 122.788 4.59581 122.168 4.64289C121.263 4.68996 120.5 5.06659 119.832 5.77276C119.213 6.47892 118.927 7.51464 119.022 9.02113C119.07 9.77438 119.356 10.3864 119.88 10.9513C120.404 11.5163 121.024 11.7517 121.835 11.7046C122.407 11.6575 122.931 11.5163 123.408 11.2338C123.884 10.9513 124.266 10.5747 124.599 10.1039L126.077 10.6218C125.601 11.4692 124.981 12.1283 124.361 12.552C123.694 12.9757 122.883 13.2111 121.882 13.2581C120.452 13.3523 119.403 12.9286 118.641 11.987C117.878 11.0455 117.449 9.96269 117.353 8.73867C117.258 7.27925 117.639 6.00815 118.45 5.01951C119.26 4.03087 120.214 3.41886 121.263 3.18347C121.358 3.13639 121.453 3.13639 121.549 3.13639C121.644 3.13639 121.739 3.13639 121.835 3.08931C122.407 3.04224 122.931 3.08931 123.36 3.18347C123.789 3.27763 124.123 3.41886 124.409 3.56009C124.456 3.56009 124.504 3.60717 124.552 3.65425C124.599 3.70133 124.647 3.70133 124.695 3.74841L124.79 3.13639L126.268 3.04224L125.982 6.24354L124.599 6.33769Z" fill="black"/>
<path d="M133.181 11.0925L133.991 11.0454L133.848 12.2695L131.75 12.4107L131.798 11.8458C131.512 12.0812 131.178 12.2695 130.845 12.4107C130.511 12.5519 130.177 12.6461 129.796 12.6461C128.89 12.6932 128.175 12.4578 127.698 11.8928C127.222 11.3279 126.936 10.6217 126.888 9.82141C126.84 8.87985 127.126 8.07953 127.746 7.37336C128.413 6.66719 129.176 6.29057 130.13 6.19641H130.177C130.177 6.19641 130.225 6.19641 130.273 6.19641C130.654 6.19641 131.035 6.24349 131.369 6.38472C131.75 6.52595 132.036 6.71427 132.322 6.94966L132.418 6.19641L134.42 6.05518L134.277 7.2792L133.562 7.32628L133.181 11.0925ZM131.417 10.9042C131.703 10.6217 131.846 10.3393 131.989 10.0097C132.036 9.82141 132.084 9.6331 132.084 9.44479C132.084 9.25647 132.084 9.11524 132.084 9.02109C132.084 8.97401 132.084 8.97401 132.084 8.92693C132.084 8.87985 132.084 8.87985 132.084 8.87985C132.084 8.83277 132.084 8.7857 132.036 8.73862C132.036 8.69154 132.036 8.64446 131.989 8.59738C131.893 8.31492 131.75 8.03245 131.512 7.79706C131.274 7.56167 130.892 7.46751 130.416 7.46751C129.796 7.51459 129.319 7.74998 128.985 8.17368C128.652 8.59738 128.461 9.11524 128.509 9.68018C128.556 10.198 128.699 10.6217 128.938 10.9513C129.224 11.2808 129.605 11.4221 130.225 11.375C130.702 11.3279 131.131 11.1867 131.417 10.9042Z" fill="black"/>
<path d="M136.374 11.7045V12.1282L135.135 12.2224L135.23 10.1039L136.47 10.0097C136.517 10.198 136.613 10.3393 136.708 10.5276C136.803 10.6688 136.947 10.81 137.09 10.9042C137.233 10.9984 137.376 11.0925 137.566 11.1396C137.757 11.1867 137.9 11.1867 138.091 11.1867H138.138H138.186C138.377 11.1396 138.52 11.0925 138.663 10.9513C138.806 10.8571 138.901 10.6688 138.853 10.4334C138.853 10.2451 138.758 10.0568 138.52 9.96264C138.329 9.86848 138.091 9.77433 137.805 9.68017C137.709 9.6331 137.614 9.63309 137.519 9.58602C137.423 9.53894 137.328 9.53894 137.233 9.49186C136.851 9.35063 136.47 9.16232 136.136 8.92693C135.802 8.69154 135.612 8.31491 135.564 7.74998C135.516 7.18504 135.707 6.71426 136.136 6.38472C136.565 6.00809 136.994 5.81978 137.519 5.81978C137.805 5.81978 138.043 5.81978 138.329 5.91394C138.567 6.00809 138.853 6.10225 139.044 6.29056V5.86686L140.283 5.77271L140.188 7.65582L138.949 7.74998C138.901 7.60874 138.853 7.46751 138.758 7.37335C138.663 7.2792 138.567 7.13796 138.424 7.09089C138.281 6.99673 138.186 6.94965 137.995 6.90258C137.852 6.8555 137.709 6.8555 137.566 6.8555C137.376 6.8555 137.185 6.94965 137.042 7.04381C136.899 7.13796 136.804 7.32628 136.851 7.56167C136.851 7.7029 136.947 7.84413 137.09 7.93829C137.233 8.03245 137.423 8.1266 137.662 8.17368C137.805 8.22076 137.9 8.26784 138.043 8.31491C138.186 8.36199 138.329 8.40907 138.472 8.45615C138.853 8.59738 139.235 8.78569 139.568 9.06816C139.902 9.35063 140.093 9.72725 140.14 10.2922C140.188 10.9042 139.997 11.4221 139.616 11.7516C139.235 12.0811 138.71 12.2695 138.138 12.3165C138.091 12.3165 138.043 12.3165 137.995 12.3165C137.948 12.3165 137.9 12.3165 137.852 12.3165C137.566 12.3165 137.328 12.2695 137.09 12.2224C136.851 11.987 136.613 11.8928 136.374 11.7045Z" fill="black"/>
<path d="M144.002 5.39615L143.62 9.06823C143.62 9.11531 143.62 9.16239 143.62 9.20947C143.62 9.25654 143.62 9.30362 143.62 9.30362C143.62 9.3507 143.62 9.39778 143.62 9.44486C143.62 9.49193 143.62 9.53901 143.62 9.53901C143.62 9.58609 143.62 9.68025 143.62 9.72732C143.62 9.7744 143.62 9.86856 143.62 9.91564C143.62 10.1039 143.716 10.2452 143.859 10.3393C144.002 10.4335 144.192 10.4806 144.431 10.4335C144.717 10.4335 144.955 10.3393 145.194 10.1981C145.432 10.0569 145.623 9.91564 145.766 9.72732C145.861 9.58609 145.956 9.49193 146.052 9.3507C146.099 9.25654 146.147 9.16239 146.147 9.11531L146.433 6.38479L145.384 6.43187L145.527 5.20784L148.149 5.01953L147.577 10.0569L148.531 10.0098L148.244 11.328L145.766 11.4692L145.861 10.763H145.813C145.527 11.0455 145.194 11.2809 144.86 11.4221C144.478 11.5634 144.097 11.7046 143.668 11.7046C143.096 11.7517 142.715 11.6575 142.476 11.4692C142.238 11.2809 142.095 11.0455 142.095 10.716C142.095 10.6218 142.095 10.4806 142.095 10.3393C142.095 10.1981 142.095 10.0569 142.095 9.91564L142.429 6.5731L141.427 6.62018L141.57 5.39615H144.002Z" fill="black"/>
<path d="M155.776 9.63316L156.587 9.58608L156.444 10.8101L154.346 10.9513L154.394 10.3864C154.108 10.6218 153.774 10.8101 153.441 10.9513C153.107 11.0926 152.773 11.1867 152.392 11.1867C151.486 11.2338 150.771 10.9984 150.294 10.4335C149.818 9.86855 149.532 9.16238 149.484 8.36206C149.436 7.4205 149.722 6.62018 150.342 5.91401C151.009 5.20784 151.772 4.83121 152.726 4.73706H152.773C152.773 4.73706 152.821 4.73706 152.869 4.73706C153.25 4.73706 153.631 4.78414 153.965 4.92537C154.346 5.0666 154.632 5.25492 154.918 5.49031L155.014 4.73706L157.016 4.59583L156.873 5.81985L156.158 5.86693L155.776 9.63316ZM154.013 9.44485C154.299 9.16238 154.442 8.87992 154.537 8.55037C154.585 8.36206 154.632 8.17375 154.632 7.98544C154.632 7.79712 154.632 7.65589 154.632 7.56173C154.632 7.51466 154.632 7.51466 154.632 7.46758C154.632 7.4205 154.632 7.4205 154.632 7.4205C154.632 7.37342 154.632 7.32634 154.585 7.27927C154.585 7.23219 154.585 7.18511 154.537 7.13803C154.442 6.85557 154.299 6.5731 154.06 6.33771C153.822 6.10232 153.441 6.00816 152.964 6.00816C152.344 6.05524 151.867 6.29063 151.534 6.71433C151.2 7.13803 151.009 7.65589 151.057 8.22083C151.105 8.73868 151.248 9.16238 151.486 9.49193C151.772 9.82148 152.153 9.96271 152.773 9.91563C153.298 9.86855 153.727 9.72732 154.013 9.44485Z" fill="black"/>
<path d="M157.826 10.7159L157.969 9.49189L158.684 9.44481L159.543 2.10065L158.494 2.14773L158.637 0.923704L161.163 0.782471L160.21 9.35065L161.02 9.30358L160.877 10.5276L157.826 10.7159Z" fill="black"/>
<path d="M162.355 10.4334L162.498 9.20942L163.213 9.16234L163.976 1.81818L162.927 1.86526L163.07 0.641234L165.597 0.5L164.643 9.06818L165.454 9.0211L165.311 10.2451L162.355 10.4334Z" fill="black"/>
<path d="M166.884 12.9285L167.027 11.7045L167.885 11.6574L168.982 9.53891L167.551 5.11359L166.741 5.16067L166.884 3.93664L169.983 3.74833L169.84 4.97236L169.029 5.01943L169.935 7.79703L171.46 4.8782L170.65 4.92528L170.793 3.70125L173.892 3.51294L173.749 4.73697H172.986L169.411 11.5633L170.412 11.5162L170.269 12.7402L166.884 12.9285Z" fill="black"/>
<path d="M172.938 9.49192C172.7 9.30361 172.557 9.02114 172.557 8.69159C172.557 8.36205 172.652 8.07958 172.843 7.79711C173.081 7.56172 173.32 7.42049 173.653 7.37341C173.987 7.37341 174.273 7.46757 174.511 7.65588C174.75 7.89127 174.893 8.17374 174.94 8.50328C174.94 8.83283 174.845 9.1153 174.654 9.35069C174.416 9.58608 174.178 9.72731 173.844 9.72731C173.463 9.82147 173.177 9.72731 172.938 9.49192Z" fill="black"/>
</g>
<defs>
<clipPath id="clip0_901_116">
<rect width="174" height="29" fill="white" transform="translate(0.94043 0.5)"/>
</clipPath>
</defs>
</svg>
