<svg width="32px" height="32px" viewBox="0 0 32 32" version="1.1" xmlns="http://www.w3.org/2000/svg" xmlns:xlink="http://www.w3.org/1999/xlink">
    <defs>
        <polygon id="path-1" points="0 0 32 0 32 32 0 32"></polygon>
    </defs>
    <g id="Symbols" stroke="none" stroke-width="1" fill="none" fill-rule="evenodd">
        <g id="apple-icon">
            <g>
                <mask id="mask-2" fill="white">
                    <use xlink:href="#path-1"></use>
                </mask>
                <g id="Clip-2"></g>
                <path d="M22.9420491,24.7329447 C20.3356851,27.8641206 18.8009407,25.4102513 16.7593318,25.4102513 C14.717723,25.4102513 13.1829786,27.8641206 10.5766146,24.7329447 C7.95224025,21.5798995 6.6008161,18.3586734 7.18808418,14.5907136 C7.78178456,10.7828744 10.1565861,9.52731658 12.0676194,9.11823116 C13.9792961,8.70914573 15.9051237,10.0489648 16.7593318,10.0489648 C17.61354,10.0489648 19.5393676,8.70914573 21.450401,9.11823116 C22.6480934,9.37423116 24.0271764,9.96277387 25.037046,11.3032362 C23.5801323,12.1883015 22.6069268,13.7892663 22.6069268,15.6179296 C22.6069268,17.711598 23.8824499,19.5074573 25.6982854,20.2703116 C25.0949366,21.8037387 24.1545358,23.2754171 22.9420491,24.7329447 Z M17.574303,5.19847236 C18.5217793,4.10050251 19.7812217,3.49394975 20.9358178,3.46307538 C21.074112,4.60864322 20.6592293,5.9439598 19.711753,7.04257286 C18.7642767,8.14054271 17.504191,8.74709548 16.3508814,8.77796985 C16.211944,7.63240201 16.6268267,6.29708543 17.574303,5.19847236 Z M0,32 L32,32 L32,0 L0,0 L0,32 Z" id="Fill-1" fill="#FFFFFE" mask="url(#mask-2)"></path>
            </g>
        </g>
    </g>
</svg>