<svg width="32px" height="32px" viewBox="0 0 32 32" version="1.1" xmlns="http://www.w3.org/2000/svg" xmlns:xlink="http://www.w3.org/1999/xlink">
    <defs>
        <polygon id="path-1" points="0 0 31.9996 0 31.9996 31.9998 0 31.9998"></polygon>
    </defs>
    <g id="Symbols" stroke="none" stroke-width="1" fill="none" fill-rule="evenodd">
        <g id="instagram_icon">
            <g id="Page-1">
                <g id="Group-3">
                    <mask id="mask-2" fill="white">
                        <use xlink:href="#path-1"></use>
                    </mask>
                    <g id="Clip-2"></g>
                    <path d="M28.3406,24.9358 C28.3406,26.8128 26.8156,28.3408 24.9366,28.3408 L7.0636,28.3408 C5.1856,28.3408 3.6596,26.8128 3.6596,24.9358 L3.6596,7.0648 C3.6596,5.1868 5.1856,3.6598 7.0636,3.6598 L24.9366,3.6598 C26.8156,3.6598 28.3406,5.1868 28.3406,7.0648 L28.3406,24.9358 Z M-0.0004,31.9998 L31.9996,31.9998 L31.9996,-0.0002 L-0.0004,-0.0002 L-0.0004,31.9998 Z" id="Fill-1" fill="#FEFEFE" mask="url(#mask-2)"></path>
                </g>
                <path d="M15.9998,20.5149 C18.4888,20.5149 20.5138,18.4899 20.5138,16.0009 C20.5138,13.5099 18.4888,11.4849 15.9998,11.4849 C13.5118,11.4849 11.4848,13.5099 11.4848,16.0009 C11.4848,18.4899 13.5118,20.5149 15.9998,20.5149" id="Fill-4" fill="#FEFEFE"></path>
                <path d="M22.1511,16.0012 C22.1511,19.3932 19.3911,22.1492 16.0001,22.1492 C12.6091,22.1492 9.8491,19.3932 9.8491,16.0012 C9.8491,14.2562 10.5871,12.6882 11.7561,11.5682 L5.8411,11.5682 L5.8411,24.9362 C5.8411,25.6102 6.3891,26.1602 7.0631,26.1602 L24.9371,26.1602 C25.6101,26.1602 26.1591,25.6102 26.1591,24.9362 L26.1591,11.5682 L20.2441,11.5682 C21.4131,12.6882 22.1511,14.2562 22.1511,16.0012" id="Fill-6" fill="#FEFEFE"></path>
                <path d="M23.282,10.2048 C24.099,10.2048 24.766,9.5388 24.766,8.7188 C24.766,7.8988 24.099,7.2338 23.282,7.2338 C22.461,7.2338 21.797,7.8988 21.797,8.7188 C21.797,9.5388 22.461,10.2048 23.282,10.2048" id="Fill-8" fill="#FEFEFE"></path>
            </g>
        </g>
    </g>
</svg>