<svg xmlns="http://www.w3.org/2000/svg" viewBox="0 0 717.5 312.96"><defs><style>.cls-1{fill:#b51e3a;}</style></defs><title>Mr Mikes Logo</title><g id="Layer_2" data-name="Layer 2"><g id="Layer_1-2" data-name="Layer 1"><path d="M188,91l.75,2.26v16.17c0,.5-.38.75-1.13.75l-6.39.37-3-.37-1.13.37-2.25-.37-9.78.37v-.37l-.38.37h-2.64l-4.13.38-.45-1.41-.36.1-5.42-.2a2.68,2.68,0,0,0-.55,1.51l-7.15.38v-.38l-.37.38h-4.52l-1.88.38v-.38l-.38.38H132l-6-.38-.37.38h-.38l-.38-.38-1.88.38h-.38l-1.13-1.14c-1.76.32-2.64.69-2.64,1.14q-5.64-.39-5.64-1.5v-.38q1.51,0,2.26-5.26l-.38-2.26.38-.38-.75-6v-.37l.37-2.26,1.88.37,2.63-.74.37.38h.38l1.13-.38.38.38h.37l1.5-.38,1.51-.75q4.14-1.9,6-9.4a6.54,6.54,0,0,1,1.5-3.76c-1.26,0-1.88-1-1.88-3l.38-3h-.75c0-1.27.37-1.88,1.13-1.88v-.76h-.76V68.07l-.37-1.5.37-1.51-.37-.38.37-1.88-.37-3.38h.37l-.37-.38V48.89l-.38-4.14.38-.38-.38-3.76V35.35h-.75l-15.42,29.7h6v.38Q114,77.37,111.68,79.34l.75,1.14q-2.82,4.13-4.14,4.13l.38,1.88L106,91.38l-2.63,5.26-6.39,12-7.15.76c0-.5-2.26-1.38-6.76-2.63a14,14,0,0,0-4.51-5.65q0-1.4-8.65-13.15L55.66,67.31v-.74l6.77-.38q-5.54-7.44-16.17-24.07H45.5v6.39l-.38,4.14.38,2.63-.38.38.38,1.88.38,23.7a12.14,12.14,0,0,0,5.27,10.14q4.42,1.88,12.79,1.89l.75,2.26V106l.38,1.51q-.75,3-7.14,3H55.66l-.75-.74.38-.38v-.38H54.9l-6,2.63-1.13-.38-.75.75-3.38-.38-1.5.38-1.51-.38-1.5.38v-.38l-1.13.38q-7.15-1-7.14-1.88v-1.13h-.75v1.13l.38.37v.38l-4.14.76c0-.31-.33-.63-.91-.95l-7.75.95c-.4,1.49-.9,2.26-1.49,2.26H2.63l-1.12-1.14.37-1.5-.37-1.5h.37l-.37-.38v-6.77l-.38-1.89h.75v.75h.75c0-1.76-.38-2.63-1.12-2.63V95.52c0-.5.37-.75,1.12-.75l1.13.38,2.63-.38.37.38h.38l2.26-.76.38.38h.38l.16,0,3.07-2.16,3.91-.81h.37l1.88-.38V90.26l1.13-.38h.37q3.39-2.82,3.39-10.54h.38l-.38-1.88V70.7l-.38-1.5.38-.38-.38-4.51v-3l.38-.38-.38-.38V43.24c0-9-1.13-14.61-3.38-16.92q-4.61-4.14-15.42-4.14H3l-.38-.38-.38.38H1.51q-1.51,0-1.51-9V3.76L1.13,2.63,1.51,3l1.87-.38h.38L6,3l.38-.38L8.27,3h5.27l1.87-.38V3l.38-.38H45.5l2.63-.38v.38l.38-.38H59q3.47,0,5.64,4.89,4,4.7,4.89,7.9Q73.52,19,89.5,44.75q0,1.31,1.88,1.88a21.75,21.75,0,0,0,4.51,6.76q2-2.35,7.52-14.28l3-4.89h.37l-.37-.38v-.38l1.5-2.63-.37-1.51q6.85-7.51,7.89-13.53a40.45,40.45,0,0,0,2.63-4.92l.61.08.16-.9c.92-2.85,4.29-8.41,4.29-8.41s6.16-.14,9.91-.32l.83.17h.75l1.51-.38.37.38h.38l.38-.38h.38l2.26.38,2.25-.38.38.38,1.88-.38h1.13L157.94.76l3.38.38,6.4-.76.37.38h.38l.38-.38h.75V.76L180.12,0l1.51.38,3-.38c1.63.69,2.51,1.32,2.63,1.88l-.75.75.75.76v1.5l-.37.38.37.38V6l-.75.75.38,1.88-.38,1.12a21.44,21.44,0,0,1,.75,6.77q0,2.83-4.89,3H182l-1.88.38c-4.2.49-3.11,1.47-4.93,2.73a32,32,0,0,0-4.07,3.63s-.58,1.61-1.27,3.19l-.67,4.08v1.5l-.38.38.38.38v.75l-.38,4.89.38,2.26-.76,3.76.38,1.87h-.38l.64,3.66a65.74,65.74,0,0,0,.48,7.25v.38l-.37,1.88.37,2.63-.37,1.12.75.76-.38,1.12.38.38v.38l-.38.38.38,2.63-.38,1.87c0,5.71.69,11,2.94,15l-.51.51,2.71.61h1.56c7,1.13,7.26,1.54,8,2.17l.75-.76h.38l.75.76a5.08,5.08,0,0,0-1.07.32l1.46.21v-.53l1.5-1.5h.38Zm158.48-5.27h-.38l.38.38v.38l-.38,9-.37.38h-.38l.38.38v.38a2.33,2.33,0,0,1-2.63,2.63V100h-.38l.38,1.89v.38q-7.9,10.52-22.94,10.53c-7.71,0-13.6-1.27-17.67-3.76q-8.65-3.86-8.65-7.15-2.07,0-3.76-16.18h.38l-.38-.37V85l.38-1.89-.75-1.5.38-1.5L289.73,79v-.74l-.38-1.89V74.08l.38-2.63h-.38c-.5-.38-.75-1.76-.75-4.13a14.77,14.77,0,0,0-12-6h-2.63l-1.5-.38-.38.38h-.38l-1.88-.38-1.5.38h-.75v-.38l-5.64.38H248.36l-.19-.16V82.37l.48.37,1.88-.75v.38q0,4.51,7.89,7.9a54,54,0,0,0,12.79,1.13H272c.44,0,.81.88,1.13,2.63l-.38.38.38,1.88v13.91l-.75.76-3.93.07v.25l-.75.75a7.91,7.91,0,0,1-.62-1l-16.43.28c-.19-.94-21.07-1-21.41-.36h-5.35l-1.51.38-.38-.38-4.51.38H205l-4.72.15-2.44.45-5.75-.12h-1l-.19-1.5.94.09c0-.06,0-.09,0-.14l0-.11h0c-.16-.69-.46-1.16.29-1.71l-1.66-1.77.85,0-.65-1.12-.28,0,.83-.26L190,104.15c.64-.52,2.64.64,2.28-1l-.39-.3.65,0,.1-.89L191.87,97l.38-1.13-.38-.38v-.38c0-2.26.94-7.36,3.45-7.36,9.34,0,12.95-1.64,15.39-5.9l2.19-2h-3.76v-.38c1.75-2.87,1.54-6.5,1.54-9.64V67.56l-.37-8.27h.37l-.37-.38V57.79c.06-1.25.31-1.88.75-1.88l-.75-2.26V51l.37-.38-.37-.38V40.49c0-8.46,1.26-11.65-3.75-13.72l-12.41-1.88v-.38h-.75v.76h-2.26v0c-.16.13-.27.27-.45.4h-.38l-1.5-1.13c0-1.19.11-4,1.11-4.58a1.91,1.91,0,0,1,.1-.41V9.59a2.12,2.12,0,0,1-.85.19l-.38-.38V9l.75-1.12-.75-1.13.38-.38V6l.85.42V5.27l.38-.38V4.52l30.46-.76L222,3.39l3,.75h1.88l2.26-.75h17.38v.75h1.13V3.39H248l.38.37Q250.61,3,258.14,3h2.63l5.27.38,9.78-.75.38.38h.37l1.51-.38h1.5L280.7,3l1.88-.38h2.26l1.5.38L289,2.64h5.64q5.92,0,7.9.75l.37-.38a46.64,46.64,0,0,1,13.68,4.41,4.33,4.33,0,0,0,.75-1.8c.79-.38,1.64.58,1.63,1.37,2.27,1.07,4.67,3.24,7.32,2.87A13.41,13.41,0,0,1,327,17.8c.77.8,2.06,1.26,2.55,2.5,1.91-.52,1.77,2.47,2.24,4.5,2.26-.39,4.47,3.44,4.09,4.5a52.84,52.84,0,0,1-.7,5.7,5.31,5.31,0,0,1-.55,1.92c1.64,1-3,5.55-4.24,7.1.06,1.34-.18.86-2.4,1.53-2.49.3-5.6,3.84-6.95,2.43-1.33,3.37-5.81,2.18-6.31,1.61a51,51,0,0,1-11.5,3.06V53l2.25.75,1.88-.38q8.17,1.78,12,5.63a13.49,13.49,0,0,1,4.51,7.15l1.5,10.9.38.38v8.64q0,8.29,2.63,8.28l2.63.38c2.26-.83,3.38-2.2,3.38-4.14V85.37l-.38.37h-.75V85l1.5-.75-.38-1.88V78.59c0-.56,1.51-.93,4.51-1.12a17.41,17.41,0,0,0,6.77,2.63l.75,1.88-.38,2.63ZM292,34.08c-.33-5.14-5-9-5-9h-1.79l-4.07-2.28s-1.22-.27-2.31-.43-11,.47-13.6.47a13.47,13.47,0,0,0-5.91.93c-2.8.93-7.61-.24-7.61-.24l-.31-.69-1.25.15a16.73,16.73,0,0,0-2.85,1.32c-.91.61.13,3.34.29,4.67s-.7,3.34-.47,4a36.84,36.84,0,0,1,.18,4.83l-.33.61v2.1l.39.38a24.32,24.32,0,0,0,.62,2.49c.39,1.24,2.18,1,2.18,1l2.79-1,.71.18,9.72-.16s.47.16,1.56-.47,1.09,2.41,3.11.85,5-.7,5.59-.78,9-1.23,9-1.23h1.94v.47l3.19-.78-.62,0-.08-.51h1.87l.48.51h.75L289,38.21S292.1,35.34,292,34.08Z"/><path d="M48.23,295.56C48.23,306,40.7,313,30.44,313a21.2,21.2,0,0,1-14-4.74v3.5H8.3V292.52h7.85c.93,7.38,5.9,12.66,13.52,12.66A8.39,8.39,0,0,0,38.13,297c0-7.61-5.9-7.53-15.23-10.33-2.33-.69-15.07-2.25-15.07-16.78,0-5.21,4.35-15.46,17.48-15.46a16.91,16.91,0,0,1,11.5,4.74v-3.5H45V272.4H37.2a14.08,14.08,0,0,0-3.81-7.3,10.68,10.68,0,0,0-7.62-3c-4.58,0-7.84,2.8-7.84,7.61,0,5.36,7.61,6.37,15.23,8.63S48.23,283.43,48.23,295.56Zm205.27-10c0-8.08-7.77-10.49-11.11-10.49a16.82,16.82,0,0,0-7,1.48,22,22,0,0,0-5.82,4V255.62H215.43V263h5.21v41.33h-5.21v7.38h19.81v-7.38h-5.67V287.55c2.33-2.72,5.67-5.05,9.4-5.05,3.26,0,5.59,2.1,5.59,5.28v16.55h-5.12v7.38h19.27v-7.38H253.5Zm-135.31,10.8H89.14c.54,6.06,5.36,8.7,10.88,8.7a9.66,9.66,0,0,0,8.23-3.89h8.94c-.7,3.57-5.59,11.34-17.95,11.34-11,0-19.34-7.45-19.34-18.72S88.21,275,99.24,275C111.59,275,118.19,284.06,118.19,296.33Zm-8.93-6c0-4-4.58-7.46-10-7.85a10.09,10.09,0,0,0-10.1,7.85Zm83.07-7.15h3.57l-10.18,9V255.62H172.52V263h4.27v41.33h-4.43v7.38h17.17v-7.38h-3.81V294l9.87,10.33h-3.11v7.38h17.64v-7.38H206.7L195.9,293v-.15l10.88-9.64h3.34v-7.38H192.33ZM68.81,263.39H59.88v12.42H54.59v7.38h5.28v20.59c0,6.22,1.63,8.7,8.31,8.7a57.22,57.22,0,0,0,6.37-.77v-7l-2.25.16c-2.25.16-3.5-.16-3.5-2.8V283.2h6.29v-7.38H68.81Zm85.12,12.42h13v7.38h-5.67v21.14h5.67v7.38h-13v-5.21h-.15a15.12,15.12,0,0,1-11.81,6c-9.48,0-17.79-7.45-17.79-18.72S132.49,275,142,275a14.8,14.8,0,0,1,11.73,6.14h.23Zm-.78,17.72c0-5.75-2.87-11-9.79-11s-10.25,5.28-10.25,11c0,6.06,3.42,11.5,10.25,11.5S153.16,299.59,153.16,293.53Zm211-8c0-3.34,3.26-4,5.83-4a8.75,8.75,0,0,1,5,1.4,6.54,6.54,0,0,1,2.72,4.42h7.54V275.82h-7.15v1.95A14.23,14.23,0,0,0,369.5,275c-7.38,0-13.44,3.73-13.44,11.73,0,15.07,23.54,7.92,23.54,15.62,0,3.26-4,3.57-6.53,3.57a9.57,9.57,0,0,1-5.67-1.63,10.13,10.13,0,0,1-3.34-4.82h-7.69v12.2h7.77v-2.33c2.41,2.33,6.6,3.1,9.87,3.1,7.38,0,13.75-3,13.67-11.34C387.52,285.15,364.14,292.21,364.14,285.53Zm257.12-9.72H608.44V281h6.14v19.89c-3.58,3.34-7.07,6-12.2,6-2.95,0-5.9-1.71-5.9-5.75V275.82H584.59V281h5.2v19.73c-.24,8,3.73,11.73,11.41,11.73a17,17,0,0,0,13.21-6.37h.15v5.6H627v-5.21h-5.74Zm41.53,0h12V281h-6.06v25.48h6.06v5.21h-12v-5.44h-.24a15.64,15.64,0,0,1-12.2,6.21c-11.11,0-17.79-8.31-17.79-18.8S639.25,275,650.36,275a15.88,15.88,0,0,1,12.2,6.21h.24Zm-.16,17.87c0-8.54-5.83-13.36-11.66-13.36-8.16,0-11.73,6.68-11.73,13.36,0,6.92,3.57,13.51,11.73,13.51C656.8,307.2,662.63,302.23,662.63,293.69Zm-109.37-8.46c0-4,3.73-4.9,8.31-4.9a10.22,10.22,0,0,1,5.67,1.71,8.53,8.53,0,0,1,3.57,4.74h5.51v-11h-5.2v3.34A17,17,0,0,0,560.25,275c-6.6,0-13.05,2.88-13.05,10.33,0,17.17,25.48,7.46,25.48,16.63,0,4.89-5.68,5.2-8.78,5.2-4.27,0-9.87-1.94-11.5-7.14h-5.2v11.65h5.2v-3.57c3,3.42,7.93,4.35,12.36,4.35,7.14,0,14-3,14-11C578.74,286,553.26,294.23,553.26,285.22Zm141.09,21.28V255.62H681.54v5.21h6.13v45.68h-6.29v5.21h19v-5.21ZM343.74,275.82H329.29v7.38h5.52V295c0,9.24-7.53,10-9.09,10-4.51,0-5.36-1.87-5.36-7.23v-22H306.45v7.38h5v17.56c0,9.09,4.35,11.73,11.19,11.73a19.2,19.2,0,0,0,12.59-5.44v4.66h13.67v-7.38h-5.13Zm88.1,20.51H402.78c.55,6.06,5.36,8.7,10.88,8.7a9.64,9.64,0,0,0,8.23-3.89h8.94c-.7,3.57-5.59,11.34-17.94,11.34-11,0-19.35-7.45-19.35-18.72S401.85,275,412.88,275C425.23,275,431.84,284.06,431.84,296.33Zm-8.93-6c0-4-4.59-7.46-10-7.85a10.1,10.1,0,0,0-10.1,7.85Zm-121.29,3.42c0,11.27-8.31,18.72-19.34,18.72s-19.35-7.45-19.35-18.72S271.23,275,282.26,275,301.61,282.5,301.61,293.77Zm-8.94,0c0-5.6-3.11-11.26-10.41-11.26s-10.41,5.67-10.41,11.26S275,305,282.26,305,292.67,299.36,292.67,293.77Zm173.06,12.51c-12.12,0-20.35-10.49-20.35-22.84s8.23-22.37,20.35-22.37c8.08,0,15.15,4,17.48,12h5.67V255.62h-6.06v4.74a26.85,26.85,0,0,0-17.33-6c-16.24,0-27.5,13.28-27.5,29.21S449.27,313,465.89,313c13.36,0,22.38-7.69,25.56-19.11h-6.84C481.2,302.31,475.14,306.28,465.74,306.28Zm62.82-30.46h12V281h-6.06v25.48h6.06v5.21h-12v-5.44h-.24a15.64,15.64,0,0,1-12.2,6.21c-11.11,0-17.79-8.31-17.79-18.8S505,275,516.12,275a15.88,15.88,0,0,1,12.2,6.21h.24Zm-.16,17.87c0-8.54-5.83-13.36-11.66-13.36-8.15,0-11.73,6.68-11.73,13.36,0,6.92,3.57,13.51,11.73,13.51C522.57,307.2,528.4,302.23,528.4,293.69Z"/><path d="M697.23,225.47h8.69v1.27h-3.61v9.43h-1.46v-9.43h-3.61Zm18.2,0-3.06,9.06-3.08-9.06h-2.08v10.71h1.38v-6.32c0-.25,0-.64,0-1.18s0-.94,0-1.2v-.33l3.08,9h1.44l3.06-9c0,.58,0,1.12,0,1.62s0,.88,0,1.09v6.32h1.39V225.47Z"/><path class="cls-1" d="M274.5,127.83l-.38.37.38.37v15.7q0,1.12-7.48,1.12a15.68,15.68,0,0,0-13.46,6.73,23.37,23.37,0,0,0-1.49,7.47v18.32l.38,2.24-.38.37.38,4.49v5.23l-.38,1.5.38,1.49v1.5c0,.5-.5.75-1.5.75v3.74l.37,1.5-.37.37q0,8.87,10.46,12.71l2.25.75,6.73-.75c2.24,0,3.36.63,3.36,1.87l.75,10.84-.38,3.37v2.62l-.38.37v.37Q247,234,200.86,234h-1.12l-2.24.37-.38-.37h-.37l-1.12.37V234l-.37.37h-.37q-1.87-.47-1.87-1.12V215.67l.75-.75q15,0,19.06-4.49,3-3.92,3-10.47V196.6a3.61,3.61,0,0,0,1.49-2.62v-9.72l-.37-1.49.37-1.5v-.75l-.37-2.24.75-1.49-.37-.37q0-25.42-3.36-25.42-3.74-4.86-13.08-4.86h-7.1v-.75l.37-3.36-.74-1.12.37-1.87v-1.87l-.37-9.35,1.12-.75,16.07-.37,1.12-.37v.37l.37-.37,22.43-.38h9.72l9.34-.37V126l1.12-.37,1.12.37,1.12-.37,3,.37,1.12-.37.37.37h.38l.38-.37h.37l2.24.37.38-.37h.37l.37.37h.38l3-.37,1.12.37,2.24-.37h.74Q274.5,126,274.5,127.83Zm302.18,81.55-.39-.36v-.38l.37-.39-.41-1.11.31-2.27,0-.38-.38-.36.36-.4-.28-9.39-1.16-1.09-17.29.52q-.66,0-1.3,6.81-3.37,13.27-15.4,13.62l-.38,0-.38-.37-1.49.43-8.65.25-1.89-.32-.37.39-.38-.37-24.06.72-1.89-.32-.36-12,.13-8.29.34-1.13.26-3.77-.08-2.63q21.84.57,22,5.74l-.16,7.53c.68,3.74,1.36,5.6,2.05,5.58l18-.54.73-.78-.36-12,.73-.78-.14-22.42.26-3.77-.44-2.25.07-2.73c-.36-1.49-.76-2.23-1.2-2.22l-18.41.55-.37.39c.15,5.07-1.47,6.35-5.16,8.9l0,.38.38.37v.2l-.31,0a1,1,0,0,1-.47-1L518,168c-.49,0-.74.4-.72,1.15l-1.52-.33-1.11.6-.87.09-1-.22h-.37l-.37.39-1.15-.72h-.38l-.36.38-.38-.36-1.88.06s-6.36,1.25-6.43-1.32l.32-1.89-.4-1.12q.29-5.65.93-6.42l-.43-1.87c.56,0,1.05-.53,1.46-1.55l-.78-1.1-3.36.85h-.38l-.39-.36c0-1.25.26-1.89.69-1.9,1.79-3.31,2.86-5,3.24-5l1.51.33,28.57-.85a4.39,4.39,0,0,1,2.6-1.21c.5,0,.76.48.79,1.49l2.63-.08q7.9-.23,11,1.93,4.52-.14,8,14.43c.06,2,.47,3,1.22,3l.75,0,.37-.38.39.37,16.16-.49.37-.38L575.94,129l0-1.13q0-1.13-7.93-.89l-18.79.57-1.88-.32-.37.39-1.51-.33-14.28.43-1.89-.32-.36.39-4.52-.25-.38,0-.37.38h-.37l-.39-.36-1.12.4-3.4-.27-26-.62c.44,1.07-6.56.79-5.43,1l-7.64-1.32-1.18-.16-35,1-.73.78,0,1.12-.58,18.45,0,.38.38.36q16,.09,17.38,2.49,3.91,1.76,5.86,7.35c.08,2.51.49,3.74,1.24,3.72l-.69,1.9.25,26.18q-.59,18.18-3.53,20.42c-2.73,3.1-.16,3.73-10.11,4-1,.16-1.49.55-1.47,1.17l.27,9,0,7,.38.37-.36.38.13,4.51.78.72,12.5.43,6.4.19.37-.4,3.39.28,22.93-.69,1.89.32.36-.38h.38l.39.36h.37l.37-.39,7.15.16,16.91-.51,1.89.32.36-.38,1.52.33,18.79-.56,1.89.32.36-.39.39.36,21.43-.63,1.89.32.36-.39.39.37,1.13,0,1.1-1.16-.86-24.63Zm121.91-9.71c0-11-2.53-14.19-7-20.27-3.1-3.89-8.46-8.69-14.13-11.06-2.92-1.21-11.5-3.23-15.09-4l-1.12.38c-18.65-2.74-29.09-3.65-34.54-4.19l.36-.29a22,22,0,0,1-4.79-2.68l.41-1.1-.38-.38c-.73-.16-1.4-.34-2-.54a5.13,5.13,0,0,1-.39-.74c0,.52-.2,1-.52,1.11,0,0-6.55-1.43-7.41-3.48l1-.13-.51-1a8.89,8.89,0,0,1,1-.16,6.33,6.33,0,0,1-.91-3.31v-.37a7.11,7.11,0,0,1,.56-2.66l0,0h.75v-.53h.56l.2-.6a4.24,4.24,0,0,1-.69-.59c.16-.22.41-.42.6-.64l.1.1H615l.37-.38a1.56,1.56,0,0,1,.18-.83l0,0a.64.64,0,0,1,.54-.27v-.13c.23-.18.51-.34.76-.52h0v-.25h.36c.3-.2.56-.42.9-.62l1.13.75h.38q2.34-4.14,16.92-4.14l2.26.38.74.76,5.64.75-1.88-.75.74-.76,3.76,1.13q14,3.76,21.06,7.89l7.14,6c1.69,3.38,2.95,5.4,3.76,6h4.13l3.76.38.38-.38,1.5.38h5.26c.76,0,1.13-1.62,1.13-4.89v-26.7l-.75-.75h-15c-1,3.52-2.63,5.26-4.89,5.26h-.74L649,123.7l-2.63.38H646q-.28-1.78-15-3l-1.51.37h-2.26l-2.62-.37c0,.51-.63.75-1.89.75H620a8,8,0,0,0-1,.87l-6.07-.05v-.06l-7.55,1.88.38.38h-.38c-1.5,0-2.26.25-2.26.75l0,0-1.26,1.1-.25-.34a57.72,57.72,0,0,0-6.82,3.86,1.32,1.32,0,0,1-.65.41c-8.74,6-13.15,13.48-13.15,22.39v1.51h.74v1.12h-.74v1.88a22.19,22.19,0,0,0,2.63,10.15q3.56,9.23,15,15,5.94,3.38,30.09,6.76a20.37,20.37,0,0,0,2.26.38l.38.75h-.76v1.5l.38.38h.38l1.5-2.25q13.16.75,13.17,2.62l1.5-.75.81.07,6,1.49s1,.33,3.53.92,7.54,5.15,7.54,5.15l3.34,5.52H668a34.64,34.64,0,0,1,.17,3.8v.38q0,6.68-15.41,10.52l-13.86.41-3.53-.65-3.65-.29v.38l-.28.28a2.16,2.16,0,0,0-1.24-.49,68.41,68.41,0,0,1-17.67-6.77q-10.35-6-13.54-15.79h2.63v-.76l-.38-.38-3.76-7.52H582l-.76.75v7.15l.76,1.13v13.16l-.38.38.38.38v.75l-.38.38H582l-.38,1.5.38,1.5-.38,1.51v3l.38.38s-.38,2.89-.38,3.39v7.52l.76.75h14.29l.38-.37c1.06-4.51,2.13-4.61,5.32-4.61,2.7,0,4.77,1.34,7.59,2.09,9.53,5,21.81,5.28,33.35,7h.38l.37-.38,1.13,1.12,3.76-.37h3c0,1.25.25,1.89.75,1.89h.75v-2.26l-.37-.38h.37l.38-.38h.38l.38,1.13q14.67,0,14.67-3.76h.38l1.5,1.13,3.39-2.26,1.12,1.12Q699,223.93,699,202.67ZM188.4,214.55H188l0,0,0-.52c-2.12-.28-3.71-.54-4.52-.68l-.62-.11-1.62-.2-.54-.36.08-.72-.56.5-.12.1-.78.17-.92-.5-1.11.24-1-.37-1.12-.45c-5.63-.31-1.8-5.91-3.19-10.09s-1.13-13.29-1.13-13.29c-.86-4.26-1.06-25.76-.9-27.34.33-3.31,2.31-8,3.95-10.81a9.72,9.72,0,0,1,5.41-4.71h2l.69,0h.84l0,.13.58.21,3,.17.32-.07.5-.18.64-.13.29.08v-6.11a13,13,0,0,1,.57-1.17,16.33,16.33,0,0,0-.71-4.74l.38-1.13-.38-1.88.75-.75v-.38l-.38-.38.38-.38v-1.5l-.75-.75.75-.76c-.12-.56-1-1.19-2.63-1.88l-4.48.43-1.51-.38-10.53.75v-.37h-.75l-.38.37h-.38l-.38-.37-6.39.75-3.39-.38-12.41.38H144.4l-1.88.38-.38-.38-2.26.38-2.25-.38h-.38l-.38.38h-.38l-.37-.38-1.51.38h-.75L132,125c0,.38-.75.63-2.26.76L127.1,125l-2.63.38q-2.44,0-4.89,5.65a38.75,38.75,0,0,1-4.14,8.64q-1,6-7.9,13.54l.38,1.5-1.51,2.63v.38l.38.38h-.38l-3,4.89Q97.86,175,95.89,177.32a21.72,21.72,0,0,1-4.52-6.77c-1.25-.37-1.88-1-1.88-1.88q-16-25.75-19.92-29.7-.85-3.19-4.89-7.9-2.17-4.89-5.64-4.89H48.51l-.37.38v-.38l-2.63.38H15.8l-.38.38v-.38l-1.88.38H8.27l-1.88-.38-.37.38-2.26-.38H3.39l-1.88.38-.37-.38L0,127.68v9.4q0,9,1.5,9h.75l.38-.38.37.38H5.26q10.82,0,15.42,4.14,3.38,3.48,3.38,16.92v17.3l.37.37-.37.38v3l.37,4.51-.37.38.37,1.5v6.77l.38,1.88h-.38q0,7.71-3.38,10.52h-.37l-1.13,1.51-5.94,3.95H12.44l0-.19,1.13-.38-.75-.75-.75.75-.38-.37-1.51.37H9.78l-.38-.37-2.26.75H6.77l-.38-.38-2.63.38-1.13-.38c-.75,0-1.13.26-1.13.76v3.38q1.13,0,1.13,2.63H1.88v-.75H1.13l.37,1.88v6.76l.38.38H1.5l.38,1.51.75.75h9.86v.41h10.6v-1.44h2.78c.28.22.46.44.46.66l4.14-.75v-.38l-.37-.38V233h.75v1.13q0,.85,7.14,1.88l1.13-.37V236l1.51-.37,1.5.37,1.5-.37L47,236l.75-.75,1.12.38,6-2.63h.37v.37l-.37.38.74.76h2.26q6.39,0,7.14-3l-.38-1.5V219.44l-.75-2.26q-8.37,0-12.79-1.88a12.16,12.16,0,0,1-5.26-10.15l-.38-23.69-.38-1.88.38-.38-.38-2.63.38-4.14V166h.75q10.63,16.65,16.17,24.07l-6.77.38v.75l14.3,20.68q8.64,11.75,8.64,13.17a14,14,0,0,1,4.51,5.64q6.77,1.88,6.77,2.63L97,232.6l6.39-12L106,215.3l2.63-4.89-.37-1.88q1.31,0,4.13-4.14l-.75-1.12q2.35-2,8.27-13.91V189h-6l15.42-29.71h.75v5.26l.38,3.76-.38.38.38,4.14V183l.38.38h-.38l.38,3.38-.38,1.88.38.38-.38,1.5.38,1.5v2.26h.75V195c-.75,0-1.13.63-1.13,1.88h.75l-.38,3c0,2,.63,3,1.88,3a6.62,6.62,0,0,0-1.5,3.76q-1.88,7.53-6,9.4l-1.5,1.13v-.38l-1.51.38h-.38l-.37-.38-1.13.38H120l-.38-.38-2.63.76-1.88-.38-.38,2.26v.38l-1.13-.38-2.26.75-1.5-.38v.38a3.6,3.6,0,0,1,1.13,2.63q4.52.66,4.51,3l-.37.38.37,2.26c-.5,3.51-1.25,5.26-2.25,5.26v.38q0,1.13,5.64,1.5,0-.66,2.63-1.13l1.13,1.13H123l1.88-.38.38.38h.38l.38-.38,6,.38h4.89l.38-.38v.38l1.88-.38h4.51l.38-.38v.38l7.15-.38c0-.06,0-.11,0-.16h6.68l0,.16v.38l-.37.38h.75c0-.45.35-.73.87-.92h.68c.11,1.06,2.21.54,2.21.54v-.54h16.48v-.55l2.7.34,6.39-.38c.75,0,1.13-.25,1.13-.76V217.18l-.75-2.26Zm253.67-1c-5.15,0-15.75-2.74-21.9-8.76-.53-.72-1.86-1.24-2.13-.9l-3.64-4.09-3.66-3.79-1.7-3.27-4.49-4.19c-6-7.86-9.4-11.84-10.18-11.84L389.11,170l15.79-9.4.75.76,1.13-.37,1.13.37c.44,0,.81-.63,1.13-1.88v-.38l-.38-.38,1.13-.38v-.75l-.38-.37,1.13.37A83.47,83.47,0,0,1,423,151.94c7.27-1.13,14.1-1.9,14.1-2.53l-.09-22-73.13-.1-.75.75.08,20.87.38.37q9,1,9,4.89c-.5,0-.75.62-.75,1.88q-5.83,4.69-25.95,15.42l.38,1.12c0,.76-1.13,1.88-3.38,3.39l-1.88-.38h-.38l-.38.38v-.38l-1,.16v-2.74l.52-4.53v-2.27l.13-5.7c-.15-2.21,1.25-5.61,3-6.61s3.33-3,6.29-3.89c3.76-.38,5.64-.87,5.64-1.51V138.4l.29-10-.38-.38h.38l-.75-.75h-47l-16.74.5-12.14-.52-.8.8v7.58l-.4,4,.4.4-.4.4v1.6l1.2-.4h.4v1.2h-.8v.8a71.94,71.94,0,0,1,14,1.2q10.37,2.79,10.37,14.76l-.4.4.4,1.59v10l-.4,2,.4.4-.4,1.2v.4l.4.4-.4,2.39v13.17c0,.53.4.8,1.2.8v3.19q0,7-2,10.37-2.4,7.18-21.54,7.18-2,0-2,2.79v14.36l.4.4-.4.4v2.39l.4.4,5.91.06,22.66-.45,47.8.49h.38l.38-.38-.38-1.13.38-1.5V215.49c0-.69-.62-1.06-1.88-1.12q-9.87,0-11.28-8.65v-5.26q2.72-2.63,9.4-5.64v-.76h-6.39v-.38l13.54-7.52a18.4,18.4,0,0,1,6.77,7.89h-.75c0,1,13.08,11.15,14.14,14.92v.38q0,4.14-8.65,4.14h-3q-1.13,0-1.13,6.76l.25,12.58.38.37-.38.38v2.26l.38.38,65.05.38,3.38.37.38-.37,5.35.11h3.76l.75-.76-.25-21.59Z"/></g></g></svg>