<svg width="296px" height="158px" viewBox="0 0 296 158" version="1.1" xmlns="http://www.w3.org/2000/svg" xmlns:xlink="http://www.w3.org/1999/xlink">
    <g id="Symbols" stroke="none" stroke-width="1" fill="none" fill-rule="evenodd">
        <g id="footer" transform="translate(-205.000000, -7.000000)" fill="#FFFFFF">
            <g id="MRMIKES_logo_pos_RGB" transform="translate(356.391169, 61.322769) rotate(-19.700000) translate(-356.391169, -61.322769) translate(216.891169, 0.322769)">
                <path d="M112.840416,13.1988487 C112.712511,11.2088078 110.889778,9.71259757 110.889778,9.71259757 L110.198863,9.71259757 L108.627301,8.82757547 C108.627301,8.82757547 108.156644,8.72183759 107.735835,8.66141595 C107.315799,8.60138163 103.499922,8.84190624 102.479392,8.84190624 C101.458862,8.84190624 101.277632,8.84190624 100.195276,9.20288681 C99.1152376,9.5623181 97.2538625,9.11109239 97.2538625,9.11109239 L97.1336865,8.84190624 L96.6518233,8.90039129 C96.6518233,8.90039129 95.9017862,9.16957744 95.5486002,9.41203864 C95.1981191,9.6494647 95.6007666,10.7068434 95.6610478,11.2196527 C95.7224882,11.7313001 95.3909417,12.5144575 95.4809771,12.7840309 C95.5717853,13.0563156 95.5486002,14.6551652 95.5486002,14.6551652 L95.4214687,14.8925913 L95.4214687,15.7063468 L95.5717853,15.8535277 C95.5717853,15.8535277 95.6610478,16.3380628 95.810978,16.8194993 C95.9620674,17.3005485 96.6518233,17.2087541 96.6518233,17.2087541 L97.7291565,16.8396399 L98.0038996,16.9097445 L101.758336,16.8493228 C101.758336,16.8493228 101.939566,16.9097445 102.359989,16.6672833 C102.780412,16.4283079 102.780412,17.6011075 103.561362,16.9984403 C104.342313,16.3949986 105.482632,16.7277049 105.721825,16.6943956 C105.959858,16.6560511 109.207701,16.2160576 109.207701,16.2160576 L109.958124,16.2160576 L109.958124,16.3969352 L111.190798,16.0959889 L110.951605,16.111869 L110.919146,15.913562 L111.640202,15.913562 L111.824136,16.111869 L112.115496,16.111869 L111.678843,14.8007968 C111.678843,14.8007968 112.872875,13.6864824 112.840416,13.1988487 Z M133.894396,33.2069326 L133.749103,33.2069326 L133.894396,33.3525643 L133.894396,33.5012945 L133.749103,36.9937427 L133.605355,37.1424729 L133.460062,37.1424729 L133.605355,37.2881046 L133.605355,37.4337362 C133.605355,38.1115431 133.265694,38.4535451 132.587917,38.4535451 L132.587917,38.7417098 L132.442237,38.7417098 L132.587917,39.4729666 L132.587917,39.6185982 C130.55304,42.3352481 127.598875,43.6966716 123.723876,43.6966716 C120.744208,43.6966716 118.468979,43.2059395 116.895099,42.2403552 C114.66624,41.2426235 113.551811,40.3215808 113.551811,39.4729666 C113.019714,39.4729666 112.534759,37.3864834 112.099652,33.2069326 L112.244946,33.2069326 L112.099652,33.0643995 L112.099652,32.9187679 L112.244946,32.1875111 L111.953586,31.6080831 L112.099652,31.0251692 L111.953586,30.5851757 L111.953586,30.2973983 L111.808293,29.5657542 L111.808293,28.6919643 L111.953586,27.6721555 L111.808293,27.6721555 C111.614312,27.5265238 111.516934,26.9916374 111.516934,26.0733059 C110.283102,24.518998 108.732407,23.7431996 106.867167,23.7431996 L105.849729,23.7431996 L105.269329,23.5975679 L105.124036,23.7431996 L104.97797,23.7431996 L104.252277,23.5975679 L103.671105,23.7431996 L103.380519,23.7431996 L103.380519,23.5975679 L101.199962,23.7431996 L95.9694093,23.7431996 L95.8952171,23.6827779 L95.8952171,31.9024449 L96.0826297,32.044978 L96.8110275,31.7537147 L96.8110275,31.8993464 C96.8110275,33.0643995 97.8280795,34.0811098 99.8606377,34.9579983 C100.951109,35.2457757 102.598022,35.3948932 104.80215,35.3948932 L105.093509,35.3948932 C105.261601,35.3948932 105.406894,35.7337966 105.528616,36.4143147 L105.38255,36.5603337 L105.528616,37.2881046 L105.528616,42.6741516 L105.238802,42.9685134 L103.718634,42.9936891 L103.718634,43.0889694 L103.426889,43.3802327 C103.323715,43.2535796 103.263434,43.1269265 103.18615,43.0002735 L96.8369175,43.107948 C96.7634981,42.7434815 88.6931599,42.7090102 88.5621642,42.9685134 L86.4936691,42.9685134 L85.9109509,43.114145 L85.7660442,42.9685134 L84.0217537,43.114145 L79.2286258,43.114145 L77.4039604,43.1710808 L76.459555,43.345374 L74.2388113,43.2977339 L73.8601217,43.2977339 L73.7878615,42.7183058 L74.1510944,42.7531645 C74.148003,42.7310873 74.1418204,42.7183058 74.138729,42.6993272 L74.1244316,42.655173 L74.1275229,42.6520744 C74.0660824,42.3859868 73.9509299,42.2020107 74.2407433,41.9901476 L73.5985168,41.3061437 L73.9285177,41.3189252 L73.677346,40.8851288 L73.569149,40.9010088 L73.8883302,40.7995314 L73.4145818,40.3405594 C73.6599572,40.1410905 74.4347251,40.5876684 74.2944554,39.9416216 L74.1418204,39.8242642 L74.3945377,39.8180671 L74.4331795,39.4729666 L74.1418204,37.5793679 L74.2871135,37.1424729 L74.1418204,36.9937427 L74.1418204,36.8481111 C74.1418204,35.9743212 74.5046668,33.9986111 75.4734165,33.9986111 C79.0814006,33.9986111 80.4771421,33.3653458 81.4215475,31.712659 L82.2674163,30.9209806 L80.8148714,30.9209806 L80.8148714,30.7753489 C81.4926484,29.6637457 81.4107278,28.2581679 81.4107278,27.0423761 L81.4107278,26.1685862 L81.2669804,22.9643027 L81.4107278,22.9643027 L81.2669804,22.818671 L81.2669804,22.3817761 C81.2905518,21.897241 81.3875427,21.6532305 81.5571802,21.6532305 L81.2669804,20.7794407 L81.2669804,19.7600192 L81.4107278,19.6143875 L81.2669804,19.4687559 L81.2669804,15.6827204 C81.2669804,12.4040718 81.7530941,11.1723999 79.8175267,10.3694892 L75.021694,9.64171833 L75.021694,9.49569937 L74.7307213,9.49569937 L74.7307213,9.78851193 L73.8578032,9.78851193 L73.8527798,9.78076557 C73.7897936,9.82995498 73.7472877,9.88650344 73.677346,9.93414358 L73.5305072,9.93414358 L72.9501075,9.49569937 C72.9501075,9.03362875 72.9918406,7.93790555 73.3782586,7.72139467 C73.3782586,7.66717012 73.4041486,7.61178362 73.4161275,7.56104493 L73.4161275,3.71574978 C73.310249,3.76184064 73.202052,3.7885656 73.089218,3.7885656 L72.9435384,3.64293396 L72.9435384,3.49575304 L73.232579,3.06040737 L72.9435384,2.62196316 L73.089218,2.47633152 L73.089218,2.33224915 L73.4161275,2.49531011 L73.4161275,2.04098585 L73.5614206,1.89535421 L73.5614206,1.74972256 L85.3305512,1.45652268 L85.7660442,1.31282763 L86.9291621,1.60254164 L87.654855,1.60254164 L88.5281595,1.31282763 C90.7102614,1.31282763 93.0326331,1.31282763 93.0326331,1.31282763 L95.2429436,1.31282763 L95.2429436,1.60254164 L95.6784366,1.60254164 L95.6784366,1.31282763 L95.8245026,1.31282763 L95.9694093,1.45652268 C96.5501954,1.26363821 97.8103043,1.16719598 99.7478037,1.16719598 L100.764856,1.16719598 L102.800119,1.31282763 L106.57774,1.02156434 L106.72342,1.16719598 L106.867167,1.16719598 L107.449886,1.02156434 L108.030285,1.02156434 L108.466938,1.16719598 L109.19263,1.02156434 L110.064776,1.02156434 L110.645175,1.16719598 L111.663,1.02156434 L113.842397,1.02156434 C115.368362,1.02156434 116.385414,1.11800657 116.895099,1.31282763 L117.038846,1.16719598 C119.228677,1.5738801 120.986492,2.1440125 122.325816,2.87526927 C122.456812,2.68703262 122.563463,2.46974711 122.614084,2.17693454 C122.921286,2.0313029 123.249741,2.4015791 123.2424,2.70910976 C124.119182,3.12354024 125.047744,3.96440807 126.072911,3.81877642 C126.542022,4.80488857 126.519996,5.87388682 126.364656,6.89485762 C126.663744,7.2050995 127.162223,7.38365319 127.350795,7.86199118 C128.08808,7.66097303 128.035527,8.8198291 128.217917,9.60492311 C129.089675,9.45309437 129.945205,10.9380724 129.799525,11.3463058 C129.707171,12.1856243 129.660801,13.0404356 129.52826,13.5547942 C129.53908,13.8146847 129.396878,14.0741879 129.316503,14.2988324 C129.949842,14.6803409 128.146816,16.4472865 127.677704,17.050341 C127.698957,17.5697347 127.609695,17.3845966 126.750688,17.6440998 C125.790439,17.7610699 124.588293,19.1298524 124.066243,18.585283 C123.553852,19.8897708 121.821154,19.4307987 121.626786,19.2088653 C120.325331,19.7410406 118.845736,20.1368798 117.184912,20.3932844 L117.184912,20.5389161 L118.055898,20.8301794 L118.78391,20.6845477 C120.889501,21.1435198 122.43865,21.8720653 123.434063,22.8659239 C124.352578,23.6703838 124.93491,24.5914265 125.17758,25.636411 L125.75798,29.860116 L125.903273,30.006135 L125.903273,33.3525643 C125.903273,35.4928847 126.241003,36.5603337 126.920325,36.5603337 L127.93815,36.7059653 C128.810295,36.3856532 129.244629,35.8538653 129.244629,35.1005314 L129.244629,33.0643995 L129.099336,33.2069326 L128.810295,33.2069326 L128.810295,32.9187679 L129.390695,32.6275046 L129.244629,31.8993464 L129.244629,30.4399314 C129.244629,30.2241951 129.827347,30.0785635 130.988147,30.006135 C131.932939,30.5851757 132.804697,30.9240791 133.605355,31.0251692 L133.894396,31.7537147 L133.749103,32.7731363 L133.894396,33.2069326 Z M72.6529521,35.2492615 L72.9435384,36.1230514 L72.9435384,42.3859868 C72.9435384,42.5788713 72.7986317,42.6772501 72.5072726,42.6772501 L70.0376757,42.8197832 L68.8745577,42.6772501 L68.4394511,42.8197832 L67.5680787,42.6772501 L63.7892979,42.8197832 L63.7892979,42.6772501 L63.6440048,42.8197832 L62.6254071,42.8197832 L61.0291147,42.9654149 L60.8571588,42.4177469 L60.7180483,42.4557041 L58.6255953,42.3794024 C58.4992366,42.5633786 58.4122926,42.756263 58.4122926,42.9654149 L55.6513366,43.114145 L55.6513366,42.9654149 L55.5075891,43.114145 L53.7625258,43.114145 L53.0356737,43.2597767 L53.0356737,43.114145 L52.8903805,43.2597767 L51.0015698,43.2597767 L48.6757203,43.114145 L48.5319728,43.2597767 L48.3859069,43.2597767 L48.2406137,43.114145 L47.514148,43.2597767 L47.3688549,43.2597767 L46.9337483,42.8197832 C46.2544256,42.9433377 45.9147643,43.0854835 45.9147643,43.2597767 C44.4626057,43.1586866 43.7361401,42.9654149 43.7361401,42.6772501 L43.7361401,42.5316185 C44.1244901,42.5316185 44.4135307,41.8507131 44.6078989,40.4923881 L44.4626057,39.6185982 L44.6078989,39.4729666 L44.3188583,37.1393744 L44.3188583,36.9968413 L44.4626057,36.1230514 L45.1898443,36.2655845 L46.2080555,35.9774198 L46.3518029,36.1230514 L46.4970961,36.1230514 L46.9337483,35.9774198 L47.0798143,36.1230514 L47.2235618,36.1230514 L47.8039615,35.9774198 L48.3859069,35.6861565 C49.4520339,35.1954243 50.2248697,33.982731 50.7117563,32.044978 C50.7117563,31.6049845 50.9026468,31.123548 51.2929289,30.5886616 C50.8072015,30.5886616 50.5645311,30.1959209 50.5645311,29.4232211 L50.7117563,28.2581679 L50.4207836,28.2581679 C50.4207836,27.7670484 50.5645311,27.5300097 50.8578223,27.5300097 L50.8578223,27.2352605 L50.5645311,27.2352605 L50.5645311,26.3645692 L50.4207836,25.7820426 L50.5645311,25.1964175 L50.4207836,25.0507859 L50.5645311,24.3226276 L50.4207836,23.0150414 L50.5645311,23.0150414 L50.4207836,22.8690224 L50.4207836,18.936968 L50.2747177,17.3338579 L50.4207836,17.1882263 L50.2747177,15.7299732 L50.2747177,13.6926795 L49.9841314,13.6926795 L44.0259535,25.1964175 L46.3518029,25.1964175 L46.3518029,25.3420491 C44.8266114,28.426264 43.7589387,30.2241951 43.1541947,30.7308074 L43.4455538,31.1708008 C42.7190881,32.2378625 42.1866042,32.7700377 41.8469429,32.7700377 L41.9930088,33.4981959 L40.975184,35.3914073 L39.9581321,37.431025 L37.4885352,42.091625 L34.7260335,42.3859868 C34.7260335,42.1931023 33.8542746,41.8507131 32.1119162,41.3665653 C31.8217164,40.6097455 31.2405438,39.8846858 30.3691714,39.1786047 C30.3691714,38.8176242 29.2547422,37.1172973 27.0254972,34.0838211 L21.5047444,26.0702074 L21.5047444,25.7820426 L24.119248,25.636411 C22.6914338,23.714538 20.6082548,20.608246 17.8720295,16.3144364 L17.5806704,16.3144364 L17.5806704,18.7878505 L17.4353773,20.3901859 L17.5806704,21.4092201 L17.4353773,21.555239 L17.5806704,22.2833973 L17.7259636,31.4624514 C17.7259636,33.0643995 18.4033542,34.3719858 19.7612267,35.3914073 C20.8996139,35.8763297 22.5457543,36.1230514 24.7015798,36.1230514 L24.9913933,36.9968413 L24.9913933,41.0722035 L25.1366864,41.6578286 C24.943091,42.4301411 24.0222571,42.8197832 22.3757304,42.8197832 L21.5047444,42.8197832 L21.2133853,42.5316185 L21.3586784,42.3859868 L21.3586784,42.2403552 L21.2133853,42.2403552 L18.8890815,43.2597767 L18.4524293,43.114145 L18.1626158,43.4054083 L16.8545912,43.2597767 L16.273805,43.4054083 L15.6914732,43.2597767 L15.1110735,43.4054083 L15.1110735,43.2597767 L14.6744213,43.4054083 C12.8335263,43.1362222 11.9134653,42.892599 11.9134653,42.6772501 L11.9134653,42.2403552 L11.6236518,42.2403552 L11.6236518,42.6772501 L11.7697178,42.8197832 L11.7697178,42.9654149 L10.1695612,43.2597767 C10.1695612,43.1393207 10.0435889,43.0161535 9.81753446,42.892599 L6.82395485,43.2597767 C6.6697741,43.8361062 6.47811082,44.1335666 6.24626006,44.1335666 L1.01532071,44.1335666 L0.580986968,43.6935731 L0.724734433,43.114145 L0.580986968,42.5316185 L0.724734433,42.5316185 L0.580986968,42.3859868 L0.580986968,39.7642299 L0.434920995,39.0325858 L0.724734433,39.0325858 L0.724734433,39.3242364 L1.01532071,39.3242364 C1.01532071,38.643331 0.87002757,38.3044276 0.580986968,38.3044276 L0.580986968,36.9968413 C0.580986968,36.8039568 0.724734433,36.7059653 1.01532071,36.7059653 L1.45197296,36.8512096 L2.46979775,36.7059653 L2.61393163,36.8512096 L2.75922477,36.8512096 L3.6309836,36.5568478 L3.77627673,36.7059653 L3.92234271,36.7059653 L3.98532883,36.6865994 L5.17356392,35.8507667 L6.68329873,35.5374263 L6.82665978,35.5374263 L7.55505755,35.3914073 L7.55505755,34.9579983 L7.99132338,34.8123666 L8.13545727,34.8123666 C9.00876176,34.0838211 9.44386834,32.7254961 9.44386834,30.7308074 L9.58916147,30.7308074 L9.44386834,30.0026491 L9.44386834,27.384378 L9.29780236,26.8014641 L9.44386834,26.6558325 L9.29780236,24.9086401 L9.29780236,23.7431996 L9.44386834,23.5975679 L9.29780236,23.4488378 L9.29780236,16.7497821 C9.29780236,13.2809602 8.86269579,11.0914504 7.99132338,10.1955834 C6.80386112,9.12542317 4.81805944,8.59324795 2.03353192,8.59324795 L1.16138668,8.59324795 L1.01532071,8.4476163 L0.87002757,8.59324795 L0.580986968,8.59324795 C0.19263696,8.59324795 -0.00173125273,7.42819479 -0.00173125273,5.09963773 L-0.00173125273,1.45845927 L0.434920995,1.01962774 L0.580986968,1.16719598 L1.30513415,1.01962774 L1.45197296,1.01962774 L2.3241182,1.16719598 L2.46979775,1.01962774 L3.1954906,1.16719598 L5.23075378,1.16719598 L5.95490095,1.01962774 L5.95490095,1.16719598 L6.10212618,1.01962774 L17.5806704,1.01962774 L18.5977224,0.874383417 L18.5977224,1.01962774 L18.7437884,0.874383417 L22.8123826,0.874383417 C23.7069401,0.874383417 24.4345651,1.50571209 24.9913933,2.76759481 C26.0327896,3.98028811 26.66381,4.99970963 26.8802041,5.82779596 C27.8976424,6.84721748 30.4642302,10.6801184 34.582286,17.3338579 C34.582286,17.6727613 34.8249564,17.9148352 35.3079788,18.0620161 C35.6240687,18.8893278 36.2044684,19.7631177 37.0518829,20.6814492 C37.5596361,20.0733596 38.5303179,18.2297249 39.9581321,15.1489959 L41.12125,13.2542352 L41.2649975,13.2542352 L41.12125,13.1086036 L41.12125,12.962972 L41.7016497,11.9450997 L41.5582887,11.3606365 C43.3238321,9.42133428 44.3408841,7.67336721 44.6078989,6.11905925 C44.9997267,5.50167403 45.3297276,4.8606624 45.6249508,4.21267904 L45.8595065,4.24482645 L45.9221062,3.89778934 C46.2791564,2.79431977 47.577907,0.641992493 47.577907,0.641992493 C47.577907,0.641992493 49.959787,0.58854258 51.4088542,0.51959994 L51.7295811,0.584669398 L52.0186217,0.584669398 L52.6005671,0.438650435 L52.7450874,0.584669398 L52.8903805,0.584669398 L53.0356737,0.438650435 L53.1821261,0.438650435 L54.0538849,0.584669398 L54.9248709,0.438650435 L55.0709368,0.584669398 L55.7966297,0.438650435 L56.2332819,0.438650435 L61.0291147,0.293018789 L62.3355937,0.438650435 L64.8075091,0.145837871 L64.9508702,0.293018789 L65.0965497,0.293018789 L65.2426157,0.145837871 L65.533202,0.145837871 L65.533202,0.293018789 L69.6010234,0.000206225071 L70.1829688,0.145837871 L71.3445411,0.000206225071 C71.9747887,0.266293833 72.3129044,0.511466257 72.3619794,0.729913726 L72.072166,1.01962774 L72.3619794,1.31282763 L72.3619794,1.89380494 L72.218232,2.03943658 L72.3619794,2.1866175 L72.3619794,2.33224915 L72.072166,2.62351244 L72.218232,3.35167066 L72.072166,3.78701633 C72.2630564,4.29866368 72.3619794,5.17245355 72.3619794,6.40877327 C72.3619794,7.13848077 71.7325046,7.52773556 70.4727822,7.57382643 L70.3290348,7.57382643 L69.6010234,7.72139467 C67.978841,7.91272986 68.3992637,8.29113975 67.6967559,8.7772241 C67.6967559,8.7772241 66.3906633,9.78851193 66.124035,10.1843511 C66.124035,10.1843511 65.8995262,10.8063842 65.6332842,11.4206709 L65.3728385,13.0024784 L65.3728385,13.5834557 L65.2259997,13.7306366 L65.3728385,13.8762683 L65.3728385,14.1675316 L65.2259997,16.0611303 L65.3728385,16.9349202 L65.0807066,18.3920113 L65.2259997,19.1170709 L65.0807066,19.1170709 L65.3291733,20.5358175 C65.3183536,21.7674894 65.5158132,23.3438745 65.5158132,23.3438745 L65.5158132,23.4898935 L65.3728385,24.2180517 L65.5158132,25.2374732 L65.3728385,25.6712696 L65.6611063,25.9660188 L65.5158132,26.3994278 L65.6611063,26.5450595 L65.6611063,26.6910785 L65.5158132,26.8398086 L65.6611063,27.8592302 L65.5158132,28.5842899 C65.5158132,30.7943275 65.7808959,32.8304593 66.6522683,34.4103303 L66.4540359,34.6094119 L67.5020013,34.8472252 L68.1051996,34.8472252 C70.817467,35.2841202 70.9094345,35.4425333 71.2000208,35.6861565 L71.4898342,35.3914073 L71.6351273,35.3914073 L71.9249408,35.6861565 C71.7893081,35.7082336 71.6501976,35.7527752 71.5099279,35.809711 L72.072166,35.8918224 L72.072166,35.6861565 L72.6529521,35.1036299 L72.7986317,35.1036299 L72.6529521,35.2492615 Z" id="Fill-1"></path>
                <path d="M204.109396,114.792744 C204.109396,111.628983 201.848617,109.844715 199.589001,109.844715 C196.427787,109.844715 195.041848,112.317804 195.041848,114.792744 C195.041848,117.353973 196.427787,119.797434 199.589001,119.797434 C201.848617,119.797434 204.109396,117.956876 204.109396,114.792744 Z M204.171054,108.17451 L208.807397,108.17451 L208.807397,110.103579 L206.458978,110.103579 L206.458978,119.540423 L208.807397,119.540423 L208.807397,121.46801 L204.171054,121.46801 L204.171054,119.453765 L204.079537,119.453765 C203.114731,120.806224 201.126951,121.754648 199.348963,121.754648 C195.041848,121.754648 192.450677,118.676434 192.450677,114.792744 C192.450677,110.907944 195.041848,107.887872 199.348963,107.887872 C201.126951,107.887872 203.114731,108.866664 204.079537,110.189126 L204.171054,110.189126 L204.171054,108.17451 Z M179.809701,119.453765 C175.110149,119.453765 171.917913,115.568594 171.917913,110.995342 C171.917913,106.42061 175.110149,102.710606 179.809701,102.710606 C182.943381,102.710606 185.685013,104.177498 186.588161,107.141279 L188.787671,107.141279 L188.787671,100.69488 L186.437701,100.69488 L186.437701,102.450262 C184.599994,100.954484 182.129035,100.235296 179.719347,100.235296 C173.422901,100.235296 169.054129,105.154809 169.054129,111.052003 C169.054129,116.95142 173.422901,121.927964 179.869807,121.927964 C185.051762,121.927964 188.547245,119.079728 189.781949,114.850146 L187.130671,114.850146 C185.80445,117.986503 183.455256,119.453765 179.809701,119.453765 Z M112.698286,114.822001 C112.698286,112.749613 111.492666,110.650562 108.661844,110.650562 C105.829859,110.650562 104.624627,112.749613 104.624627,114.822001 C104.624627,116.893648 105.829859,118.994921 108.661844,118.994921 C111.492666,118.994921 112.698286,116.893648 112.698286,114.822001 Z M116.163134,114.822001 C116.163134,118.994921 112.939875,121.754648 108.661844,121.754648 C104.383426,121.754648 101.159779,118.994921 101.159779,114.822001 C101.159779,110.650562 104.383426,107.887872 108.661844,107.887872 C112.939875,107.887872 116.163134,110.650562 116.163134,114.822001 Z M163.199369,113.5562 C163.199369,112.060422 161.420217,110.793881 159.313776,110.650562 C157.476068,110.650562 155.786882,111.772673 155.395221,113.5562 L163.199369,113.5562 Z M166.66383,115.771166 L155.395221,115.771166 C155.606563,118.015759 157.476068,118.994921 159.613921,118.994921 C161.783183,118.994921 162.656472,117.72875 162.806544,117.555064 L166.272168,117.555064 C165.999556,118.878266 164.102518,121.754648 159.313776,121.754648 C155.034969,121.754648 151.810547,118.994921 151.810547,114.822001 C151.810547,110.650562 155.034969,107.887872 159.313776,107.887872 C164.102518,107.887872 166.66383,111.22532 166.66383,115.771166 Z M132.501241,108.17451 L126.897765,108.17451 L126.897765,110.907944 L129.037168,110.907944 L129.037168,115.281215 C129.037168,118.70495 126.115217,118.994921 125.512214,118.994921 C123.764084,118.994921 123.433305,118.303508 123.433305,116.31926 L123.433305,108.17451 L118.040396,108.17451 L118.040396,110.907944 L119.968457,110.907944 L119.968457,117.411374 C119.968457,120.777708 121.656092,121.754648 124.306594,121.754648 C126.084195,121.754648 127.92229,120.891771 129.187628,119.741514 L129.187628,121.46801 L134.489796,121.46801 L134.489796,118.734947 L132.501241,118.734947 L132.501241,108.17451 Z M268.464056,119.540423 L268.464056,100.69488 L263.493443,100.69488 L263.493443,102.623948 L265.872109,102.623948 L265.872109,119.540423 L263.432561,119.540423 L263.432561,121.46801 L270.782615,121.46801 L270.782615,119.540423 L268.464056,119.540423 Z M213.75164,111.65824 C213.75164,110.16098 215.196523,109.844715 216.97296,109.844715 C217.786143,109.844715 218.540382,110.075433 219.173633,110.476505 C219.834417,110.879798 220.318371,111.485664 220.55996,112.232627 L222.696649,112.232627 L222.696649,108.17451 L220.678622,108.17451 L220.678622,109.412906 C219.504025,108.463371 217.999036,107.887872 216.462637,107.887872 C213.901325,107.887872 211.400507,108.952952 211.400507,111.714901 C211.400507,118.073161 221.283177,114.47759 221.283177,117.87244 C221.283177,119.683742 219.082504,119.797434 217.87766,119.797434 C216.219884,119.797434 214.051785,119.079728 213.418534,117.152511 L211.400507,117.152511 L211.400507,121.46801 L213.418534,121.46801 L213.418534,120.144067 C214.593519,121.410979 216.492496,121.754648 218.210378,121.754648 C220.980318,121.754648 223.631208,120.634018 223.631208,117.669497 C223.631208,111.945248 213.75164,114.993836 213.75164,111.65824 Z M256.163166,114.792744 C256.163166,111.628983 253.902387,109.844715 251.643158,109.844715 C248.480006,109.844715 247.094842,112.317804 247.094842,114.792744 C247.094842,117.353973 248.480006,119.797434 251.643158,119.797434 C253.902387,119.797434 256.163166,117.956876 256.163166,114.792744 Z M256.224436,108.17451 L260.861942,108.17451 L260.861942,110.103579 L258.513524,110.103579 L258.513524,119.540423 L260.861942,119.540423 L260.861942,121.46801 L256.224436,121.46801 L256.224436,119.453765 L256.132919,119.453765 C255.168113,120.806224 253.180333,121.754648 251.402345,121.754648 C247.094842,121.754648 244.505222,118.676434 244.505222,114.792744 C244.505222,110.907944 247.094842,107.887872 251.402345,107.887872 C253.180333,107.887872 255.168113,108.866664 256.132919,110.189126 L256.224436,110.189126 L256.224436,108.17451 Z M240.117836,108.17451 L235.146448,108.17451 L235.146448,110.103579 L237.527053,110.103579 L237.527053,117.469146 C236.139562,118.70495 234.784646,119.683742 232.796866,119.683742 C231.653291,119.683742 230.50739,119.051212 230.50739,117.555064 L230.50739,108.17451 L225.899356,108.17451 L225.899356,110.103579 L227.917382,110.103579 L227.917382,117.411374 C227.824702,120.374785 229.362653,121.754648 232.343934,121.754648 C234.332878,121.754648 236.262102,120.863625 237.466946,119.395622 L237.527053,119.395622 L237.527053,121.46801 L242.344878,121.46801 L242.344878,119.540423 L240.117836,119.540423 L240.117836,108.17451 Z M140.412806,111.772673 C140.412806,110.535018 141.678144,110.30504 142.672422,110.30504 C143.424723,110.30504 144.119243,110.476505 144.630343,110.823137 C145.172464,111.167548 145.534267,111.714901 145.684727,112.461864 L148.606678,112.461864 L148.606678,108.17451 L145.835575,108.17451 L145.835575,108.89518 C144.871156,108.203767 143.696171,107.887872 142.492103,107.887872 C139.629483,107.887872 137.279513,109.269587 137.279513,112.232627 C137.279513,117.813927 146.407556,115.167152 146.407556,118.015759 C146.407556,119.223047 144.842072,119.338961 143.876491,119.338961 C143.003202,119.338961 142.280761,119.13824 141.678144,118.734947 C141.106163,118.331654 140.683867,117.72875 140.382559,116.95142 L137.400114,116.95142 L137.400114,121.46801 L140.412806,121.46801 L140.412806,120.605503 C141.346977,121.46801 142.973342,121.754648 144.238681,121.754648 C147.101301,121.754648 149.572259,120.661423 149.540073,117.555064 C149.480742,111.628983 140.412806,114.246132 140.412806,111.772673 Z M58.59663,114.735343 C58.59663,112.604813 57.4817516,110.650562 54.8006144,110.650562 C52.1505,110.650562 50.8242794,112.604813 50.8242794,114.735343 C50.8242794,116.978824 52.1505,118.994921 54.8006144,118.994921 C57.4817516,118.994921 58.59663,116.978824 58.59663,114.735343 Z M58.8975502,108.17451 L63.9294327,108.17451 L63.9294327,110.907944 L61.729923,110.907944 L61.729923,118.734947 L63.9294327,118.734947 L63.9294327,121.46801 L58.8975502,121.46801 L58.8975502,119.540423 L58.8382193,119.540423 C57.8136945,120.834739 56.0962001,121.754648 54.2592683,121.754648 C50.5834657,121.754648 47.359819,118.994921 47.359819,114.822001 C47.359819,110.650562 50.5834657,107.887872 54.2592683,107.887872 C56.0058465,107.887872 57.6632344,108.722234 58.8075844,110.16098 L58.8975502,110.16098 L58.8975502,108.17451 Z M25.8886181,103.573854 L22.4241577,103.573854 L22.4241577,108.17451 L20.3758837,108.17451 L20.3758837,110.907944 L22.4241577,110.907944 L22.4241577,118.532374 C22.4241577,120.834739 23.0570208,121.754648 25.6478044,121.754648 C26.1903139,121.754648 27.605337,121.553927 28.1183749,121.46801 L28.1183749,118.878266 L27.244698,118.935668 C26.3710211,118.994921 25.8886181,118.878266 25.8886181,117.900215 L25.8886181,110.907944 L28.3297171,110.907944 L28.3297171,108.17451 L25.8886181,108.17451 L25.8886181,103.573854 Z M73.7857334,110.907944 L75.1712849,110.907944 L71.2255848,114.246132 L71.2255848,100.69488 L66.1037365,100.69488 L66.1037365,103.429054 L67.7607366,103.429054 L67.7607366,118.734947 L66.04363,118.734947 L66.04363,121.46801 L72.7011021,121.46801 L72.7011021,118.734947 L71.2255848,118.734947 L71.2255848,114.908659 L75.0518475,118.734947 L73.8458399,118.734947 L73.8458399,121.46801 L80.6851827,121.46801 L80.6851827,118.734947 L79.3593499,118.734947 L75.1712849,114.533881 L75.1712849,114.47759 L79.3892092,110.907944 L80.6851827,110.907944 L80.6851827,108.17451 L73.7857334,108.17451 L73.7857334,110.907944 Z M41.5740848,113.5562 C41.5740848,112.060422 39.7960961,110.793881 37.6881034,110.650562 C35.850396,110.650562 34.1623731,111.772673 33.7714871,113.5562 L41.5740848,113.5562 Z M45.0381574,115.771166 L33.7714871,115.771166 C33.9824415,118.015759 35.850396,118.994921 37.9890236,118.994921 C40.1571228,118.994921 41.0315753,117.72875 41.1824232,117.555064 L44.6472714,117.555064 C44.3758227,118.878266 42.4780088,121.754648 37.6881034,121.754648 C33.4100726,121.754648 30.1864259,118.994921 30.1864259,114.822001 C30.1864259,110.650562 33.4100726,107.887872 37.6881034,107.887872 C42.4780088,107.887872 45.0381574,111.22532 45.0381574,115.771166 Z M97.508407,111.772673 C97.508407,108.779265 94.4957147,107.887872 93.2009046,107.887872 C92.1767676,107.887872 91.3023152,108.090815 90.4891326,108.434855 C89.6755622,108.779265 88.9236494,109.298103 88.230292,109.901747 L88.230292,100.69488 L82.7470291,100.69488 L82.7470291,103.429054 L84.7654438,103.429054 L84.7654438,118.734947 L82.7470291,118.734947 L82.7470291,121.46801 L90.4298016,121.46801 L90.4298016,118.734947 L88.230292,118.734947 L88.230292,112.521117 C89.1334404,111.51418 90.4298016,110.650562 91.8754596,110.650562 C93.1404104,110.650562 94.0435588,111.427151 94.0435588,112.604813 L94.0435588,118.734947 L92.0561669,118.734947 L92.0561669,121.46801 L99.5272094,121.46801 L99.5272094,118.734947 L97.508407,118.734947 L97.508407,111.772673 Z M17.9088032,115.484528 C17.9088032,119.367477 14.9860767,121.927964 11.0101295,121.927964 C8.99093928,121.927964 7.15361967,121.410979 5.58658536,120.172953 L5.58658536,121.46801 L2.42382073,121.46801 L2.42382073,114.360935 L5.46637238,114.360935 C5.82817466,117.094369 7.75623568,119.051212 10.7080459,119.051212 C12.4557875,119.051212 13.9921869,117.72875 13.9921869,116.000773 C13.9921869,113.182904 11.7023236,113.211419 8.08701526,112.173744 C7.1838668,111.917103 2.24233792,111.339012 2.24233792,105.961396 C2.24233792,104.033809 3.93036077,100.235296 9.02118642,100.235296 C10.7080459,100.235296 12.304164,100.925968 13.4795367,101.989567 L13.4795367,100.69488 L16.6426891,100.69488 L16.6426891,106.909821 L13.6303846,106.909821 C13.3895709,105.818077 12.8773085,104.8678 12.1544795,104.205273 C11.4010156,103.514231 10.4067379,103.111678 9.2011181,103.111678 C7.42390497,103.111678 6.15934202,104.148242 6.15934202,105.931769 C6.15934202,107.916758 9.11115226,108.290425 12.0641258,109.125898 C15.0167117,109.96063 17.9088032,110.995342 17.9088032,115.484528 Z" id="Fill-3"></path>
                <path d="M277.501018,87.5189038 L276.372303,91.9494643 L275.235098,87.5189038 L274.468472,87.5189038 L274.468472,92.7550652 L274.978572,92.7550652 L274.978572,89.6642382 C274.978572,89.5399986 274.975619,89.3502152 274.972666,89.0865729 C274.966392,88.8229306 274.963439,88.6287451 274.963439,88.5005924 L274.963439,88.3382005 L276.101013,92.7550652 L276.631782,92.7550652 L277.760497,88.3382005 C277.760497,88.6204298 277.760497,88.8845613 277.756068,89.1320622 C277.752746,89.3800523 277.75127,89.560053 277.75127,89.6642382 L277.75127,92.7550652 L278.262846,92.7550652 L278.262846,87.5189038 L277.501018,87.5189038 Z M270.782615,87.5189038 L273.988639,87.5189038 L273.988639,88.140591 L272.655072,88.140591 L272.655072,92.7550652 L272.115075,92.7550652 L272.115075,88.140591 L270.782615,88.140591 L270.782615,87.5189038 Z" id="Fill-4"></path>
                <path d="M171.257234,85.1042365 C169.264054,85.1042365 165.156048,84.0229863 162.775079,81.6503087 C162.568981,81.3663918 162.052575,81.1601577 161.951463,81.2958069 L160.542097,79.6841842 L159.123432,78.1884943 L158.46485,76.8986441 L156.724255,75.2483772 C154.404495,72.1469795 153.083843,70.5807046 152.779733,70.5807046 L150.740451,67.9095199 L156.858683,64.2028272 L157.150009,64.5009399 L157.587385,64.3542495 L158.024374,64.5009399 C158.195218,64.5009399 158.339719,64.252907 158.461363,63.7596014 L158.461363,63.6113337 L158.3157,63.4630659 L158.752689,63.3132209 L158.752689,63.0166855 L158.607026,62.8699951 L159.044015,63.0166855 C160.403019,62.2284218 162.004925,61.4866889 163.851668,60.7938529 C166.666914,60.3474724 169.312866,60.0426561 169.312866,59.7946231 L169.279937,51.1233282 L140.948104,51.0842896 L140.656778,51.3812193 L140.688545,59.6092885 L140.834208,59.7559789 C143.165203,60.0284602 144.330506,60.6712165 144.330506,61.6834591 C144.137193,61.6834591 144.03918,61.9283374 144.03918,62.425192 C142.533351,63.6578645 139.184265,65.6870816 133.987274,68.5045624 L134.132937,68.9477882 C134.132937,69.2459009 133.695948,69.6891267 132.82197,70.2841692 L132.093655,70.1355072 L131.947992,70.1355072 L131.802329,70.2841692 L131.802329,70.1355072 L131.431974,70.1985998 L131.431974,69.118927 L131.634585,67.3314336 L131.634585,66.436701 L131.684947,64.1898143 C131.626449,63.3171642 132.168036,61.9760512 132.859935,61.5852712 C133.55842,61.1909422 134.14882,60.4216063 135.29824,60.0525143 C136.755257,59.9042466 137.48396,59.7074764 137.48396,59.4578662 L137.48396,55.4538494 L137.597856,51.529487 L137.452193,51.3812193 L137.597856,51.3812193 L137.30653,51.0842896 L119.093236,51.0842896 L112.607748,51.2810598 L107.904693,51.0748257 L107.595934,51.3891059 L107.595934,54.3789085 L107.440974,55.9522812 L107.595934,56.1092242 L107.440974,56.2665615 L107.440974,56.8959106 L107.904693,56.7385733 L108.059654,56.7385733 L108.059654,57.2101908 L107.749733,57.2101908 L107.749733,57.5248653 C109.811096,57.5248653 111.612901,57.6822026 113.158632,57.9968772 C115.837901,58.7307235 117.177536,60.6712165 117.177536,63.8175677 L117.023737,63.9756937 L117.177536,64.6042541 L117.177536,68.537686 L117.023737,69.3239781 L117.177536,69.4817097 L117.023737,69.9537215 L117.023737,70.1106644 L117.177536,70.2680017 L117.023737,71.2112367 L117.023737,76.4029725 C117.023737,76.6135442 117.177536,76.7180414 117.487844,76.7180414 L117.487844,77.9771339 C117.487844,79.8119468 117.229447,81.1755365 116.714978,82.0671144 C116.095911,83.9551617 113.313593,84.8987911 108.368413,84.8987911 C107.852394,84.8987911 107.595934,85.2655171 107.595934,85.9993634 L107.595934,91.6635053 L107.749733,91.8204482 L107.595934,91.9781798 L107.595934,92.9222035 L107.749733,93.0791464 L110.040825,93.1035948 L118.820893,92.9249638 L137.338297,93.1197623 L137.48396,93.1197623 L137.629623,92.9714946 L137.48396,92.5247199 L137.629623,91.9332263 L137.629623,85.8518843 C137.629623,85.5797973 137.388659,85.4331069 136.90092,85.4086585 C134.351819,85.4086585 132.894802,84.2714136 132.530644,81.9969239 L132.530644,79.9223589 C133.233778,79.2311002 134.449831,78.4881843 136.172606,77.6983433 L136.172606,77.3998362 L133.695948,77.3998362 L133.695948,77.2519629 L138.940202,74.2873973 C140.156643,75.1257408 141.03062,76.1636148 141.562523,77.3998362 L141.271197,77.3998362 C141.271197,77.7965312 146.338408,81.7969991 146.750216,83.2816478 L146.750216,83.4295212 C146.750216,84.5190522 145.632175,85.0608603 143.39958,85.0608603 L142.233889,85.0608603 C141.942563,85.0608603 141.7969,85.9504666 141.7969,87.7281017 L141.8953,92.6891551 L142.040576,92.8358454 L141.8953,92.9841132 L141.8953,93.8737194 L142.040576,94.0223814 L167.243368,94.1702548 L168.554334,94.3173395 L168.700385,94.1702548 L170.772595,94.2140253 L172.227675,94.2140253 L172.519389,93.9159126 L172.421376,85.4027436 L171.257234,85.1042365 Z M72.9839354,85.4831867 L72.8374976,85.4831867 L72.8297496,85.4926506 L72.8169653,85.2864165 C71.9968364,85.1752157 71.3812554,85.0738732 71.0639736,85.0170898 C70.9113374,84.9883038 70.824172,84.9737136 70.824172,84.9737136 L70.1977438,84.8948478 L69.9869974,84.7544667 L70.0179895,84.4725214 C70.0195391,84.4725214 69.7994951,84.6708689 69.7994951,84.6708689 L69.7522321,84.7110905 L69.4504463,84.7773377 L69.0924874,84.5789902 L68.6609221,84.6724462 L68.2684844,84.5273331 L67.8349821,84.3514624 C65.6523621,84.2307977 67.1395964,82.0213723 66.5987839,80.3711054 C66.0579715,78.7204441 66.1625699,75.1308671 66.1625699,75.1308671 C65.8282424,73.4510255 65.7507621,64.9729517 65.8123589,64.3475459 C65.9405888,63.0431056 66.706869,61.2031664 67.34182,60.0848493 C68.2200592,58.5375023 69.4361125,58.227954 69.4361125,58.227954 L70.2190509,58.2295313 L70.4851957,58.2389952 C70.598317,58.2409668 70.7052398,58.2409668 70.810613,58.2409668 L70.8206854,58.2906523 L71.0442161,58.3730671 L72.1994473,58.4408916 L72.3218662,58.4148659 L72.5151796,58.345464 L72.7631165,58.2926239 L72.8770125,58.3245646 L72.8770125,55.91482 C72.9467448,55.7503848 73.0211259,55.5910759 73.0970566,55.4526664 C73.0629653,54.6111683 72.9719259,53.9810305 72.8231637,53.5827582 L72.9688267,53.1363778 L72.8231637,52.3950392 L73.1152645,52.1000811 L73.1152645,51.9518134 L72.9688267,51.8035457 L73.1152645,51.655278 L73.1152645,51.0618128 L72.8231637,50.7652774 L73.1152645,50.4671647 C73.0676141,50.2447631 72.7255386,49.9983075 72.0952363,49.7274035 L70.3616146,49.8949933 L69.778188,49.7467256 L65.7000125,50.0416837 L65.7000125,49.8949933 L65.4086866,49.8949933 L65.2622488,50.0416837 L65.1161984,50.0416837 L64.9709229,49.8949933 L62.4942651,50.1899514 L61.1825237,50.0416837 L56.3764207,50.1899514 L55.938657,50.1899514 L55.211117,50.3382191 L55.0646793,50.1899514 L54.1907015,50.3382191 L53.3174985,50.1899514 L53.1710608,50.1899514 L53.0250104,50.3382191 L52.8793474,50.3382191 L52.7344593,50.1899514 L52.1510326,50.3382191 L51.8589319,50.3382191 L51.1313919,50.1899514 C51.1313919,50.3382191 50.8408408,50.4383787 50.2570267,50.4880641 L49.2377734,50.1899514 L48.2177453,50.3382191 C47.5866682,50.3382191 46.954429,51.0815293 46.3241268,52.5642064 C45.9359505,53.750348 45.4024986,54.8883816 44.7214468,55.9731807 C44.4537524,57.5560173 43.4356612,59.3352298 41.6621372,61.3127898 L41.8093498,61.9058607 L41.2243735,62.944129 L41.2243735,63.0923967 L41.3715861,63.2406644 L41.2243735,63.2406644 L40.0598446,65.1681446 C38.6268465,68.3062149 37.6567931,70.185587 37.1477476,70.8027119 C36.2950769,69.8630258 35.7124251,68.9738139 35.397855,68.1323158 C34.9120536,67.9856254 34.6687654,67.7371981 34.6687654,67.3909772 C30.5433269,60.6215311 27.9686566,56.7145192 26.9501781,55.6782226 C26.730134,54.8383018 26.099057,53.8004278 25.0565596,52.5642064 C24.4967644,51.2779051 23.768837,50.6367262 22.8704529,50.6367262 L18.789953,50.6367262 L18.6450648,50.7845995 L18.6450648,50.6367262 L17.6269737,50.7845995 L6.11766274,50.7845995 L5.97199978,50.9332616 L5.97199978,50.7845995 L5.24174796,50.9332616 L3.20362871,50.9332616 L2.4749265,50.7845995 L2.33003834,50.9332616 L1.45567317,50.7845995 L1.31039761,50.7845995 L0.580145791,50.9332616 L0.436032435,50.7845995 L-0.00173125273,51.2282197 L-0.00173125273,54.9353067 C-0.00173125273,57.3095617 0.193131699,58.495309 0.580145791,58.495309 L0.872246517,58.495309 L1.01790948,58.3470413 L1.16279764,58.495309 L2.03716281,58.495309 C4.83032758,58.495309 6.81963425,59.0386944 8.01166864,60.1266482 C8.88525901,61.0403085 9.32147309,63.2647185 9.32147309,66.7994837 L9.32147309,73.620587 L9.46636125,73.766883 L9.32147309,73.9155451 L9.32147309,75.1032641 L9.46636125,76.8808993 L9.32147309,77.0307443 L9.46636125,77.6222378 L9.46636125,80.2934225 L9.61202422,81.0347611 L9.46636125,81.0347611 C9.46636125,83.0604292 9.03053457,84.4433411 8.1561694,85.1846796 L8.01166864,85.1846796 L7.57196795,85.7797221 L5.26964087,87.336533 L4.81599372,87.336533 L4.80475908,87.2608219 L5.24174796,87.1125542 L4.95042204,86.8175961 L4.66180793,87.1125542 L4.51575757,86.9662581 L3.93078131,87.1125542 L3.78744276,87.1125542 L3.6417798,86.9662581 L2.76625242,87.2608219 L2.62175166,87.2608219 L2.4749265,87.1125542 L1.45567317,87.2608219 L1.01790948,87.1125542 C0.726583555,87.1125542 0.580145791,87.2138967 0.580145791,87.4106669 L0.580145791,88.7450763 C0.872246517,88.7450763 1.01790948,89.0916915 1.01790948,89.7833446 L0.726583555,89.7833446 L0.726583555,89.4868091 L0.436032435,89.4868091 L0.580145791,90.2281477 L0.580145791,92.8957835 L0.726583555,93.0440512 L0.580145791,93.0440512 L0.726583555,93.6386993 L1.01790948,93.9336574 L4.836526,93.9336574 L4.836526,94.094938 L8.94220703,94.094938 L8.94220703,93.5255269 L10.0191832,93.5255269 C10.1292052,93.6142509 10.1954509,93.6998203 10.1954509,93.7865727 L11.7981308,93.4900373 L11.7981308,93.3417696 L11.6532427,93.1938962 L11.6532427,92.7490931 L11.9453434,92.7490931 L11.9453434,93.1938962 C11.9453434,93.4162977 12.8677464,93.6611761 14.7117775,93.9336574 L15.1479916,93.7865727 L15.1479916,93.9336574 L15.7329678,93.7865727 L16.3152323,93.9336574 L16.8951723,93.7865727 L18.2088508,93.9336574 L18.5009515,93.6386993 L18.935616,93.7865727 L21.2685478,92.7490931 L21.4130485,92.7490931 L21.4130485,92.8957835 L21.2685478,93.0440512 L21.5571619,93.3417696 L22.4342389,93.3417696 C24.0849566,93.3417696 25.0065848,92.9474406 25.2022225,92.1556279 L25.0565596,91.5625571 L25.0565596,87.4106669 L24.7644588,86.5210606 C22.6031459,86.5210606 20.9508785,86.274605 19.8095937,85.7797221 C18.4502019,84.7418481 17.7726367,83.4054671 17.7726367,81.7757053 L17.6269737,72.434051 L17.4797612,71.6927124 L17.6269737,71.5444447 L17.4797612,70.5065708 L17.6269737,68.875626 L17.6269737,66.3531033 L17.9159752,66.3531033 C20.6607148,70.7289723 22.7480341,73.892674 24.1806448,75.8434196 L21.5571619,75.9928703 L21.5571619,76.2894057 L27.095841,84.4433411 C29.3268862,87.5333032 30.4449269,89.2644076 30.4449269,89.6346825 C31.3200669,90.350784 31.9011692,91.0933055 32.1936573,91.8575152 C33.9420002,92.3527924 34.815978,92.6990133 34.815978,92.8957835 L37.5824121,92.6008254 L40.0598446,87.85547 L41.081035,85.7797221 L42.0983513,83.8518475 L41.9554001,83.110509 C42.2924394,83.110509 42.8278283,82.5655463 43.5561431,81.4779869 L43.265592,81.0347611 C43.8718753,80.5138525 44.9391664,78.6877148 46.4709519,75.5476729 L46.4709519,75.3997995 L44.1395697,75.3997995 L50.1113638,63.6850732 L50.4026897,63.6850732 L50.4026897,65.7616098 L50.5495149,67.2427095 L50.4026897,67.3909772 L50.5495149,69.021922 L50.5495149,73.0255445 L50.6951778,73.1753895 L50.5495149,73.1753895 L50.6951778,74.5101932 L50.5495149,75.2519261 L50.6951778,75.3997995 L50.5495149,75.9928703 L50.6951778,76.5859412 L50.6951778,77.4755474 L50.9857289,77.4755474 L50.9857289,77.7705055 C50.6951778,77.7705055 50.5495149,78.0189328 50.5495149,78.5118441 L50.8408408,78.5118441 L50.6951778,79.6983801 C50.6951778,80.4913757 50.9380786,80.8864934 51.4234926,80.8864934 C51.0357037,81.4306674 50.8408408,81.923973 50.8408408,82.3671988 C50.3546519,84.3467305 49.5767497,85.5813746 48.5090712,86.0762575 L47.9271941,86.5210606 L47.9271941,86.3712156 L47.3437675,86.5210606 L47.1973297,86.5210606 L47.0532164,86.3712156 L46.6154527,86.5210606 L46.4709519,86.5210606 L46.3241268,86.3712156 L45.3048734,86.6693283 L44.5773334,86.5210606 L44.4301209,87.4106669 L44.4301209,87.5589346 L43.9923572,87.4106669 L43.1183794,87.7072023 L42.5357276,87.5589346 L42.5357276,87.7072023 C42.8278283,88.0037377 42.9734912,88.3483813 42.9734912,88.7450763 C44.1395697,88.9177924 44.7214468,89.3109384 44.7214468,89.9296406 L44.5773334,90.0783027 L44.7214468,90.9679089 C44.5281334,92.3527924 44.2352579,93.0440512 43.8490186,93.0440512 L43.8490186,93.1938962 C43.8490186,93.4900373 44.5773334,93.6868075 46.0335756,93.7865727 C46.0335756,93.6142509 46.3737142,93.4663775 47.0532164,93.3417696 L47.4894305,93.7865727 L47.6350934,93.7865727 L48.3634082,93.6386993 L48.5090712,93.7865727 L48.655509,93.7865727 L48.8011719,93.6386993 L51.1313919,93.7865727 L53.0250104,93.7865727 L53.1710608,93.6386993 L53.1710608,93.7865727 L53.8993756,93.6386993 L55.6473311,93.6386993 L55.7929941,93.4900373 L55.7929941,93.6386993 L58.5609777,93.4900373 C58.5609777,93.4679549 58.5753116,93.4470554 58.5764738,93.4257616 L61.1631536,93.4257616 L61.1825237,93.4900373 L61.1825237,93.6386993 L61.0384103,93.7865727 L61.3289614,93.7865727 C61.3289614,93.609519 61.4649393,93.5002898 61.6660007,93.4257616 L61.9286589,93.4257616 C61.9728227,93.8433561 62.7863658,93.6386993 62.7863658,93.6386993 L62.7863658,93.4257616 L69.1699677,93.4257616 L69.1699677,93.2100637 L70.2159517,93.3417696 L72.6918346,93.1938962 C72.9839354,93.1938962 73.1292109,93.0941309 73.1292109,92.8957835 L73.1292109,86.5210606 L72.8374976,85.6314544 L72.9839354,85.4831867 Z M270.635403,79.6128107 C270.635403,75.290176 269.654889,74.0188593 267.905384,71.6205502 C266.703665,70.0858217 264.62913,68.1918595 262.429852,67.2604543 C261.299027,66.7813446 257.975509,65.9867716 256.582026,65.6677595 L256.146587,65.8164215 C248.921162,64.7367487 244.875528,64.3767263 242.764577,64.1641829 L242.902492,64.0510105 C242.140861,63.7205628 241.523343,63.3680327 241.048388,62.9953917 L241.206448,62.5604468 L241.061173,62.4121791 C240.779144,62.3494808 240.519198,62.27653 240.267387,62.1976641 C240.201141,62.1057855 240.167825,62.0044429 240.117075,61.9042834 C240.09848,62.1105174 240.041144,62.2863882 239.914852,62.3411999 C239.914852,62.3411999 237.37621,61.7773094 237.04227,60.9681463 L237.430058,60.9164892 L237.234033,60.5166396 C237.368462,60.48115 237.495142,60.4716861 237.628408,60.4523639 C237.400229,60.0635555 237.27626,59.6317653 237.27626,59.1483179 L237.27626,59.0016275 C237.27626,58.6341129 237.363425,58.289075 237.495142,57.9538953 L237.511025,57.9732174 L237.802351,57.9732174 L237.802351,57.7638287 L238.017746,57.7638287 L238.093677,57.5284143 C237.990628,57.4637444 237.908112,57.376992 237.824046,57.2945772 C237.88758,57.2094021 237.98288,57.130142 238.055712,57.0433896 L238.093677,57.0836112 L238.24089,57.0836112 L238.385003,56.9353435 C238.385003,56.7902304 238.410184,56.6821842 238.456285,56.6080504 C238.460934,56.6048958 238.464033,56.6001638 238.46752,56.5966149 C238.51672,56.5291846 238.584515,56.4885687 238.676329,56.4885687 L238.676329,56.4357286 C238.765044,56.3647494 238.875841,56.3000794 238.970754,56.2306775 L238.970754,56.2302832 L238.969205,56.2306775 L238.969205,56.1309123 L239.110219,56.1309123 C239.227214,56.0504692 239.327164,55.9648998 239.460042,55.8876113 L239.898968,56.1841467 L240.044631,56.1841467 C240.649365,55.096193 242.834697,54.5516246 246.599852,54.5516246 L247.474217,54.699498 L247.762056,54.998005 L249.94855,55.2945405 L249.222172,54.998005 L249.510012,54.699498 L250.968578,55.1462727 C254.586908,56.1340669 257.305692,57.1723352 259.126866,58.2587116 L261.894463,60.6325723 C262.548784,61.967376 263.036135,62.7603716 263.353029,63.0036726 L264.953772,63.0036726 L266.40924,63.1519404 L266.556065,63.0036726 L267.137167,63.1519404 L269.176836,63.1519404 C269.470099,63.1519404 269.615762,62.5119444 269.615762,61.2240658 L269.615762,50.6962698 L269.324049,50.4009174 L263.495593,50.4009174 C263.108966,51.7873782 262.475565,52.4770597 261.601587,52.4770597 L261.313361,52.4770597 L251.404018,49.6580015 L250.384377,49.8062693 L250.241813,49.8062693 C250.168982,49.3389894 248.224614,48.944266 244.41297,48.6217049 L243.828769,48.7683953 L242.955179,48.7683953 L241.93825,48.6217049 C241.93825,48.8216297 241.694574,48.916663 241.206448,48.916663 L240.186807,48.916663 C240.186807,48.916663 239.759504,49.2372525 239.781585,49.2585463 L237.431608,49.2372525 L237.428509,49.2147757 L234.505565,49.954537 L234.651228,50.1047763 L234.505565,50.1047763 C233.924462,50.1047763 233.631587,50.2045416 233.631587,50.4009174 C233.625388,50.4044664 233.618803,50.407621 233.612604,50.4107756 L233.123316,50.8445375 L233.026466,50.7124373 C232.057575,51.1895754 231.178561,51.6970769 230.385162,52.2337587 C230.318917,52.3126245 230.2364,52.3658589 230.135288,52.3966165 C226.749399,54.7708715 225.039409,57.7105943 225.039409,61.2240658 L225.039409,61.8191083 L225.328023,61.8191083 L225.328023,62.2623341 L225.039409,62.2623341 L225.039409,63.0036726 C225.039409,64.3156053 225.377998,65.651592 226.05905,67.0069008 C226.979128,69.4332072 228.922334,71.4072182 231.882856,72.9403694 C233.415804,73.8299757 237.298729,74.7195819 243.538993,75.6076109 C243.538993,75.6076109 244.218495,75.7578502 244.41297,75.7578502 L244.56057,76.0543857 L244.267307,76.0543857 L244.267307,76.6474565 L244.41297,76.7957242 L244.56057,76.7957242 L245.141673,75.9092726 C248.539958,76.1060428 250.241813,76.4506863 250.241813,76.9439919 L250.822915,76.6474565 L251.135161,76.6730879 L253.472354,77.2598494 C253.472354,77.2598494 253.877576,77.388795 254.840269,77.6206605 C255.802962,77.8525259 257.761664,79.6502719 257.761664,79.6502719 L259.055585,81.8273624 L258.767358,81.8230248 C258.806873,82.1885678 258.833991,82.656242 258.833991,83.3198977 L258.833991,83.4681654 C258.833991,85.2237182 256.843135,86.6062357 252.862584,87.6184783 L247.492812,87.7817305 L246.124898,87.5238393 L244.712819,87.4075123 L244.712819,87.55578 L244.603184,87.6654034 C244.443188,87.5459217 244.281641,87.4721822 244.121644,87.4721822 C242.105994,87.0526161 239.8242,86.1630099 237.27626,84.8009975 C234.603965,83.2228928 232.855622,81.1475392 232.030456,78.5749367 L233.050485,78.5749367 L233.050485,78.276824 L232.904434,78.1281619 L231.447805,75.1643851 L225.474848,75.1643851 L225.18236,75.4593432 L225.18236,78.276824 L225.474848,78.7232044 L225.474848,83.9113912 L225.328023,84.0596589 L225.474848,84.209504 L225.474848,84.5060394 L225.328023,84.6547014 L225.474848,84.6547014 L225.328023,85.2477723 L225.474848,85.8392658 L225.328023,86.4339139 L225.328023,87.6184783 L225.474848,87.7671403 C225.474848,87.7671403 225.328023,88.9063568 225.328023,89.1027327 L225.328023,92.0688755 L225.620511,92.3634393 L231.156479,92.3634393 L231.301754,92.2171432 C231.713949,90.4375364 232.126919,90.3988921 233.362343,90.3988921 C234.407165,90.3988921 235.208311,90.92611 236.30117,91.2242228 C239.993882,93.1986281 244.751947,93.3066743 249.222172,93.9967501 L249.367835,93.9967501 L249.510012,93.8484823 L249.94855,94.2913138 L251.404018,94.1450178 L252.571258,94.1450178 C252.571258,94.6395063 252.667721,94.8895109 252.862584,94.8895109 L253.152361,94.8895109 L253.152361,93.9967501 L253.009797,93.8484823 L253.152361,93.8484823 L253.298024,93.6998203 L253.445236,93.6998203 L253.590899,94.1450178 C257.378524,94.1450178 259.272529,93.6517122 259.272529,92.660369 L259.418192,92.660369 L260.000844,93.1067495 L261.313361,92.2171432 L261.74725,92.660369 C267.770569,90.3409258 270.782615,86.3838341 270.782615,80.7993467 L270.635403,79.6128107 Z M223.405737,83.442534 L223.255038,83.2993926 L223.250002,83.1491532 L223.392565,82.9957593 L223.234505,82.559237 L223.354987,81.6629272 L223.348402,81.5146595 L223.199639,81.3730954 L223.339104,81.2165468 L223.231019,77.5130087 L222.781246,77.0824014 L216.083461,77.2858752 C215.912617,77.2902128 215.746035,78.1849453 215.579839,79.9704671 C214.708961,83.4602788 212.721979,85.2509269 209.615019,85.3424112 L209.469356,85.3495091 L209.320593,85.2040017 L208.74259,85.3719859 L205.392342,85.4717511 L204.660541,85.3459602 L204.517977,85.5009315 L204.369215,85.3558184 L195.048722,85.6409183 L194.317308,85.51355 L194.177844,80.7701663 L194.228593,77.5031504 L194.361472,77.05677 L194.462971,75.5689666 L194.431592,74.5322757 C200.071383,74.682515 202.912198,75.4348948 202.95365,76.7957242 L202.892828,79.764233 C203.156261,81.2409952 203.418919,81.9708982 203.688163,81.9645889 L210.675724,81.7536229 L210.95814,81.4468349 L210.819837,76.7050285 L211.101866,76.3974519 L211.048017,67.5569898 L211.149516,66.0707637 L210.978672,65.1827348 L211.006952,64.1042449 C210.867488,63.5178777 210.712527,63.2244969 210.542845,63.2308062 L203.409234,63.4468985 L203.26667,63.5998981 C203.325555,65.5983576 202.698352,66.104676 201.268453,67.110215 L201.275039,67.258877 L201.423801,67.4035958 L201.425351,67.4808843 L201.303707,67.4942914 C201.202208,67.4359308 201.129376,67.3282789 201.12279,67.1153413 L200.685802,67.1279598 C200.494425,67.1362407 200.401061,67.2860857 200.408809,67.5826211 L199.821509,67.4520982 L199.390331,67.68909 L199.053292,67.7245796 L198.660854,67.6374329 L198.516741,67.6409818 L198.373789,67.7935872 L197.929053,67.5120363 L197.78339,67.5147966 L197.642763,67.6666132 L197.493613,67.5230775 L196.763749,67.5471315 C196.763749,67.5471315 194.301425,68.0420144 194.271595,67.0281946 L194.394789,66.2837014 L194.238278,65.8416586 C194.314209,64.3562212 194.434304,63.5127514 194.598949,63.309672 L194.431592,62.5714881 C194.649699,62.5667561 194.839526,62.3636767 194.996811,61.9606724 L194.693863,61.5273048 L193.391031,61.8640618 L193.244981,61.8672164 L193.094669,61.724075 C193.104354,61.2291921 193.194619,60.9791875 193.363913,60.9744556 C194.0562,59.6672549 194.472269,59.0095141 194.619869,59.0063594 L195.20562,59.135305 L206.272131,58.8001254 C206.626991,58.4937317 206.964418,58.3344228 207.279375,58.3229873 C207.473076,58.3182553 207.57535,58.5130539 207.586972,58.9097488 L208.606225,58.8774139 C210.645894,58.8162929 212.061072,59.0678748 212.854857,59.6400462 C214.021711,59.6045566 215.04755,61.5012791 215.937798,65.3294252 C215.95988,66.1224208 216.118327,66.5112292 216.409653,66.5009767 L216.69943,66.4934844 L216.841993,66.3416677 L216.992305,66.4867808 L223.251939,66.2951369 L223.394115,66.1433202 L223.11751,51.7613525 L223.104339,51.3149721 C223.095041,51.0184366 222.072301,50.9021096 220.03302,50.9636249 L212.752196,51.1876038 L212.021944,51.0602355 L211.878218,51.2136295 L211.291692,51.0831066 L205.759212,51.2506964 L205.026248,51.1249055 L204.885234,51.2779051 L203.133792,51.1812945 L202.988516,51.1876038 L202.845565,51.3390261 L202.701452,51.3441524 L202.551527,51.2006166 L202.1188,51.3603199 L200.803184,51.2522737 L190.716412,51.0070011 C190.887256,51.4281445 188.176607,51.3200983 188.613596,51.4198636 L185.652299,50.8993493 L185.196715,50.836651 L171.655096,51.2487248 L171.37268,51.5551184 L171.385464,51.9983442 L171.160772,59.2741088 L171.16697,59.4219822 L171.31612,59.565518 C175.445819,59.5899664 177.691198,59.9188368 178.04877,60.5489745 C179.059113,61.0115225 179.816096,61.9799945 180.31933,63.4468985 C180.349548,64.4346926 180.509544,64.922872 180.80087,64.9153797 L180.531626,65.6661821 L180.630026,75.9881384 C180.477777,80.768589 180.021806,83.4508149 179.263274,84.0403368 C178.207217,85.2623624 179.203227,85.5119727 175.34587,85.6282998 C174.957694,85.6894207 174.767867,85.845575 174.777164,86.0904534 L174.880601,89.6492727 L174.86278,92.3941969 L175.011542,92.53931 L174.870528,92.6907324 L174.922827,94.4703392 L175.224226,94.7554391 L180.066357,94.9250006 L182.545727,94.9991344 L182.68829,94.8425858 L184.001194,94.9537866 L192.885472,94.6832769 L193.617274,94.8086735 L193.756351,94.6572512 L193.902401,94.6540965 L194.05465,94.796055 L194.198376,94.7909287 L194.34094,94.637929 L197.11241,94.7010217 L203.664532,94.5007025 L204.395946,94.6264935 L204.53696,94.4766485 L205.12581,94.6055941 L212.406634,94.3867414 L213.138435,94.5121381 L213.277512,94.3575611 L213.429761,94.5007025 L221.729838,94.2510923 L222.46164,94.3768832 L222.600717,94.2219119 L222.752965,94.367025 L223.189954,94.3528292 L223.614546,93.8965905 L223.281768,84.1858442 L223.405737,83.442534 Z M106.340366,51.2853974 L106.194703,51.4324821 L106.340366,51.5803555 L106.340366,57.7709267 C106.340366,58.0658848 105.374574,58.2133638 103.443765,58.2133638 C101.222405,58.2133638 99.4852967,59.0974495 98.2297285,60.8664094 C97.8450388,61.996162 97.6517255,62.9792243 97.6517255,63.8136244 L97.6517255,71.036549 L97.7973884,71.9206346 L97.6517255,72.0681137 L97.7973884,73.8370736 L97.7973884,75.900203 L97.6517255,76.4901192 L97.7973884,77.0792468 L97.7973884,77.669163 C97.7973884,77.8655388 97.6044625,77.9649097 97.2178358,77.9649097 L97.2178358,79.4381229 L97.3619492,80.0280391 L97.2178358,80.1755182 C97.2178358,82.5083686 98.5702544,84.1799293 101.270055,85.1866513 L102.140934,85.4804264 L104.747371,85.1866513 C105.6167,85.1866513 106.04904,85.4331069 106.04904,85.9240465 L106.340366,90.19739 L106.194703,91.5247015 L106.194703,92.5562662 L106.04904,92.7037452 L106.04904,92.8500413 C99.1482574,93.0472058 89.7347885,93.1453937 77.8125076,93.1453937 L77.3793927,93.1453937 L76.5108386,93.2928728 L76.3651756,93.1453937 L76.2202874,93.1453937 L75.785623,93.2928728 L75.785623,93.1453937 L75.6411222,93.2928728 L75.4958466,93.2928728 C75.0131444,93.1706308 74.7725681,93.0227574 74.7725681,92.8500413 L74.7725681,85.9240465 L75.0623444,85.6290884 C78.9479814,85.6290884 81.4087556,85.0399609 82.447379,83.8601285 C83.2194702,82.8285638 83.6057095,81.4527498 83.6057095,79.733081 L83.6057095,78.4057696 C83.9915614,78.062309 84.1844873,77.7180598 84.1844873,77.3742049 L84.1844873,73.5421155 L84.0395992,72.952988 L84.1844873,72.3630718 L84.1844873,72.0681137 L84.0395992,71.1832394 L84.3293755,70.5945061 L84.1844873,70.4474214 C84.1844873,63.7655163 83.7505977,60.4239722 82.8812687,60.4239722 C81.9162516,59.1467406 80.2267937,58.5083219 77.8125076,58.5083219 L75.0623444,58.5083219 L75.0623444,58.2133638 L75.2064577,56.886841 L74.918231,56.4436152 L75.0623444,55.7077973 L75.0623444,54.971585 L74.918231,51.2853974 L75.3517333,50.9908336 L81.5772753,50.8437489 L82.0127146,50.6962698 L82.0127146,50.8437489 L82.1568279,50.6962698 L90.8470182,50.5480021 L94.611786,50.5480021 L98.2297285,50.4009174 L98.2297285,50.5480021 L98.6651678,50.4009174 L99.0990575,50.5480021 L99.5344967,50.4009174 L100.693602,50.5480021 L101.125942,50.4009174 L101.270055,50.5480021 L101.415718,50.5480021 L101.561381,50.4009174 L101.705495,50.4009174 L102.574824,50.5480021 L102.720487,50.4009174 L102.8646,50.4009174 L103.008713,50.5480021 L103.155926,50.5480021 L104.313482,50.4009174 L104.747371,50.5480021 L105.6167,50.4009174 L105.904539,50.4009174 C106.194703,50.4994997 106.340366,50.7944578 106.340366,51.2853974 Z" id="Fill-5"></path>
            </g>
        </g>
    </g>
</svg>