<svg version="1.1" id="Layer_1" xmlns="http://www.w3.org/2000/svg" xmlns:xlink="http://www.w3.org/1999/xlink" x="0px" y="0px"
	 viewBox="0 0 68.6 40.5" style="enable-background:new 0 0 68.6 40.5;" xml:space="preserve">
<style type="text/css">
	.st0{fill:#9C182F;}
	.st1{fill:#FFFFFF;}
</style>
<g>
	<path class="st0" d="M0.6,0.1c0,0-0.5,0.9-0.5,1.4s-0.2,4.9,0,5.7C0.3,8,0.3,8,0.3,8s5.2-0.5,6.3,0.7c1.1,1.2,1.9,2.1,1.9,4.4
		c0,2.3,0.4,15.6,0.4,15.6s-0.1,3.3-1.5,4.2c-1.4,0.8-4.6,1.4-5.5,1.4c-0.8,0-1.3-0.1-1.4,0.2c-0.1,0.4,0,5.1,0,5.1s0.4,0.6,0.6,0.7
		c0.2,0.2,20.9,0,20.9,0s1.2-0.4,1.2-1c0-0.6,0.1-4.5,0.1-4.5s-0.4-1.2-0.8-1.2c-0.5,0-5.8,0.2-5.9-4.4l-0.1-13.7
		c0,0-0.1-0.8,0.5-0.2c0.6,0.6,5.7,8.6,5.7,8.6L21,24.1c0,0-0.7-0.1-0.4,0.6c0.4,0.7,9.5,13.6,9.5,13.6s0.8,1.1,1.8,1.4
		c1.1,0.4,2.4,0.4,2.9,0c0.5-0.4,8.6-15.5,8.6-15.5s0.2-0.8-0.1-0.8c-0.4,0-1.4-0.1-1.4-0.1l4.8-10c0,0,0.8-0.8,0.8-0.1
		c0,0.7,0.5,14.4,0.5,15.9c0,1.5-1.4,4.2-3.1,4.5C43.2,34,42.5,34,42.5,34S42,33.7,42,34.3c0,0.6-0.1,5.2-0.1,5.2s0,0.7,0.4,0.8
		c0.4,0.2,25.7,0,25.7,0s0.1-0.2,0.5-0.8c0.4-0.6,0.2-5.5,0.2-5.5l-0.7-0.6c0,0-3.8-0.4-4.3-0.6c-0.5-0.2-1.3-1.5-1.4-2.5
		c-0.1-1-0.5-18.3-0.5-18.3s0.8-4.4,3.3-4.9c0.7-0.1,1.9-0.6,2.3-0.6c0.4,0,1-0.2,0.8-0.8c-0.1-0.6,0-4.4,0-4.4s0.1-1.1-1.1-1.3
		c-1.2-0.2-21.7,0.2-21.7,0.2S45,0.8,44.6,1.1c-0.4,0.4-9,17.2-9,17.2s-0.5,1.3-1.4-0.2c-1-1.5-11.3-16.9-11.3-16.9S22.4,0,21.9,0
		C21.4,0,0.6,0.1,0.6,0.1z"></path>
	<g>
		<path class="st1" d="M2.2,0.8c0,0-0.1,0.1-0.1,0.1c0,0.1,0,0.7,0,0.9c0,0.1,0,0.1,0,0.1S3,1.9,3.2,2.1c0.2,0.2,0.3,0.3,0.3,0.7
			c0,0.3,0.1,2.3,0.1,2.3s0,0.5-0.2,0.6C3.1,5.8,2.6,5.9,2.4,5.9c-0.1,0-0.2,0-0.2,0c0,0.1,0,0.8,0,0.8s0.1,0.1,0.1,0.1
			c0,0,3.2,0,3.2,0s0.2-0.1,0.2-0.1c0-0.1,0-0.7,0-0.7S5.6,5.8,5.5,5.8c-0.1,0-0.9,0-0.9-0.7l0-2.1c0,0,0-0.1,0.1,0
			c0.1,0.1,0.9,1.3,0.9,1.3l-0.2,0c0,0-0.1,0-0.1,0.1c0.1,0.1,1.4,2,1.4,2S6.8,6.7,7,6.7c0.2,0.1,0.4,0.1,0.4,0
			c0.1-0.1,1.3-2.3,1.3-2.3s0-0.1,0-0.1c-0.1,0-0.2,0-0.2,0l0.7-1.5c0,0,0.1-0.1,0.1,0c0,0.1,0.1,2.2,0.1,2.4c0,0.2-0.2,0.6-0.5,0.7
			C8.7,5.9,8.5,5.9,8.5,5.9s-0.1,0-0.1,0.1c0,0.1,0,0.8,0,0.8s0,0.1,0.1,0.1c0.1,0,3.9,0,3.9,0s0,0,0.1-0.1c0.1-0.1,0-0.8,0-0.8
			l-0.1-0.1c0,0-0.6-0.1-0.6-0.1c-0.1,0-0.2-0.2-0.2-0.4c0-0.1-0.1-2.8-0.1-2.8s0.1-0.7,0.5-0.7c0.1,0,0.3-0.1,0.3-0.1
			c0.1,0,0.1,0,0.1-0.1c0-0.1,0-0.7,0-0.7s0-0.2-0.2-0.2c-0.2,0-3.3,0-3.3,0S8.9,0.9,8.9,0.9C8.8,1,7.5,3.5,7.5,3.5s-0.1,0.2-0.2,0
			C7.2,3.2,5.6,0.9,5.6,0.9S5.5,0.8,5.5,0.8C5.4,0.8,2.2,0.8,2.2,0.8z"></path>
		<path class="st1" d="M21,5C20.9,5,20.6,5,20.6,5s-0.1,0-0.1,0.1c0,0.1,0,0.6,0,0.7c0,0.1-0.1,0.2-0.2,0.2c-0.1,0-0.3-0.1-0.3-0.3
			c0-0.2-0.1-1.1-0.1-1.3c-0.1-0.1-0.3-0.6-1.1-0.7c0,0,0.2-0.2,0.5-0.2c0.3,0,1-0.3,1.1-0.6c0.1-0.3,0.1-1-0.4-1.4
			c-0.5-0.4-0.8-0.6-1.4-0.6c-0.3,0-5.6,0.1-5.6,0.1h-0.4c0,0-0.1,0-0.1,0.1c0,0.1,0,0.9,0,0.9S12.6,2,12.7,2c0.1,0,0.7,0.1,0.7,0.1
			s0.3,0.1,0.3,0.2c0,0.2,0,2.5,0,2.5l0.1,0.2c0,0-0.3,0.4-0.5,0.4c-0.2,0-0.5,0-0.5,0.1c0,0.1-0.1,0.3-0.1,0.5c0,0.2,0,0.7,0,0.7
			s0.1,0.1,0.1,0.1c0.1,0,4.1,0,4.1,0s0.1-0.1,0.2-0.2c0-0.1,0-0.8,0-0.8S17.1,5.8,17,5.8c-0.1,0-1-0.2-1-0.3c0-0.2-0.2-0.2-0.2-0.2
			V4.2c0,0,0,0,0.1-0.1c0.1,0,1.3,0,1.4,0c0.1,0,0.6,0.1,0.7,0.3c0.1,0.2,0.1,0.3,0.1,0.4c0,0.1,0.1,1.2,0.2,1.5
			c0.1,0.3,0.8,0.7,1.4,0.6c0.6-0.1,1.3-0.3,1.4-1.1c0-0.1,0-0.6,0-0.6S21.1,5,21,5z M18,2.9C18,3,17.8,3,17.7,3
			c-0.1,0-1.8,0.1-1.9,0.1c-0.1,0-0.1-0.1-0.1-0.1c0-0.1,0-0.7,0-0.8c0-0.1,0.1-0.1,0.1-0.2c0,0,1.4-0.1,1.7-0.1
			c0.3,0,0.5,0.3,0.6,0.5C18.3,2.5,18.1,2.7,18,2.9z"></path>
	</g>
</g>
</svg>
