
<svg width="24px" height="24px" viewBox="0 0 24 24" version="1.1" xmlns="http://www.w3.org/2000/svg" xmlns:xlink="http://www.w3.org/1999/xlink">
    <defs>
        <polygon id="path-1" points="0 0.000429658613 23.97625 0.000429658613 23.97625 23.9767188 0 23.9767188"></polygon>
    </defs>
    <g id="Page-1" stroke="none" stroke-width="1" fill="none" fill-rule="evenodd">
        <g id="LOCATIONS-1" transform="translate(-573.000000, -561.000000)">
            <g id="search" transform="translate(573.000000, 561.000000)">
                <g id="Page-1">
                    <mask id="mask-2" fill="white">
                        <use xlink:href="#path-1"></use>
                    </mask>
                    <g id="Clip-2"></g>
                    <path d="M4.629375,15.6865625 C1.5809375,12.6365625 1.579375,7.6771875 4.6278125,4.6271875 C6.15125,3.10375 8.1528125,2.34125 10.1559375,2.34125 C12.1575,2.34125 14.1621875,3.1053125 15.6871875,4.62875 C18.735625,7.67875 18.735625,12.638125 15.6871875,15.6865625 C12.63875,18.735 7.679375,18.735 4.629375,15.6865625 Z M23.97625,22.319375 L18.12,16.463125 C19.541875,14.675625 20.32,12.4771875 20.32,10.156875 C20.32,7.444375 19.26375,4.89125 17.3434375,2.9725 C13.3809375,-0.99 6.9340625,-0.99 2.97,2.9709375 C-0.9909375,6.931875 -0.9909375,13.3803125 2.9715625,17.344375 C4.954375,19.3240625 7.5559375,20.31625 10.1590625,20.31625 C12.391875,20.31625 14.623125,19.5803125 16.46375,18.1209375 L22.32,23.9771875 L23.97625,22.319375 Z" id="Fill-1" fill="#727272" mask="url(#mask-2)"></path>
                </g>
            </g>
        </g>
    </g>
</svg>