<?xml version="1.0" encoding="utf-8"?>
<!-- Generator: Adobe Illustrator 22.0.1, SVG Export Plug-In . SVG Version: 6.00 Build 0)  -->
<svg version="1.1" id="Layer_1" xmlns="http://www.w3.org/2000/svg" xmlns:xlink="http://www.w3.org/1999/xlink" x="0px" y="0px"
	 viewBox="0 0 83.6 36.6" style="enable-background:new 0 0 83.6 36.6;" xml:space="preserve">
<style type="text/css">
	.icon-new{fill:#DF9E2E;}
</style>
<path class="icon-new" d="M79.7,1.2l-1.2,0.4v21.7l-4.4,1l-8-14.6H66l-0.7,16.6l-4.4,1L51.3,7.9l-2,0.2l-0.7-2.9l8.7-2L58,6.1L55.9,7
	l5.7,12.3h0.1L62.4,2l3.5-0.8l8.2,15.2h0.1L74,2.8l-2.3,0.1L71.1,0h0.1c0,0-58.5,2.5-63.2,2.6c-4.8,0.1-8,3.6-8,8v17.9
	c0,4.4,3.6,8,8,8h0.3v-0.1l2.4-1.1l-3.9-17l-2.6,0.1l-0.7-2.9L6,15.1l4.7-1.1L24,27.7h0.1l-2.9-12.6l-2.7,0.1l-0.7-2.9l7.3-1.7
	l2.5-0.6l0.7,2.9L25.9,14l4.7,20.3l-4.7,1.1L12.6,21.7h-0.1l2.9,12.6l2.7-0.1l0.5,2.3c0,0,51.2-2.1,56.9-2.4c4.5-0.2,8-3.6,8-8V8
	C83.6,5.1,82,2.6,79.7,1.2z M34.3,33.5l-0.7-2.8l2.4-1.1l-3.9-17l-2.6,0.1l-0.7-2.9l2.5-0.6l16.2-3.7L49,12l-3.6,0.8L44.5,10
	L37,11.8l1.4,6l8-1.9l0.8,3.7l-8,1.9l1.6,6.8l7.6-1.8L48,23.6l3.6-0.8l1.5,6.5L34.3,33.5z"/>
</svg>
