<svg version="1.1" id="Layer_1" xmlns="http://www.w3.org/2000/svg" xmlns:xlink="http://www.w3.org/1999/xlink" x="0px" y="0px"
	 viewBox="0 0 219 38.1" style="enable-background:new 0 0 219 38.1;" xml:space="preserve">
<style type="text/css">
	.st0{fill:#505050;}
	.st1{fill:#9C182F;}
</style>
<g>
	<path class="st0" d="M9.1,5.8H7.8L7.5,4c-0.3-0.2-0.6-0.4-1-0.5S5.5,3.2,5,3.2c-0.9,0-1.6,0.2-2.1,0.6C2.4,4.2,2.2,4.7,2.2,5.3
		c0,0.5,0.2,1,0.7,1.4c0.5,0.4,1.3,0.7,2.4,1c1.3,0.3,2.3,0.8,3,1.5c0.7,0.6,1,1.4,1,2.4c0,1-0.4,1.8-1.2,2.4s-1.9,0.9-3.2,0.9
		c-1,0-1.8-0.2-2.6-0.5c-0.8-0.3-1.4-0.7-1.8-1.2v-2.3h1.3L2,12.6c0.3,0.3,0.7,0.5,1.2,0.7c0.5,0.2,1,0.3,1.6,0.3
		c0.9,0,1.5-0.2,2-0.5s0.7-0.9,0.7-1.5c0-0.6-0.2-1.1-0.6-1.4c-0.4-0.4-1.2-0.7-2.3-1C3.4,8.8,2.3,8.3,1.6,7.7S0.5,6.3,0.5,5.3
		c0-1,0.4-1.8,1.3-2.5c0.8-0.7,1.9-1,3.3-1c0.9,0,1.7,0.2,2.4,0.5C8.1,2.7,8.7,3,9.1,3.5V5.8z"></path>
	<path class="st0" d="M10.8,14.7v-1.1l1.4-0.2V3.4l-1.4-0.2V2.1h9.7v3H19l-0.1-1.7h-5v4.1h4.8v1.3h-4.8v4.5H19l0.1-1.7h1.5v3H10.8z"
		></path>
	<path class="st0" d="M22.1,14.7v-1.1l1.4-0.2V3.4l-1.4-0.2V2.1h1.4h1.7h1.4v1.1l-1.4,0.2v9.9h4.4l0.1-1.4h1.5v2.8H22.1z"></path>
	<path class="st0" d="M32.5,14.7v-1.1l1.4-0.2V3.4l-1.4-0.2V2.1h9.7v3h-1.5l-0.1-1.7h-5v4.1h4.8v1.3h-4.8v4.5h5.1l0.1-1.7h1.5v3
		H32.5z"></path>
	<path class="st0" d="M53.5,5.9h-1.2L52,4.2c-0.3-0.3-0.6-0.5-1-0.7c-0.4-0.2-0.9-0.3-1.4-0.3c-1.3,0-2.3,0.5-3,1.4
		s-1.1,2.2-1.1,3.6v0.2c0,1.5,0.3,2.7,1,3.6c0.7,1,1.6,1.4,2.9,1.4c0.6,0,1.1-0.1,1.6-0.3s0.8-0.4,1.1-0.7l0.3-1.8h1.2v2.2
		c-0.4,0.5-0.9,0.9-1.6,1.3c-0.7,0.4-1.6,0.5-2.5,0.5c-1.6,0-3-0.6-4-1.8s-1.6-2.7-1.6-4.6V8.3c0-1.8,0.5-3.4,1.5-4.6
		c1-1.2,2.4-1.8,4.1-1.8c1,0,1.8,0.2,2.5,0.6c0.7,0.4,1.3,0.8,1.6,1.3V5.9z"></path>
	<path class="st0" d="M65.1,2.1v2.8h-1.5l-0.1-1.4h-2.8v9.9l1.4,0.2v1.1h-4.5v-1.1l1.4-0.2V3.4h-2.8l-0.1,1.4h-1.5V2.1H65.1z"></path>
	<path class="st0" d="M74.6,3.2l-1.4,0.2l2.6,5.1l2.6-5.1l-1.3-0.2V2.1h4.3v1.1l-1.1,0.2l-3.7,6.9v3.1l1.4,0.2v1.1h-4.5v-1.1
		l1.4-0.2v-3.2l-3.7-6.8l-1.1-0.2V2.1h4.3V3.2z"></path>
	<path class="st0" d="M93.7,8.5c0,1.8-0.5,3.4-1.6,4.6s-2.4,1.8-4.1,1.8c-1.6,0-2.9-0.6-4-1.8c-1-1.2-1.5-2.7-1.5-4.6V8.3
		c0-1.8,0.5-3.4,1.5-4.6c1-1.2,2.3-1.8,4-1.8c1.7,0,3,0.6,4.1,1.8c1.1,1.2,1.6,2.7,1.6,4.6V8.5z M92,8.3c0-1.5-0.4-2.7-1.1-3.6
		c-0.7-0.9-1.7-1.4-2.9-1.4c-1.2,0-2.1,0.5-2.8,1.4c-0.7,0.9-1,2.1-1,3.6v0.2c0,1.5,0.3,2.7,1,3.6c0.7,0.9,1.6,1.4,2.8,1.4
		c1.3,0,2.2-0.5,2.9-1.4s1-2.1,1-3.6V8.3z"></path>
	<path class="st0" d="M99.4,2.1v1.1L98,3.4v7.2c0,1,0.3,1.7,0.8,2.2c0.5,0.5,1.3,0.7,2.1,0.7c0.9,0,1.7-0.2,2.3-0.7
		c0.6-0.5,0.9-1.2,0.9-2.2V3.4l-1.4-0.2V2.1h3.1h1.4v1.1l-1.4,0.2v7.2c0,1.4-0.4,2.4-1.3,3.1c-0.9,0.7-2.1,1.1-3.5,1.1
		c-1.4,0-2.5-0.4-3.4-1.1c-0.9-0.7-1.3-1.8-1.3-3.1V3.4l-1.4-0.2V2.1h1.4H99.4z"></path>
	<path class="st0" d="M113.8,2.1c1.4,0,2.4,0.3,3.2,0.9c0.7,0.6,1.1,1.5,1.1,2.6c0,0.6-0.2,1.2-0.5,1.6c-0.3,0.5-0.8,0.8-1.5,1.1
		c0.7,0.2,1.2,0.6,1.5,1.1c0.3,0.5,0.5,1.1,0.5,1.9v1c0,0.4,0,0.7,0.1,0.9c0.1,0.2,0.3,0.3,0.5,0.3l0.4,0.1v1.1h-0.9
		c-0.7,0-1.1-0.2-1.4-0.7c-0.3-0.5-0.4-1-0.4-1.7v-1c0-0.7-0.2-1.2-0.6-1.7c-0.4-0.4-0.9-0.6-1.6-0.6h-2.7v4.3l1.4,0.2v1.1h-4.5
		v-1.1l1.4-0.2V3.4l-1.4-0.2V2.1h1.4H113.8z M111.4,7.7h2.2c1,0,1.6-0.2,2.1-0.5c0.4-0.4,0.6-0.9,0.6-1.6c0-0.7-0.2-1.2-0.6-1.6
		c-0.4-0.4-1.1-0.6-1.9-0.6h-2.4V7.7z"></path>
	<path class="st1" d="M140.2,14.7h-4.4V7.8h-0.1l-1.4,6.9h-4.1l-1.3-6.9h-0.1v6.9h-4.3L125,0.2h6.2l1.1,6.5h0.2l1.1-6.5h6.1
		L140.2,14.7z"></path>
	<path class="st1" d="M153.4,4.9c0,0.9-0.2,1.7-0.5,2.2c-0.3,0.6-0.8,1-1.4,1.5l2.2,6.1h-5.1l-1.4-5h-0.4v5H142V0.2h6.2
		c1.8,0,3.1,0.4,4,1.1C153,2.1,153.4,3.3,153.4,4.9z M148,6.5c0.1-0.2,0.2-0.6,0.2-1.1c0-0.5-0.1-0.9-0.2-1.1
		c-0.2-0.2-0.4-0.3-0.7-0.3h-0.6v2.8h0.6C147.6,6.9,147.8,6.8,148,6.5z"></path>
	<path class="st1" d="M175.2,14.7h-4.4V7.8h-0.1l-1.4,6.9h-4.1l-1.3-6.9h-0.1v6.9h-4.3L160,0.2h6.2l1.1,6.5h0.2l1.1-6.5h6.1
		L175.2,14.7z"></path>
	<path class="st1" d="M182.1,14.7h-4.9V0.2h4.9V14.7z"></path>
	<path class="st1" d="M196,14.7h-5.5l-1.5-4.8h-0.3v4.8h-4.7V0.2h4.7V6h0.3l1.8-5.7h5.3l-3,7.5L196,14.7z"></path>
	<path class="st1" d="M206.1,14.7h-9.2V0.2h9.5l-0.3,3.8h-4.2v1.7h3.7v3.3h-3.7v2h4.6L206.1,14.7z"></path>
	<path class="st1" d="M206.9,4.9c0-1.5,0.5-2.7,1.4-3.6c0.9-0.9,2.2-1.3,3.9-1.3s3.4,0.2,5.1,0.5l-0.5,4.1C214.8,4.2,213.6,4,213,4
		c-0.6,0-0.9,0.2-0.9,0.6c0,0.1,0,0.2,0.1,0.3c0.1,0.1,0.2,0.1,0.2,0.1c0,0,0.1,0.1,0.3,0.1c0.1,0,0.2,0.1,0.3,0.1s0.4,0.2,0.8,0.3
		c0.5,0.2,0.8,0.3,1.1,0.5s0.6,0.3,1,0.6c1.2,0.8,1.8,2,1.8,3.5s-0.5,2.7-1.4,3.6c-0.9,0.8-2.2,1.3-3.9,1.3c-1.7,0-3.4-0.2-5-0.6
		l0.3-3.9c2.1,0.5,3.5,0.8,4.2,0.8c0.5,0,0.7-0.2,0.7-0.5c0-0.2-0.1-0.3-0.2-0.4c-0.1-0.1-0.3-0.2-0.5-0.3s-0.6-0.3-1-0.4
		c-0.4-0.2-0.8-0.3-1.1-0.5c-0.3-0.1-0.6-0.3-1-0.6C207.6,7.6,206.9,6.4,206.9,4.9z"></path>
	<path class="st0" d="M0,37.9v-1.1l1.4-0.2v-9.9L0,26.4v-1.1h1.4h1.7h1.4v1.1l-1.4,0.2v9.9h4.4l0.1-1.4h1.5v2.8H0z"></path>
	<path class="st0" d="M21,31.7c0,1.8-0.5,3.4-1.6,4.6c-1.1,1.2-2.4,1.8-4.1,1.8c-1.6,0-2.9-0.6-4-1.8c-1-1.2-1.5-2.7-1.5-4.6v-0.2
		c0-1.8,0.5-3.4,1.5-4.6c1-1.2,2.3-1.8,4-1.8c1.7,0,3,0.6,4.1,1.8s1.6,2.7,1.6,4.6V31.7z M19.3,31.5c0-1.5-0.4-2.7-1.1-3.6
		c-0.7-0.9-1.7-1.4-2.9-1.4c-1.2,0-2.1,0.5-2.8,1.4c-0.7,0.9-1,2.1-1,3.6v0.2c0,1.5,0.3,2.7,1,3.6c0.7,0.9,1.6,1.4,2.8,1.4
		c1.3,0,2.2-0.5,2.9-1.4s1-2.1,1-3.6V31.5z"></path>
	<path class="st0" d="M32.1,29.2h-1.2l-0.3-1.8c-0.3-0.3-0.6-0.5-1-0.7c-0.4-0.2-0.9-0.3-1.4-0.3c-1.3,0-2.3,0.5-3,1.4
		c-0.7,0.9-1.1,2.2-1.1,3.6v0.2c0,1.5,0.3,2.7,1,3.6c0.7,1,1.6,1.4,2.9,1.4c0.6,0,1.1-0.1,1.6-0.3s0.8-0.4,1.1-0.7l0.3-1.8h1.2v2.2
		c-0.4,0.5-0.9,0.9-1.6,1.2c-0.7,0.4-1.6,0.5-2.5,0.5c-1.6,0-3-0.6-4-1.8c-1-1.2-1.6-2.7-1.6-4.6v-0.2c0-1.8,0.5-3.4,1.5-4.6
		c1-1.2,2.4-1.8,4.1-1.8c1,0,1.8,0.2,2.5,0.6c0.7,0.4,1.3,0.8,1.6,1.2V29.2z"></path>
	<path class="st0" d="M33.6,36.8l0.9-0.1l4.4-11.4h1.5l4.3,11.4l0.9,0.1v1.1H42v-1.1l1-0.2l-0.8-2.3h-5l-0.9,2.3l1,0.2v1.1h-3.6
		V36.8z M37.6,32.9h4l-2-5.4h-0.1L37.6,32.9z"></path>
	<path class="st0" d="M55.3,25.3v2.8h-1.5l-0.1-1.4H51v9.9l1.4,0.2v1.1h-4.5v-1.1l1.4-0.2v-9.9h-2.8l-0.1,1.4h-1.5v-2.8H55.3z"></path>
	<path class="st0" d="M56.3,26.4v-1.1h4.5v1.1l-1.4,0.2v9.9l1.4,0.2v1.1h-4.5v-1.1l1.4-0.2v-9.9L56.3,26.4z"></path>
	<path class="st0" d="M73.2,31.7c0,1.8-0.5,3.4-1.6,4.6c-1.1,1.2-2.4,1.8-4.1,1.8c-1.6,0-2.9-0.6-4-1.8c-1-1.2-1.5-2.7-1.5-4.6v-0.2
		c0-1.8,0.5-3.4,1.5-4.6c1-1.2,2.3-1.8,4-1.8c1.7,0,3,0.6,4.1,1.8s1.6,2.7,1.6,4.6V31.7z M71.5,31.5c0-1.5-0.4-2.7-1.1-3.6
		c-0.7-0.9-1.7-1.4-2.9-1.4c-1.2,0-2.1,0.5-2.8,1.4c-0.7,0.9-1,2.1-1,3.6v0.2c0,1.5,0.3,2.7,1,3.6c0.7,0.9,1.6,1.4,2.8,1.4
		c1.3,0,2.2-0.5,2.9-1.4s1-2.1,1-3.6V31.5z"></path>
	<path class="st0" d="M86.8,25.3v1.1l-1.4,0.2v11.3h-1.7l-6.1-9.7l-0.1,0v8.4l1.4,0.2v1.1h-4.5v-1.1l1.4-0.2v-9.9l-1.4-0.2v-1.1h1.4
		h1.7l6.1,9.7l0.1,0v-8.4l-1.4-0.2v-1.1h3.1H86.8z"></path>
	<path class="st0" d="M102.6,25.3v2.8h-1.5l-0.1-1.4h-2.8v9.9l1.4,0.2v1.1h-4.5v-1.1l1.4-0.2v-9.9h-2.8l-0.1,1.4h-1.5v-2.8H102.6z"
		></path>
	<path class="st0" d="M114.5,31.7c0,1.8-0.5,3.4-1.6,4.6c-1.1,1.2-2.4,1.8-4.1,1.8c-1.6,0-2.9-0.6-4-1.8c-1-1.2-1.5-2.7-1.5-4.6
		v-0.2c0-1.8,0.5-3.4,1.5-4.6c1-1.2,2.3-1.8,4-1.8c1.7,0,3,0.6,4.1,1.8s1.6,2.7,1.6,4.6V31.7z M112.8,31.5c0-1.5-0.4-2.7-1.1-3.6
		c-0.7-0.9-1.7-1.4-2.9-1.4c-1.2,0-2.1,0.5-2.8,1.4c-0.7,0.9-1,2.1-1,3.6v0.2c0,1.5,0.3,2.7,1,3.6c0.7,0.9,1.6,1.4,2.8,1.4
		c1.3,0,2.2-0.5,2.9-1.4s1-2.1,1-3.6V31.5z"></path>
	<path class="st0" d="M129.3,29.1H128l-0.3-1.8c-0.3-0.2-0.6-0.4-1-0.5c-0.4-0.1-0.9-0.2-1.5-0.2c-0.9,0-1.6,0.2-2.1,0.6
		s-0.7,0.9-0.7,1.5c0,0.5,0.2,1,0.7,1.4c0.5,0.4,1.3,0.7,2.4,1c1.3,0.3,2.3,0.8,3,1.5c0.7,0.6,1,1.4,1,2.4c0,1-0.4,1.8-1.2,2.4
		c-0.8,0.6-1.9,0.9-3.2,0.9c-1,0-1.8-0.2-2.6-0.5c-0.8-0.3-1.4-0.7-1.8-1.2V34h1.3l0.3,1.8c0.3,0.3,0.7,0.5,1.2,0.7
		c0.5,0.2,1,0.3,1.6,0.3c0.9,0,1.5-0.2,2-0.5s0.7-0.9,0.7-1.5c0-0.6-0.2-1.1-0.6-1.4s-1.2-0.7-2.3-1c-1.3-0.3-2.4-0.8-3.1-1.4
		s-1.1-1.4-1.1-2.3c0-1,0.4-1.8,1.3-2.5c0.8-0.7,1.9-1,3.3-1c0.9,0,1.7,0.2,2.4,0.5c0.7,0.3,1.3,0.7,1.7,1.1V29.1z"></path>
	<path class="st0" d="M131,37.9v-1.1l1.4-0.2v-9.9l-1.4-0.2v-1.1h9.7v3h-1.5l-0.1-1.7h-5v4.1h4.8v1.3h-4.8v4.5h5.1l0.1-1.7h1.5v3
		H131z"></path>
	<path class="st0" d="M142.3,37.9v-1.1l1.4-0.2v-9.9l-1.4-0.2v-1.1h9.7v3h-1.5l-0.1-1.7h-5v4.1h4.8v1.3h-4.8v4.5h5.1l0.1-1.7h1.5v3
		H142.3z"></path>
	<path class="st0" d="M163.8,25.3c1.3,0,2.4,0.3,3.1,1c0.7,0.7,1.1,1.6,1.1,2.7c0,1.1-0.4,2.1-1.1,2.7c-0.7,0.7-1.8,1-3.1,1h-2.7
		v3.7l1.4,0.2v1.1H158v-1.1l1.4-0.2v-9.9l-1.4-0.2v-1.1h1.4H163.8z M161.1,31.5h2.7c0.9,0,1.5-0.2,1.9-0.7c0.4-0.5,0.6-1,0.6-1.7
		s-0.2-1.3-0.6-1.7c-0.4-0.5-1.1-0.7-1.9-0.7h-2.7V31.5z"></path>
	<path class="st0" d="M174.8,25.3c1.4,0,2.4,0.3,3.2,0.9s1.1,1.5,1.1,2.6c0,0.6-0.2,1.2-0.5,1.6c-0.3,0.5-0.8,0.8-1.5,1.1
		c0.7,0.2,1.2,0.6,1.5,1.1c0.3,0.5,0.5,1.1,0.5,1.9v1c0,0.4,0,0.7,0.1,0.9c0.1,0.2,0.3,0.3,0.5,0.3l0.4,0.1v1.1h-0.9
		c-0.7,0-1.1-0.2-1.4-0.7c-0.3-0.5-0.4-1-0.4-1.7v-1c0-0.7-0.2-1.2-0.6-1.7c-0.4-0.4-0.9-0.6-1.6-0.6h-2.7v4.3l1.4,0.2v1.1h-4.5
		v-1.1l1.4-0.2v-9.9l-1.4-0.2v-1.1h1.4H174.8z M172.3,31h2.2c1,0,1.6-0.2,2.1-0.5s0.6-0.9,0.6-1.6c0-0.7-0.2-1.2-0.6-1.6
		c-0.4-0.4-1.1-0.6-1.9-0.6h-2.4V31z"></path>
	<path class="st0" d="M181.2,26.4v-1.1h4.5v1.1l-1.4,0.2v9.9l1.4,0.2v1.1h-4.5v-1.1l1.4-0.2v-9.9L181.2,26.4z"></path>
	<path class="st0" d="M196.7,29.2h-1.2l-0.3-1.8c-0.3-0.3-0.6-0.5-1-0.7c-0.4-0.2-0.9-0.3-1.4-0.3c-1.3,0-2.3,0.5-3,1.4
		c-0.7,0.9-1.1,2.2-1.1,3.6v0.2c0,1.5,0.3,2.7,1,3.6c0.7,1,1.6,1.4,2.9,1.4c0.6,0,1.1-0.1,1.6-0.3c0.5-0.2,0.8-0.4,1.1-0.7l0.3-1.8
		h1.2v2.2c-0.4,0.5-0.9,0.9-1.6,1.2s-1.6,0.5-2.5,0.5c-1.6,0-3-0.6-4-1.8c-1-1.2-1.6-2.7-1.6-4.6v-0.2c0-1.8,0.5-3.4,1.5-4.6
		c1-1.2,2.4-1.8,4.1-1.8c1,0,1.8,0.2,2.5,0.6s1.3,0.8,1.6,1.2V29.2z"></path>
	<path class="st0" d="M198.4,37.9v-1.1l1.4-0.2v-9.9l-1.4-0.2v-1.1h9.7v3h-1.5l-0.1-1.7h-5v4.1h4.8v1.3h-4.8v4.5h5.1l0.1-1.7h1.5v3
		H198.4z"></path>
	<path class="st0" d="M218.8,29.1h-1.3l-0.3-1.8c-0.3-0.2-0.6-0.4-1-0.5c-0.4-0.1-0.9-0.2-1.5-0.2c-0.9,0-1.6,0.2-2.1,0.6
		s-0.7,0.9-0.7,1.5c0,0.5,0.2,1,0.7,1.4c0.5,0.4,1.3,0.7,2.4,1c1.3,0.3,2.3,0.8,3,1.5c0.7,0.6,1,1.4,1,2.4c0,1-0.4,1.8-1.2,2.4
		c-0.8,0.6-1.9,0.9-3.2,0.9c-1,0-1.8-0.2-2.6-0.5c-0.8-0.3-1.4-0.7-1.8-1.2V34h1.3l0.3,1.8c0.3,0.3,0.7,0.5,1.2,0.7
		c0.5,0.2,1,0.3,1.6,0.3c0.9,0,1.5-0.2,2-0.5s0.7-0.9,0.7-1.5c0-0.6-0.2-1.1-0.6-1.4s-1.2-0.7-2.3-1c-1.3-0.3-2.4-0.8-3.1-1.4
		s-1.1-1.4-1.1-2.3c0-1,0.4-1.8,1.3-2.5c0.8-0.7,1.9-1,3.3-1c0.9,0,1.7,0.2,2.4,0.5c0.7,0.3,1.3,0.7,1.7,1.1V29.1z"></path>
</g>
</svg>
