<svg version="1.1" id="Layer_1" xmlns="http://www.w3.org/2000/svg" xmlns:xlink="http://www.w3.org/1999/xlink" x="0px" y="0px"
	 viewBox="0 0 95.3 39.7" style="enable-background:new 0 0 95.3 39.7;" xml:space="preserve">
<style type="text/css">
	.icon-veggie{fill:#55B94A;}
</style>
<path class="icon-veggie" d="M95,0.3c-0.3-0.3-0.8-0.4-1.2-0.1c-0.1,0.1-12.4,7-29.1,3.3C36.3-2.8,22.2,15.5,16.2,23.4c-1.1,1.4-2,2.5-2.5,3
	C10,29.6,1.1,29.5,1,29.5c-0.4,0-0.7,0.2-0.9,0.5c-0.2,0.3-0.2,0.7-0.1,1l1,2c0.2,0.4,0.7,0.7,1.2,0.5c0.1,0,8.3-2.2,14,0.5
	c8.7,4.1,16.7,5.8,24,5.8c1.9,0,3.8-0.1,5.7-0.4l-8.4-23.4l-2.8-0.5v-5.3h14.9v5.3l-3.1,0.6l4.3,14.7l0.6,3.1h0.2l0.6-3.1l4.3-14.6
	l-3.2-0.6v-5.3h14.9v5.3l-2.8,0.5L58,36.3c6.4-2.5,11.9-6.1,16.4-9.8C87.7,15.6,95.1,1.6,95.2,1.5C95.4,1.1,95.3,0.6,95,0.3z"></path>
</svg>
