<svg version="1.1" id="Layer_1" xmlns="http://www.w3.org/2000/svg" xmlns:xlink="http://www.w3.org/1999/xlink" x="0px" y="0px"
	 viewBox="0 0 107.6 415.9" style="enable-background:new 0 0 107.6 415.9;" xml:space="preserve">
<style type="text/css">
	<!-- .st0{fill:none;} -->
	.st1{fill:#FFFFFF;}
</style>
<path class="st0" d="M106.6,157.2c-0.1-0.1-0.2-0.1-0.3-0.2c0,0-0.1,0.1-0.2,0.2c0.1,0.1,0.2,0.1,0.4,0.1
	C106.5,157.4,106.6,157.3,106.6,157.2z"/>
<path class="st0" d="M101.3,156.2c0.2-0.1,0.4-0.1,0.7-0.2c-0.1-0.1-0.2-0.2-0.2-0.3C101.6,155.9,101.5,156.1,101.3,156.2z"/>
<path class="st0" d="M104.8,142.2c0-0.1,0.1-0.2,0.1-0.4c0,0-0.1,0-0.1,0C104.8,141.9,104.8,142.1,104.8,142.2z"/>
<path class="st0" d="M106,159.9c-0.9-0.4-1.5-0.7-2.2-1c-0.4,0.3-0.9,0.5-0.8,1.1c0.9,0.3,1.8,0.5,2.8,0.8
	C105.9,160.4,106,160.2,106,159.9z"/>
<path class="st0" d="M104,136.8c0.6-0.2,1.2-0.4,2-0.6C104.7,135.6,104.4,135.7,104,136.8z"/>
<path class="st1" d="M93.4,244.7c-0.2-0.5-0.6-0.9-0.2-1.4C94,243.9,94,243.9,93.4,244.7z M93,251.8c-0.2-0.4-0.4-0.8-1.4-0.3
	c0.5,0.3,0.8,0.4,1.1,0.6C92.8,252,92.9,251.9,93,251.8z M94.5,253.1c-0.5,0-0.7-0.1-1-0.1C93.8,253.6,94.1,253.6,94.5,253.1z
	 M84,239.3c0,0.1,0,0.1,0,0.2c0,0,0.1,0,0.1,0c0-0.1,0-0.1,0-0.2C84.1,239.3,84,239.3,84,239.3z M85.8,236.5
	c-1.5,0.4-1.5,0.4-1.6,1.5c0.7-0.1,1.4-0.1,2.2-0.2C86.1,237.3,86,236.9,85.8,236.5z M95,256.6C95,256.7,94.9,256.7,95,256.6
	c0,0.1,0,0.1,0,0.2c0-0.1,0-0.1,0.1-0.1C95.1,256.6,95,256.6,95,256.6z M95.8,252.4c-0.3-0.2-0.5-0.4-0.8-0.5c0,0.3,0.1,0.4,0.2,0.5
	c0.1,0.1,0.3,0.2,0.4,0.2C95.7,252.5,95.7,252.4,95.8,252.4z M94.8,255.1c-0.3,0-0.5,0-0.8-0.1c0,0.1,0,0.2,0,0.3c0.2,0,0.5,0,0.8,0
	C94.8,255.3,94.8,255.2,94.8,255.1z M95,258.7c0.1-0.4,0.1-0.8,0.2-1.1C94.4,258.2,94.4,258.2,95,258.7z M93.7,257.7
	c0-0.4,0-0.8,0-1.2c-0.6,0-0.8,0.2-0.8,0.6C92.9,257.4,92.9,257.8,93.7,257.7z M89,240.4c-0.5,0.3-0.8,0.5-1.3,0.8
	c0.7,0,1.2,0,1.8,0C89.4,240.8,89.2,240.7,89,240.4z M88.4,250.2c-0.5-0.3-1-0.2-1.5-0.1C87.4,250.1,87.8,250.9,88.4,250.2z
	 M90.5,240.2c0.5,0.6,1.3,0.8,2,1.2c0.3-0.2,0.5-0.3,0.7-0.4C92.4,239.8,91.9,239.7,90.5,240.2z M91.3,243.4
	c-0.8,0.1-1.3,0.1-1.7,0.2c-0.1,0.1-0.1,0.2-0.2,0.4c0.2,0.3,0.4,0.5,0.8,1C90.6,244.3,90.8,244,91.3,243.4z M86.6,244.1
	c0.1,0,0.2,0,0.2,0c0-0.1,0-0.1,0-0.2c-0.1,0-0.2,0-0.2,0.1C86.5,244,86.6,244.1,86.6,244.1z M85.1,246.2c-0.3,0.6-1.5,0.9-0.9,1.9
	c0.4-0.1,0.9-0.2,1.2-0.2c0.5,0.8,1,1.5,1.4,2.2c0-0.4,0.1-0.8,0.1-1.2c0.3-0.4,0.5-0.8,0.8-1.2c-0.4-0.5-0.8-0.9-1.2-1.4
	C86,246.3,85.6,246.3,85.1,246.2z M85.3,251.6c0.2,0.1,0.5,0.1,0.7,0.2c0-0.1,0.1-0.2,0.1-0.4c-0.2,0-0.5-0.1-0.7-0.1
	C85.4,251.5,85.3,251.5,85.3,251.6z M94.8,241.1c-0.2,0-0.4,0-0.6,0c0,0.1,0,0.1,0,0.2c0.2,0,0.4,0,0.6,0
	C94.8,241.2,94.8,241.2,94.8,241.1z M91.7,241.6c-0.5,0-0.9,0.1-1.3,0.1c0,0.1-0.1,0.2-0.1,0.3c0.4,0.2,0.7,0.4,1.4,0.8
	C91.7,242.1,91.7,241.9,91.7,241.6z M85.2,244.7c0-0.6,0-1.2-0.1-1.8c0-0.1-0.1-0.2-0.2-0.4c-0.3,0.4-0.5,0.6-0.9,1
	C84.5,243.9,84.5,244.5,85.2,244.7z M104.2,246.7c0.1,0.2,0.3,0.4,0.4,0.6c-0.1,0.3-0.2,0.7-0.3,1.1c0.4,0,0.7,0,1.1,0
	C105.2,247.1,104.8,246.5,104.2,246.7z M103.9,241.1c0.4,0.4,0.7,0.9,1.1,1.4c0.5-0.5,0.9-0.9,1.3-1.3
	C104.8,240.4,104.6,240.4,103.9,241.1z M104.1,249.3C104,249.3,104,249.3,104.1,249.3c0,0.1,0,0.1,0.1,0.1c0,0,0-0.1,0-0.1
	C104.1,249.3,104.1,249.3,104.1,249.3z M106.7,243.4c-0.1-0.3-0.2-0.4-0.4-0.7c-0.3,0.3-0.5,0.5-0.8,0.6c0,0.1,0.1,0.2,0.2,0.2
	C106,243.5,106.3,243.5,106.7,243.4z M104.5,250.9c-0.2-0.1-0.4-0.1-0.7-0.2c0,0.1,0,0.1-0.1,0.2c0.2,0.1,0.4,0.1,0.7,0.2
	C104.4,251.1,104.5,251,104.5,250.9z M90.2,222L90.2,222L90.2,222C90.1,222,90.1,222,90.2,222z M107.5,241.8
	c-0.2,0.1-0.4,0.2-0.7,0.4c0.3,0.2,0.5,0.3,0.7,0.4C107.5,242.4,107.5,242.1,107.5,241.8z M106.4,244.5c-0.1,0-0.2,0-0.4,0
	c0.1,0.1,0.2,0.1,0.3,0.2C106.3,244.7,106.4,244.6,106.4,244.5z M107.5,245c-0.4,0.1-1,0.2-0.8,0.9c0.2,0.1,0.5,0.1,0.8,0.2
	C107.5,245.7,107.5,245.3,107.5,245z M107.5,246.6c-0.5,0-1,0-1.5,0c0,0.1,0,0.2,0,0.3c0.5,0.1,1,0.2,1.5,0.2
	C107.5,246.9,107.5,246.7,107.5,246.6z M90.1,222C90.1,222,90.2,222,90.1,222C90.1,222,90.1,222,90.1,222L90.1,222z M86,229.5
	c0.1,0,0.2,0,0.3,0c-0.1-0.1-0.1-0.3-0.2-0.4C86.1,229.2,86.1,229.3,86,229.5z M87.1,219.8c-0.4-0.4-0.9-0.8-1.3-1.1
	c0,0.7,0.4,1.1,1,1.4C86.9,219.9,87,219.9,87.1,219.8z M94.6,223.7c-0.4-0.1-0.8-0.3-1.2-0.5c-0.1,0.6,0.1,1.3-0.7,1.6
	c-0.5,0-1,0-1.4,0c-0.1,0-0.2,0.2-0.3,0.4c0.5,0.2,0.9,0.3,1.3,0.5c0,0.3,0,0.6,0.1,1c0.5-0.5,0.8-0.8,1.1-1.1
	c0.5,0.1,1,0.1,1.3,0.1c0.3-0.3,0.5-0.5,0.8-0.9c1,0.5,2,1,2.9,1.5c0.9-0.6,1.8-1.1,2.6-1.6c0.4-0.9,0.2-1.6-0.4-2.2
	c0-0.6,0-1,0-1.5c-0.4-0.2-0.7-0.4-1.1-0.6c0.2-0.3,0.4-0.6,0.6-1.1c-0.7-0.2-1.3-0.4-2.1-0.7c-0.3,0.7-0.5,1.2-0.7,1.7
	c-0.6,0.2-1,0.4-1.3,0.5c-0.9,1,0,1.9-0.2,2.9C95.3,223.7,94.9,223.8,94.6,223.7z M97.3,234c0,0.1-0.1,0.2-0.1,0.3
	c0.2,0,0.4,0.1,0.6,0.1c0-0.1,0-0.1,0-0.2C97.7,234.1,97.5,234.1,97.3,234z M97.7,228c-0.9-0.7-1.4-0.2-2.1-0.2
	C96.3,228.6,96.9,228.2,97.7,228z M90.1,222C90.1,222,90.1,222,90.1,222L90.1,222C90.1,222,90.1,222,90.1,222z M93.4,223.2
	C93.4,223.2,93.4,223.2,93.4,223.2C93.4,223.2,93.4,223.2,93.4,223.2C93.4,223.2,93.4,223.2,93.4,223.2
	C93.4,223.2,93.4,223.2,93.4,223.2z M78.5,203.1C78.5,203.1,78.5,203.2,78.5,203.1C78.5,203.2,78.5,203.1,78.5,203.1z M95.1,251
	L95.1,251L95.1,251L95.1,251z M97,217c-0.2,0-0.3,0-0.5,0c0,0.1,0,0.2,0,0.3c0.2-0.1,0.3-0.1,0.5-0.1C97,217.2,97,217.1,97,217z
	 M81.5,248.7c-0.8,0.8-1.3,1.3-1.9,1.8c0.3,0.2,0.6,0.5,0.9,0.7c0.4-0.3,0.8-0.5,1-0.7C81.5,249.9,81.5,249.4,81.5,248.7z M78,254.5
	c1,0,1.9,0,2.9,0c0-0.2,0.1-0.4,0.1-0.7c-1.2,0.2-2.1,0.4-3.1,0.5C78,254.4,78,254.5,78,254.5z M79.4,244.4c0.2-0.6,0-0.8-0.6-0.4
	C79,244.2,79.2,244.3,79.4,244.4z M79.1,234c-0.1,0.1-0.1,0.2-0.2,0.3c0.1,0.1,0.2,0.1,0.3,0.2c0.1-0.1,0.1-0.2,0.2-0.3
	C79.2,234.1,79.2,234.1,79.1,234z M79.8,240.7c0.2,0.1,0.4,0.2,0.6,0.4c-0.1-0.2-0.2-0.4-0.3-0.6C80,240.5,79.9,240.6,79.8,240.7z
	 M82.2,243.2c-0.5,0.1-0.7,0.1-1.3,0.2C81.7,243.9,81.9,243.8,82.2,243.2z M79.7,247.1c0.3-0.2,0.5-0.4,0.8-0.6
	C79.7,246.4,79.7,246.4,79.7,247.1z M94.2,249.7c0.7-0.8,0.4-1.2-0.1-1.8C93.6,248.7,93.6,248.7,94.2,249.7z M80.6,241.1
	C80.6,241.1,80.6,241.1,80.6,241.1L80.6,241.1C80.5,241.1,80.6,241.1,80.6,241.1z M81.6,241.1c-0.3,0-0.7,0-1,0
	C80.9,241.4,81.1,241.7,81.6,241.1z M80.6,241.1C80.5,241.1,80.5,241,80.6,241.1C80.5,241.1,80.5,241.1,80.6,241.1L80.6,241.1z
	 M78.1,316.7c-0.3,0.4-0.6,0.7-0.8,1c0.4,0.4,0.8,0.8,1.2,1.2c0.4-0.5,0.8-1.1,1.2-1.6c-0.7-2.8-0.7-2.8-1.5-3
	C77.5,315.1,77.8,315.9,78.1,316.7z M81.1,319.1c-0.7-0.5-1.1-0.1-1.5,0.2C80.1,319.3,80.6,319.4,81.1,319.1z M77.5,313.9
	c0.5-0.2,0.7-0.4,1-0.5C78.1,313.3,77.8,313.4,77.5,313.9z M78.5,313.4C78.5,313.4,78.5,313.4,78.5,313.4
	C78.5,313.4,78.5,313.4,78.5,313.4C78.5,313.4,78.5,313.4,78.5,313.4z M73.5,311.8c0.4,0.5,0.7,0.8,0.9,1.1c0,0.5,0.1,1,0.1,1.5
	c0.6,0.7,0.6,0.7,0.3,1.4c-0.6-0.2-1-0.3-1.5-0.4c-0.3,0.6-0.4,1-0.1,1.6c0.5-0.3,1-0.5,1.5-0.8c0.1,0.5,0.2,0.9,0.4,1.3
	c0.3,0,0.7,0,1.2,0c-0.3-0.5-0.5-0.7-0.7-1.1c0.2-0.3,0.3-0.5,0.5-0.8c-0.1-0.2-0.2-0.4-0.4-0.7c0.3-0.8,0.7-1.7,1.1-2.6
	C75.9,312.2,74.9,312,73.5,311.8z M74.9,246.5c0.1-0.1,0.1-0.4,0.2-0.7c-1.4,0.5-1.4,0.5-1.7,1.2C74,246.8,74.5,246.7,74.9,246.5z
	 M77.1,311.7c0.1,0.1,0.1,0.2,0.2,0.2c0.3-0.2,0.6-0.3,0.9-0.5c-0.1-0.1-0.1-0.2-0.2-0.2C77.7,311.4,77.4,311.6,77.1,311.7z
	 M74,214.1c-0.1,0-0.1-0.1-0.2-0.1c0,0.1-0.1,0.2-0.1,0.3c0,0,0.1,0,0.1,0.1C73.9,214.3,74,214.2,74,214.1z M80.6,207.8
	c-0.6,0.5-1.1,1-1.6,1.5c-0.8,0.3-1.7,0.1-2.2,1.1c1.7,0.5,3.3,1,4.9,1.5c0.4-0.4,0.7-0.7,1.1-1c0.3-0.3,0.6-0.6,1.1-1
	C82.5,209.2,82.3,207.6,80.6,207.8z M84.2,213.8c0-0.1,0-0.1,0-0.2c-0.2,0-0.4,0-0.7,0c0,0.1,0,0.2,0,0.3
	C83.8,213.8,84,213.8,84.2,213.8z M75.6,262.6c-0.7,0.3-1,0.5-1.6,0.7C74.9,263.7,75.3,263.5,75.6,262.6z M73.4,247.1
	C73.4,247.1,73.5,247,73.4,247.1C73.4,247,73.4,247,73.4,247.1L73.4,247.1z M77.1,246.9c-0.5,0.1-0.8,0.2-0.6,0.8
	c0,0.1,0.2,0.1,0.3,0.2c0.2-0.2,0.4-0.5,0.6-0.7C77.3,247.1,77.2,247,77.1,246.9z M75.5,280.9c-0.1,0.1-0.3,0.1-0.4,0.2
	c0,0.1,0.1,0.1,0.1,0.2c0.1-0.1,0.3-0.1,0.4-0.2C75.6,281,75.6,281,75.5,280.9z M83.2,244.5c0,0.1-0.1,0.2-0.1,0.3
	c0.1,0,0.1,0.1,0.2,0.1c0.1-0.1,0.2-0.2,0.2-0.2C83.4,244.6,83.3,244.6,83.2,244.5z M95.5,233.2c-1,0.8-1.7,1.4-2.5,2
	c0.4,0.1,0.8,0.1,1.4,0.2C94.8,234.7,95.1,234,95.5,233.2z M80.3,232.2c0.3,0,0.5,0,0.9,0c-0.1-0.3-0.2-0.5-0.4-0.9
	C80.5,231.7,80.4,231.9,80.3,232.2z M89.1,234.4c-0.3,0.4-0.5,0.8-0.7,1.1c-0.6,0.1-1.3-0.5-1.6,0.3c0.3,0.1,0.6,0.3,0.7,0.4
	c0,0.6-0.1,1-0.1,1.3c0.6,0.4,0.8,1.3,1.9,0.8c0.2-0.4,0.4-0.9,0.6-1.4c0.3,0.1,0.6,0.2,0.8,0.2c0.3,0.9-0.9,1-1.2,1.7
	c0.9,0,1.5-0.1,2.3-0.1c0-0.2,0-0.5,0-0.6c0-0.2,0.1-0.4,0.1-0.6c0.6-0.1,1.2-0.2,1.8-0.4c0.1-0.3,0.2-0.5,0.3-0.9
	c-0.9,0-1.7,0.4-2.4-0.3c0.1-0.3,0.2-0.7,0.3-1C91,234.3,90,234.4,89.1,234.4z M74.9,290.8c0.2,0.1,0.3,0.2,0.5,0.3
	c0.1-0.1,0.1-0.2,0.2-0.3c-0.2-0.1-0.4-0.1-0.6-0.2C74.9,290.7,74.9,290.7,74.9,290.8z M77.3,265.4c-0.1-0.1-0.1-0.1-0.2-0.1
	c0,0.1-0.1,0.1-0.1,0.2c0,0,0.1,0.1,0.1,0.1C77.1,265.5,77.2,265.5,77.3,265.4z M74.4,308.9c-0.1,0.6,0.3,0.8,0.9,1
	C75.6,308.8,75.5,308.7,74.4,308.9z M81.7,229.6C81.7,229.6,81.7,229.6,81.7,229.6C81.7,229.6,81.7,229.6,81.7,229.6L81.7,229.6z
	 M80.5,229.3c0.5,0.1,0.8,0.2,1.1,0.2C81.4,229.3,81.2,229,80.5,229.3z M81.9,224c-0.3,0-0.6-0.1-0.8-0.1c0,0.1,0,0.2,0,0.3
	c0.3,0,0.6,0,0.8,0C81.9,224.1,81.9,224.1,81.9,224z M81.8,229.6L81.8,229.6L81.8,229.6L81.8,229.6z M74.7,304.2
	c0.5,0.1,0.8,0.2,1.2,0.3c0-0.1,0.1-0.1,0.1-0.2c-0.2-0.2-0.4-0.5-0.7-0.8C75.1,303.8,75,303.9,74.7,304.2z M75.9,250.4
	c0.1,0,0.1-0.1,0.2-0.1c0,0-0.1,0-0.1-0.1c0,0-0.1,0-0.1,0.1S75.8,250.3,75.9,250.4z M76.4,213.5c0.2,0.2,0.5,0.4,1,0.6
	c0.4-0.3,0.7-0.6,1-0.8c-0.2-0.5-0.2-0.8-0.3-1.2c-0.4-0.1-0.7-0.1-1-0.1c-0.3,0-0.6,0.1-1,0.1C75.8,212.7,76,213.1,76.4,213.5z
	 M77.2,283.4c0.1,0,0.3,0,0.4-0.1c0-0.1,0-0.1,0-0.2c-0.2,0-0.3,0.1-0.4,0.1C77.2,283.3,77.2,283.3,77.2,283.4z M62,390.9
	c0.2,0,0.4,0,0.6,0.1c-0.2-0.1-0.4-0.1-0.5-0.2C62,390.8,62,390.8,62,390.9z M64.8,402.6c-0.1,0-0.1,0.1-0.2,0.1
	c0.1,0.1,0.2,0.2,0.3,0.3c0.1,0,0.1-0.1,0.2-0.1C65,402.8,64.9,402.7,64.8,402.6z M66,368.2c1.1-0.7,1.1-0.7,0.1-1.2
	C65.7,367.5,65.7,367.5,66,368.2z M68.2,388.3C68.2,388.4,68.2,388.4,68.2,388.3L68.2,388.3C68.2,388.4,68.2,388.3,68.2,388.3z
	 M69.1,389.4c0.1-0.1,0.1-0.1,0.2-0.2c-0.3-0.3-0.7-0.5-1-0.8c0,0.3-0.1,0.6-0.1,1C68.6,389.4,68.8,389.4,69.1,389.4z M66.2,378.2
	c0.1,0,0.2-0.1,0.2-0.1c0-0.1-0.1-0.3-0.1-0.5c-0.1,0-0.2,0.1-0.4,0.1C66,377.9,66.1,378,66.2,378.2z M68.2,388.4
	C68.2,388.4,68.2,388.4,68.2,388.4C68.2,388.4,68.2,388.4,68.2,388.4C68.2,388.4,68.2,388.4,68.2,388.4L68.2,388.4z M64.2,409.1
	c0,0.4,0,0.7-0.1,1c0.6-0.1,0.9-0.3,0.7-0.7C64.8,409.2,64.5,409.2,64.2,409.1z M62.6,390.9L62.6,390.9
	C62.6,390.9,62.6,390.9,62.6,390.9C62.6,390.9,62.6,390.9,62.6,390.9C62.6,390.9,62.6,390.9,62.6,390.9L62.6,390.9L62.6,390.9z
	 M80,312.3c1.5,0.2,2.8,0.3,4.2,0.5c-0.3-0.5-0.5-0.8-0.7-1.2c-0.5-0.1-0.9-0.1-1.3-0.2c-0.5,0.2-0.9,0.4-1.3,0.6
	c-0.4-0.1-0.7-0.2-1.3-0.3c-0.1,0.7-1.3,0.8-1.1,1.7C79.1,313,79.4,312.3,80,312.3z M65.1,394.2c-0.8,0.3-1.1,1.2-2.1,0.6
	c0-0.3,0-0.6,0-0.9c-1.2,0-0.9,0.8-1.3,1.4c-0.1,0.3-1,0.2-0.8,0.8c1.9-0.1,1.9-0.1,3.5,0.5c0.5-0.2,1.2-0.5,2-0.8
	C65.9,395.1,65.5,394.7,65.1,394.2z M66.2,363c0.8,0.2,1.4,0,2.1-0.6C67.3,362.1,66.6,362.1,66.2,363z M61.2,360
	C61.1,360,61.1,359.9,61.2,360c-0.2,0-0.2,0-0.3,0.1c0,0,0.1,0.1,0.1,0.1C61,360.1,61.1,360,61.2,360z M60.1,388.5
	c0.5,0.2,0.9,0.5,1.1,0.5c1.6-0.6,2.9-1.1,4.3-1.6c0.9,0.3,1.8,0.6,2.7,0.9c0-0.7,0.1-1.4,0.2-2.2c-0.3-0.1-0.6-0.3-0.9-0.5
	c-0.2,0.4-0.4,0.8-0.5,1c-1.3,0-2.5,0-3.7,0c-0.2,0.5-0.3,0.9-0.4,1.2c-0.3,0.1-0.7,0.2-1,0.3c-0.3-0.5-0.2-1.2-1.3-1.1
	C60.4,387.5,60.3,388,60.1,388.5z M61.3,335.2c-0.5-0.4-1-0.8-1.7-1.4c0.2,1.2,0.3,2.1,0.5,3.2C60.6,336.5,61.4,336.1,61.3,335.2z
	 M60.7,349.4c0.6,0.3,1,0.2,1.3-0.3C61.4,348.9,61,349,60.7,349.4z M66.9,373.7c0.1-0.2,0.2-0.4,0.3-0.6c-0.1,0-0.2-0.1-0.3-0.1
	c-0.1,0.2-0.3,0.4-0.4,0.6C66.6,373.6,66.7,373.6,66.9,373.7z M66.1,366.5c0.3-0.4,0.5-0.8,0.7-1.1
	C65.6,365.7,65.6,365.7,66.1,366.5z M67.3,408c-0.1-0.4-0.2-0.7-0.4-1.3c-0.6,0.2-0.9,0.4-1.6,0.7c0.7,0.4,1.1,0.6,1.5,0.9
	C67,408.1,67.2,408.1,67.3,408z M63.3,361.7c-0.1,0-0.2-0.1-0.2-0.1c-0.1,0.1-0.1,0.2-0.2,0.4c0.1,0,0.2,0.1,0.2,0.1
	C63.2,362,63.3,361.9,63.3,361.7z M63,366.8l0-0.1L63,366.8L63,366.8z M62.3,322.3c-0.4-0.3-0.7-0.5-1.1-0.8c0,0-0.1,0-0.3,0
	c-0.1,0.2-0.3,0.5-0.5,0.8C61.2,322.9,61.7,322.7,62.3,322.3z M19.9,414.8c0.2,0,0.4,0,0.6,0C20.2,414.6,20,414.5,19.9,414.8z
	 M20.4,414.8C20.4,414.8,20.5,414.8,20.4,414.8C20.5,414.8,20.5,414.8,20.4,414.8C20.5,414.8,20.5,414.8,20.4,414.8
	C20.5,414.8,20.5,414.8,20.4,414.8z M19.8,414.9L19.8,414.9C19.8,414.9,19.9,414.8,19.8,414.9C19.8,414.8,19.8,414.8,19.8,414.9
	L19.8,414.9z M22,413.6C22,413.6,22,413.5,22,413.6C22,413.5,22,413.5,22,413.6C22,413.6,22,413.6,22,413.6
	C22,413.6,22,413.6,22,413.6z M21.7,413.9c0.1-0.1,0.1-0.2,0.2-0.3c-0.1,0.1-0.2,0.1-0.3,0.2C21.6,413.9,21.7,413.9,21.7,413.9z
	 M21.1,394.3c-0.6,0.2-1.2,0.5-1.9,0.8c-0.5-1-2.4-1-2.1-2.6c0.4,0.4,0.7,0.6,1,0.8c0.1-0.1,0.3-0.2,0.3-0.3
	c-0.1-0.3-0.2-0.6-0.3-0.8c-0.2-0.4-0.3-0.8-0.6-1.4c1.1,0.4,1.8,0.7,2.7,1C20,392.7,21.6,393.1,21.1,394.3z M19.7,393.2L19.7,393.2
	L19.7,393.2L19.7,393.2z M21,415.6c0.2-0.5-0.2-0.6-0.5-0.7C20.4,415.2,20.4,415.5,21,415.6z M22.2,386.7c0.5,0,0.8,0,1.1,0
	c0,0,0-0.1,0-0.1C23,386.6,22.7,386.7,22.2,386.7z M19.4,398.8c-0.3-0.5-0.7-1-1-1.4c-0.3,0.1-0.4,0.1-0.5,0.2
	c-0.2,0.1-0.3,0.3-0.6,0.6c0.4,0.1,0.7,0.3,0.7,0.3c-0.1,0.8-0.2,1.4-0.4,2C19.2,400.5,19.1,399.5,19.4,398.8z M56.4,410.6
	c0.1-0.7-0.1-1.5,1.2-1.5c0.3,0.2,0.7,0.4,1.2,0.7c1.4-0.3,2.7-0.6,4.2-1.4c-0.6-0.4-1-0.6-1.4-0.9c-0.3,0.3-0.6,0.6-0.8,0.8
	c-1,0.1-2,0.2-3,0.4c0-0.5-0.1-1-0.1-1.4c-0.5-0.1-0.9-0.2-1.4-0.4c-0.3,0.3-0.6,0.6-0.9,0.9c-0.7-0.1-1.4-0.1-2-0.2
	c-0.2-0.5-0.4-0.9-0.7-1.4c0.4-0.2,0.8-0.4,1.2-0.6c-0.2-0.3-0.4-0.5-0.5-0.7c-0.2,0.1-0.3,0.1-0.4,0.1c-0.5,0.4-1,0.8-1.4,1.2
	c0.9,1.3,0.8,1.8-0.7,2.7c-0.4,0-1,0-1.6,0c0.2,1,0.6,1.3,1.5,1.1c0.9-0.2,1.8-0.3,2.5-1c0.5-0.5,1.2-0.7,2-0.2
	c-0.1,0.4-0.2,0.8-0.3,1.2C55.4,410.2,55.7,410.7,56.4,410.6z M67.6,389.5c-0.4,0-0.8,0.1-1.2,0.1c-0.1,0.1-0.1,0.2-0.2,0.3
	c0.2,0.3,0.5,0.5,0.8,0.8C67.6,390.4,67.9,390.1,67.6,389.5z M22,413.5c0.2,0,0.5-0.1,1-0.2C22.3,413.1,22.1,413.2,22,413.5z
	 M59.8,362.9c0.1,0,0.2,0.1,0.2,0.1c0.1-0.2,0.3-0.5,0.4-0.7c-0.1,0-0.2-0.1-0.3-0.1C60.1,362.4,60,362.6,59.8,362.9z M65.2,391.8
	c0.8,0.6,1.5,0.1,2.4,0.4C66.6,391.4,66.3,391.4,65.2,391.8z M61.1,403.4c-0.7,0.3-1.1,0.5-1.6,0.8c0.9,0.6,1.7,0.4,2.5,0
	c0.1-0.4,0.1-0.8,0.3-1.1c0.2-0.4,0.5-0.7,0.7-1c0.2-0.3,0.4-0.7-0.1-1.1c-0.4,0.2-0.9,0.4-1.3,0.6c-0.4,0-0.7,0-1,0
	c-0.4,0.5-0.7,0.9-1.1,1.3C60,403.1,60.4,403.2,61.1,403.4z M28.2,410.6c-0.5-0.5-0.9-0.9-1.5-0.4C27,410.8,27.4,410.9,28.2,410.6z
	 M29.2,414.4c-1.2-0.7-1.9-0.6-2.6,0.2C27.5,415.1,28.3,414.4,29.2,414.4z M32.5,409c0.4-1.1,0.4-1.1-0.1-1.9
	c-1.8-0.6-3.3,0-4.3,1.2c-1,0.3-1.7,0.5-2.6,0.8c-0.4-0.1-0.9-0.1-1.1-0.2c-1.6,0.1-1.8,1.4-2.7,2.2c-0.3-0.5-0.6-0.9-0.9-1.3
	c0.6-0.7,1.1-1.5,1.9-2.6c-0.5-0.2-1.1-0.5-1.9-0.8c0.9-0.4,1.3-0.6,1.9-0.9c-0.4-0.5-0.7-0.8-1-1.2c0.2-0.5,0.3-1,0.5-1.5
	c0.8,0.3,0.2,1,0.6,1.5c0.2,0.1,0.6,0.3,1.1,0.5c0.2,0.3,0.4,0.6,0.7,1.1c0.7-0.2,1.5-0.4,2.3-0.6c0.2-0.2,0.3-0.5,0.6-0.8
	c0.2,0.1,0.4,0.2,0.5,0.3c0.6,1.1,1.5,1.1,2.8,1.1c1.8,0,3.4,0,5.1-0.6c0.4-0.2,0.9-0.1,1.2,0.4c-0.3,0.5-0.6,1-1,1.6
	c-0.4,0-0.9,0-1.5,0c-0.2,0.3-0.4,0.7-0.6,1.1c0.8,0.3,1.4,0.6,2.2,0.9c0.3-0.1,0.8-0.2,1.4-0.4c0.3,0.1,0.6,0.3,1.1,0.5
	c-0.5,0.6-1,1.2-1.5,1.8c-0.5,0-0.9,0-1.3,0c-0.8,0.7-0.9,1.7-1.9,2.3c-1.1-0.9-2.1-1.8-3-2.6C31.1,409.8,31.8,409.4,32.5,409z
	 M27,406.5C27,406.5,27,406.6,27,406.5C27,406.6,27,406.5,27,406.5z M27,406.5C27,406.5,27,406.5,27,406.5
	C27,406.5,27,406.5,27,406.5z M66.6,400.8c-0.1,0-0.1,0.1-0.2,0.1c0,0,0.1,0,0.1,0.1c0.1-0.1,0.1-0.1,0.2-0.2
	C66.6,400.9,66.6,400.8,66.6,400.8z M67.8,334.6c-0.5-0.4-0.7-1-1.6-0.9c0.2,0.4,0.4,0.8,0.5,1.1c-0.1,0.4-0.2,0.6-0.3,0.9
	c0.1,0,0.1,0,0.2,0.1C67,335.5,67.4,335.1,67.8,334.6z M69.7,229.8c-0.1,0-0.2,0-0.4,0c0,0.2-0.1,0.5-0.1,0.8c0.2,0,0.3,0,0.5,0.1
	C69.7,230.3,69.7,230.1,69.7,229.8z M67.8,230.8c0,0,0,0.1-0.1,0.1c0.1,0,0.1-0.1,0.2-0.1C67.9,230.8,67.8,230.8,67.8,230.8z
	 M70.6,242.2C70.6,242.2,70.7,242.2,70.6,242.2c0.1-0.1,0.1-0.1,0.1-0.2c0,0-0.1,0-0.1,0C70.5,242.1,70.6,242.1,70.6,242.2z
	 M71.3,313.3c-0.2-0.1-0.5-0.2-0.9-0.4C70.3,313.6,70.7,313.6,71.3,313.3z M66.7,328.4c-0.1,0.4-0.1,0.8,0.6,0.9
	C67.5,328.8,67.3,328.6,66.7,328.4z M80.2,199.4c0.2-0.4,0.4-0.5,0.6-0.9c-0.5,0-0.8,0.1-1.3,0.1C79.8,198.9,79.9,199,80.2,199.4z
	 M68,281.8C68,281.8,68,281.8,68,281.8c0.1-0.1,0.1-0.1,0.1-0.1C68,281.7,67.9,281.7,68,281.8C67.9,281.7,68,281.8,68,281.8z
	 M66.5,345.5L66.5,345.5h-0.1H66.5z M67.4,330.3c-0.3,0.1-0.5,0.1-0.8,0.1c0.2,0.4,0.3,0.8,0.4,1.1c-0.2,0.2-0.4,0.5-0.3,0.4
	c0.7,0.8,1.3,1.5,1.8,2.1C68.9,332.5,67.4,331.6,67.4,330.3z M70.5,239.7c0,0.1,0,0.1,0,0.2c0.1,0,0.1,0,0.2-0.1
	C70.7,239.8,70.6,239.7,70.5,239.7z M67.7,233.3c0.2-0.1,0.3-0.4,0.4-0.6c-0.1-0.1-0.2-0.1-0.2-0.2c-0.4,0.1-0.8,0.2-1.2,0.3
	C66.9,233.4,67.3,233.5,67.7,233.3z M74.4,208.6c0.8,0,1.4,0,2,0c0-0.4,0.1-0.7,0.1-1.1c0.3-0.2,0.6-0.3,0.8-0.4
	c-0.2-0.4-0.4-0.8-0.5-1.2c-0.3-0.1-0.7-0.1-1-0.1c-0.3,0.2-0.5,0.4-0.7,0.6c-0.4-0.1-0.7-0.1-1.1-0.2c-0.6,0.5-1,0.9-0.7,1.6
	C73.7,208.1,74.1,208.4,74.4,208.6z M75.3,196.9c-0.1-0.1-0.1-0.2-0.2-0.3c0,0-0.1,0-0.1,0c0,0.1,0,0.2,0.1,0.3
	C75.2,196.9,75.3,196.9,75.3,196.9z M75.5,201.6c-0.1,0.5-0.2,1-0.4,1.6c1.1,0.2,1.1-0.7,1.7-0.9c0.6-0.3,1.3-0.5,2-0.9
	c0.1-0.6,0.2-1.1,0.3-1.5c-0.9-0.8-1.6,0.4-2.6,0.1c-0.2-0.3-0.4-0.6-0.6-0.9c-0.6,0.5-1.1,0.9-1.6,1.4c0.1,0.3,0.1,0.6,0.2,0.9
	C74.9,201.5,75.2,201.6,75.5,201.6z M71.6,261.5c0,0,0-0.1-0.1-0.2c-0.1,0-0.2,0-0.2,0.1s0,0.1,0.1,0.2
	C71.5,261.6,71.6,261.6,71.6,261.5z M80.5,195.3c-0.1-0.3-0.3-0.5-0.4-0.9c-0.4,0.3-0.7,0.5-1.1,0.9c0.6,0.1,0.9,0.2,1.3,0.3
	C80.3,195.5,80.4,195.4,80.5,195.3z M71,314.6c0.1,1.2-0.2,2.2,1.3,2.6C71.8,316.5,72.2,315.4,71,314.6z M72.7,262.5
	c-0.1-0.1-0.1-0.2-0.2-0.2c-0.2,0.1-0.4,0.3-0.6,0.4c0.1,0.1,0.1,0.2,0.2,0.2C72.3,262.7,72.5,262.6,72.7,262.5z M72.1,202.7
	c0,0-0.1,0-0.1,0c0,0.1,0,0.2,0,0.3c0,0,0.1,0,0.1,0C72.1,202.9,72.1,202.8,72.1,202.7z M72.6,313.4c0.2-0.2,0.4-0.4,0.5-0.5
	C72.4,312.8,72.2,312.9,72.6,313.4z M67.2,317.1c0-0.1,0.1-0.2,0.2-0.4c-0.1,0-0.2,0-0.2-0.1c0,0.1-0.1,0.2-0.1,0.4
	C67.1,317,67.1,317.1,67.2,317.1z M66.3,317.4C66.3,317.4,66.3,317.4,66.3,317.4c-0.1-0.1-0.1-0.1-0.2-0.1c0,0,0,0.1,0,0.1
	C66.2,317.5,66.3,317.5,66.3,317.4z M66.6,285c-0.1,0-0.1,0-0.2,0c0,0.1,0,0.3,0,0.4c0.1,0,0.2,0,0.3,0
	C66.6,285.3,66.6,285.1,66.6,285z M61.3,250.3c-0.1-0.1-0.2-0.2-0.3-0.3c-0.1,0.1-0.1,0.1-0.2,0.1c0.1,0.1,0.2,0.2,0.3,0.3
	C61.1,250.4,61.2,250.3,61.3,250.3z M64.9,322.3c-0.2,0-0.4,0-0.6-0.1c0,0.1,0,0.1-0.1,0.2c0.2,0.1,0.4,0.1,0.6,0.2
	C64.9,322.5,64.9,322.4,64.9,322.3z M63,320.2c0.8,0.4,1.4,0.7,2.1,1C64.5,320.4,63.7,320.1,63,320.2z M62.9,328.7c0,0-0.1,0-0.1,0
	c0,0,0,0.1-0.1,0.1c0.1,0,0.1,0,0.2,0.1C62.9,328.8,63,328.8,62.9,328.7z M61.8,320.7c0.1,0,0.1-0.1,0.2-0.1c0-0.1-0.1-0.1-0.1-0.2
	c-0.1,0-0.2,0.1-0.2,0.1C61.7,320.6,61.7,320.7,61.8,320.7z M63.5,327.6c0.3-0.4,0.7-0.8,1.1-1.3c-0.7-0.1-1-0.2-1.4-0.3
	C63.1,326.5,62.8,327,63.5,327.6z M67.7,320.1c-0.6-0.4-1.1-0.9-1.7-1.4c-0.2,1,0.4,1.5,1,2.3C67.3,320.6,67.4,320.4,67.7,320.1z
	 M64.4,344.7C64.4,344.6,64.4,344.6,64.4,344.7C64.4,344.6,64.4,344.6,64.4,344.7C64.4,344.7,64.4,344.7,64.4,344.7
	C64.4,344.7,64.4,344.7,64.4,344.7z M64.3,338.7c-0.3-0.4-0.6-0.7-1.2-0.6c0.4,0.8,0.9,1.6,1.4,2.6c0,0.1,0,0.5,0,0.8
	C65,340.9,64.8,339.5,64.3,338.7z M64.8,324.4c1,0.7,1.4-0.3,1.9-0.1c1.1,0.2,0,1,0.6,1.4c0.3-0.5,0.6-0.9,1-1.5
	C67.1,323.7,66.1,324.1,64.8,324.4z M63.2,346c1.2-0.3,1.2-0.3,1.2-1.4c-0.3,0.1-0.7,0.2-1.1,0.3C63.2,345.3,63.2,345.6,63.2,346z
	 M65.3,344.1c0-0.6,0-1.1,0-1.6c-0.9,0.2-1.6,0.4-2.5,0.7c0.6,0.2,1.1,0.5,1.6,0.7c0,0.2,0,0.4,0,0.6
	C64.7,344.4,65,344.3,65.3,344.1z M63.1,334.6c0.2-0.4,0.3-0.8,0.5-1.2c-0.1,0-0.2,0-0.2,0c0-0.9,0-1.8,0-2.8
	c-0.5-0.1-0.9-0.6-1.6-0.1c0.4,0.4,0.7,0.7,1.1,1.2c-0.5,0.3-0.8,0.4-1.2,0.7c0.5,0.3,0.9,0.5,1.4,0.9c-0.2,0.5-0.4,1-0.7,1.5
	C62.6,334.6,62.8,334.6,63.1,334.6z M61.8,324.2c0.1,0,0.2-0.1,0.2-0.1c-0.1-0.1-0.2-0.2-0.3-0.4C61.8,323.9,61.8,324,61.8,324.2z
	 M61.7,323.7C61.8,323.7,61.8,323.7,61.7,323.7C61.8,323.7,61.8,323.7,61.7,323.7L61.7,323.7z M62,327.8c0.1,0,0.2-0.1,0.2-0.1
	c0-0.1-0.1-0.1-0.2-0.2C62,327.6,61.9,327.7,62,327.8C61.9,327.8,62,327.8,62,327.8z M61.7,323.8L61.7,323.8
	C61.7,323.7,61.7,323.7,61.7,323.8L61.7,323.8z M107.5,80.9c-0.8-0.1-1,0.4-1.2,0.9c0.1,0.7,0.5,1,1.2,1.2
	C107.5,82.3,107.5,81.6,107.5,80.9z M99.4,132c0,0.1,0.2,0.2,0.3,0.4c0.5-0.3,0.9-0.5,1.5-0.8c-0.7-0.2-1.1-0.3-1.6-0.5
	C99.4,131.6,99.4,131.8,99.4,132z M106.3,5c-0.5-0.1-0.8-0.1-1.5-0.2c0.5,0.4,0.7,0.6,1,0.8C106,5.4,106.1,5.3,106.3,5z M101.9,130
	c0-0.2,0-0.4,0-0.7c-0.1,0-0.2,0-0.3,0c0,0.2,0,0.4,0,0.7C101.7,130,101.8,130,101.9,130z M103.3,133.1L103.3,133.1L103.3,133.1
	L103.3,133.1z M104.8,122.5c0,0.1,0,0.2,0,0.2c0,0,0.1,0,0.1,0C104.9,122.7,104.9,122.6,104.8,122.5
	C104.9,122.5,104.8,122.5,104.8,122.5z M99.7,95.4c-0.5-0.2-0.8-0.3-1.4-0.5c0.2,0.5,0.3,0.8,0.5,1.3C99.2,95.8,99.4,95.7,99.7,95.4
	z M104,132.2c0.3-0.5,0.6-0.9,0.9-1.4c-1.1-1-1.1-1-2.2-0.9C102.6,130.9,103.1,131.6,104,132.2z M98.6,42.9L98.6,42.9L98.6,42.9
	L98.6,42.9z M100,130.3C100,130.4,100,130.4,100,130.3c0,0.1,0,0.1,0,0.1s0-0.1,0.1-0.1C100.1,130.4,100.1,130.4,100,130.3z
	 M99.7,16.2c0,0-0.2,0-0.4-0.1c0,0.2,0,0.3-0.1,0.5c0.1,0,0.3,0,0.4,0C99.6,16.5,99.7,16.4,99.7,16.2z M102.8,21.7
	c0.4,0.4,0.8,0.8,1.2,1.2c0.4-0.3,0.8-0.5,1.2-0.8c-0.5-1.2-0.7-1.3-2.1-1.3C102.9,21.1,102.8,21.4,102.8,21.7z M101.4,262.6
	c-0.2-0.1-0.4-0.2-0.5-0.3c-0.1,0.1-0.1,0.1-0.2,0.2c0.1,0.1,0.3,0.2,0.4,0.3C101.2,262.8,101.3,262.7,101.4,262.6z M102.9,19.4
	c0.2-0.6,0.4-1,0.6-1.5c-0.4-0.1-0.6-0.2-0.8-0.2C102.1,18.2,101.8,18.7,102.9,19.4z M104,5.2L104,5.2L104,5.2L104,5.2z M103.7,44.7
	c0.4-0.7,0.7-1.3,1-1.8c1.1,0,2,0,2.8,0c0-0.4,0-0.7,0-1c-0.4-0.2-0.8-0.3-1.3-0.5c-0.5,0.4-1.2,0.8-2.3,0.5
	c0.4-0.9,0.9-1.9,1.3-2.8c0.5-0.1,0.9-0.2,1.3-0.3c0.2,0.4-0.1,1.1,0.9,1c0-0.4,0-0.7,0-1c-0.3,0-0.6,0-0.9,0
	c-0.2-0.3-0.4-0.7-0.6-1c-0.4,0.1-0.8,0.1-1.1,0.2c-0.3-0.2-0.6-0.4-1-0.6c-0.5,0.4-1,0.7-1.4,1c0.1,0.3,0.1,0.4,0.1,0.6
	c0,0.2,0.1,0.4,0.1,0.6c-0.3,0.2-0.5,0.4-0.7,0.6C103.1,41.5,101.7,43.4,103.7,44.7z M103.8,99.2c-0.5-0.3-0.9-0.5-1.4-0.8
	c-0.4,0.4-0.8,0.8-1.1,1.2c0.1,0.3,0.2,0.5,0.3,0.9C102.6,100.3,103.4,100.1,103.8,99.2z M103.3,118.9c0,0.5,0.1,1,0.1,1.6
	c0.6-0.4,1-0.6,1.4-0.9c-0.3-0.6-0.6-1-0.8-1.5c0.5-0.3,0.9-0.6,1.4-1c-0.2-0.4-0.4-0.8-0.7-1.2c-1,0.3-1.8,0.5-2.6,0.7
	c0,0-0.1,0.1-0.1,0.1c-0.7,0.3-1.3,0.5-2.1,0.8c0.4,0.5,0.9,1,1.3,1.5C102,119.1,102.6,119,103.3,118.9z M100.5,68.8
	c0,0.4,0,0.7,0,1c0.1,0,0.2,0,0.3,0C100.9,69.5,101.4,69.2,100.5,68.8z M102.6,86.8c0.2-0.4,0.4-0.7,0.8-1.3c-0.7,0-1.2,0-1.8,0
	C101.5,86.1,101.5,86.7,102.6,86.8z M103.1,55.9c-1-0.5-1.3,0-1.5,0.5c0.2,0.1,0.3,0.3,0.6,0.5C102.5,56.6,102.8,56.3,103.1,55.9z
	 M102.2,123.5c0.1-0.1,0.1-0.2,0.2-0.2c0,0-0.1-0.1-0.1-0.1c-0.1,0.1-0.2,0.2-0.2,0.2C102.1,123.4,102.2,123.4,102.2,123.5z
	 M91.7,183.9c-0.1-0.4-0.3-0.7-0.4-1.2c-0.5,0.2-0.8,0.4-1.2,0.6c-0.5-0.5-1.2-0.8-2.2-0.3c0.3,0.5,0.6,1,1,1.6
	C90,184.5,90.9,184.6,91.7,183.9z M90.5,181.2c0.2-0.2,0.3-0.3,0.7-0.6c-0.9-0.3-1.5-0.5-2.4-0.8C88.9,180.9,89.8,180.9,90.5,181.2z
	 M90.1,176.8c-0.2-0.4-0.4-0.6-0.6-1c-0.7,0.4-1.1,0.7-0.8,1.5C89.2,177.1,89.6,177,90.1,176.8z M90,173c-0.1,0-0.2,0-0.3-0.1
	c0,0.1,0,0.2,0.1,0.3C89.8,173.1,89.9,173.1,90,173z M86.1,190.1C86.1,190.1,86.1,190.1,86.1,190.1
	C86.1,190.1,86.1,190.1,86.1,190.1C86.1,190.1,86.1,190.1,86.1,190.1C86.1,190.1,86.1,190.1,86.1,190.1z M86.1,190
	c0.2-0.4,0.4-0.9,0.7-1.5c-0.7-0.1-1.2-0.1-1.9-0.2c0.1,0.6,0.2,1,0.3,1.4C85.5,189.8,85.8,189.9,86.1,190z M81.9,167.3
	c0,0-0.1-0.1-0.2-0.1c0,0.1-0.1,0.1-0.1,0.2c0,0,0.1,0.1,0.1,0.1C81.7,167.4,81.8,167.3,81.9,167.3z M88.2,188.4
	c-0.1,0.2,0,0.4,0,0.7c0.7-0.3,1-0.5,0.4-1.1C88.4,188.1,88.2,188.2,88.2,188.4z M98.1,140.4c-0.1-0.1-0.3-0.4-0.6-0.8
	c0.3-0.1,0.6-0.3,0.7-0.3c0.9,0.3,1.7,0.6,2.6,0.9c0.2-0.3,0.4-0.5,0.6-0.8c0.2,0,0.5-0.1,0.8-0.1c-0.2-0.3-0.3-0.6-0.4-0.8
	c-0.5-0.4-1.4,0.3-1.6-0.7c0.3-0.2,0.7-0.5,1-0.8c0.6,0.2,1,0.3,1.6,0.5c-0.2-0.8-0.4-1.3-0.6-1.9c0.8-0.2,1.4-0.3,1.9-0.5
	c0.5-0.2,1-0.6,1.5-0.9c0.3-0.3-0.2-1,0.8-1c0.1,0.3,0.2,0.6,0.4,1c0.2,0,0.5,0,0.8,0c0,0.4,0,0.7,0,1c-0.1,0.1-0.2,0.1-0.2,0.1
	c0.1,0,0.2,0.1,0.2,0.1c0,1,0,2.1,0,3.1c-0.5,0-1.1,0-1.6,0c-0.3,0.6-0.6,1-0.8,1.5c0.1,0.3,0.3,0.7,0.4,1c0.6,0.1,1.1,0.2,1.3,0.7
	c0.1,0.1,0.4,0.1,0.7,0.2c0,0.6,0,1.2,0,1.8c-0.5,0.1-0.9,0.2-1.5,0.3c-0.6-0.4-1.4-0.9-1.2-1.7c-0.8-0.5-1.5-0.2-2.2,0.1
	c-0.7-0.2-1.3-0.4-2-0.6c-0.1-0.2-0.2-0.5-0.4-0.9C99.6,140.7,99,140.6,98.1,140.4z M105,141.8c0,0-0.1,0-0.1,0c0,0.1,0,0.2,0,0.4
	C104.9,142.1,104.9,141.9,105,141.8z M104,136.8c0.6-0.2,1.2-0.4,2-0.6C104.7,135.6,104.4,135.7,104,136.8z M92.2,157.9
	c-0.4-0.1-0.9-0.2-1.7-0.3c0.1,0.5,0.2,0.9,0.2,1.3C91.5,158.6,92.2,158.7,92.2,157.9z M103.1,151.6
	C103.2,151.6,103.2,151.6,103.1,151.6C103.2,151.6,103.2,151.5,103.1,151.6C103.2,151.5,103.2,151.5,103.1,151.6
	C103.1,151.5,103.1,151.6,103.1,151.6z M101.5,144.6c0.8,0.1,1-0.1,0.9-0.5c0-0.1-0.2-0.1-0.4-0.3
	C101.8,144.1,101.7,144.3,101.5,144.6z M107.5,145.3c-1.6,0.1-1.9,0.5-1.8,1.9c0.2,0.1,0.4,0.2,0.7,0.2c-0.2,0.7-0.3,1.4-0.4,2
	c-1.1,0.6-2.4,0.9-2.8,2c0.8-0.1,1.5,0,2.2,0.5c0.6,0.4,1.2,0.8,2.1,0.6c0-0.8,0-1.6,0-2.4c-0.2-0.2-0.4-0.4-0.7-0.6
	c0.2-0.1,0.4-0.3,0.7-0.4C107.5,147.9,107.5,146.6,107.5,145.3z M98.4,147.7c0.5-0.2,1.2-0.2,1.3-1.1c-1.1,0.8-2.7,0.4-3.1,1.6
	c0.1,0.1,0.2,0.2,0.2,0.2C97.3,148.2,97.8,147.9,98.4,147.7z M93.6,163.8c-1.2,1.3-1.2,1.9-0.1,2.6c0.4-0.3,0.8-0.6,1.2-0.9
	C95.1,164.6,94,164.4,93.6,163.8z M93.3,148.8c0.1-0.5,0.1-0.8,0.2-1.1c-1.7-0.2-3,0-2.9,0.4c0.4,0,0.9,0,1.3,0
	C92.3,148.3,92.7,148.5,93.3,148.8z M91.1,150c1.2,0.1,1.3,0,1.1-1.3C91.4,149,90.9,149.3,91.1,150z M95.6,125.1
	c-0.4-0.4-0.7-0.9-1-1.3c-0.9-0.1-1.1,0.2-1.1,0.8c0.6,0.3,1.2,0.5,1.8,0.8C95.4,125.3,95.5,125.2,95.6,125.1z M95,153.5
	c0.3,0,0.5,0,0.8,0.1c0.1-0.4,0.3-0.7,0.4-1.2C95.4,152.5,95.1,152.9,95,153.5z M107.5,63.1c-0.4,0-0.8,0-1.1,0.1
	c-0.3,1.3-0.1,1.5,1.1,1.8C107.5,64.3,107.5,63.7,107.5,63.1z M106.1,57.3c0.4,0,0.9,0,1.4,0c0-0.3,0-0.5,0-0.8
	c-0.7,0-1.3-0.1-2.1-0.1c-0.3,0.5-0.7,1.1-1,1.7C105.5,58.6,105.5,57.7,106.1,57.3z M104.9,46.5c0.1,0.1,0.2,0.1,0.3,0.2
	c0-0.1,0.1-0.2,0.2-0.4C105.1,46.4,105,46.5,104.9,46.5z M104.7,96c0,0.3,0,0.5-0.1,0.7c0.5,0.2,1,0.5,1.5,0.6
	c0.5-0.1,0.9-0.2,1.4-0.2c0-1.2,0-2.4,0-3.7c-0.5-0.2-1-0.5-1.5-0.7c-0.3,0.3-0.6,0.6-0.9,0.8c-0.4-0.1-0.8-0.3-1.2-0.4
	c-0.3,0.5-0.5,0.9-0.8,1.2c0.2,0.5,0.4,1,0.6,1.5C104,95.9,104.3,95.9,104.7,96z M102.2,97.2c0.6-0.2,1-0.3,1.3-0.4
	C103.1,96.7,102.6,96.5,102.2,97.2z M102.3,92.9c0-0.3,0-0.6-0.1-1.2C101.5,92.5,101.5,92.5,102.3,92.9z M85.2,198.9
	c0.4,0.1,0.9,0.1,1.2-0.4c-0.3-0.2-0.7-0.4-1.2-0.7C85.2,198.4,85.2,198.6,85.2,198.9C85.2,198.9,85.2,198.9,85.2,198.9
	C85.2,198.9,85.2,198.9,85.2,198.9z M105,89.1c0.9-0.4,0.8-0.7-0.1-1C104.9,88.5,104.9,88.8,105,89.1z M107.5,66.5
	c-0.9,0.4-1.2-0.7-2.3-0.6c-0.2,0.1-0.4,0.4-0.6,0.5c0.2,0.7,0.3,1.2,0.4,1.8c0.4,0.1,0.8,0.2,1.3,0.3c0-0.1,0-0.1,0-0.2
	c0.4-0.1,0.8-0.2,1.2-0.3C107.5,67.5,107.5,67,107.5,66.5z M107.5,72.8c-0.2,0.1-0.4,0.2-0.6,0.3c0.2,0.2,0.4,0.3,0.6,0.5
	C107.5,73.3,107.5,73,107.5,72.8z M107.5,69.4c-0.4,0-0.8-0.1-1.1-0.1c-0.4,0.5-0.8,1-1.3,1.6c0.5,0.7,1.6,0.6,2.3,0.9
	C107.5,70.9,107.5,70.1,107.5,69.4z M105.9,50.2c-0.1,0.6-0.1,1.1-0.2,1.7c0.2,0.2,0.4,0.4,0.6,0.6c0.4-0.1,0.8-0.1,1.1-0.1
	c0-1.8,0-3.7,0-5.5c-0.4,0.1-0.8,0.1-1.3,0.2c0.3,0.5,0.6,0.8,0.7,1c-0.2,0.7-0.3,1.2-0.4,1.7C106.3,50,106.1,50.1,105.9,50.2z
	 M106.4,131c0.4,0.1,0.8,0.1,1.1,0.1c0-0.6,0-1.2,0-1.8c-0.4,0.1-0.8,0.3-1.3,0.5C106.3,130.2,106.3,130.6,106.4,131z M107.5,124.1
	c-0.3,0-0.7-0.1-1-0.1c-0.5,0.5-0.9,1-1.4,1.4c0.5,0.2,0.9,0.3,1.2,0.5c0.4-0.1,0.8-0.1,1.2-0.2
	C107.5,125.1,107.5,124.6,107.5,124.1z M107.5,127.7c-0.2,0.1-0.4,0.1-0.8,0.2c0.4,0.1,0.6,0.2,0.8,0.3
	C107.5,128.1,107.5,127.9,107.5,127.7z M107.5,121.7c-0.3,0.1-0.5,0.2-1.1,0.4c0.6,0.2,0.9,0.3,1.1,0.4
	C107.5,122.2,107.5,122,107.5,121.7z M106.5,118L106.5,118C106.5,118.1,106.6,118.1,106.5,118C106.6,118.1,106.6,118.1,106.5,118
	L106.5,118z M107.5,106.5c-0.9,0.1-1.9,0.2-3.1,0.4c-0.3,0.4-1.3,0.9-0.7,1.8c0.5,0.2,1.1,0.5,1.6,0.7c0.3-0.1,0.7-0.1,0.9-0.2
	c0.5,0.3,0.8,0.5,1.2,0.7C107.5,108.8,107.5,107.7,107.5,106.5z M107.5,111c-0.5,0.1-0.9,0.1-1.4,0.2c0,0.1,0,0.2-0.1,0.3
	c0.5,0.3,1,0.6,1.5,0.8C107.5,111.9,107.5,111.4,107.5,111z M105.1,113.8c0.2,0,0.5-0.1,0.7-0.1c0-0.1,0-0.1-0.1-0.2
	c-0.2,0.1-0.4,0.1-0.7,0.1C105.1,113.7,105.1,113.8,105.1,113.8z M107.5,18.1c-0.3,0-0.6,0-0.9,0c-0.1,0.7-0.1,1.2-0.2,2
	c0.4,0.1,0.8,0.2,1.1,0.3C107.5,19.6,107.5,18.8,107.5,18.1z M107.5,118c-0.3,0-0.6,0-0.9,0.1c0.2,0.3,0.2,0.9,0.9,0.7
	C107.5,118.6,107.5,118.3,107.5,118z M78.3,306.2c0-0.1,0-0.1,0-0.2c-0.2,0-0.4,0-0.6-0.1c0,0.1,0,0.2,0,0.3
	C77.9,306.2,78.1,306.2,78.3,306.2z M107.5,36.4c0-0.5,0-1,0-1.6c-0.2-0.1-0.4-0.2-0.6-0.2v0c0,0,0,0,0,0c0,0,0,0,0,0l0,0
	c-0.8,0.4-1.5,0.7-2.4,1.1c0.4,0.4,0.6,0.6,1,1C106.1,36,106.8,36.1,107.5,36.4z M107.5,33c-0.9,0.3-0.6,1-0.6,1.6
	c0.2,0,0.4,0,0.6,0C107.5,34,107.5,33.5,107.5,33z M107.5,31.7c0-0.4,0-0.7,0-1c-1.1-0.1-1.9,0.2-2.4,0.9
	C105.9,32.3,106.7,31.6,107.5,31.7z M107.5,0c-0.2,0.1-0.4,0.2-0.5,0.3c0.2,0.2,0.4,0.3,0.5,0.5C107.5,0.5,107.5,0.3,107.5,0z
	 M102.5,61c0.2,0.4,0.4,0.7,0.5,1c-0.2,0.4-0.3,0.7-0.5,1.1c1.1,0.5,1.5-0.1,1.9-0.6c-0.4-0.7-0.7-1.3-1.1-2.1
	C103,60.7,102.8,60.9,102.5,61z M104.9,25.4c-0.5,0.1-1,0.3-1.6,0.5c0.8,1.1,1.1,1.2,2.8,0.9C106.3,26,105.8,25.7,104.9,25.4z
	 M107.5,14.9c-0.2,0-0.3,0.1-0.6,0.2c0.3,0.1,0.4,0.1,0.6,0.1C107.5,15.1,107.5,15,107.5,14.9z M107.5,12.3
	c-0.2,0.2-0.4,0.5-0.7,0.7c0.2,0.1,0.4,0.2,0.7,0.3C107.5,13,107.5,12.7,107.5,12.3z M107.5,8.4c-0.3,0.2-0.7,0.5-1,0.7
	c0,0.6-0.1,1.1-0.1,1.6c0.4-0.1,0.8-0.2,1.1-0.2C107.5,9.8,107.5,9.1,107.5,8.4z M107.5,78.5c-0.2-0.1-0.5-0.1-0.7-0.2
	c-0.1-0.4-0.2-0.7-0.3-1c-0.3,0.9-0.1,1.5,1,1.7C107.5,78.9,107.5,78.7,107.5,78.5z M104.3,74.4c-0.5,0.2-0.9,0.3-1.5,0.5
	c0.3,0.4,0.6,0.6,0.9,0.9C104.1,75.4,104.7,75.3,104.3,74.4z M103.4,70.1c-0.4-0.3-0.7-0.9-1.6-0.3C102.5,70,103,70.1,103.4,70.1z
	 M102.9,102.4c0.6-0.2,1-0.4,1.5-0.6c-0.1-0.2-0.2-0.4-0.2-0.5c-0.1,0-0.2,0-0.4-0.1C103.5,101.5,102.9,101.7,102.9,102.4z
	 M103.3,73c-0.1-0.1-0.2-0.1-0.4-0.2c-0.1,0.2-0.2,0.4-0.3,0.6c0.1,0,0.2,0.1,0.2,0.1C103,73.3,103.2,73.1,103.3,73z M23.7,392.4
	c0-0.1,0-0.2,0.1-0.3c-0.3-0.1-0.6-0.3-1.1-0.5c0,0.5,0,0.8,0,1.2C23.2,392.6,23.5,392.5,23.7,392.4z M104.5,111.7
	c-0.1-0.7-0.2-1.2-0.2-1.7c-1.1,0.1-1.6,0.5-1.6,1.5C103.2,111.5,103.8,111.6,104.5,111.7z M107.5,100c-0.4,0-0.8,0-1.2,0
	c0,0.7,0,1.1,0,1.6c0.5,0.2,0.9,0.3,1.2,0.5C107.5,101.4,107.5,100.7,107.5,100z M107.5,103.1c-0.7,0.1-1.3,0.3-1.1,1.1
	c0.4,0.1,0.8,0.1,1.1,0.2C107.5,104,107.5,103.6,107.5,103.1z M104.7,28.5c-1.1-0.1-1.1-0.1-1.3,0.7C104,29.3,104.5,29.2,104.7,28.5
	z M85.2,256.5c-0.3-0.5-0.7-1-1.1-1.5c-0.4,0.3-0.6,0.5-0.8,0.6c0.2-0.1,0.3-0.2,0.4-0.2c0.5,0.5,1,0.9,1.6,1.4
	c-0.1,0.1-0.2,0.1-0.3,0.2c0.6,0.1,1.3,0.3,2,0.5c0.2-0.1,0.5-0.3,0.8-0.5C87,255.7,86,256.6,85.2,256.5z M90.2,257.2
	c1.4,0.5,1.4,0.5,2.1-0.4c-0.6-0.2-1.2-0.4-1.8-0.7c-0.6-0.3-1.1-0.8-1.8-1.3c0.6-0.1,1.1-0.2,1.8-0.4c-0.3-0.6-0.6-1.1-0.9-1.6
	c-0.8-0.2-1.4-0.5-2.4-0.8c-0.5,0.2-1.3,0.5-2.1,0.9c-0.2-0.1-0.6-0.3-1-0.4c0-0.5,0.1-0.8,0.1-1.2c-0.8-0.2-1.5-0.4-2.2-0.5
	c-0.6,0.6-1.1,1.2-0.9,2.2c0.7,0,1.4,0.1,2.2,0.1c0.4,0.2,0.7,0.5,1.1,0.7c0.5,0.1,1,0.1,1.8,0.2c-0.7,0.3-1,0.5-1.4,0.7
	c0.9,0.7,0.9,0.8,1.7,0.7c1.3-0.2,2.2,0.6,3.3,0.9C90,256.6,90.1,257,90.2,257.2z M90.9,275.4c0.2,0,0.4,0,0.7,0c0-0.1,0-0.2,0-0.3
	c-0.2,0.1-0.5,0.1-0.7,0.1C90.9,275.3,90.9,275.4,90.9,275.4z M85,268.1c0.1,0.1,0.1,0.2,0.2,0.3c0.6,0,1.1,0,1.6,0
	c0.6-0.9,1.1-1.6,1.7-2.6c-0.8-0.1-1.3-0.2-1.8-0.3C85.5,266.2,85.6,267.3,85,268.1z M87.1,260.8c0,0-0.1-0.1-0.2-0.1
	c0,0,0,0.1-0.1,0.1C86.9,260.8,87,260.8,87.1,260.8C87,260.9,87.1,260.8,87.1,260.8z M87.3,262.1C87.3,262.1,87.3,262.1,87.3,262.1
	c0,0.1,0,0.1,0.1,0.1C87.4,262.2,87.4,262.1,87.3,262.1C87.3,262.1,87.3,262.1,87.3,262.1z M86.7,292.6c0.7-0.2,1.1-0.3,1.7-0.4
	c1.1,0.3,1.7,0.3,1.8-0.3c-0.2-0.2-0.4-0.4-0.5-0.5c-1.1-0.2-2-0.3-3.1-0.4C86.6,291.6,86.6,292,86.7,292.6z M84.5,284.4L84.5,284.4
	L84.5,284.4L84.5,284.4z M84.2,295.5c0,0-0.1,0-0.1,0c0,0.1,0,0.2,0,0.2c0,0,0.1,0,0.2,0C84.2,295.7,84.2,295.6,84.2,295.5z
	 M82.1,300.4c0.7,0,1.4,0,2.1,0c0.2-0.3,0.4-0.6,0.5-0.9c0.4-0.2,0.9-0.3,1.3-0.5c0-0.2-0.1-0.3-0.1-0.5c-0.9,0.1-1.3,0.5-1.8,0.9
	c-0.6,0.4-1.3,0.6-2,0.8C82.1,300.3,82.1,300.4,82.1,300.4z M88.8,268.3c0.1-0.3,0.3-0.6,0.5-1c-0.4-0.7-0.6-1.4,0.1-2.1
	c1.2,0,2.4,0,3.5,0c-0.2,0.4-0.3,0.8-0.5,1.3c0.1,0,0.1,0.1,0.2,0.1c-0.2,0.2-0.5,0.3-0.8,0.5c0,0.4-0.1,0.7-0.1,1.1
	c-0.6,0.2-1.2,0.4-1.9,0.6c0.4,0.3,0.7,0.6,1.1,0.8c-0.2,0.3-0.4,0.6-0.7,0.9c0.2,0.1,0.3,0.2,0.4,0.2c0.3,0.1,0.7,0.1,1,0.2
	c0.1,0,0.1,0.1,0.2,0.3c-0.4,0.6-1,0.1-1.8,0.3c-0.1,0.1-0.2,0.4-0.4,0.7c-0.4-0.3-0.7-0.5-1-0.7c-0.4,0.1-0.7,0.1-1.1,0.1
	c-0.6-0.3-1.1-0.6-1.5-0.8c-0.2-0.5-0.3-1-0.5-1.6C86.5,268.9,87.6,268.6,88.8,268.3z M89.5,266.5c0.3,0.2,0.4,0.2,0.6,0.3
	c0.1-0.2,0.2-0.4,0.3-0.6c-0.1,0-0.1-0.1-0.2-0.1C89.9,266.2,89.8,266.3,89.5,266.5z M88.9,270.1c-0.2-0.1-0.4-0.1-0.6-0.2
	c0,0.1-0.1,0.2-0.1,0.2c0.2,0.1,0.4,0.1,0.6,0.2C88.8,270.2,88.8,270.2,88.9,270.1z M70.6,371.5c0,0,0.1,0,0.2,0c0-0.1,0-0.2,0-0.4
	c-0.1,0-0.1,0-0.2,0C70.6,371.3,70.6,371.4,70.6,371.5z M72.8,385.5C72.8,385.6,72.8,385.6,72.8,385.5
	C72.8,385.5,72.8,385.5,72.8,385.5C72.8,385.5,72.8,385.5,72.8,385.5C72.7,385.5,72.7,385.5,72.8,385.5
	C72.8,385.5,72.8,385.5,72.8,385.5C72.8,385.5,72.8,385.5,72.8,385.5z M70.8,376.4c0.2-0.1,0.3-0.2,0.5-0.2c0-0.1-0.1-0.1-0.1-0.2
	c-0.2,0.1-0.3,0.2-0.5,0.2C70.7,376.2,70.8,376.3,70.8,376.4z M42.7,414.9c-0.1,0.1-0.2,0.2-0.4,0.2c0.1,0.1,0.2,0.1,0.3,0.2
	c0.1-0.1,0.2-0.2,0.3-0.3C42.8,415,42.8,414.9,42.7,414.9z M87.3,287.7c0.1,0,0.1,0.1,0.2,0.1c0-0.1,0.1-0.2,0.1-0.3
	C87.5,287.5,87.4,287.6,87.3,287.7z M12.6,415.5c-0.1,0-0.1,0.1-0.1,0.2c0.1,0,0.2,0.1,0.2,0.1c0.1,0,0.1-0.1,0.1-0.2
	C12.8,415.6,12.7,415.5,12.6,415.5z M93,268.3c-0.2,0-0.3,0-0.5,0c0,0.1,0,0.1,0,0.2c0.2,0,0.3,0,0.5,0C93,268.5,93,268.4,93,268.3z
	 M92.1,277.2c0.2,0,0.4,0,0.6,0c0-0.1,0-0.2-0.1-0.3c-0.2,0-0.4,0.1-0.6,0.1C92.1,277.1,92.1,277.1,92.1,277.2z M99.4,239.2
	c0-0.4,0-0.7,0-1.1c-1,0.2-1.8,0.4-2.7,0.5c0.2,0.9,0.2,0.9,1.5,1.1c0.5,0.5,1,0.9,1.5,1.5c-0.1,0.4-0.2,0.7-0.3,1.1
	c0.2,0.1,0.4,0.2,0.6,0.3c0.4,0.8,0.9,1.6,1.3,2.4c0.5,0.1,0.9,0.3,1.5,0.5c0.2,0.8,0.4,1.6,0.7,2.5c-0.3,0.2-0.6,0.5-0.9,0.7
	c-0.1,0.7-0.3,1.5-0.4,2.4c-0.6-0.3-1-0.5-1.6-0.8c-0.6,0.6-1.1,1.1-1.6,1.6c-0.7-0.6-0.7-0.6,0.2-1.7c-0.3-0.3-0.5-0.6-0.8-0.8
	c-0.8-0.2-1.6-0.5-2.5-0.7c0.3-0.8,0.5-1.4,0.8-2c-0.6-0.6-0.6-0.6-1.8-0.9c0-0.4,0-0.9,0-1.3c0-0.4,0-0.9,0-1.4c0.5,0,0.9,0,1.5,0
	c-0.2-0.6-0.3-1.1-0.5-1.6c0.4-0.2,0.9-0.3,1.3-0.5c0-0.3,0-0.6,0-0.9c-0.5-0.2-0.9-0.4-1.5-0.6c-0.8,0.2-1.8,0.6-2.3-0.5
	c0.5-0.6,1-1.2,1.5-1.9c0.4,0.1,0.7,0.2,1.3,0.3c-0.4-0.5-0.6-0.8-0.9-1.3c1.4-0.5,2.7-0.9,4.1-1.4c0.4,0.2,0.9,0.3,1.4,0.5
	c0.3-0.2,0.7-0.5,1.1-0.7c0-0.4,0.1-0.9,0.1-1.3c-0.3-0.1-0.6-0.2-0.9-0.4c0.1-0.3,0.3-0.5,0.4-0.8c-0.3-0.2-0.6-0.5-1-0.7
	c-0.4,0.2-0.7,0.3-1.1,0.5c0.3,0.7,0.5,1.3,0.8,2c-1,0-1.2-0.7-1.8-1.1c-0.3,0-0.7,0-1.2,0c0.3-0.3,0.6-0.5,0.9-0.9
	c-1.1-0.3-2-0.5-3.1-0.8c-1.1,0.7-1.8,2.1-3.6,2.1c0-0.3,0-0.7,0-1.1c-0.4-0.3-0.8-0.6-1.2-0.9c-0.8,0.6-0.2,1.1,0,1.6
	c-0.5,0.7-1.3,1.1-2.2,1.3c-1.3,0.4-2.6,0.7-4,1.1c-0.7-0.2-1.5-0.3-2.5-0.5c0-0.6-0.1-1.3-0.2-2c0.1,0,0.2-0.1,0.3-0.1
	c0.3,0.3,0.6,0.6,0.9,1c0.5,0.1,1.1,0.2,1.7,0.2c0.3-0.2,0.6-0.4,0.8-0.6c0.7,0,1.3,0.9,2.2,0.2c-0.6-0.3-1.1-0.6-1.9-1
	c-0.5,0.1-1.2,0.2-2.1,0.3c-0.2-0.1-0.5-0.3-1-0.6c0.7-0.3,1.3-0.6,2-0.9c0.1,0.2,0.1,0.3,0.2,0.6c0.5,0,0.9,0,1.4-0.1
	c0.9,0.6,1.7,1.4,3.3,1.2c-0.3-0.6-0.5-1-0.7-1.4c0.1-0.3,0.2-0.7,0.2-1c-0.2-0.2-0.4-0.5-0.7-0.7c0-0.3,0-0.6,0-0.9
	c-0.5-0.4-1-0.4-1.9,0.2c0,0,0,0,0,0.1c0,0,0,0,0,0l0,0l0,0c-0.6-0.3-1.1-0.6-1.7-0.9c0.2-0.4,0.3-0.7,0.5-1.1
	c0.5-0.1,1-0.2,1.6-0.3c0.4-0.6,0.8-1.3,1.2-2.1c-0.4-0.5-0.8-1-1.2-1.7c0.5-0.4,1-0.7,1.5-1.1c-0.2-0.3-0.5-0.6-1-1
	c0.5-0.1,0.9-0.1,1.5-0.2c-0.3-0.5-0.6-1-0.9-1.4c0.1-0.2,0.3-0.4,0.5-0.7c0.5,0.2,0.9,0.4,1.2,0.5c0.1,0.4,0.2,0.8,0.4,1.3
	c0.5-0.3,0.8-0.5,1.2-0.7c1.1,0.4,2.3,0.8,3.7,1.3c-0.4,0.3-0.6,0.5-0.9,0.7c-2.5-1-3.8-1.1-4.6,0c0.3,0.1,0.6,0.3,0.8,0.4
	c0,0.4,0.1,0.8,0.1,1.3c-0.3,0.4-0.6,1-0.8,1.4c0.5,0.7,1,1.3,1.4,1.8c0.4,0.5,1.4,0.6,1.4,1.6c-0.6-0.1-1.1-0.2-1.6-0.2
	c0.2,1,0.2,1,1.6,1.5c0.5-0.6,1-1.1,1.5-1.7c0.8,0.7,1.5,1.3,2.3,1.8c0.8,0.5,1.7,0.7,2.8,1.2c0.4,0.1,1.1,0.2,2,0.4
	c0.2-0.3,0.4-0.7,0.7-1.2c-0.7-0.4-1.2-0.7-1.7-1c-0.1-0.5-0.2-1.1-0.2-1.5c1-1,1-1,4.4-1.4c0.2-0.7,0.2-0.7-0.7-1.6
	c0.6-0.1,1.2-0.3,2.1-0.5c-1.1-1.3-2.6-1.5-3.9-2c0-0.5-0.1-1-0.2-1.9c0.1-0.1,0.3-0.6,0.6-1.1c0.7,0.1,1.4,0.2,2.1,0.4
	c0.2-0.2,0.5-0.6,0.8-1c0.4,0,0.8,0,1,0c0.6-0.3,1.1-0.5,1.6-0.7c0,3.9,0,7.9,0,11.8c-0.5-0.3-1.1-0.5-1.6-0.8c0-0.1,0-0.1,0.1-0.2
	c-0.4,0-0.8,0-1.2,0.1c-0.3,0.5-0.6,0.9-0.9,1.3c0,0,0.1,0.1,0.1,0.2c0.3-0.1,0.7-0.1,1.1-0.2c0.7,0.4,1.5,0.8,2.3,0.1
	c0,2.2,0,4.4,0,6.5c-1.2,0-1.2,0-1.3,0.7c0.4,0,0.9-0.1,1.3-0.1c0,1.1,0,2.3,0,3.4c-0.9,0-1.4-0.4-1.8-1.2c-0.7,0.4-1.2,0.8-1.7,1.1
	c-1.3,0-1.8-0.8-2.2-1.7C101,238.7,100.3,238.9,99.4,239.2z M104.7,233c0.4,0.6,0.6,0.9,0.9,1.3c0.7-0.4,0.7-0.8,0.3-1.3
	C105.6,233,105.3,233,104.7,233z M106,225.2c0,0-0.1,0-0.1,0c0,0,0,0.1,0,0.1C105.9,225.3,106,225.3,106,225.2
	C106,225.3,106,225.2,106,225.2z M106.2,218.9c0,0,0.1,0,0.1,0.1c0,0,0.1-0.1,0-0.1c0,0-0.1-0.1-0.1-0.1
	C106.3,218.8,106.2,218.9,106.2,218.9z M106,221.4c-0.6-0.1-0.8-0.1-1.1-0.2c0,0.1-0.1,0.2-0.1,0.3c0.1,0.1,0.3,0.3,0.4,0.3
	C105.4,221.8,105.6,221.6,106,221.4z M90,227c0,0,0-0.1,0-0.1c-0.1,0-0.2,0-0.3,0.1c0,0,0,0.1,0,0.1C89.8,227.1,89.9,227,90,227z
	 M98.5,249.4c0.7,0,1.5,0.2,2.3-0.2c-0.1-0.3-0.2-0.7-0.3-1C99.4,248.2,98.8,248.6,98.5,249.4z M96.9,247.7c0.8,0.8,0.8,0.8,1.7-0.1
	C97.8,247.7,97.3,247.7,96.9,247.7z M103.2,227.3c0,0.7,0.4,0.8,1.1,0.7c0-0.2,0.1-0.5,0.2-0.9C104,227.2,103.6,227.3,103.2,227.3z
	 M102.1,231.1c0.6-0.2,1.2-0.3,1.2-0.9C102.2,230,102.1,230.1,102.1,231.1z M101.8,237.4c0.2-1,1.6-1.5,1.9-2.7
	c-0.4-0.1-0.7-0.1-1.1-0.2c-0.2,0.4-0.4,0.8-0.6,1.1c-2.5,0.4-2.5,0.4-3.4,1.2C99.8,237,100.7,237.2,101.8,237.4z M44.7,414.9
	c0-0.1-0.1-0.1-0.1-0.1c0,0.1-0.1,0.1-0.1,0.2c0,0,0.1,0.1,0.1,0.1C44.6,414.9,44.7,414.9,44.7,414.9z M82.8,302.1L82.8,302.1
	L82.8,302.1L82.8,302.1z M81.5,303.9c0.3,0.5,0.5,1.2,1.5,1C82.8,304.1,82.1,304.1,81.5,303.9z M82.7,290.3
	c-0.8,0.2-1.4,0.4-1.6,1.2c0.4,0.2,0.8,0.4,1.2,0.6C82.9,291.6,83.2,291.1,82.7,290.3z M84.1,305.6c0-0.1,0.1-0.2,0.1-0.2
	c0,0-0.1-0.1-0.2-0.1c0,0.1-0.1,0.2-0.1,0.2C83.9,305.6,84,305.6,84.1,305.6z M80.6,279.4c-1.1,0.5-0.1,1.2-0.3,1.9
	c-0.7-0.1-1.3-0.1-2-0.2c0.3,0.6,0.6,1.1,0.8,1.6c0.7,0.1,1.2,0.3,1.5,0.3c1.1-0.4,2-0.6,3-0.9c-0.7-0.5-1.2-0.9-1.8-1.2
	C81.2,280.5,81.5,279.6,80.6,279.4z M77.4,284.6c-0.1,0.1-0.1,0.2-0.1,0.4c0.4,0.1,0.7,0.2,1.1,0.4c0,0.4,0,0.8,0,1.3
	c0.3,0,0.7,0.1,1.4,0.2c-0.9-1.2,0.1-1.8,0.5-2.7C79.1,284.2,78.2,283.9,77.4,284.6z M83.2,292.6c0,0.5,0,1,0,1.5
	c0.3,0,0.5-0.1,0.7-0.1C83.8,293,83.8,293,83.2,292.6z M90.4,295.7c-0.1,0-0.2-0.1-0.2-0.1c0,0.1,0,0.1,0,0.2c0,0,0.1,0.1,0.1,0.1
	C90.3,295.8,90.3,295.7,90.4,295.7z M85,291.8c0,0.5,0,0.9,0,1.2c0.2,0,0.4,0,0.5,0c0.1,0,0.2-0.2,0.2-0.3
	C85.9,292.3,85.8,291.9,85,291.8z M79.3,304.5l-0.1,0L79.3,304.5L79.3,304.5z M87.1,297.1C87.1,297.1,87.1,297.1,87.1,297.1
	C87.1,297.1,87,297.1,87.1,297.1C87,297.1,87,297.1,87.1,297.1L87.1,297.1z M87,297.1C87,297.1,87,297.1,87,297.1L87,297.1L87,297.1
	z M85.8,290.4c0.7-0.1,1-0.4,1.1-1C85.9,289.2,85.7,289.6,85.8,290.4z M88.9,301.9L88.9,301.9C88.8,301.8,88.8,301.8,88.9,301.9
	C88.8,301.8,88.8,301.9,88.9,301.9C88.8,301.9,88.8,301.9,88.9,301.9z M87,297.1L87,297.1L87,297.1L87,297.1
	C87,297.1,87,297.1,87,297.1C87,297.1,87,297.1,87,297.1C87.1,297.1,87.1,297.1,87,297.1z M88.2,301.6c0.2,0.1,0.4,0.2,0.6,0.2
	c0-0.3,0-0.5,0-0.9c-1,0.2-1.8,0.4-2.9,0.7c0.6,0.4,0.9,0.6,1.3,0.9C87.6,302.2,87.9,301.9,88.2,301.6z M87.5,300.5
	c0.3-0.3,0.7-0.6,1.1-1c-1.1-0.5-1.7,0.4-2.8,0.2C86.2,300.8,86.9,300.6,87.5,300.5z M88.7,295.4c-0.8,0.6-1.3,1.1-1.6,1.7
	c0.5,0,0.9,0,1.4,0C88.5,296.5,88.6,296,88.7,295.4z M85.7,297.5c0.4,0.2,0.9,0.4,1.5,0.6c-0.1-0.5-0.2-0.8-0.2-1.1
	c-0.4,0-0.8,0.1-1.2,0.1C85.8,297.3,85.8,297.4,85.7,297.5z M106.8,164.3c0,0.1,0.4,0.2,0.7,0.3c0-0.4,0-0.7,0-1
	C107,163.6,106.8,163.9,106.8,164.3z M96.4,263.8c-0.2,0-0.4,0-0.6,0.1c0,0.1,0,0.2,0,0.2c0.2,0,0.4,0,0.6-0.1
	C96.4,264,96.4,263.9,96.4,263.8z M94.3,271.4c0,0-0.1,0.1-0.2,0.1c0,0.1,0.1,0.2,0.1,0.3c0.1,0,0.2-0.1,0.2-0.1
	C94.4,271.6,94.4,271.5,94.3,271.4z M97.1,277.1c0.1,0,0.2,0,0.2,0c0,0,0-0.1,0-0.1c-0.1,0-0.2,0-0.2,0
	C97.1,277,97.1,277,97.1,277.1z M95.2,273.1c-0.1-0.2-0.1-0.4-0.1-0.5c-0.1-0.1-0.3-0.2-0.5-0.3c-0.2,0.2-0.3,0.3-0.7,0.8
	C94.5,273.1,94.8,273.1,95.2,273.1z M99.1,273.2c-1.6-2.4-1.8-2.6-3.3-2.3c0.3,0.6,0.5,1.3,0.9,2.1c0,0,0,0.2-0.1,0.5
	c0.4,0.1,0.8,0.2,1.2,0.3C98.3,273.6,98.6,273.4,99.1,273.2z M93.8,265.1c-0.1,0.6-0.1,1.2-0.2,1.9c0.1,0.3,0.3,0.9,0.5,1.4
	c0.3,0,0.6,0.1,1,0.1c0.5,0.5,0.4,1.4,1.5,1.4c0.6-0.5,0.9-1,0.3-1.6c-0.5,0-0.9-0.1-1.5-0.1c0.2-0.9,0.4-1.6,0.6-2.5
	C95.2,265.4,94.8,264.5,93.8,265.1z M91.5,291.5c-0.2,0.3-0.3,0.4-0.6,0.7c0.4-0.1,0.7-0.1,0.7-0.2C91.8,292,91.6,291.8,91.5,291.5z
	 M77.4,322.9c0.5-0.1,0.9-0.1,1.3-0.2C77.9,322.2,77.9,322.2,77.4,322.9z M93.4,269.9C93.4,269.9,93.4,269.9,93.4,269.9
	c0,0.1,0,0.1,0,0.1c0,0,0-0.1,0.1-0.1C93.5,269.9,93.4,269.9,93.4,269.9z M85.2,198.9C85.2,198.9,85.2,198.9,85.2,198.9
	C85.2,198.9,85.2,198.9,85.2,198.9C85.2,198.9,85.2,198.9,85.2,198.9C85.2,198.9,85.2,198.9,85.2,198.9L85.2,198.9
	C85.2,198.9,85.2,198.9,85.2,198.9C85.2,198.9,85.2,198.9,85.2,198.9z M99.3,261.6c-0.2,0-0.4,0-0.6,0c0,0.1,0,0.1,0,0.2
	c0.2,0,0.4,0.1,0.6,0.1C99.3,261.7,99.3,261.6,99.3,261.6z M101.7,270.9c0.7-0.3,0.4-0.7,0.2-1.1C101.9,270.1,101,270.4,101.7,270.9
	z M80.8,345.3c-0.1,0-0.2,0-0.2,0c0,0.1,0,0.2,0.1,0.4c0,0,0.1,0,0.2,0C80.8,345.6,80.8,345.5,80.8,345.3z M98.4,263.9
	c0,0,0-0.1,0-0.1c-0.1,0-0.2,0.1-0.3,0.1c0,0,0,0.1,0,0.1C98.2,264,98.3,264,98.4,263.9z M85.2,198.9
	C85.2,198.9,85.2,198.9,85.2,198.9C85.2,198.9,85.2,198.9,85.2,198.9C85.2,198.9,85.2,198.9,85.2,198.9
	C85.2,198.9,85.2,198.9,85.2,198.9z M100.9,273.4c0.6-0.1,1.1,0.9,1.9,0.2c-0.3-0.2-0.7-0.4-0.9-0.7c-0.2-0.4-0.2-0.8-0.9-0.8
	C100.7,272.6,100.7,272.6,100.9,273.4z M97.7,261.9c-0.3,0.3-0.5,0.5-0.8,0.7c0.4,0.1,0.7,0.1,1.1,0.1
	C97.9,262.4,97.9,262.3,97.7,261.9z M102.8,269.6c-0.2,0.1-0.5,0.1-0.8,0.2C102.2,269.7,102.5,269.7,102.8,269.6
	C102.8,269.6,102.8,269.6,102.8,269.6z M101,276L101,276L101,276L101,276z M99.4,263.7c0.6,0.6,1,0.7,1.5,0.2
	c-0.2-0.1-0.4-0.3-0.5-0.3C100.1,263.6,99.9,263.7,99.4,263.7z M72.3,366.6c0,0.1,0,0.1,0,0.2c0.1,0,0.2-0.1,0.3-0.1
	c0-0.1-0.1-0.1-0.1-0.2C72.5,366.5,72.4,366.5,72.3,366.6z M72.5,386.3c0.1-0.3,0.2-0.5,0.2-0.7c0,0,0,0,0,0c0,0,0,0,0,0
	c-0.7-0.2-1.4-0.3-2.4-0.6C71,385.9,71.7,386,72.5,386.3z M94.7,209.7C94.7,209.7,94.7,209.7,94.7,209.7
	C94.8,209.7,94.8,209.7,94.7,209.7L94.7,209.7z M72.8,385.5C72.8,385.5,72.8,385.5,72.8,385.5C72.8,385.5,72.8,385.5,72.8,385.5
	C72.7,385.5,72.7,385.5,72.8,385.5C72.8,385.5,72.8,385.5,72.8,385.5z M73.3,384.4c-0.2,0.5-0.4,0.8-0.5,1.1
	c0.4-0.1,0.9-0.2,1.6-0.3C73.9,384.9,73.7,384.7,73.3,384.4z M101,168.4c0-0.2,0-0.4,0-0.5c-0.1,0-0.3,0-0.4,0.1
	c0,0.2,0.1,0.3,0.1,0.5C100.8,168.4,100.9,168.4,101,168.4z M99.1,168.4C99.1,168.4,99.1,168.4,99.1,168.4
	C99.1,168.4,99.1,168.4,99.1,168.4C99.1,168.3,99.1,168.3,99.1,168.4C99.1,168.4,99.1,168.4,99.1,168.4z M81.3,195.1
	c0-0.1-0.1-0.2-0.2-0.2c1-0.5,2-1.1,3-1.6c0.4,0.1,0.8,0.1,1.2,0.2c1-0.6,0.6-1.7,1.2-2.3c-0.2-0.4-0.3-0.7-0.4-1.1
	c0.4,0,0.9,0,1.3-0.1c-0.1,0.2-0.2,0.4-0.4,0.6c0.6-0.1,1.1-0.1,1.7-0.2c0.2,0.3,0.5,0.7,0.7,1c0.8,0,1.2-0.4,1.1-1
	c-0.3-0.2-0.6-0.4-1.1-0.6c0.3-0.1,0.5-0.3,0.5-0.3c0.4,0.2,0.7,0.4,1,0.7c1-0.3,1.1-1.2,1.7-2c0.5,1-0.5,1.7-0.4,2.4
	c0.6,0.3,1.3,0.7,2,1.1c0.7-1.2,0-2.3,0.2-3.3c-0.5-0.2-0.9-0.4-1.2-0.5c-0.2-0.3-0.4-0.7-0.7-1.1c0.6-0.2,1.1-0.3,1.8-0.5
	c0.4,0.2,0.9,0.5,1.5,0.8c0-0.7,0-1.2,0-1.8c-0.4-0.4-0.8-0.7-1.2-1.1c-0.1-0.6-0.1-1.2-0.2-1.9c-0.5,0.3-0.7,0.4-1.1,0.6
	c-0.4-0.9-0.9-1.7-1.3-2.6c0.7-1.2,0.7-1.2,1.5-1.8c1.2,0.2,1.6,1.1,2.2,1.9c0.5-0.1,1-0.2,1.5-0.3c0.3,0.1,0.7,0.2,0.8,0.2
	c0.7-0.1,1.2-0.2,1.7-0.1c1.8,0,2.2-0.4,1.9-2c-0.5-0.2-1.1-0.4-1.8-0.7c-0.1,0.6-0.2,1-0.4,1.6c-0.5-0.2-1.1-0.5-1.7-0.8
	c-0.3,0.3-0.6,0.6-0.9,0.9c-0.1,0-0.2,0.1-0.3,0c-0.5-0.4-1.5-0.2-1.6-1.2c0.2-0.2,0.6-0.6,1.1-1c-0.1-0.2-0.3-0.4-0.5-0.7
	c-1.1,0.3-2.2,0.6-3.3,0.9c0,0.3-0.1,0.6-0.1,1c-0.3,0.2-0.7,0.3-1.1,0.5c-1.2-0.5-0.5-1.3-0.7-1.9c0.5-0.3,1-0.5,1.5-0.7
	c0.3,0.2,0.5,0.4,0.7,0.6c0.6-0.2,0.7-0.5,0.5-1.7c-0.7-1.2-2.7-1.3-3.1-3c1.2-0.1,2.4-0.2,3.8-0.4c0.5-0.6-0.1-1.4-0.4-2.3
	c0.9,0.1,1.6,0.2,2.4,0.3c0,0.7,0.1,1.3,0.1,2.1c-0.2,0.1-0.6,0.3-0.9,0.4c0,0.5,0,0.9,0,1.3c-0.4,0.2-0.9,0.5-1.4,0.8
	c0,0.3,0.1,0.7,0.1,1.2c0.8,0,1.5,0.1,2.1,0.1c0.5-0.2,1.1-0.4,1.7-0.6c-0.4-0.5-0.7-1-1.1-1.5c0.2-0.2,0.4-0.4,0.7-0.7
	c0-0.7,0-1.5,0-2.4c-0.1-0.1-0.3-0.3-0.6-0.8c1.1,0.3,1.8,0.5,2.7,0.7c-0.1-0.6-0.2-1-0.2-1.5c0.5,0.4,1,0.9,1.6,1.2
	c0.4,0.2,0.9,0.3,1.3,0.4c0.4-0.4,0.7-0.7,1-0.9c-0.2-0.9-0.3-1.6-0.5-2.6c-0.4-0.5-1.6-0.8-1.4-1.9c0.3-0.2,0.7-0.3,1.2-0.6
	c-0.5-0.3-0.7-0.5-0.8-0.5c-0.9-0.1-1.7-0.3-2.3-1c0.3-0.3,0.5-0.6,0.8-0.9c-0.3-0.3-0.7-0.6-1.2-0.9c-0.8,0.1-1.6,0.2-2.5,0.3
	c0.1-0.1,0.2-0.2,0.2-0.3c-0.3-0.4-0.7-0.9-1-1.3c-0.2,0.1-0.4,0.3-0.5,0.4c0-0.3,0-0.5,0.1-0.6c1-0.3,2-0.6,2.9-0.8
	c0-0.1,0-0.1,0-0.2c0.6,0.1,1.1,0.1,1.6,0.2c0.6,1,0,2.2,1.1,2.9c0.9-0.2,1.3-0.7,1.4-1.4c-0.3-0.3-0.7-0.6-0.9-0.8c0-1,0-1.9,0-2.8
	c0,0,0,0,0,0c-0.6-0.7-1.1-1.5-1.8-2.3c0.2-0.3,0.4-0.6,0.6-1c-0.4-0.4-0.8-0.9-1.2-1.3c-0.1-0.7-0.2-1.5-0.3-2.3
	c0.2-0.3,0.4-0.7,0.7-1.2c0.3-0.1,0.7-0.2,1.2-0.4c0,0.4,0,0.7,0,1.1c-0.4,0.2-0.8,0.4-1.2,0.6c0.2,0.8,0.7,1.3,2.2,2.4
	c0.5-0.1,1-0.2,1.5-0.3c-0.2,0.5,0.1,1,0.9,1.4c1,0.1,2.2,0.2,3.5,0.4c0,3.1,0,6.3,0,9.4c-0.4-0.1-0.9-0.2-1.4-0.3
	c-0.8,0.9-2.8,0.6-2.9,2.3c0.4,0.4,0.8,0.8,1.2,1.2c-0.1,0.3-0.1,0.7-0.2,1c0.6,0.2,1.1,0.3,1.5,0.4c0.5-0.5,0.2-0.8,0-1.2
	c-0.2-0.4-0.1-0.8-0.2-1.3c0.5,0.1,0.8,0.1,1,0.2c0.3,0.2,0.6,0.4,0.9,0.6c0,1.7,0,3.3,0,5c-0.5,0.1-1.1,0.1-1.4,0.3
	c-0.9,0.5-1.6,1.2-2.4,1.8c-0.1,0.1-0.2,0.3-0.3,0.5c0.5,0.2,0.9,0.3,1.4,0.5c-0.1,0.4-0.2,0.7-0.3,1.2c0.8,0,1.4,0.9,2.4,0.1
	c-0.3-0.6-0.7-1.2-1.1-1.9c0.1-0.2,0.3-0.5,0.5-0.9c0.4,0.1,0.8,0.2,1.2,0.3c0,14.7,0,29.3,0,44c-0.9,0-1.7,0-2.7,0
	c-1-0.7-1.3-1.6-1.2-2.8c-0.4,0.2-0.7,0.4-1,0.5c-0.3,0.9,0.2,2-0.9,2.8c-0.2-0.4-0.3-0.7-0.5-1.2c-0.6,0-1.1,0-2,0
	c-0.4-0.5-0.9-1.1-1.7-1.9c0,0.7,0,1.1,0,1.5c-1.3,0.5-1.5-0.9-2.6-0.9c0.5-0.7,0.9-1.3,1.3-2c-0.7-0.2-1.3-0.4-2-0.6
	c-1.6,0.7-3.3,1.5-5.2,2.3c-0.2-0.2-0.5-0.6-0.8-1c0.3-0.3,0.6-0.6,0.9-0.9c0.1-0.4,0.2-0.7,0.3-1.2c0.4,0,0.7-0.1,1.2-0.1
	c0.1-0.4,0.1-0.8,0.2-1.1c-0.8-1.1-1.8,0-2.6-0.4c-0.9-0.4-1.7,0.1-2.4,0.6c-0.5-0.3-0.9-0.6-1.3-0.9c-0.1-0.4-0.2-0.7-0.3-1.1
	c0.7-0.5,1.4-0.6,2.2-0.1c0.4-0.3,0.8-0.6,1.2-0.9c-0.1-0.3-0.2-0.6-0.3-0.8c-1-0.3-1.8,0-2.4,0.5c-0.8-0.2-1.3-0.5-1.4-1.3
	c0.5,0,1-0.1,1.7-0.1c0-0.4,0-0.7-0.1-1.3c-1.5,0.6-2.8,1.1-4.4,1.7c-0.3,0.1-1,0.1-1.7,0.2c-0.1-0.1-0.3-0.3-0.5-0.7
	c0.8-0.5,1.6-1,2.3-1.5c0.7,0,1.3,0,1.8,0c1-0.7,1.1-1.5,0.7-2.5c-0.3-0.2-0.6-0.4-0.9-0.6c0-0.5,0-1,0-1.6c0.5-0.5,1-1,1.5-1.5
	c0.6,0.4,1.1,0.8,1.6,1.2v0c0,0,0,0,0,0c0,0,0,0,0,0c0.2,0.4,0.4,0.7,0.7,1.2c0.5-0.4,0.9-0.7,1.4-1.1c0.3,0.5,0.5,0.8,0.8,1.3
	c-0.8,0.2-1.5,0.4-2.1,0.6c-0.7,0.2-1.6,0.2-1.8,1c0.6,1.6,1.2,1.8,3.3,0.8c0.8,0.2,1.7,0.3,2.9,0.5c-0.7-0.9-0.7-1.6-0.3-2.4
	c0.3-0.2,0.6-0.5,0.9-0.7c0.3-0.8-0.1-1.2-0.7-1.7c0-0.3,0.1-0.6,0.1-1c-0.7-0.6-1.3-1.3-2.1-1.9c-0.2-0.2-0.7-0.2-0.9-0.3
	c-0.7,0.8-1.3,1.4-2,2.2c-0.9-1,0.6-1.2,0.4-2c-0.3-0.2-0.6-0.4-1.1-0.6c0.5-0.3,1-0.5,1.4-0.8c-0.8-0.1-1.7,0.1-2.8,0.8
	c-0.3-0.1-0.7-0.2-1.1-0.2C81.9,194.9,81.6,195,81.3,195.1z M104.2,185.1c0.5,0.1,0.9,0.2,1.2,0.2c0.1-0.1,0.2-0.2,0.2-0.3
	c-0.2-0.2-0.4-0.5-0.7-0.8C104.7,184.5,104.5,184.7,104.2,185.1z M104.2,171.2c0,0,0.1,0,0.2,0.1c0,0,0-0.1,0-0.1
	C104.4,171.2,104.3,171.2,104.2,171.2C104.3,171.2,104.3,171.2,104.2,171.2z M106.1,157.3c0.1,0.1,0.2,0.1,0.4,0.1
	c0,0,0.1-0.1,0.1-0.2c-0.1-0.1-0.2-0.1-0.3-0.2C106.3,157,106.2,157.2,106.1,157.3z M102,156c-0.1-0.1-0.2-0.2-0.2-0.3
	c-0.1,0.2-0.3,0.3-0.4,0.5C101.6,156.1,101.8,156.1,102,156z M97.4,177.8c0-0.1-0.1-0.1-0.1-0.2c0,0-0.1,0-0.1,0
	C97.3,177.7,97.3,177.8,97.4,177.8C97.4,177.8,97.4,177.8,97.4,177.8z M95.4,180.6c-0.9,0.1-1,0.4-0.9,0.8c0,0.1,0.2,0.1,0.5,0.3
	C95.2,181.3,95.3,181,95.4,180.6z M93.3,211.2c0-0.1,0-0.1,0-0.2c0,0-0.1,0-0.1,0c0,0,0,0.1,0,0.1C93.2,211.2,93.3,211.2,93.3,211.2
	z M100.3,212.5h-0.1l0,0.1L100.3,212.5z M101.3,207.1c-0.4-0.5-0.8-0.9-1.2-1.3c-0.7,0.1-0.8,0.3-0.8,0.7c0,0.8,0.1,1.5-0.4,2.3
	c-0.3,0.4,0,0.8,0.6,1.1c0.5-0.6,1.1-1.1,1.7-1.8C101.3,207.8,101.3,207.4,101.3,207.1z M100.8,184.3c0,0.2,0,0.4,0,0.7
	C101.2,184.7,101.6,184.5,100.8,184.3z M100.9,183.3L100.9,183.3L100.9,183.3z M101.2,191.6c-0.4-0.1-0.6-0.2-1-0.2
	C100.6,191.9,100.6,191.9,101.2,191.6z M100.9,193.6c-0.1,0-0.3,0.1-0.4,0.1c-0.2,0.3-0.1,0.5,0.6,0.7
	C101,194,101,193.8,100.9,193.6z M102.6,190.4c-0.7,0.1-1,0.4-0.9,1.1C102.6,191.4,102.8,191.1,102.6,190.4z M105.8,160.9
	c0.1-0.4,0.2-0.7,0.2-1c-0.9-0.4-1.5-0.7-2.2-1c-0.4,0.3-0.9,0.5-0.8,1.1C103.9,160.3,104.8,160.6,105.8,160.9z M102.1,170.7
	c1.3,0.4,1.3,0.4,1.1-0.7C102.9,170.2,102.6,170.4,102.1,170.7z M103,178.8c-0.2,0.2-0.3,0.3-0.5,0.5c0.3,0.1,0.4,0.2,0.7,0.3
	c0-0.3,0.1-0.5,0.1-0.7C103.3,178.9,103.2,178.9,103,178.8z M102.5,187c0.3-0.3,0.6-0.6,1.1-1c-0.5-0.3-0.9-0.6-1.3-0.8
	C101.5,186.3,101.5,186.3,102.5,187z M101.1,187.3c0.2,0.9,0.6,1,1.3,0.3C102,187.5,101.7,187.4,101.1,187.3z M98.3,181.6
	c0.1,0.2,0.3,0.5,0.5,0.9c0.9-0.1,1.7,0.3,2.5-0.2c0.3-0.7-0.2-1.2-0.7-1.6C99.2,180.5,98.5,180.8,98.3,181.6z M96.7,186.4
	c0.6,0.2,1.1,0.3,1.6,0.4c0.1-0.6,0.1-1.1,0.2-1.8C97.7,185.4,96.8,185.4,96.7,186.4z M96.2,199.2c0.5,0,1,0,1.7,0
	c-0.1-0.4-0.2-0.8-0.3-1.1C96.7,198.2,96.2,198.3,96.2,199.2z M97.1,201.3c-0.1,0-0.2,0-0.4,0.1c0,0.1,0.1,0.2,0.2,0.3
	c0.1,0,0.3-0.1,0.4-0.1C97.3,201.5,97.2,201.4,97.1,201.3z M94.9,196.9c0.5,0.4,0.8,0.4,1.2-0.1C95.5,196.4,95.2,196.4,94.9,196.9z
	 M94.9,195.2c0-0.2-0.4-0.3-0.9-0.6c-0.1,0.6-0.2,1-0.3,1.6C94.7,196.1,95,195.8,94.9,195.2z M93.4,194c0.8,0.3,1.4,0.1,1.9-0.8
	c-0.3-0.3-0.5-0.6-1-1.1C94.4,193.1,93.1,193.2,93.4,194z M93.2,207.7c0.2,0.7,0.4,1.3,0.7,1.9c0.3,0,0.6,0,0.9,0.1c0,0,0,0,0,0
	c0,0,0,0,0,0c0.2,0.2,0.3,0.5,0.4,0.7c-0.2,0.4-0.4,0.6-0.6,1.1c0.7-0.1,1-0.2,1.4-0.2c0.2,0.2,0.5,0.5,0.8,0.8
	c0.5-0.3,1-0.5,1.6-0.8c-0.5-0.6-0.9-1.1-1.3-1.5c0.1-0.4,0.2-0.8,0.3-1.2c-0.5-0.4-1-0.7-1.6-1.1c-0.4,0.4-0.7,0.7-1,1.1l0,0.1
	l0-0.1C94.7,207.7,94.1,207.7,93.2,207.7z M92.9,196.9C92.9,196.9,92.9,196.9,92.9,196.9C92.9,196.9,92.9,196.9,92.9,196.9z
	 M92.4,210.4c0.2,0,0.3,0.1,0.4,0.1c0.4-0.3,0.7-0.6-0.2-1.1C92.6,209.8,92.5,210.1,92.4,210.4z M89.4,195.1c0.6,0.4,1,0.2,1.4-0.4
	C90,194.4,89.5,194.3,89.4,195.1z M87.1,194.9c1.6-0.4,0.6-1.3,1-2c0.3-0.1,0.7-0.1,1.1-0.2c0.1-0.8-0.4-1.1-1.1-1.3
	c-0.4,0.3-0.7,0.5-0.9,0.7C87.1,193.1,87.1,193.9,87.1,194.9z M97.6,164.9c-0.2,0.4-0.3,0.8-0.4,1.1c0.5,0.7,0.9,1.3,1.3,2
	c0.1,0,0.3,0.1,0.6,0.3c0-0.2,0.1-0.5,0.2-0.7c0.5-0.2,0.9-0.4,1.1-0.5c0.4-0.8-0.6-1-0.7-1.6c0.1-0.3,0.2-0.6,0.3-0.9
	C99.1,164.1,98.4,164.4,97.6,164.9z M61.9,353.7c0,0,0,0.1,0,0.1c0.1,0,0.2,0,0.3,0c0,0,0-0.1,0-0.1
	C62.2,353.7,62.1,353.7,61.9,353.7z M73.7,346.6c-0.4,0.3-0.7,0.5-1,0.7c0.6,0.3,1,0.5,1.4,0.7C74,347.6,73.8,347.2,73.7,346.6z
	 M79.5,346.6c0-0.6-0.1-1-0.1-1.5c-0.4-0.4-0.8-0.9-1.3-1.3C77.4,345.4,77.9,346.3,79.5,346.6z M78.5,342.1c0,0.2,0,0.3-0.1,0.5
	c0.1,0,0.2,0,0.3,0c0-0.2,0-0.4,0.1-0.5C78.7,342.1,78.6,342.1,78.5,342.1z M80.2,348.4c-0.3,0-0.7-0.1-0.9,0.3
	C79.9,349,80,348.7,80.2,348.4z M80.3,348.4C80.3,348.4,80.3,348.4,80.3,348.4C80.3,348.4,80.2,348.4,80.3,348.4
	C80.3,348.4,80.3,348.4,80.3,348.4C80.3,348.4,80.3,348.4,80.3,348.4z M76.5,377.9c-0.7-0.1-1.1,0.1-1.1,0.9c0.5,0.2,1,0.5,1.7,0.9
	C77.3,378.5,77.2,378,76.5,377.9z M94.8,209.7C94.8,209.6,94.8,209.6,94.8,209.7C94.8,209.6,94.8,209.6,94.8,209.7
	C94.7,209.7,94.7,209.7,94.8,209.7C94.7,209.7,94.7,209.7,94.8,209.7L94.8,209.7z M73.7,377.6c-0.1,0,0,0.1-0.1,0.3
	c0.4,0,0.8-0.1,1.1-0.1C74.2,377.3,74.2,377.3,73.7,377.6z M72.4,345.8c0.1,0,0.1-0.1,0.2-0.1c0,0-0.1-0.1-0.1,0
	C72.5,345.7,72.5,345.8,72.4,345.8z M86.8,250.1C86.8,250.1,86.8,250.1,86.8,250.1C86.8,250.1,86.9,250.1,86.8,250.1
	C86.9,250.1,86.8,250.1,86.8,250.1C86.8,250.1,86.8,250.1,86.8,250.1z M23.3,352.6c0-0.2,0-0.4,0-0.7c-0.2,0-0.3,0-0.4,0
	c0,0.2,0.1,0.5,0.1,0.7C23.1,352.6,23.2,352.6,23.3,352.6z M24.6,354.1c-0.1-0.1-0.1-0.2-0.2-0.3c-0.1-0.1-0.2,0-0.7-0.1
	c0.4,0.3,0.6,0.5,0.8,0.6C24.5,354.2,24.6,354.2,24.6,354.1z M24,355.7c-0.5-0.2-0.7-0.3-1.2-0.5c0.1,0.4,0.1,0.6,0.2,0.9
	C23.3,355.9,23.5,355.8,24,355.7z M24.6,356.2c0.2-0.1,0.5-0.2,0.7-0.3c0-0.1-0.1-0.2-0.2-0.3c-0.2,0.1-0.5,0.2-0.7,0.3
	C24.5,356,24.5,356.1,24.6,356.2z M19.8,365.7c-0.3,0.1-0.6,0.1-1.1,0.2c0.4,0.2,0.6,0.2,0.8,0.3C19.6,366,19.7,365.8,19.8,365.7z
	 M23.9,357.5c-0.6-0.4-1-0.7-1.7-1.1c-0.2,0.2-0.4,0.4-0.7,0.6c0.5,0.5,0.9,0.9,1.5,1.4C23.3,358,23.6,357.8,23.9,357.5z
	 M25.3,365.5c-1.8,0.2-3.1,1.2-4.5,1.9c-0.1-0.1-0.4-0.4-0.7-0.6c0.1-0.3,0.2-0.5,0.4-0.8c-0.2-0.1-0.4-0.3-0.6-0.4
	c0-0.4,0-0.8,0-1.3c-0.8-0.1-1.6-0.2-2.5-0.4c0.1-0.4,0.2-0.8,0.4-1.3c1.1,0.3,2.2,0.6,3.3,0.9c0.4-0.3,0.7-0.5,1.1-0.8
	c0.7,0.3,1.4,0.5,2.4,0.9c0.3-0.1,0.9-0.2,1.7-0.4C25.8,364.2,25.5,364.9,25.3,365.5z M24.6,364.3c-0.2,0-0.5-0.1-0.7-0.1
	c0,0.1,0,0.2,0,0.4c0.2,0,0.5,0,0.7,0C24.6,364.4,24.6,364.4,24.6,364.3z M19.1,359.8c-0.1-0.1-0.2-0.1-0.2-0.2
	c-0.4,0.3-0.8,0.7-1.2,1c0.2,0.2,0.3,0.3,0.4,0.4C18.5,360.6,18.8,360.2,19.1,359.8z M20.6,370.8c-0.2,0.1-0.4,0.3-0.5,0.4
	c0.1,0.1,0.2,0.2,0.3,0.2c0.2-0.2,0.3-0.4,0.4-0.5C20.8,370.9,20.7,370.8,20.6,370.8z M43.1,382.1c0.3,0.1,0.5,0.3,0.8,0.4
	c0,0,0.2-0.1,0.4-0.3c-0.5-0.1-0.8-0.2-1.1-0.3C43.2,381.9,43.2,382,43.1,382.1z M17.1,344.1c0.2,0,0.4,0,0.6-0.1c0-0.1,0-0.2,0-0.2
	c-0.3-0.1-0.5-0.1-1.1-0.3C16.9,343.9,17,344.1,17.1,344.1z M20.7,358.7c0.5-0.4,0.6-0.8,0.3-1.3C20,357.7,20,357.9,20.7,358.7z
	 M16.1,404.5c0.1,0.1,0.3,0.1,0.4,0.1c0-0.1,0-0.2,0.1-0.3c-0.2,0-0.3,0-0.4,0C16.1,404.3,16,404.5,16.1,404.5z M16.3,363.6
	c0,0-0.1,0-0.1,0.1C16.2,363.7,16.2,363.7,16.3,363.6C16.3,363.7,16.3,363.6,16.3,363.6z M20.4,354.9c0-0.1-0.1-0.1-0.1-0.2
	c-0.1,0.1-0.2,0.1-0.3,0.2c0,0.1,0.1,0.1,0.2,0.2C20.2,355,20.4,355,20.4,354.9z M17.3,346.4c0.1,0,0.2,0,0.4-0.1
	c0.2-0.5,0.5-1.1,0.7-1.6c0,0-0.1-0.1-0.2-0.1c-0.4,0.2-0.7,0.5-1.1,0.8C17.1,345.7,17.2,346.1,17.3,346.4z M18,355.6
	c0.3,0,0.7-0.1,1.3-0.2c-0.4-0.4-0.6-0.5-0.9-0.8c-0.2,0.3-0.4,0.5-0.6,0.6C17.9,355.4,18,355.5,18,355.6z M34.4,343
	c-0.1-0.1-0.1-0.2-0.2-0.4c-0.4,0.1-0.9,0.1-1.5,0.2c0.1,0.4,0.2,0.7,0.3,1.3C33.6,343.7,34,343.4,34.4,343z M42.2,347.8
	c-0.1-0.1-0.2-0.1-0.4-0.3c-0.8,0.6-0.8,0.6-0.9,1.1C42,348.3,42.2,348.1,42.2,347.8z M38.9,342.4c0.7-0.4,1.4-0.8,2.2-1.3
	c-0.2-0.2-0.4-0.3-0.6-0.5c-0.7,0.5-1.7,0.3-2.1,1.2C38.5,342,38.7,342.2,38.9,342.4z M40.3,343.5c-0.2-0.2-0.4-0.4-0.7-0.8
	C39.3,343.4,39.5,343.7,40.3,343.5z M41.6,365.5c-0.7-1.1-1.6-0.4-2.4-0.5c-0.3-0.1-0.8-0.2-1.4-0.4c-0.1,0.4-0.2,0.8-0.3,1.1
	c1,0.1,1.9,0.3,2.9,0.4C40.7,366,41.1,365.7,41.6,365.5z M43,367.2c-0.2-0.3-0.3-0.5-0.4-0.7C42.2,367.1,42.2,367.1,43,367.2z
	 M42,344.5c-0.1-0.1-0.1-0.3-0.2-0.4c-0.1,0-0.1,0-0.2,0c0,0.1,0,0.3,0,0.4C41.7,344.6,41.9,344.5,42,344.5z M43.7,378.5
	c0.1-0.1,0.1-0.1,0.2-0.1c-0.2-0.4-0.5-0.9-0.8-1.5c-0.3,0.4-0.5,0.6-0.7,0.8C42.9,377.9,43.3,378.2,43.7,378.5z M35.5,341.8
	c-0.4,0.5,0,0.9,0.3,1.3C36.5,342.3,36.5,342.3,35.5,341.8z M32.9,364.9c0.7,0.1,1.2-0.3,1.6-0.8c0-0.4-0.1-0.8-0.7-0.8
	c-0.2,0.4-0.4,0.7-0.7,1.1c-1.1-0.1-2.2-0.1-3.2-0.2c-0.5,0.5-0.5,0.5-0.3,1.4C30.8,365,31.8,364.8,32.9,364.9z M30.2,375.2
	c-0.9,0.1-1.7,0.1-2.3,0.9c0.3,0.2,0.5,0.4,0.9,0.7C29.6,376.4,30.3,376.1,30.2,375.2z M23.3,359.7c-0.2,0.3-0.3,0.5-0.5,0.8
	c0.7,0.3,1.2,0.6,1.8,0.8c0.5-0.2,0.9-0.3,1.4-0.4c0.2-0.3,0.4-0.6,0.6-0.9c0.5-0.2,0.9-0.3,1.2-0.5c0-0.1-0.1-0.2-0.1-0.4
	c-1,0.2-2.1,0.1-2.8,0.9C24.4,359.9,23.9,359.8,23.3,359.7z M15.3,407.7c0.1,0,0.3,0,0.4,0c0-0.2-0.1-0.4-0.2-0.6
	c-0.1,0-0.2,0-0.2,0C15.3,407.3,15.3,407.5,15.3,407.7z M18,379.4c0.1,0,0.2,0,0.4,0c0.1-0.4,0.2-0.8,0.4-1.3
	c0.4-0.1,0.9-0.2,1.4-0.3c0.3,0.5,0.5,0.8,0.9,1.4c0.4-0.5,0.6-0.8,0.8-1c-0.3-0.4-0.5-0.8-0.8-1.2c-0.6,0.2-1.1,0.4-1.6,0.5
	c-0.6,0-1.2,0-1.7,0C17.8,378.1,17.9,378.7,18,379.4z M19.8,365.6C19.8,365.6,19.8,365.6,19.8,365.6
	C19.8,365.6,19.8,365.6,19.8,365.6C19.8,365.7,19.8,365.6,19.8,365.6L19.8,365.6z M34.1,362.1c0.1,0.1,0.1,0.1,0.1,0.1
	c0,0,0.1,0,0.1,0c0.1-0.2,0.2-0.4,0.3-0.6c-0.1,0-0.2,0-0.3-0.1C34.3,361.7,34.2,361.9,34.1,362.1z M31.7,340.1c-0.5,0-0.8,0-1.4,0
	c0.3,0.3,0.5,0.5,0.8,0.8C31.4,340.5,31.5,340.4,31.7,340.1z M31.2,361.8c0.4-0.3,0.5-0.6-0.1-1c-0.5,0.3-1,0.6-1.6,0.9
	C30.2,362,30.7,362.1,31.2,361.8z M15.8,387.6c0.7-0.6,1.3-1.2,2-1.7c0.1,0.1,0.2,0.2,0.4,0.3c-0.1-0.6,0-1.2,1-1.3
	c0.5,0.1,1.1,0.3,1.6,0.5c0.4-0.4,0.8-0.8,1.1-1.1c0.6,0.1,1,0.1,1.5,0.2c0.1-0.2,0.2-0.4,0.2-0.7c-1.3-0.1-2.3-0.7-3.3-1.5
	c0.5-0.5,0.9-1,1.4-1.3c1.1-0.7,2.4-1.3,3.7-2c1.4,0.2,1.1,1.3,1.2,2.2c0.4,0.5,0.8,1,1.2,1.5c1.1-0.2,2.1-0.5,2.8-0.6
	c1.1,0.4,2,0.7,2.9,1.1c0.5-0.7,1.9-0.2,2.1-1.5c-0.4-0.1-0.8-0.3-1.6-0.6c-0.2,0.4-0.4,0.8-0.7,1.2c-0.8-0.6-0.1-1.5-1.2-1.7
	c-0.4,0.3-0.8,0.5-1.2,0.8c-1-0.7-1.9-1.3-2.6-1.9c-0.1-0.6-0.2-1.1-0.3-1.5c-0.2-0.1-0.4-0.2-0.6-0.2c-1.3-0.2-2.5-0.3-3.8-0.5
	c-0.6-0.1-1,0.1-1.2,0.6c0.3,0.3,0.6,0.7,0.9,1c-1.1,1-1.9,1.4-3.3,1.6c-0.2,0.2-0.5,0.4-0.8,0.6c-0.2,0.2-0.5,0.4-0.8,0.6
	c1.6,0.9,1.7,1.2,0.5,2.1c-0.8-0.5-1.7-0.7-2.6-0.3c0,0.9,1.3,1.6,0.5,2.6c-0.4,0.2-0.9,0.3-1.2,0.4C15.3,387,15.6,387.4,15.8,387.6
	z M0,380.5c0.5,0.3,1,0.5,1.5,0.8c0-0.6,0-1.1-0.7-1.3C0.4,380,0.1,380,0,380.5z M3.3,371l0.1-0.1H3.2L3.3,371z M14.3,414.9
	c0-0.4,0.1-0.7,0.2-1.2c0.7,0,1.4,0,2.1,0c0.5,0.6,1,1.2,1.6,1.8c0.6-0.8,1.1-1.5,1.7-2.3c-0.5-0.2-1-0.5-1.5-0.7
	c0.6-1.1,1.2-2.2,1.9-3.4c-0.3-0.3-0.6-0.6-1-1c-0.5,0.3-0.8,0.5-1,0.7c-0.4-0.2-0.7-0.4-1-0.6c-0.1,0-0.2,0.1-0.3,0.1
	c0.1,0.5,0.2,1,0.3,1.3c0.5,0.7,1.4,0.7,1.3,1.4c-0.6,0.5-1,0.9-1.4,1.3c-0.7,0.3-1.3,0.5-1.8,0.8c-1-0.1-1.4-1.4-2.7-1
	c-0.4,0.8,0,1.3,0.6,1.7c0.2,0.7,0.3,1.4,0.5,2h1.5C14.9,415.5,14.6,415.2,14.3,414.9z M0.2,366.3C0.1,366.2,0.1,366.2,0.2,366.3
	c-0.1,0-0.2,0-0.2,0s0,0.1,0.1,0.1C0.1,366.3,0.1,366.3,0.2,366.3z M3.3,378c-0.4-0.2-0.8-0.3-1.1-0.5c-0.1,0.2-0.2,0.4-0.3,0.6
	C2.3,378.3,2.7,378.5,3.3,378z M3.8,380c0.1,0,0.2,0,0.3-0.1c0,0,0-0.1,0-0.1c-0.1,0-0.2,0.1-0.3,0.1C3.8,379.9,3.8,380,3.8,380z
	 M4.3,372.1C4.3,372.2,4.3,372.2,4.3,372.1C4.3,372.2,4.3,372.2,4.3,372.1C4.3,372.2,4.3,372.1,4.3,372.1
	C4.3,372.1,4.3,372.1,4.3,372.1z M4.2,372.2c-0.2,0.1-0.5,0.2-0.8,0.2C4,372.7,4.2,372.6,4.2,372.2z M4.4,382.8
	c-0.1-0.1-0.2-0.1-0.3-0.2c-0.1,0.2-0.2,0.4-0.3,0.6c0.1,0,0.2,0.1,0.2,0.1C4.1,383.2,4.2,383,4.4,382.8z M89.1,309.7
	c-0.1-0.1-0.1-0.2-0.2-0.3c-0.1,0.1-0.2,0.2-0.3,0.2c0,0.1,0.1,0.1,0.1,0.2C88.8,309.8,88.9,309.7,89.1,309.7z M83.1,329L83.1,329
	L83.1,329L83.1,329C83.1,329,83.1,329,83.1,329z M62.3,415.7c-1-0.4-1.2-0.4-1.2,0.1H62C62.1,415.8,62.2,415.8,62.3,415.7z
	 M72,415.9h-2.6c-0.2,0-0.5-0.1-0.7-0.1c-0.8-0.2-1.5-0.3-2.3-0.1c-0.5,0.1-1.1,0-1.6,0c-0.2-0.5-0.3-1-0.5-1.4
	c-0.7,0.1-1.3,0.1-1.7,0.2c-1-0.4-1.9-0.8-2.8-1c-0.3-0.1-0.8,0.1-1.2,0.2c0,0.4-0.1,0.8-0.2,1.3c-0.3,0.1-0.6,0.2-1,0.4
	c0.2-0.6,0.3-1.1,0.4-1.6c-1-0.4-1.8-0.8-2.8-1.1c-0.5,0.3-0.9,0.6-1.4,1c-0.3-0.2-0.6-0.3-0.8-0.4c-0.8-0.1-1.5-0.2-2.2-0.3
	c-0.9-0.1-1.6,0-2.3,0.5c-0.5,0.4-1,0.8-1.5,1.1c-0.2,0.1-0.5,0.1-1.1,0.1c0.7-0.7,1.2-1.1,1.6-1.5c0.6-0.3,1.1-0.5,1.7-0.7
	c-0.1-1.1-0.7-1.7-1.9-1.9c-0.3,0.3-0.7,0.7-1.1,1c-0.5,0.1-1.1,0.2-1.8,0.3c-0.3-0.2-0.7-0.5-1.1-0.7c-0.3,0.3-0.6,0.5-0.9,0.9
	c-0.4-0.1-0.9-0.2-1.7-0.4c1-0.6,2.5-0.5,2.1-1.8c-0.6-0.4-1.3,0.7-1.8-0.1c0.2-0.7,0.3-1.4,0.5-2.3c0.7,0.3,1.4,0.5,2,0.8
	c0.1,0.4,0.2,0.6,0.3,1c1.1,0.1,2.3,0.3,3.6,0.4c1,0.6,2,1.2,3.2,1.9c1.3,0.2,1.3,0.2,2.4-0.2c0.1-0.4,0.2-0.8,0.2-1.2
	c0.3,0,0.6,0,1,0c-0.2,0.5-0.3,0.9-0.5,1.3c0.4,0.3,0.7,0.6,1.1,0.9c0.5-0.1,0.9-0.2,1.2-0.3s0.7-0.4,1-0.5c1.1,0.5,2.2,1,3.4,1.5
	c0.4-0.2,0.9-0.3,1.4-0.6c0.8,0.3,1.7,0.7,2.7,1.2c0.7-0.1,1.3-0.5,1.8-1.2c-0.1-0.3-0.2-0.7-0.4-1c0.7-0.6,1.2,0.2,2,0.1
	c0.3-0.1,0.8-0.3,1.2-0.5c0.3-0.6,0.5-1,0.8-1.7c0.6,0.3,1,0.6,1.4,0.8c-0.4,0.6-0.6,1.1-0.9,1.6c-0.4,0.1-0.9,0.2-1.5,0.4
	c0.5,0.7,0.9,1.2,1.4,1.9c0.7-0.4,1.3-0.8,2.1-1.3c0-0.3,0.1-0.7,0.2-1.1c0.9-0.3,1.8-0.5,2.8-0.8c0.2,0.1,0.6,0.3,0.9,0.5
	c0.4,0,0.8-0.1,1.3-0.1c0.4,0.1,0.9,0.3,1.4,0.5c0.7-0.1,1.3-0.3,2-0.4c0-0.7,0.1-1.3,0.2-1.9c-1-1.2-1.1-1.2-4,0.2
	c0-0.6,1.3-0.9,0.5-1.6c-0.9,0-1.8,0-2.9,0c0.1-0.4,0.2-0.8,0.2-1.2c-1-0.1-1.8-0.2-2.8-0.4c-0.2,0.4-0.5,0.8-0.8,1.2
	c-0.3-0.1-0.7-0.2-1.1-0.3c0.1-1,0.1-2,0.2-3c1.2-0.4,1.5,0.6,2.3,0.8c0.7-0.2,1.2-1.2,2.3-0.8c0.4,1.1,1.5,1.6,3.3,1.5
	c0.2-0.2,0.7-0.5,1.2-0.8c-0.4-0.5-0.8-0.8-1.1-1.1c-0.1-2.3-0.1-2.3-1.7-2.6c-1.2,0.7-2.3,1.4-3.5,2.1c-0.2-0.1-0.3-0.1-0.4-0.2
	c-0.1-0.1-0.1-0.2-0.2-0.4c0.3-0.2,0.5-0.5,0.8-0.7c0-0.3,0-0.6,0-0.6c0.8-1.2,1.4-2.1,2.2-3.2c-0.5-0.3-0.9-0.6-1.2-0.8
	c-0.6,0.2-1.1,0.3-1.6,0.4c-0.4,0.2-0.9,0.4-1.3,0.6c0,0.7-0.1,1.4-0.2,2.1c-0.4,0.2-0.7,0.5-1.1,0.7c0.2,0.4,0.4,0.7,0.6,1
	c-0.2,0.1-0.4,0.2-0.4,0.2c-0.8-0.4-1.5-0.9-2.3-1.3c0.4-0.7,0.8-1.3,1.2-2.1c0.5-0.1,1.3-0.2,1.5-1.2c-0.3-0.3-0.7-0.8-0.9-1
	c-1.2-0.2-2-0.4-3.1-0.6c0.3-0.5,0.6-0.8,0.8-1.2c-0.1-0.2-0.2-0.5-0.3-0.8c0.5-0.8,1.1-1.6,1.5-2.2c1.1,0,2,0,3,0
	c0.4-0.4,0.8-0.8,1.3-1.4c-0.8-0.5-1.5-0.8-2.2-1.2c0.4-0.5,0.7-0.9,1.1-1.4c0.6,0,1.2,0,1.8,0c1.5,1.1,1.5,1.1,2.4,0.6
	c0-0.9-0.1-1.9-0.2-2.9c0.7,0.1,1.3,0.2,1.9,0.3c0.5-0.7,0.9-1.3,1.3-1.9c-0.4-1-0.4-1-1.5-0.9c0,0.4,0,0.8,0,1.3
	c-1.1,0.2-0.6-0.9-0.9-0.9c-1.1-0.6-2-0.1-2.9-0.1c0.3-0.5,0.6-1,0.9-1.4c0.7-0.1,1.3-0.2,2.3-0.3c0.1,0,0.5,0.2,0.9,0.3
	c0.6-0.2,1.1-0.3,1.8-0.6c1.6,0.7,2.6,2,4,3.3c0.4,0.2,1,0.5,1.7,0.8c0.9-0.1,1.2-0.8,1.9-1.4c0.7,0.2,1.3,0.5,2.2,0.8
	c0.6-0.6,1.3-1.3,2.1-2.1c-0.1-0.4-0.2-0.9-0.3-1.5c-0.5,0-0.9-0.1-1.3-0.1c-0.2,0.5-0.3,0.9-0.5,1.4c-0.2,0-0.5,0-0.8,0
	c-0.3-1.3,1.1-1.4,1.7-2.1c0.9,0.2,1.8,0.3,2.7,0.5c0.3,0.3,0.7,0.6,1,1c-0.2,0.3-0.3,0.5-0.5,0.9c0.7,0.3,1.3,0.6,2,1
	c0.3-0.1,0.7-0.3,1.2-0.4c0-0.5-0.1-1-0.1-1.5c-0.4-0.4-0.9-0.8-1.1-1.1c-1.8-0.6-3.5-1.1-5.4-1.6c-0.5,0.1-1.1,0.8-2.2,0.5
	c0.1-0.4,0.2-0.8,0.3-1.4c-1.1-0.1-2.1-0.1-3.1-0.1c-0.3-0.5-0.6-0.9-0.9-1.4c-0.8,0.3-0.8,0.9-1.3,1.5c0.7,0.3,1.2,0.6,2,1
	c-0.7,0.3-1.2,0.5-1.7,0.7c0,0.9,0.7,1.1,1.5,1.2c0.4-0.2,0.7-0.5,1.1-0.8c0.4,0.1,0.8,0.1,1.4,0.2c0.3,0.7,0.7,1.3,0.8,2.1
	c0.1,0.4-0.3,0.8-1,0.8c-0.1-0.1-0.3-0.2-0.3-0.4c-0.3-0.9-1-1.1-2-1.3c-1.1-0.2-2.2-0.7-3.3-1c-0.1-0.1-0.1-0.3-0.2-0.4
	c0.3-0.1,0.5-0.2,0.8-0.3c0.3-0.1,0.5-0.2,0.7-0.3c0.4-0.9-0.4-1.3-1-1.7c0.2-0.4,0.4-0.8,0.7-1.2c-0.2-0.7-0.4-1.3-1.4-1.5
	c-0.8,0.6,0,1.4-0.5,2.1c-0.2,0-0.5,0-0.7,0.1c-0.4-0.7-0.7-1.2-1.1-1.9c0.4-1,0.3-2.1-0.9-2.8c0.1-0.5,0.1-0.9,0.2-1.4
	c-0.2-0.4-0.5-0.9-0.9-1.6c-0.9,0.9-1.7,1.7-2.6,2.6c0.1,0.2,0.2,0.6,0.4,1c-0.2,0.2-0.5,0.4-0.7,0.7c-0.1,0-0.2,0-0.3-0.1
	c0-0.6,0.1-1.3,0-1.9c-0.2-0.6-0.6-1.2-1-1.8c0.4-0.1,0.7-0.1,1.2-0.2c0.2-0.3,0.4-0.7,0.6-1.2c0.4-0.3,0.8-0.6,1.2-0.8
	c0.2-0.7-0.1-1.1-1-1c0.1-0.4,0.2-0.7,0.2-1.1c-1-0.7-1.5-1.9-3.1-1.8c-0.4-1.2-1.4-1.9-2.8-2.1c-0.7-1.4-2.3-1.6-3.7-2.1
	c-0.3,0.3-0.6,0.5-1,0.8c-0.6,0-1.2,0.2-1.6-0.4c0.4-0.4,0.8-0.8,1.2-1.2c-1.2-0.6-2.3-1.1-3.4-1.6c-0.3,0.3-0.6,0.6-1.1,1.2
	c-0.1-0.8-0.2-1.5-0.2-1.9c0.7-0.7,1.3-1.3,2.1-2c0.2,0,0.6,0,1,0c0.6-0.4,1.1-0.7,1.8-1.1c-0.8-0.3-1.7-0.5-1.9-1.5
	c0.6,0.1,1.1,0.1,1.7,0.1c0.2-0.3,0.5-0.6,0.8-0.9c-0.2-0.5-0.3-0.9-0.4-1.2c-0.9-0.8-2.1-1.2-2.6-2.4c1.2-0.5,2.4-1,3.6-1.5
	c0.3,0.1,0.7,0.2,1.1,0.3c1.1-0.4,2.2-0.8,3.3-1.2c0-0.3-0.1-0.5-0.1-0.8c-0.5-0.1-1-0.1-1.6-0.2c0.3-0.3,0.5-0.5,0.6-0.5
	c0.9,0.2,1.8,0.5,2.6,0.8c-0.2,0.6-0.5,1.1-0.6,1.5c0.9,1,1.5,1.8,2.4,2.7c0.2,0.1,0.6,0.2,1.1,0.3c-0.1,0.4-0.3,0.7-0.4,1.1
	c0.6,0.2,1.1,0.5,1.6,0.7c0.4-0.5,0.7-1,1.1-1.5c-0.2-0.3-0.3-0.7-0.6-1.2c0.4,0,0.5,0,0.6,0c0.4,0.6,0.7,1.2,1,1.8
	c0.1,0,0.1,0,0.2,0c0,0.5,0,0.9,0,1.5c0.3,0,0.6,0,0.8,0c0.2,0,0.5,0,0.8,0c0,0.8-0.7,1.5,0.1,2.4c0.6-0.5,0.5-1.1,0.5-1.7
	c-0.2-1.4-0.2-1.5,0.4-2.4c0.2,0,0.4-0.1,0.7-0.2c0.2-0.1,0.5-0.1,0.8-0.2c0-0.3,0-0.5,0-0.9c-0.5,0-1,0-1.4-0.1
	c-0.1-0.3-0.2-0.5-0.4-0.9c0.6-0.3,1.1-0.5,1.8-0.8c0.3,0.2,0.7,0.3,1.3,0.6c0.6-0.2,1.2-0.4,2-0.7c-0.3-0.4-0.5-0.7-0.7-1
	c-0.7,0.2-1.2,0.4-1.8,0.6c-0.4-1.2-0.8-2.2-1.2-3.3c0.1-0.3,0.3-0.6,0.4-1c-0.2-0.7-0.7-1.2-1.6-1.3c-0.4,0.1-0.8,0.2-1.3,0.4
	c-0.1-0.2-0.2-0.4-0.3-0.6c-0.5,0.2-1,0.4-1.7,0.6c0.1-0.5,0.2-0.9,0.2-1.4c-0.2-0.2-0.5-0.4-0.8-0.6c-0.4,0.2-0.8,0.4-1.2,0.5
	c0,0.6,0.1,1.1,0.2,1.9c0.1,0.1,0.2,0.4,0.4,0.7c-0.1,0.2-0.1,0.4-0.2,0.5c-0.5,0.9-0.4,1.7,0.3,2.6c0.4,0.5,0.7,1,1.1,1.7
	c-1.5,0.2-1.8-1-2.7-1c-0.3-0.9-0.6-1.7-1-2.8c0.1-0.1,0.3-0.4,0.7-0.7c0.3-0.2,0.7-0.4,0.9-0.5c-0.1-0.9-1.1-0.7-1.5-1
	c0.2-1.7-0.1-2.1-1.7-2.3c-0.9,0.5-0.3,1.2-0.3,1.8c-0.3,0.6-0.5,1.2-0.9,1.9c-0.8-0.4-0.5-1.1-0.9-1.6c-0.5-0.4-1.1-0.8-1.7-1.3
	c0-0.5-0.1-1-0.1-1.6c0.6-0.1,1.3-0.3,1.9-0.4c0.2-0.4,0.4-0.8,0.6-1.2c-0.3-0.5-0.5-1.1-0.9-1.9c0.7,0.2,1.2,0.4,1.7,0.5
	c0.3-0.4,0.6-0.8,0.9-1.2c-0.1-0.4-0.2-0.8-0.3-1.1c0.2-0.2,0.4-0.3,0.6-0.5c0.6,0.1,1.2,0.2,1.9,0.2c0.2,0.3,0.3,0.6,0.5,1
	c0.8-0.1,0.9,1,2.1,0.8c-0.2-0.4-0.4-0.8-0.6-1c0.2-1.5,0.3-2.9,0.5-4.4c0.5,0.2,0.9,0.3,1.2,0.4c1-0.1,1.2-0.8,1.5-1.4
	c0.4-0.1,0.8-0.2,1.1-0.3c0.2-0.6-2.2-1.2-3.7-0.9c-0.2,0.4-0.4,0.9-0.6,1.5c-0.5-0.1-0.9-0.3-1.3-0.4c-0.1-0.1-0.2-0.1-0.3-0.2
	c-0.4,0.4-0.8,0.7-1.3,1.1c0.1,0.1,0.2,0.1,0.3,0.2c-0.5,0.9,1.1,2.1-0.8,2.9c-0.2-0.4-0.5-0.8-0.7-1.3c-0.4-0.1-0.8-0.1-1.3-0.2
	c-0.2-0.6-0.3-1.2-0.5-1.9c-0.5-0.3-1-0.5-1.6-0.9c0-0.2,0-0.4-0.1-0.9c0.5,0.3,0.8,0.5,1.1,0.7c0.1-0.1,0.3-0.2,0.3-0.3
	c-0.1-0.4-0.1-0.8-0.3-1.1c-0.2-0.4-0.5-0.6-0.8-1c0.2-0.4,0.4-0.8,0.8-1.3c-0.5-0.7-1.1-1.4-1.7-2.2c0.4-0.5,0.5-1.2,1.8-1.4
	c0.4,0.1,1,0.3,1.8,0.5c0.6-0.1,1.3-0.2,2.1-0.4c-0.1-0.4-0.2-0.6-0.3-0.9c0.6-0.1,1.2-0.1,1.8-0.2c0,0,0,0.1,0,0.1
	c1,0.2,2,0.3,3,0.5c0.2,0,0.3-0.2,0.5-0.3c0.3,0.1,0.6,0.2,1,0.3c0,0,0,0,0,0v0c0,0,0,0,0,0c0,0,0,0,0,0c0,0,0,0,0,0
	c0.1,0.5-0.3,0.6-0.7,0.6c-0.7,0-1.5,0-2.1-0.2c-0.7-0.1-1.2-0.1-1.7,0.5c1.4,0.4,2.8,0.4,4,1c-0.8,0.4-0.8,0.4-2,0.4
	c-0.2,0.5-0.4,1-0.6,1.6c0.3,0.1,0.6,0.2,0.8,0.3c0.3,0.1,0.6,0.2,0.8,0.3c0.7-0.1,1.4-0.1,2.2-0.2c0.3-0.2,0.7-0.4,1.1-0.7
	c0.7,0.2,1.4,0.5,1.9,0.7c0.9-0.3,1.7-0.6,2.9-1.1c0.2-0.4,0.6-1.2,1.1-2c0.2,0,0.7,0,1.1,0c0.1-0.2,0.2-0.4,0.4-0.6
	c-0.5-0.2-1-0.4-1.5-0.6c-0.5,0.3-0.9,0.5-1.4,0.8c0.1,0.4,0.2,0.7,0.3,1.1c-2.1,0.6-4.2,1-6.6,0.9c0.5-0.5,1-1,1.6-1.6
	c0.5,0.2,1,0.4,1.6,0.6c0.6-0.3,1.3-0.6,2-0.9c-0.8-0.2-1.6-0.4-2.4-0.6c0.1-0.3,0.1-0.5,0.2-0.8c0.5,0.3,0.9,0.5,1.3,0.7
	c0.8,0,1.6-0.1,2.5-0.1c-0.1-0.4-0.2-0.7-0.3-1c-0.5,0-0.9,0.1-1.4,0.1c-0.4-0.2-0.9-0.4-1.4-0.6c-0.2-0.3-0.3-0.7-0.5-1.1
	c-0.6-0.1-1.3-0.3-2-0.5c0.5-0.5,1-0.5,1.4-0.2c0.7,0.4,1.3,0.4,2,0.1c0-1.1-1.2-0.6-1.8-1c0.1-0.4,0.3-0.7,0.5-1.3
	c-0.5-0.1-0.8-0.1-1.3-0.1c0,0.6,0,1,0,1.5c-0.7-0.1-1.2-0.1-1.9-0.2c0.4-0.4,0.6-0.7,0.9-1c-0.1-0.2-0.2-0.4-0.4-0.8
	c0.6-0.1,1.2-0.2,1.8-0.3c0.9,0.7,1.9,1,3.2,0.5c0.5-0.5,1.1-1.1,0.6-1.9c-0.3-0.1-0.7-0.2-1.2-0.3c0-0.3-0.1-0.6-0.2-1
	c-0.6,0.1-1,0.2-1.6,0.4c-0.3-0.2-0.6-0.4-0.9-0.6c-0.2,0.1-0.5,0.1-0.8,0.2c-0.2-0.1-0.5-0.3-0.8-0.5c-0.3,0.1-0.6,0.2-1,0.4
	c-0.6-0.2-1.3-0.4-2.3-0.7c1.2-0.6,2.1-0.1,2.9-0.1c0.8,0,1.7,0,2.8,0c0.1-0.1,0.5-0.4,0.9-0.8c-0.4-0.4-0.7-0.8-1.1-1.3
	c0.2,0,0.5,0.1,0.7,0.1c0.4,0.1,0.8,0.2,1.1,0.3c0.9-0.5,0.5-1,0.1-1.5c0.5-0.6,1.1-1.2,1.7-1.8c-0.5-0.7-1.1-0.1-1.6,0.1
	c0.2-0.7,0.4-1.3,0.6-2c0.2,0.3,0.4,0.6,0.6,1c0.4,0,0.9,0,1.4,0.1c0.6-0.5,1.4-0.7,1.5-1.5c0.9-0.4,1.8-0.9,2.8-1.3
	c-0.2-0.4-0.4-0.7-0.5-1.1c-0.4,0.1-0.7,0.1-1.1,0.2c0-0.2,0-0.4,0-0.6c0.5-0.1,1-0.2,1.4-0.2c0.8-0.7,0.1-1.3,0-2
	c0.6-0.3,1.1-0.7,1.7-1.1c0.1-0.4,0.1-0.8,0.2-1.2c-0.2-0.3-0.4-0.5-0.7-0.9c0.1-0.4,0.2-0.8,0.3-1.2c0.9-0.5,0.9-0.5,2-0.3
	c0.6-1,0.6-1.2-0.7-1.8c-0.4,0.3-0.8,0.7-1.3,1.1c-0.5-0.2-1.1-0.5-1.7-0.7c0.3-0.9,0.7-1.9,1-2.8c-0.6-0.3-1.1-0.6-1.8-0.9
	c-0.5,0.3-0.9,0.6-1.4,1c-0.5-0.2-1-0.3-1.4-0.5l0,0c0,0,0,0,0,0c0,0,0,0-0.1,0.1c0,0,0,0,0-0.1c-0.6-0.2-1.2-0.4-1.8-0.5
	c0-0.1,0-0.1,0-0.2c0.6-0.1,1.1-0.3,1.6-0.4c0.5,0.2,1,0.3,1.6,0.5c0.3-0.1,0.7-0.3,1.1-0.5c-0.1-0.3-0.2-0.7-0.4-1
	c0.4-0.1,0.8-0.1,1.2-0.2c0-0.1,0-0.3-0.1-0.4c-0.4-0.1-0.8-0.2-1.3-0.4c-0.2,0.5-0.4,0.9-0.6,1.2c-0.8-0.2-1.5-0.4-2.3-0.6
	c-0.2-2-0.2-2-1.6-3c1.1-0.9,3-0.1,4-1.4c0,0,0.1-0.2,0-0.4c0-0.1-0.2-0.3-0.4-0.5c-0.7,0.4-1.3,0.7-2,1.2c-0.2-0.4-0.3-0.7-0.4-0.8
	c-0.9,0.1-1.7,0.1-2.5,0.2c-0.4-0.4-0.7-0.8-1-1.2c1.1-0.7,2.2-0.2,3.3,0c0.3-0.3,0.6-0.5,1-0.9c0.6,0.4,1.1,0.8,1.8,1.3
	c0.8-0.2,1.7-0.5,2.7-0.8c0.3,0.1,0.7,0.3,1.3,0.5c0.2-0.3,0.3-0.6,0.4-0.8c0.5-0.2,1.1-0.4,1.7-0.7c0.4,0.2,0.8,0.4,0.9,0.4
	c1.1,0.1,1.8,0.1,2.6,0.2c0,0,0-0.1,0-0.1c1,0,2.1,0,3.1,0c0.3-0.5,0.5-0.8,0.8-1.4c0.2,0.5,0.3,0.9,0.4,1.3c0.2,0,0.5,0,0.9,0
	c-0.1-0.8-0.2-1.5-0.3-2.3c0.1-0.4,0.3-1,0.5-1.6c0.4,0,0.8-0.1,1.4-0.1c0.2-0.6,0.4-1.2,0.7-1.8c-0.8-1.4-1.6-2.8-2.5-4.4
	c0.6,0.1,0.9,0.2,1.2,0.3c0.1-0.1,0.1-0.1,0.2-0.2c-0.5-0.4-1-0.7-1.5-1.1c-0.9,0.3-1.9,0.1-2.5,1.1c0.1,0.6,0.2,1.3,0.3,2
	c-0.2,0.1-0.4,0.1-0.7,0.2c-0.1-0.8-0.2-1.5-0.2-2.3c-0.6,0.1-1,0.2-1.5,0.3c-0.4-0.2-0.8-0.3-1.2-0.5c0.4-0.7,1.2-0.2,1.9-0.5
	c0.1-0.1,0.2-0.3,0.3-0.5c-0.6-0.1-1-0.5-1.3-1c1.1-0.4,2-0.2,3,0.2c0.6-1.1,1.2-2.2,1.8-3.3c-0.3-0.6-0.7-1.2-1.1-1.9
	c0.2-0.2,0.5-0.3,0.7-0.5c0.6,0.9,1.2,1.7,1.9,2.6c0.7-1.1,0.2-2.3,0.6-3.5c-0.7,0.2-1.1,0.2-1.6,0.4c-0.7-0.5-1.4-1.1-2.4-1.9
	c-0.4-0.1-0.9,0.3-1.4,0.7c0.5,0.4,0.9,0.6,1.3,0.9c0,0.5,0,1,0,1.5c-0.8,0.5-1.3-0.3-2.1-0.3c-0.1,0.1-0.2,0.3-0.3,0.5
	c-0.4,0-0.7,0-1.2,0.1c-0.6,0.6-1.2,1.3-1.8,1.9c-0.8-0.3-1.5-0.6-2.2-1c-0.5,0.3-0.9,0.6-1.3,0.8c0.3,0.5,0.5,0.8,0.7,1.2
	c-0.1,0.1-0.1,0.1-0.2,0.2c-0.4-0.2-0.7-0.3-1.3-0.6c-0.2,0.3-0.4,0.6-0.6,0.9c-0.5-0.2-0.8-0.3-1.2-0.5c0.5-0.4,0.9-0.7,1.4-1
	c-0.8-0.6-1.4-0.5-2.2,0.2c-0.1-0.6-0.2-1.2-0.4-1.7c0.2-0.2,0.3-0.4,0.6-0.6c0.3,0.2,0.5,0.3,0.7,0.5c0.5-0.1,0.6-0.4,0.6-0.8
	c0,0,0,0,0,0c-0.5-0.5-1-0.9-1.6-1.5c0.6-0.1,1.2-0.3,1.7-0.4c0.5,0.1,0.9,0.2,1.4,0.3c0.3-0.1,0.7-0.2,1.3-0.3
	c0.4,0.5,0.7,1.1,1.1,1.6c0.7-0.2,1.3-0.3,2-0.5c0-0.7,0-1.4,0.1-2.1c0.2-0.7,0.5-1.3,0.9-2.2c0.3,0.2,0.6,0.4,0.8,0.6
	c0.4-0.3,0.9-0.6,1.3-1c0,0,0.1,0.1,0.1,0.1c0.1-0.2,0.3-0.4,0.4-0.7c0.5,0,1.1-0.1,1.6-0.1c0.1,0.3,0.3,0.7,0.4,0.9
	c-0.3,0.4-0.6,0.7-1,1.2c0.6,0.1,1,0.1,1.5,0.2c0.2,0.6,0.4,1.3,1.4,1.6c0.2-0.2,0.4-0.3,0.8-0.6c-0.4-0.1-0.7-0.2-1.1-0.3
	c-0.1-0.7-0.9-1.3-0.4-2.1c0.1,0.3,0.2,0.7,0.3,1c0.6,0.2,1.2,0.3,1.7,0.5c0.8-0.7,0-1-0.2-1.5c0.1-0.3,0.2-0.7,0.4-1
	c-1.1-0.4-2.1-0.5-3.1-0.1c-0.1-0.2-0.3-0.4-0.3-0.5c0-0.2,0.1-0.3,0.3-0.6c1.1-0.2,2.3-0.3,3.3-0.5c0.9,0.3,1.7,0.6,2.5,0.9
	c0,5.7,0,11.3,0,17c-0.3,0-0.6,0-0.9,0c0,0.5,0.1,0.9,0.1,1.3c0.3,0,0.6,0,0.8,0c0,48.1,0,96.3,0,144.4h-14
	c-0.2-0.2-0.4-0.5-0.6-0.7c0.4-0.2,0.8-0.4,1.1-0.6c-0.3-0.9-0.9-1-1.5-0.7c-0.5,0.3-1,0.4-1.7,0.1c-0.2-0.3-0.5-0.6-0.9-1
	c-0.6-0.2-1.2-0.5-2-0.8c-0.7,0.2-1.5,0.5-2.4,0.7c-0.8,0.1-1.9,0.3-2.6,0c-2-0.8-3.4,0.1-5,1c0-0.3,0-0.6,0.1-1.1
	c-0.4-0.1-0.9-0.1-1.4-0.2c-0.3,0.5-0.5,0.9-0.8,1.3c-1.1,0.2-2.3,0.5-3.5,0.8C72.4,415.1,72.2,415.5,72,415.9z M91.9,260
	c-0.4-0.6-0.9-0.5-1.3-0.2c-0.2,0.2-0.3,0.4-0.5,0.6c0.5,0.1,1,0.1,1.4,0.2C91.7,260.3,91.8,260.1,91.9,260z M98.3,259.6
	c0.2,0.2,0.3,0.4,0.4,0.6C98.7,260,98.9,259.6,98.3,259.6z M99.7,255.8c-0.7-0.2-1.3-0.3-1.9,0c0.2,0.3,0.4,0.6,0.6,0.9
	c-0.5,0.4-0.9,0.6-1.4,1c0.7,0.6,1.4,0.7,2.1,0.3C99.3,257.2,99.5,256.6,99.7,255.8z M100.5,266.1c-0.6-0.2-0.9-0.1-1.1,0.3
	C99.8,266.5,100.3,266.6,100.5,266.1z M103.7,265.7c0,0,0-0.1,0-0.1C103.6,265.7,103.6,265.7,103.7,265.7
	C103.6,265.8,103.7,265.8,103.7,265.7z M103.7,263.6c0,0,0-0.1,0-0.1c0,0-0.1,0-0.1,0c0,0,0,0.1,0,0.1
	C103.6,263.6,103.7,263.6,103.7,263.6z M103.4,297.9c-0.1,0-0.3,0-0.4,0c0,0.1,0,0.2,0,0.3c0.1,0,0.3,0,0.4-0.1
	C103.4,298.1,103.4,298,103.4,297.9z M105.6,266.4c0,0.1,0.1,0.1,0.3,0.2c0.2-0.1,0.5-0.3,0.9-0.6
	C105.9,265.7,105.6,265.8,105.6,266.4z M105.8,268.8c0.1-0.2,0.1-0.3,0.2-0.6c-0.3,0.1-0.5,0.2-0.5,0.2c0,0.1,0,0.3,0.1,0.4
	C105.7,268.8,105.8,268.8,105.8,268.8z M104,275.2c0.1,0.9,0.4,1.1,1,0.8c0.1-0.2,0.3-0.6,0.4-0.8c0.3-0.2,0.6-0.4,0.9-0.5
	c0-0.1-0.1-0.2-0.2-0.2C105.5,274.6,104.7,274.9,104,275.2z M104,277.3c0.4,0.5,0.7,0.5,1.1,0C104.7,277.3,104.4,277.3,104,277.3z
	 M102.6,291.6c0.3,0.5,0.6,0.6,1.2,0C103.3,291.6,103,291.6,102.6,291.6z M88.6,283.5c-0.3-0.3-0.5-0.5-0.8-0.8
	c-0.8,0.3-0.9,0.6-0.3,1.3C87.9,283.8,88.2,283.7,88.6,283.5z M69.3,320.4c-0.3,0.2-0.5,0.4-0.7,0.5c0.2,0.1,0.3,0.3,0.5,0.4
	C69.5,321.3,69.8,321.2,69.3,320.4z M74.6,322.3c0.3-0.2,0.7-0.4,1.3-0.8c-0.9-0.4-1.4-0.6-1.9-0.9
	C73.4,321.5,73.4,321.5,74.6,322.3z M73.9,322.6c-0.4,0.2-0.4,0.5,0.1,1c0.3-0.2,0.6-0.3,0.9-0.5C74.7,322.6,74.3,322.4,73.9,322.6z
	 M72.8,321.2c-1.2-0.4-2.1-0.2-2.9,0.5c0.1,0.2,0.2,0.4,0.3,0.7C71.2,322.2,72.1,322.1,72.8,321.2z M71.2,323.4
	c0.6,0.2,1.1,0.2,1.6-0.4C71.7,322.4,71.4,322.5,71.2,323.4z M73.6,326.2c-0.9-0.4-1.6-0.8-2.7-0.6c-0.1,0.3-0.3,0.6-0.4,1
	c0.4,0.6,0.8,1.2,1.3,1.9C72.9,327.9,73.8,327.4,73.6,326.2z M77.8,325.3c-0.5-0.2-0.9-0.3-1.1-0.4c-0.2-0.4-0.3-0.7-0.6-1.2
	c-0.7,0.2-1.3,0.4-1.9,0.5c-0.6,0.1-1.3-0.3-1.8,0.6c0.4,0.2,0.9,0.5,1.2,0.7c0.6-0.3,1.1-0.5,1.6-0.7
	C76,325.1,76.7,325.7,77.8,325.3z M64.6,358.4l0-0.1l-0.1,0.1L64.6,358.4z M68.1,351c0-0.1,0-0.1,0-0.1c-0.1,0-0.3,0-0.4,0
	c0,0.1,0,0.2,0,0.2C67.8,351,67.9,351,68.1,351z M70.7,357.6c0.1,0.5,0.3,1,0.4,1.5c0.3-0.1,0.4-0.1,0.7-0.1
	C71.8,358.3,71.8,357.8,70.7,357.6z M76.2,352.5c-1.4,0.1-1.6,0.4-1,1.4C76.3,353.5,76.3,353.5,76.2,352.5z M81.5,371.9
	c0,0-0.1,0-0.1,0c0,0,0,0.1,0,0.1c0,0,0.1,0,0.1,0.1C81.5,372,81.5,371.9,81.5,371.9z M82.4,352.2c-0.4,0.2-0.6,0.3-0.8,0.5
	C82.2,353,82.2,353,82.4,352.2z M83.1,350.2c-0.7,0-1,0.2-1,0.7C82.4,350.7,83.2,350.8,83.1,350.2z M98.4,413.5
	c-0.2-1.1-0.2-1.1-1.4-0.8C96.9,413.8,97,413.9,98.4,413.5z M100.6,284.4C100.7,284.4,100.7,284.4,100.6,284.4c0.1,0.1,0.2,0,0.2,0
	c0,0-0.1,0-0.1,0C100.7,284.3,100.7,284.3,100.6,284.4z M98.3,311.7c-0.5-0.7-0.4-1.5-1.4-1.6c-0.5,0.5-0.3,0.9,0,1.4
	C97.2,311.6,97.6,311.6,98.3,311.7z M96.6,321.3c0,0.3-0.1,0.5-0.1,0.8C97.2,321.8,97.4,321.6,96.6,321.3z M96.9,294.6
	c-0.4,0.2-0.8,0.4-1.2,0.6c0.7,0.8,1.3,0.4,2,0c0.1-0.4,0.2-0.9,0.4-1.4c-0.2-0.3-0.4-0.5-0.6-0.8c0.1-0.3,0.2-0.6,0.3-0.8
	C96.3,292.8,97.3,293.8,96.9,294.6z M97.5,308.2l0.1,0v-0.1L97.5,308.2z M96.9,296.2c0,0.1-0.1,0.1-0.1,0.1c0,0,0,0.1,0.1,0.1
	s0.1,0,0.1,0C96.9,296.3,96.9,296.3,96.9,296.2z M96.5,298.8c0.1,0.1,0.2,0.1,0.4,0.2c0.1-0.2,0.2-0.4,0.2-0.5
	c-0.1,0-0.2-0.1-0.3-0.1C96.7,298.5,96.6,298.7,96.5,298.8z M96.9,302.5c-0.1,0.1-0.1,0.1-0.2,0.2c0.2,0.2,0.3,0.4,0.5,0.6
	c0.1-0.1,0.2-0.2,0.3-0.2C97.2,302.9,97,302.7,96.9,302.5z M97.1,281.1c0.4,0.2,0.7,0.3,1,0.4c0.1-0.1,0.1-0.2,0.2-0.4
	C98,280.7,97.7,280.5,97.1,281.1z M93.1,288.5c-0.1-0.1-0.1-0.2-0.2-0.3c0,0-0.1,0-0.1,0c0,0.1,0,0.2,0.1,0.3
	C92.9,288.6,93,288.6,93.1,288.5z M93.1,280.2c-0.4-0.3-0.8-0.5-1.3-0.8c-0.5,0.4-0.8,0.6-1.3,1C92,281,92.2,281,93.1,280.2z
	 M94.8,286.1c0.7-0.4,1.4-0.8,2.2-1.2c-0.1-0.3-0.2-0.5-0.3-0.8c-1.2,0.2-2.3,0.5-3.5,0.7C93.6,285.8,93.6,285.8,94.8,286.1z
	 M96.4,288.4c0.4-0.5,0.8-1,1.3-1.6c-0.4-0.3-0.7-0.6-1-0.9c-0.9,0.4-1.6,0.7-2.4,1.1C94.7,288,95.7,288,96.4,288.4z M94.3,294.4
	c0.1-0.2,0.3-0.3,0.4-0.5c-0.1-0.1-0.2-0.1-0.3-0.2C94.1,293.8,93.7,293.9,94.3,294.4z M93.9,294.8c0,0.3,0,0.5,0.1,0.8
	c0.3-0.2,0.5-0.3,0.8-0.5C94.4,295,94.2,294.9,93.9,294.8z M93.8,301.3c0.2,0.6,0.4,1.2,0.6,1.8c-0.7,0.6-1.4,1.1-1.9,1.8
	c-0.5,0.7-0.1,1.5,0.5,2.3c0.2-0.7,0.3-1.4,0.4-2c0.6-0.2,1-0.4,1.5-0.7c0-0.3-0.1-0.6-0.1-1c0.2-0.1,0.4-0.2,0.5-0.3
	c-0.1-0.3-0.2-0.6-0.2-0.8c0.2-0.5,0.9-0.8,0.5-1.4C95.1,301.1,94.6,301.2,93.8,301.3z M94,308.8c0,0,0.1,0.1,0.1,0.1
	c0-0.1,0.1-0.1,0.1-0.2C94.2,308.7,94.1,308.8,94,308.8z M91.8,299c0.1,0.2,0.1,0.3,0.1,0.4c0.1,0.1,0.2,0.1,0.4,0.3
	c0.7-0.3,1.2-0.6,0.9-1.5C92.7,298.5,92.3,298.8,91.8,299z M92.7,300.2c-0.1,0-0.2,0-0.2,0c-0.1,0.4-0.2,0.8-0.4,1.5
	c0.4-0.1,0.7-0.1,1.1-0.2C93,301.1,92.9,300.6,92.7,300.2z M91.1,303.9c0.4,0.1,0.6,0.2,1.1,0.4c0.4-0.5,0.7-0.8,1.1-1.3
	c-0.4-0.2-0.7-0.4-1-0.6C91.8,302.9,91.5,303.4,91.1,303.9z M87,305.5c0.2,0.1,0.3,0.2,0.6,0.5c0.3-0.5,0.5-0.8,0.7-1.1
	c0.5-0.2,0.9-0.4,1.3-0.6c0-0.1,0-0.2,0-0.3c-0.5-0.1-1-0.3-1.5-0.4C87.7,304.3,87.4,304.9,87,305.5z M88.6,306
	c0.3-0.1,0.5-0.2,0.8-0.2c0.3-0.1,0.7-0.1,1.1-0.2c0.1-0.2,0.1-0.5,0.2-0.8C88.9,305.3,88.9,305.3,88.6,306z M86.1,307.1
	c0.5,0.3,0.9,0.4,1.3-0.1C86.8,306.8,86.8,306.8,86.1,307.1z M86.9,308.5c-0.6-0.2-1.1-0.4-1.7-0.7c-0.3,0.4-0.5,0.8-0.9,1.2
	C86.1,309.1,86.1,309.1,86.9,308.5z M86.7,311.4c1-0.3,1.8-0.5,2.6-0.7c0.8,0.4,1.5,0.9,2.4,0.4c-0.1-0.3-0.1-0.5-0.2-0.9
	c-0.5,0.1-1,0.1-1.4,0.1c0,0-0.1-0.1-0.2-0.1c0-0.1-0.1-0.2-0.1-0.3c0-0.1,0.1-0.2,0.2-0.3c1.8-0.5,2.2-0.4,3.1,1
	c0.2,0.3,0.5,0.5,0.7,0.8c0.1,0.7,0.1,1.3,0.2,1.9c0.1,0.6,0.4,1.1,0.6,1.7c1,0,1.3-0.6,1.9-1c0.1-0.1,0-0.4,0-0.5
	c-0.7-0.2-1.4-0.3-1.9-0.4c0-1,0-1.9,0-2.8c-1.1-0.6-2.2-1.3-3.2-1.9c0.1-0.3,0.2-0.7,0.3-1.1c-1.1,0-2-0.9-3,0
	c-0.1,0.1,0,0.2,0,0.4c0.4,0.1,0.8,0.3,1.5,0.5c-1,0.3-1.6,0.6-2.3,0.8c0,0.5,0,0.9,0,1.5c-0.5,0-0.9,0-1.3-0.1
	c-0.4-0.1-0.8-0.1-1.1,0.4C85.9,310.8,86.3,311.1,86.7,311.4z M94.8,328.9c-0.4-0.6-0.7-1-1.5-0.9C93.6,329.1,93.7,329.1,94.8,328.9
	z M93.5,330.4c-0.4,0.4-0.4,0.8,0.2,1.4c0.4-0.4,0.9-0.8,1.3-1.2C94.3,329.9,93.9,330,93.5,330.4z M94.7,326
	c-0.1-0.2-0.2-0.3-0.3-0.5c-0.7,0.2-1.3,0.3-1.9,0.5c0,0.1,0.1,0.2,0.1,0.3C93.3,326.2,94,326.1,94.7,326z M93.3,317
	c-0.5-0.6-0.9-0.5-1.4-0.1C92.5,317.2,92.5,317.2,93.3,317z M91.3,312c-0.5-0.2-1-0.3-1.3,0.3c0.3,0.3,0.5,0.7,1,1.2
	C91.1,312.9,91.7,312.5,91.3,312z M87.7,317c-0.9,0-1.7,0-2.6,0c0,0.2,0,0.5,0,1.1C86,317.5,87.2,318.2,87.7,317z M86.5,315.8
	c0-0.1-0.1-0.1-0.2-0.2c0,0.1-0.1,0.1-0.1,0.2C86.3,315.8,86.4,315.8,86.5,315.8z M87.7,315.3c-0.2-0.6-0.3-1.1-0.4-1.5
	c-1-0.1-1-0.1-1.3,0.7C86.6,314.8,87,315,87.7,315.3z M89.1,313.5c-0.1-0.5-0.1-0.9-0.2-1.4c-0.7-0.2-1-0.1-1.1,0.4
	c0.1,0.2,0.3,0.5,0.4,0.7c-0.2,0.3-0.4,0.6-0.5,0.9C88.7,314.4,88.9,313.9,89.1,313.5z M88.8,321.3c0,0.1,0,0.1,0,0.2
	c0.2,0,0.4,0,0.7,0c0-0.1,0-0.2,0-0.3C89.2,321.2,89,321.2,88.8,321.3z M88.5,327.6c0.1,0.4,0.2,0.7,0.4,1.3c0.4-0.6,0.7-1.1,1-1.6
	C89.1,326.9,88.8,327.1,88.5,327.6z M88.2,325.3c-0.5,0.3-0.6,0.6-0.3,0.9c0.2,0.2,0.6,0.1,0.9,0.2
	C89.1,325.7,88.8,325.5,88.2,325.3z M86.2,324.2c0.5,0.4,0.9,0.9,1.8,0.7C87.6,324.2,87.2,323.8,86.2,324.2z M83.7,330.6
	c-0.5-0.5-0.7-1-0.6-1.5c0.5,0,1,0.2,1.4-0.3c-0.4-0.2-0.8-0.4-1.1-0.6c0.1-0.4,0.2-0.8,0.4-1.4c-0.6,0.1-0.9,0.2-1.3,0.3
	c0,0.5,0,0.9,0,1.3c-0.1,0-0.1,0-0.2-0.1c-0.4,0.8-0.8,1.6-1.2,2.5c0.4,0.4,0.7,0.6,1,0.9c-0.1,0.7,0,1.3,1.1,1.6
	c0.3-0.2,0.6-0.4,0.8-0.6c0.3-0.3,0.5-0.6,0.7-1c0.4,0,0.7,0.1,1,0.1c1.6-1.2,2.1-2.3,1.1-2.8c-0.2,0-0.5,0.1-0.8,0.1
	C85.4,329.7,84.9,330.4,83.7,330.6z M80.5,325.6c0.2,0.2,0.5,0.5,0.8,0.8c0.5-0.1,0.9-0.2,1.4-0.3c-0.1-0.3-0.2-0.6-0.2-0.8
	c0.9-0.1,1.7-0.1,2.6-0.2c0.1-0.3,0.2-0.6,0.2-0.8c-1.4,0-2.7,0.1-4,0.1c-0.5,0-1,0.1-1.5,0.2c-0.5,0.1-0.8,0.4-0.4,1
	C79.7,325.5,80.1,325.5,80.5,325.6z M79.2,334.5c0.4-0.2,0.8-0.4,1.2-0.6c0-0.8,0.1-1.6,0-2.4c-0.2-0.9-0.8-1.1-1.9-0.8
	C78,332.9,78.1,333.5,79.2,334.5z M71.4,336.5c-0.2,0.2-0.5,0.4-0.9,0.7c0.5,0.2,0.7,0.4,1,0.5C72,337.3,72.1,336.9,71.4,336.5z
	 M73.2,336.2c-0.9-0.3,0-1.4-1.5-1.6c-0.2,0.9,0.5,1.4,0.7,2.1C72.7,336.5,72.9,336.4,73.2,336.2z M73.3,333.8l0-0.1l-0.1,0.1
	L73.3,333.8z M74.9,339.5c-0.2-0.2-0.3-0.5-0.6-1c-0.2,0.4-0.3,0.5-0.4,0.8C74.3,339.4,74.6,339.4,74.9,339.5z M74.8,334.3
	c-0.4,0.2-0.8,0.4-1.3,0.7c0.5,0.5,0.6,1,1.5,1C75.1,335.4,75.3,334.9,74.8,334.3z M78,335.7c-0.2-0.3-0.5-0.6-0.7-0.9
	c-1.2,0.1-1.7,0.7-2,1.6c0.4,0.5,0.3,1.2,1.1,1.8c0.5-0.3,1-0.5,1.5-0.8C77.9,336.7,77.9,336.2,78,335.7
	C77.9,335.7,78,335.7,78,335.7z M78,335.7c0.6,0.2,1.2,0.6,1.7-0.2c-0.1-0.5-0.5-0.6-1-0.4C78.4,335.3,78.2,335.5,78,335.7z
	 M84.8,341.4c0-0.8,0-1.4,0-2.1c-1.2-0.8-1-2-0.9-3.4c-0.3-0.2-0.7-0.4-1.1-0.7c-0.4,0.4-0.7,0.7-1,0.9c0.1,0.5,0.1,0.9,0.2,1.3
	c-0.4,0.8-0.8,1.5-1.9,1.9c-0.1-0.3-0.2-0.5-0.3-0.6c-0.1-0.2-0.3-0.3-0.5-0.6c-0.5,0.2-1,0.5-1.3,0.6c0.1,0.6,0.2,1,0.4,1.5
	c0.5,0,1,0,1.5,0c0.4-0.2,0.7-0.3,1.1-0.5c0.5,0.4,0.9,0.7,1.2,0.9c0.7,1.4-0.2,2.7,0.5,3.9C84.2,343.6,84.3,342.3,84.8,341.4z
	 M84.2,343.9c0.1,0.4,0.2,0.7,0.3,1.2C85.2,344.3,85.2,344.3,84.2,343.9z M84.6,350.4c0.1,0,0.2-0.1,0.4-0.1
	c-0.1-0.1-0.1-0.2-0.3-0.4C84.6,350.2,84.6,350.3,84.6,350.4z M84.2,353.3c0.2,0.2,0.4,0.4,0.6,0.6c0.1,0,0.1-0.1,0.2-0.1
	c0-0.1,0-0.3-0.1-0.4c-0.1-0.1-0.4-0.2-0.6-0.2C84.3,353.2,84.3,353.3,84.2,353.3z M85.1,374.1c-0.4-0.4-0.7-0.7-1.5-0.4
	c0.3,0.5,0.5,0.9,0.8,1.3c-0.3,0.3-0.6,0.6-1,1c0.4,0.2,0.6,0.3,0.8,0.4C85.3,375.8,85.1,374.9,85.1,374.1z M86.3,342.2
	c0.4-0.1,0.9-0.3,1.4-0.4c-0.2-1-0.9-1-1.7-1C85.5,341.4,85.6,341.8,86.3,342.2z M87.5,352.3c0.4-0.4,0.6-0.7,0-1
	C87.1,351.9,87.1,351.9,87.5,352.3z M87.8,353.6c0,0,0.1,0.1,0.2,0.1c0-0.1,0.1-0.1,0.1-0.2c0,0-0.1-0.1-0.1-0.1
	C87.9,353.6,87.9,353.6,87.8,353.6z M88.4,376.5c-0.1-0.3-0.2-0.5-0.3-0.7c-0.1,0-0.2,0-0.4-0.1c-0.1,0.2-0.3,0.4-0.5,0.8
	C87.7,376.5,88,376.5,88.4,376.5z M89.2,335.7c-0.8-1.4-1.6-2.7-2.4-4.1c-0.7,0.4-1.2,0.7-2,1.1c0.5,0.2,0.8,0.2,1.2,0.4
	c-0.1,0.4-0.1,0.8-0.2,1.1c0.5,1.2,0.9,2.1,1.3,3.1C88.5,337.1,88.6,336.3,89.2,335.7z M91.1,341.2c-0.3-0.6-0.5-1-0.7-1.3
	c-0.2-0.5-0.5-0.7-1.1-0.5c0,0.5,0,1,0,1.1c0.4,0.5,0.7,0.9,1.1,1.5C90.8,341.5,90.9,341.3,91.1,341.2z M91.9,332.4
	c-0.6-1.3-1.1-2.4-1.5-3.4c-1,0.2-1.3,0.6-1.3,1.1c0.4,0.7,0.7,1.2,1,1.7c0.3,0.5,0.7,1,1.5,1C91.7,332.6,91.8,332.4,91.9,332.4z
	 M93.9,337.7c-0.1-0.2-0.2-0.4-0.4-0.6c-0.8,0.3-0.8,0.3-1.1,0.9C93,338.3,93.4,338.2,93.9,337.7z M95.7,345.1c-0.5-0.2-1,0-1.4,0.4
	c-0.4,0.5-0.5,1,0.2,1.5c0.5-0.2,1.1-0.4,1.6-0.6C96.5,345.7,96.3,345.3,95.7,345.1z M97.1,324.2c-1.1-0.6-2-0.5-2.9-0.1
	C95.2,324.6,96,324.8,97.1,324.2z M96.8,389.7c2.2,0.7,2.2,0.7,2.8,0.4C98.2,389.2,97.7,389.1,96.8,389.7z M95.7,408.6
	c0.5,0,0.9-0.1,1.3-0.1c-0.1-1.1-0.1-1.1-1.3-0.9C95.7,407.9,95.7,408.2,95.7,408.6z M94.4,389.5C94.4,389.5,94.5,389.5,94.4,389.5
	c0.1,0,0.1,0,0.2-0.1C94.5,389.4,94.5,389.4,94.4,389.5C94.4,389.4,94.4,389.5,94.4,389.5z M92.3,410.4c0,0.8,0,1.3,0.7,1.5
	c1.1-0.5,1.1-0.5,0.8-1.6C93.4,410.3,92.9,410.3,92.3,410.4z M91.6,383.7c0.1,0.2,0.1,0.4,0.3,0.8c0.6-0.2,1.1-0.3,1.7-0.5
	C92.8,383.2,92.8,383.2,91.6,383.7z M91.5,391.3c0.1-0.1,0.3-0.3,0.4-0.4c-0.1-0.1-0.2-0.1-0.3-0.2
	C91.2,390.7,90.8,390.7,91.5,391.3z M84.4,408.5c0.1-0.3,0.3-0.6,0.4-0.9c-0.6-0.5-1.1-0.6-1.6-0.1
	C83.1,408.1,83.4,408.5,84.4,408.5z M84.4,405.1c0.1-0.1,0.1-0.1,0.2-0.2c-0.2-0.1-0.3-0.2-0.5-0.4c-0.1,0.1-0.2,0.2-0.3,0.3
	C84,404.9,84.2,405,84.4,405.1z M90,402.1c0.1,0,0.2,0.1,0.2,0.1c0,0,0.1-0.1,0.1-0.2c-0.1,0-0.2-0.1-0.2-0.1
	C90.1,401.9,90,402,90,402.1z M89.2,404.7c-1,0.5-1.3,1.3-0.9,2.1c0.3,0.6,0.8,0.8,1.5,0.4C90.1,406.3,89.5,405.6,89.2,404.7z
	 M86.3,388.3c1.2,0.1,1.7-1.1,2.7-1c-0.2-0.9-0.2-0.9-1.3-1C87.6,387,86.3,387.2,86.3,388.3z M85.6,386.4h0.1H85.6L85.6,386.4z
	 M83.6,411.9c0.3,0.2,0.7,0.3,1,0.5c0.7-0.1,1.2-0.2,2-0.4c0-0.6,0-1.1,0-1.6C84.7,409.5,83.6,410.1,83.6,411.9z M84.1,389.3
	c0.3,0.1,0.7,0.1,1.2,0.1c-0.1-1-0.5-1.2-1.3-1C83.8,388.7,83.7,389.1,84.1,389.3z M82.5,386c0.1,0.1,0.2,0.1,0.3,0.2
	c0.2-0.2,0.4-0.4,0.6-0.5c-0.1-0.1-0.2-0.1-0.3-0.2C82.8,385.7,82.7,385.9,82.5,386z M82.4,402.3c0.3,0.4,0.7,0.8,1.1,1.3
	c0.5-0.3,0.9-0.5,1.2-0.7c-0.2-0.8-0.4-1.3-0.6-2C82.9,401.1,82.9,401.1,82.4,402.3z M80.5,390.6c0.4,0.5,0.8,0.5,1.3,0.1
	C81.4,390.3,81.1,390.1,80.5,390.6z M81.1,384.5c0.2,0,0.3,0,0.5-0.1c0-0.1,0-0.1,0-0.2c-0.2,0-0.3,0-0.5-0.1
	C81.1,384.3,81.1,384.4,81.1,384.5z M80.5,386.8c0.2,0.3,0.3,0.6,0.5,0.9c0.8-0.3,0.8-0.6,0.4-1.1C81.1,386.6,80.9,386.7,80.5,386.8
	z M76.8,391c-0.3,0.1-0.7,0.1-0.9,0.2c-0.4,1-0.7,1.9-1.1,2.7c-0.6,1.2-0.6,1.5,0.7,2.4c0.9,0.1,1.2-0.4,1.2-1
	c0-0.8-0.1-1.6-0.2-2.4C76.6,392.2,77.6,391.8,76.8,391z M78.9,388.9c0.9,0.2,1.7,0.3,2.6,0.4c0.1-0.8-0.5-0.8-0.9-1
	c-0.4-0.2-0.8-0.4-1.1-0.6c-0.3-0.2-0.5-0.6-0.9-1c-0.3,0.3-0.5,0.5-0.8,0.7C78.2,388,78.5,388.4,78.9,388.9z M78.4,389.6
	c0,0.4,0.1,0.6,0.1,0.8C79.2,390,79.2,389.8,78.4,389.6z M81.8,396.3c-0.1-0.5-0.1-0.9-0.2-1.2c-1-0.5-1.7-0.2-2.2,0.3
	c-0.5,0.5-0.6,1,0,1.6C80.1,396.7,80.9,396.5,81.8,396.3z M69.2,414.6c0.1-0.8-0.6-1.2-1.3-1.6c-1.2,0.3-1.2,0.3-1.7,1
	C67.5,415.3,68,415.4,69.2,414.6z M92,415.5c-1.3-0.2-1.3-0.2-2,0.3c0.1,0,0.2,0,0.3,0.1H92C92,415.7,92,415.6,92,415.5z
	 M79.7,307.7c-0.5,0.1-1.1,0.1-1.9,0.1c0.4,0.3,0.5,0.4,0.7,0.4c0.8,0,1.5-0.1,2.3-0.1c0.4,0.2,0.8,0.4,1.3,0.7
	c0.3-0.5,0.5-0.9,0.8-1.6c-0.2,0-0.3,0-0.5,0C81.5,307.3,80.6,307.5,79.7,307.7z M82.8,307.2C82.8,307.2,82.8,307.2,82.8,307.2
	C82.8,307.2,82.8,307.2,82.8,307.2C82.8,307.2,82.8,307.2,82.8,307.2z M81.7,414.6c0.3,0.5,0.5,0.9,0.7,1.2c0,0,0,0,0,0H86
	c-0.9-0.5-1.8-1-2.7-1.5C82.8,414.4,82.3,414.5,81.7,414.6z M11.1,358.5c0.5-0.5,0.8-0.8,1.2-1.1c0.3-0.3,0.7-0.7,1.1-1
	c0.6,0,1.2,0,2.1,0c-0.3,0.4-0.5,0.7-0.7,0.9c0.3,0.9,0.6,1.9,0.9,2.8c0,0.1-0.1,0.1-0.4,0.3C13.9,359.9,12.6,359.2,11.1,358.5z
	 M13.4,358.6c0,0.4,0.1,0.6,1,0.4c-0.2-0.2-0.4-0.4-0.5-0.6C13.7,358.4,13.5,358.5,13.4,358.6z M13.6,384.6c0.7-0.1,0.9-0.3,0.6-1
	C13.6,383.9,13.2,384.1,13.6,384.6z M13.7,409.9c0,0.1,0,0.1,0,0.2c0.1,0,0.2,0,0.7-0.1C14,409.9,13.8,409.9,13.7,409.9z
	 M14.7,406.1c-0.3,0.2-0.5,0.3-0.7,0.5C14.7,406.9,14.9,406.7,14.7,406.1z M13.2,404.6c0.9-0.4,1.5-0.7,1.8-1.7
	C14.1,403.5,13.1,403.4,13.2,404.6z M14,408.7c-0.2,0.1-0.4,0.1-0.5,0.2c0,0.1,0,0.1,0.1,0.2c0.2,0,0.4-0.1,0.6-0.1
	C14.1,408.9,14.1,408.8,14,408.7z M4.6,369.2c0.2,0.2,0.5,0.4,0.7,0.5c0.1-0.1,0.1-0.1,0.2-0.2c-0.3-0.2-0.5-0.3-0.8-0.5
	C4.7,369,4.6,369.1,4.6,369.2z M15.4,405C15.4,405.1,15.4,405.1,15.4,405c0,0.1,0,0.1,0.1,0.1c0,0,0-0.1,0-0.1
	C15.5,405.1,15.5,405.1,15.4,405z M15.1,355c-0.8-0.7-1.5-1.1-2.7-0.7c0.5,0.5,0.9,0.9,1.4,1.5C14.2,355.5,14.7,355.3,15.1,355z
	 M13.6,351.6c-0.5-0.1-0.7-0.2-1.2-0.3c0.2,0.4,0.3,0.5,0.4,0.7C13,351.9,13.1,351.8,13.6,351.6z M7.9,368.6c-0.1,0.2-0.3,0.5-0.6,1
	c1-0.1,1.7-0.3,2.4-0.4C9.5,368.5,9.5,368.5,7.9,368.6z M5,364.6c0,0.5,0,0.9,0,1.2c0.2,0.1,0.3,0.2,0.5,0.2
	c0.3-0.3,0.7-0.5,1.1-0.9c-0.5-0.6-0.9-1-1.2-1.3c-1.1,0.3-2.2,0.4-2.8,1.4c0.3,0.2,0.5,0.4,0.8,0.6C3.8,365.4,4.3,365,5,364.6z
	 M7.7,372.5c-0.1-0.1-0.2-0.1-0.3-0.1c-0.1,0.1-0.1,0.3-0.2,0.4c0,0,0.2,0.1,0.2,0.1C7.5,372.7,7.6,372.6,7.7,372.5z M5.9,371.3
	c0.1,0,0.1,0,0.2,0c0-0.2,0-0.3-0.1-0.5c-0.1,0-0.2,0-0.2,0C5.9,371,5.9,371.1,5.9,371.3z M14.6,361.6c-0.2,0-0.3,0.1-0.5,0.1
	c0,0.1,0,0.1,0.1,0.2c0.2-0.1,0.3-0.1,0.5-0.1C14.7,361.7,14.7,361.6,14.6,361.6z M11.5,375.3c0.2-0.3,0.4-0.6,0.6-0.8
	C11.3,374.7,11.3,374.7,11.5,375.3z M11.1,355.6c-0.1-0.5-0.1-1-0.2-1.5C10.1,354.7,10.1,355,11.1,355.6z M11,373.6c0,0,0.1,0,0.1,0
	c0-0.1,0-0.2,0-0.3c-0.1,0-0.1,0-0.2,0C11,373.5,11,373.5,11,373.6z M79.6,319.3C79.6,319.3,79.5,319.3,79.6,319.3
	C79.5,319.3,79.6,319.3,79.6,319.3C79.6,319.3,79.6,319.3,79.6,319.3z M58.7,359.1c-0.5-0.1-1-0.1-1.7-0.2
	C58.1,359.7,58.1,359.7,58.7,359.1z M57.7,374C57.6,374.1,57.5,374.1,57.7,374L57.7,374z M54.1,395c1.1,0.6,2,1.2,2.9,1.7
	c0.1-0.1,0.1-0.1,0.2-0.2c-0.6-0.7-1.1-1.4-1.8-2.3C54.9,394.5,54.6,394.7,54.1,395z M55.7,403.2c0.5,0,1.1,0,2,0
	c-0.7-0.7-1.3-1.2-1.8-1.7C55,402.2,55,402.2,55.7,403.2z M54.7,391.7c0.2,0.4,0.4,0.7,0.6,1.2c0.6-0.6,1.1-1,1.6-1.5
	C56.2,391.1,55.5,391.1,54.7,391.7z M54.5,372c0.1,0.1,0.2,0.3,0.2,0.4c0.1,0,0.2-0.1,0.2-0.1c-0.1-0.1-0.2-0.3-0.3-0.4
	C54.7,371.9,54.6,372,54.5,372z M59.2,354.3c0,0-0.1-0.1-0.2-0.1c-0.1,0.1-0.3,0.2-0.4,0.2c0.1,0.1,0.2,0.1,0.2,0.2
	C59,354.5,59.1,354.4,59.2,354.3z M59.3,342.6c0-0.2-0.3-0.3-0.5-0.5c-0.7,0.5-0.8,0.9-0.4,1.5C59.3,343.2,59.4,343.1,59.3,342.6z
	 M56.5,358.2c0.4-0.6,0.7-1.1,1.1-1.8c-0.8,0.3-1.2,0.5-1.8,0.7c-0.2,0.5-0.8,0.8-0.7,1.5C55.7,358.4,56.1,358.3,56.5,358.2z
	 M51.2,397.6C51.2,397.6,51.2,397.6,51.2,397.6c0.1,0,0.1,0,0.1-0.1C51.3,397.5,51.2,397.5,51.2,397.6
	C51.2,397.5,51.2,397.5,51.2,397.6z M52.2,365.9c0.3,0,0.6-0.1,1.1-0.1C52.5,365.3,52.5,365.3,52.2,365.9z M49.4,393.2
	c0.4,0.4,0.8,0.8,1.7,0.5c-0.3-0.4-0.6-0.7-0.9-1.3C49.8,392.9,49.6,393.1,49.4,393.2z M41.1,398c0,0,0.1,0,0.1,0
	c0-0.1,0-0.2-0.1-0.2c0,0,0,0-0.1,0C41,397.8,41.1,397.9,41.1,398z M46.3,387.6c0.9-0.1,1.2-0.3,0.9-0.8c0-0.1-0.2-0.1-0.5-0.3
	C46.6,386.8,46.5,387.1,46.3,387.6z M54,390.2c-0.4-0.4-0.7-0.8-1-1.1c-0.5-0.1-1-0.2-1.2-0.3c-0.8,0.2-1.4,0.3-2.1,0.4
	c-0.5,0.1-0.7,0.2-0.8,0.7c-0.4,0.1-0.7,0.1-1.1,0.2c0.3,0.3,0.5,0.4,0.8,0.5c1.4,0.4,1.7,0.3,2.5-0.8c0.2-0.2,0.4-0.3,0.6-0.5
	C52.9,390.5,52.9,390.5,54,390.2z M58.1,355.7c-0.4-0.6-0.7-1.1-1-1.6c-1-0.1-0.8,0.7-1.2,1c-0.3,0.1-0.6,0.3-1,0.5
	c0,0.3,0.1,0.7,0.1,1c0.1,0,0.3,0,0.4,0c0.3-0.3,0.6-0.7,0.9-0.9C56.9,355.7,57.4,355.7,58.1,355.7z M56.8,363.5
	c-0.4,0.2-0.7,0.2-1,0.4c0.2,0.2,0.3,0.3,0.7,0.6C56.6,364.1,56.7,363.9,56.8,363.5z M46.4,390.9c0.2-0.1,0.3-0.2,0.5-0.2
	c0-0.1-0.1-0.1-0.1-0.2c-0.2,0.1-0.3,0.1-0.5,0.2C46.3,390.8,46.4,390.9,46.4,390.9z M51.4,380.1c0.7,0.1,0.9-0.2,0.9-0.7
	C51.6,379.2,51.4,379.4,51.4,380.1z M33.7,396.4c-0.3-0.3-0.5-0.8-1.5-0.5c0.5,0.4,0.9,0.6,1.2,0.8
	C33.5,396.6,33.6,396.5,33.7,396.4z M41.6,378.2c-0.1,0-0.1-0.1-0.2-0.1c0,0.1-0.1,0.1-0.1,0.2c0,0,0.1,0.1,0.1,0.1
	C41.5,378.3,41.5,378.3,41.6,378.2z M31.7,391.1c-0.6,0.8-2.2,0.6-2.5,1.9c1.6,0.5,1.9-1.2,3.1-1.1c0.7,1,0.7,1,1.6,0.5
	c-0.2-0.4-0.5-0.9-0.7-1.4C32.7,391.1,32.2,391.1,31.7,391.1z M21.3,397.3c0.6-0.4,1.1-0.8,1.8-1.2c0.3,0.3,0.6,0.5,0.9,0.8
	c-0.4,0.6-0.8,1.2-1.2,1.8c1.1,0.6,2.2,1.2,3.3,1.8c-0.9,0.7-1.7,1.3-2.6,1.9c-0.8-0.4-0.8-0.4-1.3-1.5c0.3-0.3,0.5-0.6,1-1.1
	c-0.6-0.5-1.2-0.8-1.8-1.3C21.4,398.2,21.3,397.8,21.3,397.3z M23.4,401.1c0,0.1,0,0.2,0.1,0.4c0.1,0,0.2,0,0.2,0
	c0-0.1,0.1-0.3,0.2-0.6C23.6,401,23.4,401.1,23.4,401.1z M22.5,397.7c0.2,0,0.3,0,0.5,0.1c0-0.1,0-0.2,0-0.3c-0.2,0-0.3,0-0.5,0.1
	C22.5,397.6,22.5,397.6,22.5,397.7z M27.2,399.7c1.5,0.3,2.5,0.2,3.7-0.4c-0.6-0.2-1.1-0.4-1.8-0.6
	C28.6,399.2,27.3,398.7,27.2,399.7z M34.4,399.4L34.4,399.4L34.4,399.4L34.4,399.4z M32.6,403.6c-0.3-0.3-0.5-0.5-0.6-0.7
	c0.5-1,0.5-1,0.6-1.4c-0.7,0.4-1.4,0.8-2.1,1.1c0.6,1,1.4,1.4,2.4,1.6c0.5-0.1,1-0.2,1.7-0.3c-0.3-0.4-0.6-0.6-0.8-0.9
	C33.3,403.3,33,403.4,32.6,403.6z M32.5,400c0.1-0.1,0.2-0.1,0.3-0.2c-0.2-0.3-0.4-0.5-0.6-0.8c-0.1,0-0.2,0.1-0.2,0.1
	C32.2,399.4,32.4,399.7,32.5,400z M25.1,403.7c1.4,0.4,2.4,0.2,3.8-0.2c-0.8-0.4-1.3-0.7-1.8-0.9C26.4,403,25.9,403.3,25.1,403.7z
	 M42,389.1c0.5-0.3,0.8-0.5,1.1-0.7C42.5,388.2,42.1,388.3,42,389.1z M47,385c0.5,0.1,1,0.2,1.5,0.3c0.2,0.4,0.4,0.7,0.6,1.1
	c1-0.2,1.9-0.5,2.8-0.5c0.9-0.1,1.7-0.3,2.4-0.9c0.7-0.5,1.4-0.9,2.3-1.4c-0.7-0.2-1.2-0.3-1.6-0.5c-0.3,0.4-0.6,0.7-0.9,1.1
	c-1.1-0.5-2.1-1-3.1-1.5c0,0.4,0.2,0.6,0.3,0.9c0.1,0.2,0.2,0.5,0.2,0.7c-0.9,0.1-1.7,0.2-2.7,0.3C47.5,384.3,47.5,384.3,47,385z
	 M25.5,388c0.6,0.5,0.9,0.4,1.1,0.1c0-0.1,0-0.1,0-0.3C26.3,387.9,26,387.9,25.5,388z M39.9,392.4c0,0,0,0.1,0,0.1
	c-0.7-0.2-1.4-0.5-2-0.7c-0.7,0.6-1.2,1.2-1.9,1.8c0.9,0.6,1.7,1.2,2.6,1.8c1.1-0.7,2.1-1.3,3.1-1.9c0.9,0.3,1.7,0.5,2.5,0.8
	c0.3,0.5,0.5,1,0.7,1.4c0.7,0,1.3,0.1,1.9,0.1c0.4-0.5,0.8-0.9,1.2-1.3c0-0.5,0.1-1,0.2-1.5c-0.4-0.2-0.8-0.4-1-0.5
	c-1.9,0.4-3.5,0.8-5.3,0.4C41.1,392.7,40.5,392.5,39.9,392.4z M26.6,390.1c0.1,0,0.2,0,0.2,0c0-0.2,0-0.3,0-0.5
	c-0.1,0-0.3,0-0.4,0.1C26.5,389.7,26.6,389.9,26.6,390.1z M27.5,393.1c-0.1,0.2-0.1,0.3-0.2,0.6C28,393.4,28,393.4,27.5,393.1z
	 M26.7,383.4c0.4,0.3,0.6,0.5,1,0.7C27.9,383.3,27.6,383.2,26.7,383.4z M55.1,365.4L55.1,365.4L55.1,365.4L55.1,365.4z M50,357
	c-0.1,0-0.1,0.1-0.2,0.1c0,0,0.1,0,0.1,0C50,357.1,50,357,50,357z M55.2,362.1c0.2-0.3,0.3-0.5,0.4-0.8c-0.6-0.1-1-0.2-1.5-0.3
	c-0.2-0.3-0.4-0.6-0.5-0.9c-0.4,0.5-0.8,1-1.2,1.5C53.2,362.6,54.3,361.9,55.2,362.1z M39.9,397.5c0.2-0.2,0.3-0.4,0.5-0.6
	c-0.2-0.2-0.4-0.3-0.7-0.5C39.4,396.9,39.2,397.2,39.9,397.5z M47.2,380.1c1.4,0.4,2.6,0.2,3.7-0.7
	C49.6,378.6,48.2,378.9,47.2,380.1z M53.7,333.7c-0.1-0.1-0.2-0.2-0.3-0.2c-0.2,0.2-0.4,0.4-0.7,0.6c0.1,0.1,0.2,0.1,0.2,0.2
	C53.2,334.1,53.4,333.9,53.7,333.7z M56.6,282.8c0.3-0.5,0.1-0.7-0.6-0.7C55.8,282.5,56,282.7,56.6,282.8z M54.7,325.1
	c-0.5,0.2-0.8,0.3-1.2,0.4C53.9,325.6,54.4,325.7,54.7,325.1z M53.1,339.5c0,0.2,0.1,0.4,0.2,0.6c0.5-0.1,1-0.2,1.6-0.3
	c0.1,0.3,0.3,0.7,0.2,0.9c-0.3,0.5-0.7,0.9-1.1,1.3c0.2,0.4,0.4,0.8,0.7,1.2c0.1,0,0.2-0.1,0.4-0.1c-0.1-0.4-0.1-0.9-0.2-1.3
	c0.6-0.5,1.1-0.9,1.6-1.3c-0.4-0.5-0.7-0.9-1-1.3C54.5,338.7,53.8,339.1,53.1,339.5z M55.3,337.8c-0.1,0-0.2,0-0.3,0
	c0,0,0,0.1,0,0.1C55,337.8,55.1,337.9,55.3,337.8C55.3,337.8,55.3,337.8,55.3,337.8z M52.4,364.1c0.6,0.2,0.7,1.1,1.6,0.6
	c0.3-0.7-0.5-1-0.9-1.4c-1.1-0.2-2-0.4-2.9-0.5c-0.2,0-0.4,0.1-0.7,0.1c0.2,0.4,0.3,0.7,0.4,1C50.9,364,51.7,364,52.4,364.1z
	 M37.7,373.9c0.7-0.5,1.3-0.9,2-1.3c-1.3-0.6-2.3,0-3.4,0.6C36.8,373.4,37.2,373.6,37.7,373.9z M41.8,384.1c0.2,0.5,0.4,0.8,0.7,1.2
	c-1.9,1-3.5-0.3-5.2-0.5c-0.2,0.4-0.4,0.7-0.6,1.1c-1.2,0.5-1.4-0.7-2.2-0.7c-0.6,0.3-1.2,0.6-1.8,0.8c-0.3,0.5,0.2,1.1-0.6,1.5
	c-0.1-0.3-0.1-0.5-0.2-0.7c-0.1-0.2-0.2-0.3-0.3-0.5c-0.9,0.4-0.6,1-0.4,1.6c-0.6,0.3-0.8,0.9-1.6,0.9c-0.5-0.7,0.5-0.9,0.7-1.4
	c-0.3-0.2-0.6-0.3-0.9-0.5c-0.3,0.4-0.5,0.8-0.8,1c-0.3,0.2-0.8,0.4-1.1,0.5c-0.1,0.7,0.6,0.9,1,1.5c0.5-0.2,0.9-0.4,1.4-0.6
	c1.8-0.5,3.7-1.1,5.7-0.2c0.3,0.1,0.7,0.1,1,0.2c0.7,0.1,1.4,0.1,2.1,0.3c0.9,0.2,1.8,0.1,2.8-0.5c-1.5-0.5-2.8-0.9-4.2-1.3
	c0.1-0.5,0.2-0.9,0.2-1.3c0.6-0.2,1.1-0.3,1.4-0.4c1.1,0.4,2.1,0.7,3.1,1c0.7-0.6,2.1-0.1,2.6-1.3c-0.5-0.6-1-1.3-1.6-2.1
	C42.6,383.8,42.2,383.9,41.8,384.1z M39.1,368.5c-1.3,0.8-1.9,1.9-1.4,2.7c0.6-0.3,1.2-0.5,1.9-0.9
	C39.3,369.8,40.1,369.1,39.1,368.5z M36.7,380.6c0.1,0.4,0.2,0.9,0.3,1.3c0.4,0.3,0.8,0.6,1.3,0.9c0.5-0.2,0.9-0.3,1.2-0.4
	c0.5,0.2,0.8,0.3,1.2,0.4c0.4-0.7,0.5-1.3-0.2-1.8c-0.4,0.2-0.9,0.3-1.3,0.5c-0.5-0.5-0.9-1.1-1.5-1.5c-0.5-0.4-1-1-2-0.5
	C36.1,380,36.4,380.3,36.7,380.6z M48.4,350.1c-0.2,0.1-0.4,0.2-0.6,0.3C48.4,350.5,48.4,350.5,48.4,350.1z M49.2,375.4
	c-1.1,0.5-2.1,1.1-2.3,2.5C49,377.4,49.8,376.5,49.2,375.4z M44.4,390.7c0.3,0.1,0.5,0.1,0.8,0.2c0-0.1,0.1-0.2,0.1-0.3
	c-0.2-0.1-0.5-0.2-0.7-0.2C44.6,390.5,44.5,390.6,44.4,390.7z M46.9,366.3c0.1-0.2,0-0.5,0-0.7c-0.1,0-0.2-0.1-0.3-0.1
	c-0.3,0.4-0.6,0.7-1,1.2C46.3,367,46.6,366.7,46.9,366.3z M54.2,345.7c0.5,0.5,1,0.9,1.5,1.4c0.1,0.1,0.3,0,0.5,0
	c0-0.3-0.1-0.6-0.1-0.9c0.1-0.1,0.2-0.2,0.3-0.3c0.1-0.1,0.3-0.2,0.4-0.3c-0.1-0.2-0.2-0.4-0.3-0.6
	C54.9,345.3,54.9,345.3,54.2,345.7z M48.4,397.5c-0.7,0.2-1.3,0.3-1.8,0.4c-0.4-0.5-0.8-0.9-1.2-1.3c-0.5,0.6-0.9,1.2-1.3,1.7
	c-0.6,0.1-1.1,0.1-1.7,0.2c0.1,0.4,0.2,0.7,0.3,1.3c2.3-0.6,4.4-1.2,6.7-1.8C48.9,397.7,48.6,397.6,48.4,397.5z M49.9,406.4
	c-1.3,0-1.8,0.5-1.9,1.5C49.1,407.8,49.3,407.1,49.9,406.4z M36.8,412.7c0.7,0.2,1.2,0.2,1.6-0.3C37.6,411.7,37.6,411.7,36.8,412.7z
	 M57.5,383.4c0.6,0,1.1-0.1,2-0.1c-0.3-0.5-0.5-0.7-0.7-1C58.2,382.5,57.6,382.6,57.5,383.4z M36.5,397.7c0.2-0.3,0.4-0.5,0.7-0.7
	c-0.4-0.2-0.7-0.4-1.2-0.7c0.6-0.2,0.9-0.3,1.3-0.5c0-0.1,0-0.1-0.1-0.2c-0.7,0-1.4,0-2.4,0C35.3,396.5,35.5,397.3,36.5,397.7z
	 M43.5,404.9c-0.4,0.1-0.7,0.2-0.9,0.2c-1.5-0.2-2.9-0.4-4.2-0.5c-0.2,0.7,0.2,1,0.9,1.1c0.4-0.1,0.8-0.2,1.3-0.4
	c0.9,0.3,1.8,0.6,2.7,1C43.8,405.2,43.8,405.1,43.5,404.9z M44.3,401.9c-0.4,0-0.8,0-1.2,0.1c0,0.1,0,0.1-0.1,0.2
	c-1,0.4-2,0.8-3,1.2c1.2,0.3,3.2-0.3,4.3-1.2C44.4,402.1,44.3,402,44.3,401.9z M44.7,406.6c-0.1-0.1-0.3-0.2-0.5-0.3
	c-0.1,0.1-0.2,0.2-0.3,0.4c0.2,0.1,0.4,0.1,0.6,0.1C44.7,406.7,44.7,406.7,44.7,406.6z M57.8,284.7L57.8,284.7l0,0.1L57.8,284.7z
	 M58.2,339.1c0.4,0.3,0.7,0.4,1.3,0.8c0-0.7-0.1-1.2-0.1-1.9C58.8,338.4,58.6,338.7,58.2,339.1z M40.8,415.3
	c-1.5-0.8-3.3-0.8-5.1-0.8c-0.3-0.1-0.7-0.3-1.2-0.4c-0.1,0.2-0.2,0.4-0.4,0.7C36.4,415.3,38.5,415.9,40.8,415.3z M58.6,333.9
	c0-0.1,0-0.2,0-0.2c-0.2,0-0.5,0-0.7,0c0,0.1,0,0.2,0.1,0.4C58.1,334,58.4,334,58.6,333.9z M58.6,350.1c-0.1-0.4-0.2-0.7-0.3-1.1
	c-0.1,0-0.2,0-0.3,0c-0.3,0.4-0.6,0.8-0.9,1.2c0.1,0.1,0.2,0.2,0.3,0.3C57.7,350.4,58.1,350.3,58.6,350.1z M59.3,320L59.3,320l0,0.1
	L59.3,320z"/>
</svg>
