<svg version="1.1" id="Layer_1" xmlns="http://www.w3.org/2000/svg" xmlns:xlink="http://www.w3.org/1999/xlink" x="0px" y="0px"
	 viewBox="0 0 26.3 696.4" style="enable-background:new 0 0 26.3 696.4;" xml:space="preserve">
<style type="text/css">
	<!-- .st0-menu-center-menu-center{fill:#white;} -->
</style>
<path class="st0-menu-center" fill="white" d="M13,101.1c-0.1,0.1-0.2,0.2-0.3,0.2C12.8,100,12.8,100,13,101.1z M13.5,100.2l0,0.1l0,0.1L13.5,100.2z
	 M11.3,153.2c0-0.2,0.1-0.3,0.1-0.5c0-0.1,0-0.2,0-0.4c0,0.2-0.1,0.3-0.1,0.5C11.3,152.9,11.3,153.1,11.3,153.2z M11.5,141
	c0.1,0.2,0.2,0.5,0.4,0.7c0,0.7,0.1,1.4,0.2,2.2c0.2-0.4,0.5-1,0.7-1.1c0.2-0.2,0.4-0.7,0.6-1.8c0.2-1,0.3-1.8,0.6-3
	c-0.2-0.4-0.3-0.7-0.4-1c-0.1,0.8-0.1,1.4-0.2,2.2c-0.3-1-0.5-2-0.8-3c0,0.8,0.1,1.2,0.1,1.8c0,0.5,0,1.1,0.1,1.5
	c-0.2,0.2-0.4,0.4-0.7,0.6C11.6,139.4,11.6,139.4,11.5,141z M13.2,161.5c0.3,1.3,0.5,2.4,0.7,3.5c0-0.1,0-0.2,0.1-0.3
	c-0.1-1.5-0.3-3-0.4-4.8C13.4,160.5,13.3,160.9,13.2,161.5z M13.3,113.9c0,0.3,0,0.5,0.1,0.8c0-0.1,0-0.2,0.1-0.2
	c0-0.3,0-0.5-0.1-0.8C13.4,113.8,13.4,113.8,13.3,113.9z M14.1,118.1C14.1,118.2,14.1,118.3,14.1,118.1L14.1,118.1z M14.1,118.1
	C14.1,118.2,14.1,118.3,14.1,118.1L14.1,118.1z M14.4,87.2c-0.1-0.1-0.2-0.3-0.4-0.5C14.2,88.4,14.2,88.4,14.4,87.2z M14.5,77.1
	c0-0.1,0-0.2,0-0.3c0,0.2-0.1,0.4-0.1,0.5c0,0.1,0,0.3,0.1,0.5C14.4,77.6,14.4,77.4,14.5,77.1z M14.5,53c0-0.4-0.1-0.7-0.1-1
	c-0.2,0.9-0.2,1.9-0.1,3.1C14.5,54.2,14.5,53.9,14.5,53z M12.6,130.6c0.2,0.2,0.2-0.3,0.2-1.5C12.6,128.8,12.6,129.2,12.6,130.6z
	 M10.6,182c-0.1,0.2-0.2,0.3-0.2,0.4c-0.4-0.4-0.7-0.7-1-1.1c-0.1,1.5,0,2,0.2,2.4c0.1-0.2,0.2-0.5,0.3-0.8c0.2,0.7,0.4,1.3,0.7,2
	C10.7,182.8,10.7,182.6,10.6,182z M11.3,146.2c0.2-0.2,0.3-0.7,0.2-1.7c0-0.2-0.1-0.3-0.1-0.5C11.4,144.7,11.4,145.2,11.3,146.2z
	 M9.7,166.8c0-0.4,0.1-0.7,0.1-1.2c-0.1-0.3-0.1-0.6-0.2-0.9C9.6,165.6,9.6,166.2,9.7,166.8z M8.4,221.3c0,0.1,0.1,0.1,0.1,0.2
	c0-0.2,0-0.3,0-0.5c0-0.1-0.1-0.1-0.1-0.2C8.4,221,8.4,221.2,8.4,221.3z M8.7,202c-0.1-0.2-0.2-0.5-0.3-0.9c0,0.5-0.1,0.9-0.1,1.4
	c0.6,1.1,1.1,2.3,1.6,1.2C9.6,202.2,9.2,202,8.7,202z M9.4,197.7c-0.2-1.4-0.2-1.4-0.4,0.6C9.2,198.7,9.3,198.7,9.4,197.7z
	 M10.9,185.7c0-0.2-0.1-0.4-0.1-0.7c0,0.3,0,0.4-0.1,0.8c0.1,0.1,0.1,0.2,0.2,0.3C10.9,185.9,10.9,185.8,10.9,185.7z M10.8,175.9
	c-0.1,0-0.2,0.1-0.3,0.1c0,0.1,0,0.3,0,0.4c-0.2,0.8-0.5,1.7-0.7,2.5c0.3,0.6,0.8-0.6,1.1-2.5C10.8,176.3,10.8,176.1,10.8,175.9z
	 M11.8,166.7c-0.2,0.3-0.3,0.6-0.4,0.9c-0.1-1-0.2-1.8-0.3-2.8c-0.1,1.3-0.2,2.5-0.3,3.6c-0.1,0.1-0.3,0.3-0.4,0.4
	c0,0.9,0,1.5,0.1,2.7c0.6-1.3,1.1-2.4,1.6-3.7C11.9,167.3,11.9,167,11.8,166.7z M10,167.8C10.1,167.8,10.1,167.8,10,167.8
	c0-0.2,0-0.4,0-0.5c0,0,0,0,0,0.1C10,167.5,10,167.6,10,167.8z M10.2,158.4c0.2,0.6,0.4,1.1,0.6,1.6c0.1,1.1,0.1,2,0.2,2.8
	c0.2,0.1,0.3,0.1,0.5,0.2c0.1-0.9,0.2-1.8,0.3-2.7c0-1,0-2,0-3.1c-0.1-0.4-0.2-0.8-0.2-1.1c-0.5,0.9-0.9,1.7-1.3,0.9
	c-0.2-0.3-0.3-0.5-0.5-0.8c0,0.1,0,0.2,0,0.2c-0.2-0.5-0.3-1.1-0.5-1.5c-0.2,1.3-0.3,2.4-0.5,3.7c0.2,1.3,0.4,2.4,0.6,3.8
	C9.7,161,9.9,159.7,10.2,158.4z M13.5,93.4c0-0.6,0.1-1,0.1-1.6c-0.1-0.2-0.2-0.4-0.4-0.6c0-0.5-0.1-1.2-0.1-1.8
	c-0.1,1.1-0.2,2.1-0.3,3.2C13,94.3,13.3,93,13.5,93.4z M13.1,34.6c0-0.2,0-0.4-0.1-0.5c-0.1,0.4-0.1,0.9-0.2,1.3
	c0,0.1,0,0.3,0.1,0.4C13,35.4,13.1,35,13.1,34.6z M11.5,130.7c0.3,0.8,0.6,0.5,0.9-1.5C12.1,127.6,11.8,128.2,11.5,130.7z
	 M13.2,59.4c0.1,1,0.2,2,0.4,2.9c0,0.1,0.1,0.1,0.1,0.1c0-0.7,0-1.3,0-1.9c0-0.2,0.1-0.4,0.1-0.5c0-0.2,0.1-0.5,0.1-0.7
	c0-0.4-0.1-0.7-0.1-1.2C13.4,58.4,13.4,58.4,13.2,59.4z M14.2,80c-0.1-1.3-0.2-2.3-0.2-3.3c-0.2-0.2-0.2,1.4-0.3,2.1
	c-0.1,0.3-0.2,0.6-0.3,0.9c0,0.7,0,1.4,0,2.1c0,0,0.1,0,0.1,0c0.1-0.7,0.1-1.4,0.2-2C13.9,80,14,80,14.2,80z M13.4,16.6
	c-0.1,0.4-0.2,0.5-0.3,0.8C13.2,17.6,13.3,18,13.4,16.6z M10.9,152.7c0.1,0.1,0.1,0.2,0.2,0.3c0-0.2,0-0.4,0-0.6
	c-0.1-0.2-0.1-0.4-0.2-0.5C10.9,152.2,10.9,152.5,10.9,152.7z M11.5,102.2c0-0.4,0-1,0-1.5c0-0.1-0.1-0.1-0.1-0.2
	c-0.1,0.8-0.2,1.5-0.2,2.5C11.3,103.6,11.4,103,11.5,102.2z M13.6,178.6c0.1,0,0.3,0,0.5,0c-0.2-1.4-0.3-2.4-0.4-3.5
	C13.5,176.6,13.5,176.6,13.6,178.6z M9.1,162.8c-0.2,0-0.3,0-0.6,0c0.2,1.8,0.2,3.5,0.4,4.3c0.1-0.5,0.1-1,0.2-1.5
	c-0.1-0.5-0.2-0.8-0.3-1.4c0.1-0.4,0.2-0.7,0.3-1C9.1,163.1,9.1,162.9,9.1,162.8z M8.8,327.4c0-0.3,0-0.6,0.1-0.9c0-0.1,0-0.1,0-0.2
	c0,0.2-0.1,0.5-0.1,0.7C8.7,327.2,8.8,327.3,8.8,327.4z M10.3,149.4c0.1-0.7,0.2-1,0.3-1.4C10.4,147.4,10.3,147.7,10.3,149.4z
	 M13.2,151.7c-0.1-0.8-0.2-1.6-0.2-2.3c-0.1-0.3-0.2-0.5-0.3-0.7c-0.2,0.4-0.4,0.7-0.5,0.9c-0.1,0.2-0.2,0.5-0.2,1.4
	c-0.1,0.1-0.2,0.2-0.3,0.4c0.1,0.6,0.1,0.8,0.2,1c0.3,0.8,0.4,0.6,0.6-1.6c0-0.4,0.1-0.7,0.2-1C12.9,152.3,12.9,152.3,13.2,151.7z
	 M13.9,96.4c-0.1,0.4-0.2,0.5-0.2,0.8c0.1,0.4,0.1,0.7,0.2,1.3C13.8,97.6,13.9,97.2,13.9,96.4z M13.4,154.8c0,0.8,0.1,1.5,0.2,2.4
	c0.2-1.2,0.3-2.1,0.4-3.1C13.7,153.4,13.6,153.5,13.4,154.8z M13.8,85.3c0.1-1.2,0.2-2.2,0.3-3.8c-0.2,0.7-0.3,1.1-0.4,1.5
	c0,1-0.2,1.7-0.2,3.1C13.6,85.8,13.7,85.5,13.8,85.3z M12.5,166.9C12.5,167,12.5,167,12.5,166.9c0,0,0-0.1,0-0.1c0,0,0-0.1,0-0.1
	C12.5,166.8,12.5,166.9,12.5,166.9z M14.3,68.6c0-0.8-0.1-1.5-0.1-2.2c0,0-0.1,0-0.1-0.1c-0.1,0.8-0.2,1.7-0.2,2.5
	c0,0.2,0,0.4,0.1,0.6C14.1,69.2,14.2,68.9,14.3,68.6z M14.3,34.9c0-0.2,0-0.3,0-0.5c-0.1,0-0.1,0.1-0.2,0.1c0,0.2,0,0.5,0,0.7
	C14.2,35.1,14.3,35,14.3,34.9z M14.1,137.4c0.2-0.1,0.3-0.1,0.5-0.2c-0.1-1-0.1-1.4-0.2-2.1C14.2,135.7,14.1,135.8,14.1,137.4z
	 M12.2,185.2c-0.3,0.1-0.4,1-0.5,3C12,188.2,12.1,186.7,12.2,185.2z M12.5,159.1c-0.1-0.9-0.1-1.5-0.2-2.6c-0.1,0.8-0.1,1.1-0.2,1.5
	C12.2,158.8,12.3,159.5,12.5,159.1z M17.3,340.6c0,0.2-0.1,0.5-0.1,0.8c0,0.2,0.1,0.5,0.1,0.7c0-0.3,0.1-0.6,0.1-0.9
	C17.3,341,17.3,340.8,17.3,340.6z M17.1,285.6c0-0.1,0-0.2,0-0.4c0,0-0.1,0-0.1,0c0,0.1,0,0.2,0,0.4C17,285.6,17.1,285.6,17.1,285.6
	z M16.5,435.7c0.1-0.7,0.1-1.2,0.1-1.6c0-0.1-0.1-0.2-0.1-0.4C16.5,434.1,16.4,434.5,16.5,435.7z M17.4,464.5c0,1.2,0,2.3-0.1,3.8
	c0.1,0.2,0.2,0.4,0.2,0.6C17.6,465.2,17.6,465.2,17.4,464.5z M17.3,379.4c0.1-0.6,0.1-1,0.2-1.6c-0.1-0.2-0.2-0.3-0.4-0.5
	C17.2,378.2,17.3,378.7,17.3,379.4z M16.8,327.1l0-0.2L16.8,327.1L16.8,327.1z M19.6,64.9C19.6,64.9,19.6,64.9,19.6,64.9
	C19.6,65,19.6,65,19.6,64.9C19.6,65,19.6,65,19.6,64.9C19.6,65,19.6,65,19.6,64.9z M13.5,421.1c-0.2-0.8-0.4-1.8-0.6-0.4
	c0,0.4,0,0.7,0,1c0.2,0.3,0.3,0.5,0.5,0.8C13.5,422,13.5,421.6,13.5,421.1z M14.4,304.4c-0.1,0.5-0.2,0.9-0.3,1.4
	c-0.2-0.9-0.3-1.7-0.4-2.4c-0.2,0.7-0.4,1.3-0.6,1.9c0.1,1.5,0.4,0.4,0.5,1.3c0.1,0.6,0.1,1.2,0.2,2.1c0.3-0.1,0.6-0.2,0.9-0.3
	C14.6,306.8,14.6,305.3,14.4,304.4z M13.3,440.1c0-0.2,0-0.3,0.1-0.5c0-0.1,0-0.1,0-0.2c0,0.1,0,0.3-0.1,0.4
	C13.3,440,13.3,440,13.3,440.1z M14.4,349.3c-0.1-0.4-0.2-0.7-0.3-1C14.1,349.3,14.2,350,14.4,349.3z M14,422.7
	c-0.1,1.1-0.1,2,0.1,3C14.2,424.3,14.2,423.3,14,422.7z M15.9,273.1C15.9,273.1,15.9,273.1,15.9,273.1L15.9,273.1z M15.9,273
	C15.9,273,15.9,273.1,15.9,273C15.9,273.1,15.9,273,15.9,273z M11.4,224.8c0.2,0.3,0.4,0.2,0.5-1.2c-0.2-0.8-0.3-1.5-0.4-2.3
	C11.3,222.6,11.3,222.6,11.4,224.8z M15.1,325.2c0.3,0.2,0.5,0.4,0.8,0.5c0.1,0.1,0.3-0.2,0.3-1.6c-0.2-0.7-0.4-1.3-0.7-2
	C15.3,322.4,15.2,323.5,15.1,325.2z M15.5,262.2c-0.1-0.1-0.1-0.2-0.2-0.3c0,0.2,0,0.4,0,0.6c0.1,0.1,0.1,0.2,0.2,0.4
	C15.5,262.7,15.5,262.4,15.5,262.2z M15,296.8c0,0.7-0.2,1.4-0.1,2.3c0.2-0.4,0.4-0.8,0.6-1.3c0-0.1,0-0.5,0-0.9
	C15.3,296.1,15.3,296.1,15,296.8z M15.8,334.2c-0.1,0-0.1,0.3-0.2,0.5c-0.1,0.5-0.2,1-0.3,1.5c0.2,1,0.3,1.9,0.4,2.7
	c0.1-0.4,0.3-1.4,0.5-1.4c0.2,0,0.3,0.8,0.5,1.3c0.1-0.5,0.2-0.8,0.2-1.1c0.2-0.2,0.4-0.5,0.6-0.7c0-1.1,0-1.9,0-2.7
	C16.9,332.7,16.3,334.6,15.8,334.2z M12.8,350.5c-0.2-1.8-0.3-3.4-0.4-4.8c0.1-2.9,0.3-5.5-0.2-7.8c-0.3,3.2-0.1,6.1,0.1,8.8
	c-0.1,0.7-0.2,1.2-0.3,1.8c0.1,1.2,0.2,2.4,0.4,3.6C12.5,351.5,12.7,351.1,12.8,350.5z M17.2,260.3c0,0.9,0.1,1.8,0.1,2.9
	c0.2-0.7,0.3-1.2,0.4-1.9C17.5,259.4,17.5,259.3,17.2,260.3z M16.8,271c0.2,1.2,0.3,2.1,0.5,3c0.2-1,0.4-2,0.6-2.9
	c0-0.2,0-0.5,0-0.7c-0.3,1.5-0.5,1.1-0.8,0.2C17,270.5,16.9,270.8,16.8,271z M16.7,276.6c-0.2,0.6-0.4,0.2-0.4,2
	C16.6,278.7,16.6,278.7,16.7,276.6z M17.1,267.5c0.2,0.8,0.2,0.8,0.4-0.1c-0.1-0.4-0.2-0.7-0.3-1.1
	C17.1,266.9,17.1,267.2,17.1,267.5z M15.9,294.4c0-0.1-0.1-0.1-0.1-0.1c0,0.2,0,0.5,0,0.8c0,0.1,0.1,0.1,0.1,0.1
	C15.9,294.9,15.9,294.6,15.9,294.4z M14.7,428.9c-0.1-0.2-0.2-0.4-0.4-0.5c0,0.4-0.1,0.8-0.1,1.2c0.3,0.9,0.7,0.8,1-0.2
	C15.1,427.8,15.1,427.8,14.7,428.9z M17.3,636.3c0.2,0.1,0.4,0.1,0.6,0.2c-0.1-1.1-0.2-1.8-0.3-2.6c0-0.8,0-1.5,0-2.1
	c-0.3-1.8-0.3-1.8-0.5-1.7c-0.1,1.2,0.1,1.9,0.1,2.9C17.2,634.1,17.3,635.2,17.3,636.3z M15.8,371.3c0.1-0.1,0.3-0.2,0.4-0.4
	C15.9,369.3,15.9,369.3,15.8,371.3z M17.7,458.8c0,0.2,0,0.4,0,0.5c0,0,0,0,0,0C17.7,459.1,17.7,459,17.7,458.8
	C17.7,458.7,17.7,458.7,17.7,458.8z M15.9,344.7c-0.1-0.8-0.1-1.4-0.2-2.4c-0.1,1-0.2,1.8-0.3,2.7c0.3,1.1,0.5,2,0.7,3.1
	c0.1-0.6,0.1-1.2,0.2-2C16.1,345.4,16,345,15.9,344.7z M17,412c0.1-0.5,0.2-0.9,0.3-1.4C16.9,409.6,16.9,409.8,17,412z M18.3,314.3
	c-0.2-0.6-0.4-1-0.6-1.5c-0.1,0.5-0.2-0.6-0.4,0.7c0.2,0.4,0.3,0.7,0.5,1.2c0.1,0.5,0.3,1.3,0.5,2.3
	C18.3,315.6,18.3,314.8,18.3,314.3z M11.8,217.4c0-0.1-0.1-0.1-0.1-0.2c0,0.7,0,1.3-0.1,2c0.1,0.2,0.2,0.3,0.3,0.5
	C11.9,218.8,11.9,218.1,11.8,217.4z M12.1,237c-0.2-0.7-0.3-1.4-0.5-2.1c-0.2,0.6-0.4,1.2-0.4,3.2c0.1,0.2,0.1,0.8,0.2,0.9
	c0.2,0.3,0.5,0.4,0.7,0.6c0,0.1,0,0.2,0,0.4c0.1-0.3,0.2-0.6,0.4-1c0-0.7,0-1.3,0-1.9C12.4,237,12.2,237,12.1,237z M18.2,276.3
	c0,0.1,0,0.1-0.1,0.2c0,0.4,0,0.7,0,1.1c0-0.1,0.1-0.2,0.1-0.3C18.2,277,18.2,276.6,18.2,276.3z M18.1,310.2c0,0.1-0.1,0.1-0.1,0.2
	c0,0.1,0,0.2,0,0.4c0,0,0.1-0.1,0.1-0.1C18.1,310.4,18.1,310.3,18.1,310.2z M14.7,616.6c0.1-0.5,0.3-1.1,0.4-1.8c0-0.1,0-0.6,0-1.1
	c-0.1,0.3-0.2,0.6-0.3,0.8c-0.1-0.3-0.2-0.6-0.3-0.9c-0.1,0.5-0.2,0.8-0.3,1.3c-0.1-0.6-0.2-1.2-0.3-1.8c-0.1,0.2-0.1,0.3-0.2,0.6
	c0.2,1.1,0.3,1.9,0.4,2.8C14.3,616.6,14.5,616.6,14.7,616.6z M14.5,261.1c0,0.6,0,1.3,0,2.3c-0.2,0.3-0.5,0.7-0.7,1
	c-0.7-4.3-0.7-4.3-0.9-2.9c0.1,0.5,0.2,1,0.3,1.4c0,1,0.1,1.9,0.1,2.9c0.1,0.1,0.3,0.2,0.3,0.2c0.2,0.8,0.4,1.4,0.6,2.1
	c0.3-2.4,0.5-4.4,0.9-5.4C14.8,261,14.7,260.5,14.5,261.1z M15.2,347.9c0-0.7-0.1-1.2-0.1-1.9c-0.2,0.9-0.3,1.6-0.6,2.6
	C14.8,349.6,15,348.4,15.2,347.9z M14.9,287.4c0.3,1,0.3,0.8,0.3-1.1C15,286.7,14.9,287.1,14.9,287.4z M14.3,288.9
	c0-0.8-0.1-1-0.3-0.4c0.1,0.4,0.2,0.7,0.2,0.9C14.2,289.3,14.3,289.1,14.3,288.9z M13.7,609.5c0-0.1,0-0.3-0.1-0.7
	c-0.1,0.4-0.1,0.7-0.2,1.1C13.7,610.1,13.7,610.1,13.7,609.5z M13.6,277.3c0.2-0.3,0.3,0.1,0.5-0.6
	C13.8,275.2,13.8,275.2,13.6,277.3z M12.8,304.2c0,0,0.1,0.1,0.1,0.1c0-0.2,0-0.4,0-0.5c0,0-0.1,0-0.1-0.1
	C12.8,303.9,12.8,304,12.8,304.2z M13.3,628.9c-0.1,0.5-0.2,1-0.4,1.7c0.1,0.5,0.1,0.8,0.2,1.1C13.3,630.9,13.4,630.3,13.3,628.9z
	 M13,613.5c0-0.7-0.1-1.3-0.1-2c-0.2,1-0.3,1.8-0.4,2.7c0.1,0.5,0.2,1,0.3,1.5C12.9,614.9,13,614.2,13,613.5z M13.1,588.6
	c0-2,0-2-0.3-1.8C12.8,588.3,12.9,588.8,13.1,588.6z M17.2,325.9C17.2,325.9,17.2,326,17.2,325.9L17.2,325.9z M4,212.4
	c-0.1,0.5-0.1,0.8-0.2,1.4c0.1,0.6,0.2,1.1,0.2,1.4c0.4,0.7,0.6-0.9,0.9-1.3c0,0,0-0.4,0-1c-0.1,0.3-0.3,0.6-0.4,0.9
	C4.5,213.3,4.3,212.9,4,212.4z M4.8,202.8L4.8,202.8c0-0.1,0-0.1,0-0.1c0,0,0,0,0,0L4.8,202.8z M5,210.9c0.1-1.7,0.1-1.7-0.1-2
	C4.9,209.9,4.9,210.6,5,210.9z M5,202.6C5,202.6,5,202.7,5,202.6C5,202.7,5,202.7,5,202.6C5,202.7,5,202.7,5,202.6
	C5,202.6,5,202.6,5,202.6z M5.1,204.3c0.1-1.1,0-1.3-0.1-1.5C5,203.4,5,204,5.1,204.3z M4.9,202.7c0,0,0.1-0.1,0.1-0.1
	C4.9,202.2,4.9,202,4.9,202.7z M7.9,186.7c0.1,1.7,0.1,1.7,0,4c-0.2,0.7-0.3,1.6-0.4,3.7c0.2,1.7,0.5,3.5,0.7,5.5
	c0.2-1.1,0.3-3.3,0.5-4.7c0.1,0,0.2,0,0.3,0c0.1-1.2,0.2-2.4,0.4-3.7c-0.1-0.5-0.2-0.8-0.3-1.1c-0.1,0.3-0.3,0.6-0.3,0.8
	c-0.2-0.7-0.3-1.2-0.5-1.9c0-0.8,0.1-1.5,0.1-2.3c0.2,0,0.3,0,0.4,0c0.1-1.2,0.2-2.3,0.2-3.3c-0.1-1.1-0.2-1.2-0.3-0.8
	c-0.4,1.3-0.8,1.3-1.2,1.3c-0.3,0-0.5,0-0.7-2.2c0-0.3-0.1-0.4-0.1-0.6c-0.1,0.7-0.1,1.2-0.1,1.6c-0.2,0.4-0.4,0.8-0.6,1.2
	c-0.1-1-0.1-1.7-0.2-2.3c-0.1-0.5-0.2-0.8-0.3-1.1c-0.1-1.1,0.1-2.4-0.1-3.1c0,1.1-0.1,2.1-0.1,3.1c0.1,0.7,0.1,1.4,0.2,2.4
	c-0.1,0.5-0.2,1-0.5,1.8c0.2,0.7,0.3,1.2,0.5,1.7c-0.2,2.2-0.3,3.8-0.5,5.3c0.1,1,0.1,1.7,0.2,2.8c0.2-1.7,0.3-4.3,0.7-4.5
	c0.1,0.1,0.2,0.2,0.3,0.3c0.2-0.5,0.4-1,0.6-1.6C7.1,186.6,7.5,185.5,7.9,186.7z M5.3,200.9c0-0.2,0-0.4,0-0.7
	c0,0.1-0.1,0.2-0.1,0.4C5.3,200.7,5.3,200.8,5.3,200.9z M7.1,201.8c-0.3-1.5-0.5-1.3-0.6,0.3C6.7,203.4,6.9,201.8,7.1,201.8z
	 M5.4,200c0.1-0.1,0.1-0.2,0.2-0.3C5.5,199.1,5.4,199.3,5.4,200z M5.4,200.2c0,0,0-0.1,0-0.1c0,0,0-0.1,0-0.1c0,0,0,0,0,0
	C5.4,200.1,5.4,200.1,5.4,200.2z M3.4,216.4c0.1-1,0.1-1.7,0-2.6C3.3,214.8,3.3,215.4,3.4,216.4z M2.9,224.7
	c0.2,0.4,0.3,0.7,0.5,1.2c0-0.9,0-1.6,0.1-2.8c-0.2,0.5-0.4,0.8-0.5,1.1C2.9,224.4,2.9,224.5,2.9,224.7z M3.1,204.7c0,0,0-0.3,0-0.4
	c0-0.1,0-0.2-0.1-0.2c0,0,0,0.3,0,0.4C3.1,204.6,3.1,204.7,3.1,204.7z M3.4,230.9l0-0.1l0-0.1V230.9z M3.4,227.9
	C3.4,227.9,3.4,227.9,3.4,227.9c-0.1,0.1-0.1,0.2-0.1,0.3c0,0,0.1,0,0.1-0.1C3.4,228.1,3.4,228,3.4,227.9z M3.5,211.4
	c0,0.1,0,0.3,0,0.4c0,0,0.1-0.1,0.1-0.1c0-0.1,0-0.2,0-0.2C3.6,211.5,3.5,211.4,3.5,211.4z M4.4,208.8
	C4.4,208.8,4.4,208.8,4.4,208.8c0-0.3-0.1-0.5-0.1-0.7l0-0.1l0,0.1C4.3,208.4,4.4,208.6,4.4,208.8L4.4,208.8z M4.6,210.7
	c0-0.6,0-1,0-1.6c-0.1-0.1-0.2-0.1-0.3-0.2c0,0.6-0.1,1.2-0.1,2C4.4,210.8,4.5,210.7,4.6,210.7z M3.5,200.4c0.2,0,0.3,0,0.5,0
	c0.1,1.2,0.3,2.4,0.4,3.7c0.1-1.6,0.3-3.1,0.4-4.7c-0.1-0.5-0.2-1-0.4-1.4c0.2-2.3,0.3-4.6,0.5-7c-0.1-0.6-0.1-1.2-0.2-2
	c-0.1,0.6-0.2,1-0.3,1.4c-0.1-0.5-0.2-0.8-0.2-1.2c0,0.1,0,0.2-0.1,0.3c0,1.1,0.1,2.2,0.1,2.8c0.1,1.4,0.4,1.5,0.3,2.9
	c-0.1,1.1-0.2,2-0.3,2.7c-0.2,0.6-0.3,1.1-0.4,1.6c-0.2-0.3-0.4-2.8-0.7-2c-0.1,1.6,0,2.6,0.1,3.4c0.1,2.5,0.1,4.8,0.2,7
	c0.1,0.5,0.1,1,0.2,1.7c0.1-1.4,0.1-2.5,0.2-3.5c-0.1-1.1-0.2-2-0.3-3C3.5,202.1,3.5,201.3,3.5,200.4z M4.3,218c0,0.1,0,0.2,0,0.4
	c0-0.1,0.1-0.2,0.1-0.3c0-0.2,0-0.4,0-0.6C4.3,217.7,4.3,217.9,4.3,218z M10.1,247.5c0-0.2,0-0.5,0-0.7c-0.1-0.4-0.3-0.9-0.4-1.3
	c-0.1-0.6-0.1-1.3-0.2-2.1c-0.1,0.2-0.2,0.4-0.3,0.5c0,0.2,0,0.4,0,0.6c0.2,0.6,0.3,1.2,0.5,1.9c0.1,0.6,0.1,1.3,0.2,2.2
	C9.9,248.2,10,247.9,10.1,247.5z M9.4,336.8c0.1-0.6,0.2-1,0.1-2.1C9.4,334.8,9.3,335.3,9.4,336.8z M9.2,599.6
	c-0.2,0.2-0.4,0.1-0.4,2.1c0.1,0.4,0.2,0.8,0.3,1.2C9.3,601.9,9.1,600.6,9.2,599.6z M8.7,329.1c-0.2,0.7-0.2,1.9-0.2,3.1
	c-0.1,1.3-0.4,2.1-0.3,4.1c0.1-0.1,0.1-0.1,0.2-0.1c0-0.8,0-1.5,0-2.2c0.1-0.6,0.2-1.2,0.3-1.8C8.8,331.1,8.9,330.1,8.7,329.1z
	 M10.1,360.3c-0.1-1-0.1-2.1-0.2-3.5c-0.1,0.6-0.2,1-0.3,1.4c0.2,0.9,0.3,1.6,0.4,2.3C10,360.5,10,360.4,10.1,360.3z M8.6,355.1
	c0,0.1,0,0.1,0,0.2c0-0.1,0-0.1,0-0.1C8.6,355.1,8.6,355,8.6,355.1C8.6,355,8.6,355.1,8.6,355.1z M10.6,618.8c0,0.2-0.1,0.5-0.1,0.7
	c0,0.4,0.1,1,0.2,1.2c0.2,0.7,0.4,1.4,0.6,2.1c0-0.4,0-1,0-1.1C11.1,620.6,10.9,619.2,10.6,618.8z M12.1,607.8
	c-0.2-0.6-0.4-1.3-0.6-2c-0.1,0.2-0.2,0.8-0.2,1.8c0.3,0.9,0.6,1.8,0.9,2.8C12.4,608.9,12.3,608.5,12.1,607.8z M10,570.1
	c-0.3,1.6-0.2,4-0.4,5.4c0.1,0.7,0.1,1.3,0.2,1.8c0.1-1.3,0.1-2.6,0.2-3.8C10,572.5,10.1,571.5,10,570.1z M10.1,574.8
	c-0.1,0.9-0.2,1.7-0.3,2.5c0.1-0.4,0.3-0.3,0.4-1.8C10.2,575.4,10.1,575.2,10.1,574.8z M10.4,622.5c0.1-1.4,0-2.3-0.2-3.1
	C10.1,621.9,10.1,622.3,10.4,622.5z M10.4,611.5c0,0.2,0,0.4,0,0.7c0-0.1,0.1-0.2,0.1-0.2c0-0.1,0-0.3,0-0.4
	C10.5,611.5,10.4,611.5,10.4,611.5z M7.6,288.5c0-0.1,0-0.2,0-0.3c0,0.2-0.1,0.5-0.1,0.7c0,0.1,0,0.2,0,0.3
	C7.5,289,7.5,288.7,7.6,288.5z M7.6,223.2c0.1-0.5,0.1-1.1,0.2-1.7c-0.1-0.5-0.1-0.9-0.2-1.3c-0.2,0.5-0.4,0.9-0.5,1.4
	C7.2,223,7.4,223,7.6,223.2z M6.9,213c-0.1-2.1-0.3-2-0.6-2.5C6.5,212.1,6.7,212.7,6.9,213z M8.1,600c0.2-2.5,0.2-2.7,0-3.6
	C8,597.8,8,598.9,8.1,600z M6.4,222.8c0.1,0.4,0.2,0.8,0.2,1.1c0-0.2,0-0.4,0.1-0.6C6.7,222.5,6.6,222,6.4,222.8z M6.5,285.2
	c0,0.1,0,0.3,0,0.4c0-0.1,0-0.2,0.1-0.3c0-0.1,0-0.2,0-0.3C6.6,285,6.5,285.1,6.5,285.2z M8,303.9c0,0.1-0.1,0.1-0.1,0.1
	c0,0.7-0.1,1.5,0.1,2.3C8,305.2,8,304.5,8,303.9z M7.6,242.3c0.1,0.2,0.1,0.3,0.2,0.6C7.8,241.7,7.8,241.3,7.6,242.3z M7.7,598.2
	c0,0.2,0,0.4,0,0.5c0,0,0,0,0-0.1C7.7,598.5,7.7,598.4,7.7,598.2C7.7,598.2,7.7,598.2,7.7,598.2z M7.5,614.6
	c0.2,0.4,0.2,0.4,0.2-0.8C7.6,614,7.6,614.2,7.5,614.6z M8.1,153.5c-0.1,0-0.2,0-0.4,0c-0.1,1.7-0.5,1.2-0.6,4
	c0.4,1.1,0.5-2.4,0.7-2.3c0.2,2,0.2,2,0.4,1.1C8.2,155.4,8.2,154.5,8.1,153.5z M8.4,170.8L8.4,170.8v-0.2V170.8z M9.6,106.7
	c-0.3,1.6-0.5,4-0.3,5.7c0.1-0.6,0.3-1.1,0.5-1.8C9.6,109.3,9.8,107.9,9.6,106.7z M9,131.7c0,0.9,0,1.8,0.1,2.8
	c0.1,0.6,0.2,1.2,0.3,1.8c0.1-0.3,0.2-0.6,0.3-0.8c0.1,0.3,0.2,0.6,0.3,0.8c0.1-1.5,0.1-2.7-0.1-3.7c-0.1,0.4-0.2,0.7-0.3,1.1
	c-0.1-1.1-0.2-2.2-0.4-3.1c-0.1-0.8-0.3-2-0.5-1.1C8.8,130.4,8.9,131.1,9,131.7z M8.7,51.2c-0.1,1.1,0,1.9,0.1,2.8
	C8.9,52.4,8.9,52.2,8.7,51.2z M8.4,180.1c-0.1-0.8-0.1-1.3-0.2-1.8c-0.1,0.4-0.2,0.8-0.3,1.2c-0.1-0.5-0.1-1-0.2-1.4
	c0.1-2.1,0.1-2.1,0.1-3c-0.2,0.8-0.4,1.6-0.5,2.4c0.1,2.1,0.3,2.9,0.6,3.3C8.1,180.6,8.2,180.4,8.4,180.1z M10.2,126.8
	c0-0.1,0-0.2,0-0.2c0,0.1,0,0.2,0,0.4c0,0.1,0,0.1,0,0.1C10.1,127,10.2,126.9,10.2,126.8z M10.2,100.4c-0.2-2.3-0.4-0.9-0.6-1.1
	c-0.1-0.2-0.2-0.5-0.3-0.8c0,0.9-0.1,1.7-0.1,2.4c0.3,0.3,0.5,0.5,0.7,0.8C9.9,101.3,10,100.9,10.2,100.4z M8,171.9
	c0-0.1,0-0.2,0.1-0.3c0-0.6-0.1-1.1-0.2-1.7c0,0.1,0,0.2-0.1,0.2C7.9,170.7,7.9,171.3,8,171.9z M9.2,117.7c0.2-1,0.3-1.8,0.5-2.7
	c-0.3-1.2-0.6,0-0.8,1.2C9,116.8,9.1,117.3,9.2,117.7z M10,49.9c-0.1-0.4-0.1-0.6-0.1-1c-0.2,1-0.4,0.5-0.5,2.4
	c0,0.3,0.1,0.6,0.1,1.1C9.7,51.7,9.9,50.8,10,49.9z M9.9,54.8c-0.1-0.5-0.1-0.9-0.2-1.6C9.6,54.6,9.7,55.1,9.9,54.8z M19.6,65
	c-0.1,0-0.2-0.3-0.2,0.7C19.5,66.3,19.6,65.5,19.6,65z M5.8,156.2c0-0.2,0-0.4,0-0.7c-0.1-0.3-0.1-0.6-0.3-1.1c0,1,0,1.6,0,2.5
	C5.7,156.6,5.7,156.4,5.8,156.2z M6.5,151.3C6.5,151.3,6.5,151.3,6.5,151.3c0.1-0.4,0.1-0.8,0.1-1.1c0,0.1-0.1,0.1-0.1,0.1
	C6.5,150.7,6.5,151,6.5,151.3z M3.2,215.5c0-1.1,0.1-1.9,0.1-2.6c0-0.7-0.1-1.2-0.1-1.8c-0.2,0.2-0.3-1.2-0.4-2.3
	c-0.1,0.5-0.1,1-0.2,1.6c0.1,0.4,0.2,0.6,0.4,0.9c0,0.9,0,2,0.1,3.2C3,214.7,3.1,215,3.2,215.5z M5.4,173.9c0.1-0.6,0.1-1.2,0.2-2.3
	c-0.2-0.9-0.3-1.7-0.4-2.7c0-0.7,0-1.6,0-2.6c0.1-0.8,0.3-1.6,0.4-2.5c0.1,0.6,0.1,1.1,0.2,1.7c-0.1,1.2-0.2,2.4-0.3,3.6
	c0.3,1.2,0.5,2.5,0.8,3.8c-0.2,1.4-0.4,2.7-0.6,3.9C5.6,176.3,5.6,176.3,5.4,173.9z M5.5,167.2c0,0.1,0.1,0.1,0.1,0.1
	c0-0.2,0-0.5,0-0.7c0,0.1-0.1,0.1-0.1,0.1C5.5,166.9,5.5,167.1,5.5,167.2z M5.7,174.3c0,0.2,0,0.5,0,0.7c0,0,0,0,0.1,0
	c0-0.3,0-0.6,0-1.2C5.8,174.1,5.7,174.1,5.7,174.3z M6.5,137.4c0.1,0.6,0.2,1,0.2,1.5C6.8,137.3,6.7,137,6.5,137.4z M6.2,147.2
	c0.1,1.1,0.2,0.8,0.3,0.1c0-0.1,0-0.3,0-0.7C6.4,146.8,6.4,146.9,6.2,147.2z M8.2,164.5c-0.1-0.7-0.1-1.6-0.4-1
	c0.1,0.7,0.2,1.2,0.3,1.7C8.2,164.9,8.2,164.7,8.2,164.5z M6.7,158.9c0.2-0.7,0.2-0.7,0.1-1.3C6.7,157.9,6.7,158.2,6.7,158.9z
	 M7.5,170.5c-0.1-0.4-0.3-0.8-0.4-1.3c-0.1,1.1-0.4,0-0.5,2.2C7,172.1,7.3,171.8,7.5,170.5z M7.1,179.4c-0.2-0.8-0.3-1.4-0.4-1.9
	c-0.2,0.7-0.3,1.3-0.5,2.2C6.5,180.6,6.7,180.1,7.1,179.4z M5.4,144.4c0.1,0,0.2,0,0.3,0c0-0.1,0-0.1,0-0.2
	C5.6,144.3,5.5,144.3,5.4,144.4z M2.3,213.1c0,0.3,0.1,0.7,0.2,1.3c0-0.8,0-1.2,0-1.8c-0.1,0-0.1,0-0.2,0
	C2.3,212.8,2.3,212.9,2.3,213.1z M2.4,237.3c0,0,0,0.1,0.1,0.1c0-0.3,0-0.5,0-0.8c0-0.1,0-0.1,0-0.1C2.4,236.8,2.4,237,2.4,237.3z
	 M4.7,169.5c-0.1-1-0.2-2-0.2-3c-0.1,0.2-0.1,0.3-0.1,0.5c0,0.2-0.1,0.5-0.2,1.2c0.1,0.3,0.2,0.5,0.2,0.5c0,1.6-0.1,2.8-0.1,4.2
	C4.7,173,4.7,170.9,4.7,169.5z M2.7,117.3C2.7,117.3,2.7,117.3,2.7,117.3c0-0.2,0-0.4,0-0.5c0,0,0,0,0,0
	C2.7,116.9,2.7,117.1,2.7,117.3z M3,119c-0.2,0.4-0.2,0.4-0.1,1.7C2.9,120.1,2.9,119.6,3,119z M3.4,207.7c-0.1-0.1-0.3,0.1-0.3,1.4
	c0,0.5,0.1,1.2,0.1,1.8c0.1-0.4,0.1-0.7,0.2-1.2C3.4,209.1,3.4,208.4,3.4,207.7z M3.4,207.7C3.4,207.7,3.4,207.7,3.4,207.7
	C3.4,207.7,3.4,207.7,3.4,207.7C3.4,207.7,3.4,207.7,3.4,207.7C3.4,207.7,3.4,207.7,3.4,207.7z M3.2,210.9
	C3.2,210.9,3.2,210.9,3.2,210.9c0,0.1,0,0.1,0,0.1c0,0,0,0,0,0s0,0,0,0C3.2,211,3.2,211,3.2,210.9z M3.6,92.3c0,0.1-0.1,0.2-0.1,0.2
	c0,0.2,0,0.3,0,0.5c0-0.1,0.1-0.2,0.1-0.3C3.6,92.5,3.6,92.4,3.6,92.3z M2.7,76.8c-0.2,1.2-0.2,1.9,0,3.1
	C2.7,78.9,2.7,77.9,2.7,76.8z M3.9,181.2c0,0.1,0.1,0.2,0.1,0.2c0-0.2,0-0.4,0-0.7c0,0-0.1-0.1-0.1,0C3.9,180.8,3.9,181.2,3.9,181.2
	z M3.3,140.1c0.2-0.1,0.2-0.7,0.2-2C3.3,138.5,3.2,138.9,3.3,140.1z M3.8,182.4c0,0,0,0.1,0,0.1c0,0.1,0,0.1,0,0.1
	C3.8,182.6,3.8,182.5,3.8,182.4C3.8,182.5,3.8,182.5,3.8,182.4z M19.2,51.9c0,0.4,0,0.7,0,1.1c0,0,0,0,0.1,0.1
	C19.3,52.7,19.3,52.3,19.2,51.9C19.2,52,19.2,52,19.2,51.9z M5.2,160.2c-0.1,0.5-0.3,1-0.5,1.7c-0.1-2-0.6-2-0.5-5.4
	c0.1,0.7,0.2,1.2,0.2,1.7c0-0.2,0.1-0.5,0.1-0.6c0-0.6,0-1.2-0.1-1.7c0-0.8-0.1-1.6-0.1-2.9c0.3,0.9,0.4,1.5,0.7,2.1
	C4.9,156.9,5.3,157.8,5.2,160.2z M4.8,157.8l0-0.2L4.8,157.8L4.8,157.8z M3.7,187.9C3.8,187.9,3.8,187.9,3.7,187.9
	c0.1-0.4,0.1-0.8,0.1-1.2c0,0,0,0.1-0.1,0.1C3.7,187.2,3.7,187.6,3.7,187.9z M3.6,184.6c-0.1,0.4-0.1,0.7-0.2,1
	C3.6,186.3,3.6,185.9,3.6,184.6z M3.2,181.5c0.2-0.8,0.4-1.4,0.4-3.5C3.5,179.2,3.2,178.9,3.2,181.5z M3.4,192.5c0,0.2,0,0.3,0,0.4
	c0,0,0.1,0,0.2-0.1C3.4,192.6,3.4,192.5,3.4,192.5z M3.4,190c0,0.2-0.1,0.3-0.1,0.4c0,0.1,0,0.2,0,0.4c0-0.1,0.1-0.1,0.1-0.2
	C3.4,190.4,3.4,190.2,3.4,190z M6.9,194c-0.1-0.9-0.2-2-0.4-0.8C6.6,194.3,6.7,194.6,6.9,194z M4.8,100.7
	C4.8,100.6,4.8,100.6,4.8,100.7C4.8,100.6,4.8,100.7,4.8,100.7C4.8,100.7,4.8,100.7,4.8,100.7L4.8,100.7z M4.4,129.1
	C4.4,129.1,4.5,129.1,4.4,129.1c0.1-0.8,0.2-1.6,0.2-2.6c0.1-0.2,0.2-0.4,0.3-0.6c0.1,1,0.1,1.7,0.2,2.9c0.1-1,0.1-1.6,0.2-2.2
	c-0.1-0.9-0.1-1.7-0.2-2.6c-0.1,0.4-0.3,0.7-0.4,1c-0.2,0-0.3,0-0.4,0C4.4,126.6,4.4,127.9,4.4,129.1z M5.8,83.8
	c-0.1-0.8-0.2-1.4-0.4-2.3c-0.1,0.5-0.1,0.8-0.2,1.2c0.1,1.1,0.2,1.8,0.4,2.8C5.7,84.9,5.8,84.4,5.8,83.8z M6,76.8
	c0-0.2,0-0.5-0.1-0.6c0-0.1-0.1-0.1-0.2-0.2c0.1,0.7,0.1,1,0.2,1.2C6,77.1,6,76.9,6,76.8z M5.7,88.3c0,0.6-0.1,1.1-0.1,1.6
	c0.2,0.7,0.3,1.2,0.4,1.7c0.1-0.3,0.2-0.6,0.3-0.9c0.1-0.7,0.1-1.2,0.1-1.8c0.1-0.4,0.2-0.7,0.3-1c0-0.2,0-0.5,0-0.7
	c-0.2,0.5-0.5,0.1-0.7,1.8C6,88.8,5.8,88.6,5.7,88.3z M4.7,88.6c0-0.1,0-0.2-0.1-0.4c-0.1,0.7-0.2,1.4-0.3,2c0,0.4,0.1,0.6,0.1,0.9
	C4.5,90.2,4.6,89.4,4.7,88.6z M4.4,79.9c0.1-0.1,0.2-0.2,0.3-0.3c-0.1-0.7-0.1-1.1-0.2-1.6c-0.1,0.6-0.1,0.9-0.1,1.3
	C4.4,79.6,4.4,79.7,4.4,79.9z M4.2,60.8c0,0,0.1-0.1,0.1-0.1c0.1-1.1,0.1-2.2,0.2-3.4c0-0.1,0-0.1,0-0.2c-0.1,0.5-0.2,1-0.3,1.6
	C4.2,59.4,4.2,60.1,4.2,60.8z M4.3,55.9c0-0.2,0-0.3,0-0.5c-0.1-0.1-0.1-0.3-0.3-0.6c0.1,0.7,0.1,1.2,0.1,1.2
	C4.2,56.2,4.3,56,4.3,55.9z M6,81c0.1-0.2,0.1-0.4,0.2-0.6c0-0.2,0-0.4,0-0.5C6.1,80.1,6,80.3,6,80.5C6,80.7,6,80.9,6,81z M5,111.4
	c0,0.3-0.1,0.6-0.1,0.9c0,0.2,0.1,0.4,0.1,0.5c0-0.4,0.1-0.7,0.1-1.1C5.1,111.6,5.1,111.4,5,111.4z M4.8,100.7
	c-0.1,0.1-0.1,0.3-0.3,0.5c0.1,0.3,0.1,0.5,0.2,0.7C4.8,101.5,4.8,101.1,4.8,100.7z M3.9,146.2c0.2-1.2,0.3-2.4,0.5-3.5
	c0,0.2,0.1,0.4,0.1,0.6c0-1.3,0-2.4,0.3-2.7c0.1,0.3,0.3,0.7,0.4,1.1c0.1-0.9,0.2-1.6,0.3-2.3c0.1,0.2,0.2,0.3,0.4,0.4
	c0-0.5,0-0.9,0.1-1.4c-0.3-0.2-0.6-1.4-0.8-3.2c0.1-1.1,0.2-2.1,0.3-2.8c0.3-1.5,0.6-2.7,0.9-4.2c0.3,0.5,0.3,2.7,0.3,4.5
	c0.1,1,0.2,2,0.3,3c0.3-0.5,0.5-0.9,0.7-1.3c0.3,0.9,0.5,1.5,0.7,2.2c0.1-1.4,0.5-0.4,0.5-3c-0.1-0.3-0.2-0.7-0.4-1.2
	c-0.1,0.9-0.1,1.7-0.2,2.5c-0.2-1.2,0-3.1-0.3-3.5c-0.1,0.5-0.2,1.1-0.3,1.7c-0.2-1.5-0.5-2.8-0.6-3.9c0-1.3,0-2.2-0.1-3.1
	c-0.1-0.2-0.1-0.4-0.2-0.4c-0.3-0.4-0.6-0.7-0.9-1c-0.1-0.1-0.2,0.2-0.3,1.2c0.1,0.7,0.1,1.4,0.2,2c-0.3,2-0.5,2.9-0.8,3.3
	c-0.1,0.4-0.1,0.8-0.2,1.2c-0.1,0.4-0.1,0.8-0.2,1.2c0.4,1.9,0.4,2.6,0.1,4.3c-0.2-1.1-0.4-1.4-0.6-0.5c0,2,0.3,3.4,0.1,5.4
	c-0.1,0.3-0.2,0.7-0.3,0.9C3.7,145,3.8,145.9,3.9,146.2z M4,96.5c0,0,0,0.1,0,0.1c0,0,0,0,0,0.1C4,96.6,4,96.5,4,96.5z M5.7,73.7
	c0-0.5,0-0.9,0-1.4c0,0-0.1,0-0.1,0C5.6,72.8,5.6,73.3,5.7,73.7C5.6,73.7,5.7,73.7,5.7,73.7z M2.7,85.9C2.8,85,2.9,84.3,3,83.7
	c0.1-0.7,0.2-1.4,0.3-2.1c0.1,0,0.3,0,0.5,0c-0.1,0.8-0.1,1.4-0.2,1.9c0.1,2,0.2,3.9,0.2,5.9c0,0.1,0,0.3-0.1,0.7
	C3.4,88.7,3.1,87.4,2.7,85.9z M3.3,86c0,0.8,0,1.2,0.2,0.7c-0.1-0.5-0.1-0.9-0.1-1.2C3.3,85.7,3.3,85.9,3.3,86z M5,78.5
	c0-0.1,0-0.3,0-0.4c0,0.1,0,0.2-0.1,0.3c0,0.1,0,0.2,0,0.4C4.9,78.7,5,78.6,5,78.5z M3.3,71.6c-0.1-0.3-0.2-0.4-0.3-0.7
	c0,0.8,0.1,1.1,0.1,1.5C3.2,72.2,3.2,72.1,3.3,71.6z M5.9,80c-0.1-0.5-0.2-0.7-0.3-1.1c0,0.8,0,1.3,0,1.8C5.7,80.5,5.7,80.4,5.9,80z
	 M6.2,100.5c-0.4,0.4-0.7,2.5-1.1,4c0-0.3-0.1-0.7-0.2-1.3c0-0.5,0.1-1.1,0.1-1.7c-0.1-0.3-0.1-0.6-0.1-0.8c0-0.8,0-1.6,0-2.6
	c-0.2-0.2-0.4-0.5-0.6-0.8c0-0.9,0.1-1.7,0.1-2.7c0.3,0.6,0.5,1.2,0.8,1.8c0.1-0.6,0.2-1,0.3-1.6c0.2,0.6,0.4,1.1,0.6,1.9
	c0.1-0.1,0.2-0.4,0.4-0.8C6.3,97.8,6.2,99.2,6.2,100.5z M6,98c-0.1-0.1-0.1-0.2-0.2-0.3c0,0.2,0,0.5,0,0.7c0.1,0,0.1,0,0.2,0
	C6,98.2,6,98.1,6,98z M3.7,78.7c-0.2-1.5-0.4-2.4-0.7-1.4c0.1,1.1,0.2,2,0.3,3C3.5,79.7,3.6,79.2,3.7,78.7z M5.1,86.2
	c0.1-0.8,0.2-1.7,0.1-2.7C4.9,84.3,4.9,84.7,5.1,86.2z M18.9,12.2c0.1-0.2,0.2-0.3,0.3-0.4C19,10.7,19,10.7,18.9,12.2z M10.2,138.9
	c0.1,0.9,0.1,1.7,0.2,2.5c-0.5,2.1-0.8-0.5-1.3-1c0,0.7-0.1,1.4-0.2,2.2c-0.3,1.1-0.3-1.5-0.5-1.4c-0.1,0.6-0.3,1.2-0.4,1.7
	c-0.1,1,0.1,2.3-0.2,3c0-0.5,0-0.9-0.1-1.4c0-0.4,0-0.7-0.1-1.1c-0.2,0.9-0.1,2.1-0.1,3.3c-0.1,0.5-0.2,1.9-0.4,1.8
	c-0.1-1.5,0.1-1.8,0.2-3c-0.1-0.3-0.1-0.7-0.2-1c-0.1,0.9-0.1,1.6-0.2,2.2c-0.1,0.5-0.2,0.8-0.3,1.1c0,1.5,0.1,1.9,0.2,3
	c0.1-0.4,0.2-0.9,0.3-1.2c0.5-1.1,0.9-2.3,1.4-0.5c0.1,0.3,0.2,0.3,0.3,0.4c0.2,0.2,0.3,0.3,0.5,0.5c0.2,0.3,0.4,0.3,0.7-1.1
	c-0.4-0.9-0.7-1.8-1-2.7c0-1.1,0-1.9,0.1-2.8c0.1-0.4,0.3-0.6,0.3-0.8c0.3,0.7,0.5,1.4,0.8,2c0.2-1.2,0.5-0.2,0.6-2.6
	c-0.1-1.3-0.2-2.7-0.4-4.3C10.4,138.3,10.3,138.6,10.2,138.9z M13,46.5c0,0.4,0,0.8,0,1.2c0.1-0.2,0.2-0.4,0.4-0.7
	c0,0.7,0.1,1.4,0,1.8c-0.1,1-0.2,1.8-0.3,2.8c0,0.8,0.1,1.7,0.2,2.6c0-0.1,0.1-0.1,0.1-0.2c0-0.9,0-1.9,0-2.7c0.1-1,0.3-1.9,0.4-2.8
	c-0.1-1.1-0.2-1.9-0.2-2.7C13.3,44.8,13.2,45.7,13,46.5z M12.8,97.5c0.1,0.5,0.2,2.2,0.4,1.3c0.1-1.5-0.1-2.1-0.2-2.9
	c-0.3-0.4-0.5-0.8-0.7-1.1c0-0.1-0.1,0.1-0.2,0.3c0,0.8,0.1,1.5,0.1,2.1C12.4,97.3,12.6,97.4,12.8,97.5z M12,120.9
	c-0.3,1.1-0.5,2.4-0.6,5.2C12,125,12.2,123.3,12,120.9z M11.8,68.4c-0.1,0.2-0.1,0.4-0.1,0.6C11.8,69.4,11.8,69.4,11.8,68.4z
	 M12.2,83c0,0,0-0.1,0-0.2C12.2,82.8,12.2,82.9,12.2,83C12.2,82.9,12.2,83,12.2,83z M14.7,148.1c0.1,0.5,0.2,0.9,0.3,1.1
	c0.4-1.2,0.7-2.3,1.1-3.4c0.2,0.7,0.4,1.3,0.7,1.9c0-1.5,0-3,0-4.6c-0.1-0.3-0.1-0.6-0.2-1c0,0.9-0.1,1.6-0.1,2.1
	c-0.3,0-0.6,0-0.9,0c0,1-0.1,1.8-0.1,2.6c-0.1,0.2-0.2,0.5-0.2,0.7c-0.1-1-0.1-2.4-0.3-2.4C14.8,146,14.7,147,14.7,148.1z M15,89
	c0-0.1,0-0.1,0-0.2c0,0.1,0,0.2-0.1,0.3c0,0.1,0,0.2,0,0.2C14.9,89.2,14.9,89.1,15,89z M14.5,6.1l0,0.2l0,0L14.5,6.1z M13.5,42.9
	C13.5,42.9,13.5,42.9,13.5,42.9c-0.1,0.1-0.1,0.1-0.1,0.2c0,0,0,0,0.1,0C13.5,43,13.5,42.9,13.5,42.9z M14.2,45.6
	c0.1,0.5,0.2,0.9,0.3,1.6c0-1.4,0-2.4,0-3.9C14.4,44.2,14.3,44.7,14.2,45.6z M8.1,99.1c0.2,0.1,0.3-0.7,0.4-1.7c0-0.9,0-1.7-0.2-1.7
	c-0.1,0.7-0.1,1.4-0.2,2.2c-0.3-0.1-0.5-0.3-0.8-0.4c-0.1,1.1-0.1,1.1-0.1,2.8C7.5,99.3,7.8,98.9,8.1,99.1z M8.3,93.3
	c0,0.2,0,0.2,0,0.3c0,0,0,0,0-0.1c0-0.4,0-0.9,0.1-1.3c0-0.1,0-0.1-0.1-0.1C8.4,92.4,8.4,92.9,8.3,93.3z M8.4,53.8
	c0-0.2,0-0.5,0-0.7c-0.1,0.1-0.2,0.2-0.4,0.4c0,0.9,0,1.5,0.1,2.7C8.2,55.2,8.3,54.5,8.4,53.8z M10.5,103.9c0-0.6-0.1-1-0.1-1.5
	C10.3,103.8,10.3,103.8,10.5,103.9z M7.4,120.6c-0.2,0.3-0.4,0.2-0.6,1.9c0.1,0.4,0.1,0.9,0.2,1.4C7.2,122.9,7.4,122.4,7.4,120.6z
	 M7.6,92.6c0.1-0.6,0.1-1.3,0-2.2c-0.1,0.6-0.2,1.2-0.4,1.9C7.4,93.2,7.5,93.4,7.6,92.6z M7.7,47.6c-0.1,0-0.2,0-0.3,0
	c0.1,0.7,0.1,1,0.2,1.7C7.7,48.6,7.7,48.3,7.7,47.6z M10,65.3c0.3-0.6,0.3-0.9,0.3-1.7c0-0.1,0-0.3-0.1-0.6C10,64.2,10,64.2,10,65.3
	z M10.7,127.3c0-0.1,0-0.2,0-0.3c-0.1-0.9-0.1-1.8-0.2-3.1c-0.1,0.8-0.1,1.2-0.2,1.7C10.5,126.2,10.6,126.8,10.7,127.3z M10.5,134.8
	c0.1,0.3,0.1,0.6,0.2,0.8c0,0.1,0-0.3,0.1-0.7c-0.1-0.2-0.2-0.4-0.3-0.6C10.6,134.4,10.6,134.6,10.5,134.8z M10.3,56.9
	c0-0.3,0-0.6,0-0.9c0,0,0,0.1-0.1,0.1c0,0.3,0,0.6,0,0.9C10.2,57,10.2,56.9,10.3,56.9z M15.4,103.1l0-0.2l0,0.1L15.4,103.1z
	 M0.8,111.7l0-0.2h0L0.8,111.7z M0.9,130.6c0,0,0.1-0.1,0.1-0.2c0-0.1,0-0.2,0-0.2c0,0.1,0,0.1-0.1,0.2
	C0.9,130.4,0.9,130.6,0.9,130.6z M1,114.2C1,114.2,1,114.2,1,114.2C1,114.3,1,114.2,1,114.2C1.1,114.2,1.1,114.2,1,114.2
	C1.1,114.2,1,114.2,1,114.2z M0.9,137.2c0,0.1,0,0.1,0.1,0.2c0-0.4,0.1-0.7,0.1-1.1c0-0.1-0.1-0.2-0.1-0.4
	C1,136.4,0.9,136.8,0.9,137.2z M2.7,206.7c-0.5,1.9-0.5,1.9-0.4,3.8C2.5,209.5,2.7,209.3,2.7,206.7z M0.9,114.8
	c0.1,0.5,0.2,0.3,0.2-0.5C1,114.4,0.9,114.6,0.9,114.8z M1.4,111.4c0,0.3,0,0.7,0,1c0,0,0,0,0.1-0.1C1.5,112,1.5,111.7,1.4,111.4
	C1.5,111.4,1.5,111.4,1.4,111.4z M1.8,115.5c0,0,0.1,0.2,0.1,0.2c0-0.2,0-0.5,0.1-0.7c0-0.1-0.1-0.2-0.1-0.3
	C1.8,114.9,1.8,115.2,1.8,115.5z M1.9,106.8c0,0.5-0.1,1.1-0.1,2.1c0.2-0.3,0.4-0.5,0.6-0.7C2.3,106.7,2.3,106.7,1.9,106.8z
	 M0.4,126.5c0.1,0.5,0.2,0.8,0.4-0.2c-0.1-0.4-0.2-0.7-0.3-1.1C0.5,125.8,0.5,126.1,0.4,126.5z M1.1,108c0.1,0.4,0.1,0.8,0.2,1.1
	c0-0.2,0-0.3,0-0.4c-0.1-0.4-0.1-0.7-0.2-1.1C1.1,107.8,1.1,107.9,1.1,108z M0.6,99.7c0.1,0.4,0.1,0.8,0.2,1.2
	c0.1-0.8,0.3-1.5,0.4-2.6c0,1.1,0,1.8,0,2.4c0,0.2,0.1,0.4,0.1,0.5c0.1-0.6,0.2-1.1,0.3-1.8c-0.1-1.2-0.2-2-0.3-2.7
	C1,97.4,0.8,97.7,0.6,99.7z M0,131.5c0.1,0.6,0.2,1.1,0.4,1.7c0-1.2,0-2.2-0.2-2.6C0.1,130.4,0,130.6,0,131.5z M0,102
	C0,101.9,0,101.9,0,102C0,101.9,0,102,0,102c0,0.1,0,0.2,0,0.2C0,102.1,0,102.1,0,102z M11.6,205.4c-0.1-0.7-0.2-0.6-0.4,0.6
	C11.4,206.7,11.5,206.5,11.6,205.4z M13.4,224.1c0,0.2,0,0.4,0,0.6c0.1,0.5,0.2,1.1,0.4,1.5c0.3-1.5,0.3-1.4,0.8-1.3
	c0.1,0,0.2,0,0.3-0.1c0.5-0.4,1,0,1.4,1.7c0.1-0.4,0.2-0.7,0.3-1.2c0.2,1.1,0.4,2.1,0.5,3.3c0.2,1.3,0.3,2.8,0.5,4.5
	c0.1-0.3,0.2-0.7,0.3-1.2c-0.2-0.7-0.3-1.1-0.4-1.6c0-1,0-1.9,0-2.6c-0.1-0.9-0.3-1.8-0.4-2.7c0-1.3,0-2.7-0.2-3.7
	c-0.1-0.1-0.2-0.2-0.4-0.4c-0.5,2.7-1.1,2.3-1.8,2.6C14.3,222.6,13.8,223.2,13.4,224.1z M19.3,262.4c0.1,0.9,0.2,1.7,0.2,2.3
	c0.3-0.3,0.3-0.3,0.5-1.9C19.8,262.8,19.6,261.6,19.3,262.4z M21.5,208.2c0-0.9,0.1-1.7,0.1-2.8c-0.1,0-0.2,0-0.3,0
	C21.2,206.7,21.2,207.8,21.5,208.2z M19.6,278C19.6,278,19.6,278,19.6,278c0,0.2,0,0.3,0,1C19.6,278.4,19.6,278.2,19.6,278z
	 M19.7,299.1L19.7,299.1L19.7,299.1L19.7,299.1z M18.4,207.3c0,0.6,0,1.1,0,1.5c0.2-0.9,0.5-1.7,0.7-2.7c-0.1-0.5-0.1-1.1-0.2-1.2
	C18.8,204.6,18.6,206.4,18.4,207.3z M18.3,205.8c-0.1,0.4-0.3,0.4-0.4,0.9c-0.2,1.2-0.4,1.7-0.7,2c-0.1,0.1-0.1,0.3-0.2,0.5
	c0,1.1-0.2,2.1,0,3.2c0.6-3,0.8-3.5,1-2.7c0,0.7,0,3.1,0,3.4c0.4,0,0.4-0.1,0.9-2.3c-0.2-0.4-0.4-0.2-0.4-2
	c-0.1-0.1-0.1-0.2-0.2-0.3C18.3,207.7,18.3,207,18.3,205.8z M21.3,213.6c0.1,0.2,0.1,0.5,0.2,0.8c0-0.5,0-0.8,0.1-1.4
	c-0.1,0-0.2,0-0.2,0C21.3,213.2,21.3,213.4,21.3,213.6z M19.8,274.1c0-0.2,0-0.5,0.1-0.7c0-0.1-0.1-0.2-0.1-0.4c0,0.3,0,0.6,0,0.8
	C19.8,274,19.8,274,19.8,274.1z M21.3,298.6c0,0,0,0.2,0,0.2C21.3,298.8,21.3,298.7,21.3,298.6c0.1-0.2,0-0.3,0-0.4
	C21.3,298.4,21.3,298.5,21.3,298.6z M18.5,208.9C18.5,208.9,18.5,208.9,18.5,208.9C18.5,208.9,18.5,208.8,18.5,208.9
	C18.5,208.8,18.5,208.8,18.5,208.9L18.5,208.9z M19.4,285.4c0-0.1,0-0.2,0-0.3c0,0,0-0.1,0-0.1C19.5,285.1,19.4,285.3,19.4,285.4
	C19.4,285.4,19.4,285.4,19.4,285.4z M21,277.5c-0.1,0.3-0.1,0.7-0.2,1c0,0.2,0.1,0.5,0.1,0.8c0-0.4,0.1-0.8,0.1-1.3
	C21,277.8,21,277.7,21,277.5z M20.8,392.8c0,0,0-0.1,0-0.1c0-0.1,0-0.1,0-0.2c0,0,0,0,0,0C20.8,392.6,20.8,392.7,20.8,392.8z
	 M20,266.6c-0.4,0.3-0.4,0.3-0.5,2.2c0.1-0.1,0.3-0.2,0.4-0.2C19.9,267.8,20,267.3,20,266.6z M15.5,92.6c0-0.1,0-0.1-0.1-0.2
	c0,0.2,0,0.5,0,0.8c0,0.1,0,0.1,0.1,0.2C15.4,93.1,15.5,92.9,15.5,92.6z M21.5,362.6c0,0-0.1,0-0.1,0c0,0.1,0,0.2,0,0.3
	c0,0,0.1,0,0.1,0C21.5,362.7,21.5,362.7,21.5,362.6z M20.9,302.3c0,0.1,0,0.4,0,0.4c0,0,0-0.1,0.1-0.1c0-0.2,0-0.4,0-0.5
	C20.9,302.1,20.9,302.2,20.9,302.3z M20.7,303.9c-0.1,0-0.1,0-0.1,0.1c0,0.2,0,0.4,0,0.5C20.6,304.4,20.6,304.3,20.7,303.9z
	 M20.4,333c0,0.1,0,0.1,0,0.2c0-0.1,0-0.1,0-0.1C20.4,333,20.4,332.9,20.4,333C20.4,332.9,20.4,332.9,20.4,333z M22.3,253.4
	c-0.1,0-0.2,0-0.3,0c0-0.6-0.1-1.1-0.2-1.8c-0.2-0.7-0.5-1.2-0.8-2.1c-0.2-0.9-0.4-2.3-0.7-2.1c0.1,0.7,0.2,1.3,0.3,2.1
	c0,0.7,0,1.5,0,1.9c0.2,2.1,0.4,4,0.6,5.9c0.3-0.2,0.5,0,0.7-0.7c0.2-0.7,0.5,0.8,0.6-1.1C22.5,254.8,22.4,254.1,22.3,253.4z
	 M22.1,262c0,0,0,0.1,0,0.2c0,0.1,0,0.1,0,0.2c0-0.1,0-0.2,0-0.3C22.1,262.1,22.1,262,22.1,262z M11.7,304.5
	c0.1-0.8,0.2-1.5,0.4-2.1c0.1,0.3,0.2,0.6,0.3,0.9c0-1.7-0.1-3.1-0.4-3.7C12,301.4,11.6,302.2,11.7,304.5z M12.4,287.6
	c0,0.1,0,0.2,0.1,0.2c0-0.1,0-0.3,0-0.4c0-0.1,0-0.2-0.1-0.2C12.4,287.2,12.4,287.4,12.4,287.6z M9.9,262.7c0.5-0.8,0.9-2.4,1.3-0.4
	c0.1-0.2,0.3-1.3,0.4,0c0,0.6,0,1.4,0,2.2c0.1,0.1,0.1,0.1,0.2,0.1c0.1-1.3,0.2-2.5,0.3-3.7c-0.2-1.6-0.4-2-0.6-1.6
	c-0.1,0.4-0.1,0.9-0.2,1.3c-0.4,0.5-0.5-1.7-0.7-2.9c-0.1,0.2-0.2,0.5-0.3,0.5c-0.1,0.1-0.2,0-0.3-0.1C10,259.7,9.9,261,9.9,262.7z
	 M9.9,222.5c0,1.9-0.3,2.9-0.2,5.1c0.2-0.9,0.4-1.8,0.6-3C10.2,223.8,10.1,223.3,9.9,222.5z M11.2,248.7c-0.3-1-0.4-1.1-0.7-0.3
	C10.8,249.8,11,249.8,11.2,248.7z M12.2,264.2c0,0.3,0,0.5,0,0.8c0.1,0,0.1-0.1,0.3-0.2c-0.1-0.5-0.1-0.8-0.2-0.8
	C12.2,264,12.2,264.1,12.2,264.2z M11.5,406.8c0.1,0.2,0.2,0.4,0.4,0.6c0.1-1,0.2-2.1,0.3-3.2c-0.3-1.4-0.5-0.4-0.7,0.2
	c-0.1-0.3-0.2-0.6-0.2-0.8c-0.1,0.3-0.2,0.6-0.3,0.9c-0.1-0.7-0.3-1.3-0.4-1.9c0-0.9,0-1.7,0-2.3c0,0,0,0-0.1-0.1
	c-0.3,2.3,0,4.5,0,6.7C10.8,408.9,11.1,407,11.5,406.8z M11.8,317.8c0.1-1.5,0.1-3,0-4.8C11.5,314.9,11.8,316.3,11.8,317.8z
	 M12.2,379.6C12.2,379.6,12.2,379.6,12.2,379.6c0-0.1,0,0.1,0,0.1c0,0.1,0,0.1,0,0.1C12.2,379.8,12.2,379.7,12.2,379.6z M10.6,574.3
	c-0.1,0.6-0.2,1.1-0.3,1.7c0,1,0.1,1.8,0.1,2.8C10.8,577.7,10.9,576.3,10.6,574.3z M11.3,401.1L11.3,401.1l0,0.2L11.3,401.1z
	 M19,294c0.3-0.8,0.3-2.3,0.1-3.8C19,291.5,19,292.8,19,294z M16.7,447.4c-0.1-0.1-0.3-0.3-0.4-0.5c0,1.4,0,2.5,0,3.9
	c0.2-0.2,0.3-0.3,0.4-0.4c-0.1,0.8-0.1,1.3-0.2,1.9c0.1,0.3,0.1,0.5,0.2,0.9c0.1-0.6,0.3-1.2,0.4-1.7
	C16.9,449.9,16.8,448.8,16.7,447.4z M15.4,633.7c0.2,1.3,0.2,1.3,0.5,1.5c-0.1-1.2-0.1-2-0.2-2.7C15.6,632.2,15.5,632.4,15.4,633.7z
	 M10.8,450.4c0-2-0.2-2.7-0.4-3.7c-0.1,0.6-0.2,1.1-0.3,1.6c0,0.7-0.1,1.4-0.1,2.6C10.3,450.9,10.5,452.4,10.8,450.4z M13.3,233.6
	c0.3-0.2,0.6-0.4,1-0.7c0-0.8,0-1.5,0.1-2.4c-0.1-0.1-0.2-0.2-0.3-0.3c-0.1-0.6-0.2-1.1-0.3-1.7c-0.2,1.8-0.5,1.3-0.6,3.8
	C13.2,232.9,13.3,233.3,13.3,233.6z M13.1,212c0.2-0.4,0.3,1.1,0.5,0.3c0-0.2,0-0.5,0-0.7c-0.2-0.2-0.3-0.3-0.5-0.5
	C13.1,211.4,13.1,211.7,13.1,212z M15.9,437.6c0-0.2-0.1-0.5-0.1-0.7c0,0.2,0,0.4-0.1,0.5c0,0.2,0.1,0.4,0.1,0.6
	C15.9,437.8,15.9,437.7,15.9,437.6z M9.9,363.4C9.9,363.4,9.9,363.3,9.9,363.4c-0.1,0.4-0.1,0.8-0.1,1.2c0,0,0.1,0,0.1,0.1
	C9.9,364.2,9.9,363.8,9.9,363.4z M10,411.1c0-0.2,0-0.5,0-0.7c0,0-0.1,0.1-0.1,0.1c0,0,0,0.4,0,0.4C9.9,411.1,9.9,411.1,10,411.1z
	 M16.2,382.1c-0.2-1.3-0.4-2.7-0.7-4.5c-0.1,1.4-0.1,2.6-0.2,3.3c-0.2,2-0.2,3.9,0,5.9c0.2,0.2,0.4,0.5,0.6,0.8
	c0.1-0.4,0.1-0.8,0.2-1C16.1,384.8,16.1,383.5,16.2,382.1z M13.3,641.6c0.2-1.7,0.3-3.3,0.4-4.8c-0.1-1.9-0.2-3.7-0.6-3.2
	c-0.1,1.7-0.2,3.4,0,5c0,0.8-0.1,1.4-0.1,2.2C13.1,641,13.2,641.3,13.3,641.6z M21.3,272.1c-0.1-0.6-0.1-1.2-0.2-2.1
	c-0.1,1.1-0.1,1.9-0.2,2.2c0.2,1.5,0.3,2.7,0.5,3.9c0.1-1.4,0.2-2.6,0.2-4C21.5,272.1,21.4,272.1,21.3,272.1z M16.5,155.7
	c-0.2-1.6-0.3-1.7-0.6-0.7C16.1,156.3,16.3,155.1,16.5,155.7z M16.3,173.7c0,0.1,0,0.2,0,0.3c0,0,0,0.1,0,0.1c0-0.1,0-0.2,0-0.3
	C16.3,173.7,16.3,173.7,16.3,173.7z M16.5,188.5c0-0.8-0.1-1.5-0.1-2.7c-0.1,0.5-0.2,0.8-0.4,1.4c0.2,0.8,0.3,1.3,0.4,1.8
	C16.4,188.9,16.4,188.7,16.5,188.5z M21.5,290.7c0-0.4-0.1-0.8-0.1-1.3c0,0.1,0,0.2-0.1,0.2c0,0.5,0,0.9,0.1,1.4
	C21.4,290.9,21.5,290.8,21.5,290.7z M15.9,159.9c-0.2,0.6-0.3,2.5-0.5,1.3c0-0.6,0-1.3,0-1.9c-0.3,0-0.2,1.7-0.3,2.9
	c0,0.6-0.2,0.3-0.2,1.6c0.5-0.2,0.5-0.2,0.9,1.1c0.1-0.5,0.3-1,0.5-1.7C16.1,161.9,16,160.9,15.9,159.9z M15.3,153.2L15.3,153.2
	C15.3,153.1,15.3,153.1,15.3,153.2C15.3,153.1,15.3,153.1,15.3,153.2C15.3,153.1,15.3,153.1,15.3,153.2l0,0.1L15.3,153.2z
	 M13.8,193.9c0-1.4,0-3.1,0.3-3.2c0.1,0.4,0.2,0.8,0.3,1.4c0.3-0.6,0.7-1.3,1-2.9c-0.1-0.8-0.2-1.3-0.3-1.9
	c-0.1,0.7-0.1,1.2-0.2,1.7c-0.3,0.3-0.5,0.5-0.7,0.8c0-1.1,0-2,0-2.9c-0.1-0.3-0.2-0.5-0.3-0.7c-0.1,0.7-0.1,1.3-0.2,1.9
	c-0.2-0.2-0.3-0.3-0.5-0.4c-0.1-1-0.1-1.9-0.2-2.8c0.1-0.4,0.2-0.7,0.3-1.2c0-0.6-0.1-1.1-0.1-1.5c-0.1,0.1-0.1,0.2-0.1,0.3
	c-0.1,0.8-0.2,1.6-0.3,2.4c0.2,2.8,0.2,3.7-0.2,5.5c-0.1,0-0.2,0-0.4,0c0,2,0.1,2.6,0.4,2.2c0.2-0.4,0.4-0.7,0.6-2
	c0.1-1,0.3-1.5,0.5-0.4c0,0.9,0,1.7-0.1,2.6C13.5,193.1,13.6,194.1,13.8,193.9z M10,211.5c-0.2-0.5-0.4-1.1-0.5-1.6
	c-0.2,0.4-0.3,0.7-0.5,1c-0.1-0.4-0.2-0.8-0.2-0.9c-0.4,0.4-0.7,0.7-1,0.9c0-0.1,0-0.3,0-0.4c-0.1,0.5-0.2,1-0.3,1.8
	c0.3,0.1,0.5,0.2,0.7,0.3c0.2-1.2,0.5-0.4,0.7,0.4c0.3-0.4,0.5-0.7,0.8-0.9c0.2,0.4,0.4,0.8,0.6,1.2c0.1-0.3,0.2-0.6,0.3-0.9
	c0.4,0.8,0.9,0,1.2,2.4c0.1-1.1,0.3-2.1,0.4-3.3c-0.2-0.7-0.4-1.2-0.6-1.8c-0.1,0.4-0.2,0.8-0.3,1.1c-0.4,0.1-0.8,0.2-1.2,0.3
	C10.1,211.2,10,211.4,10,211.5z M16.5,150.2c-0.1,0.1-0.2,0.1-0.3,0.2c0,0.2,0,0.5,0,0.7c0.1,0.5,0.1,1.1,0.2,1.6
	C16.5,152,16.6,151.5,16.5,150.2z M14.6,95c0,0.1,0,0.1,0.1,0.2c0-0.5,0.1-1,0.1-1.5c0-0.1,0-0.1-0.1-0.2C14.7,94,14.7,94.5,14.6,95
	z M14.9,179.1c-0.2,0.7-0.3,1.1-0.4,1.7c0.2,1.2,0.4,0.9,0.6,0.1c0-0.8,0-1.6,0.1-2.3c0-0.8,0.1-1.4,0.2-2.1c0-0.7,0.1-1.5,0-2.4
	c-0.1,0.4-0.2,0.9-0.3,1.3c-0.1,0-0.2,0-0.2,0c-0.1,0.9-0.2,1.8-0.3,2.7C14.7,178.4,14.8,178.7,14.9,179.1z M16.2,102.5
	c0.1-0.9,0.1-1.6,0.2-2.3C16,100.8,16,100.8,16.2,102.5z M16.1,106c0.3-1.4,0.3-1.4,0-2.4C16.1,104.6,16.1,104.6,16.1,106z
	 M16.2,117c0,0.1,0.1,0.2,0.1,0.3c0-0.4,0-0.8,0.1-1.3c0-0.1-0.1-0.2-0.1-0.3C16.3,116.2,16.3,116.6,16.2,117z M15.7,190.8
	c0,0.8,0,1.4,0,2.1c0.1-0.3,0.2-0.7,0.2-1.5C15.8,191.1,15.8,191,15.7,190.8z M16.2,95.1c0.2,0.5,0.3,0,0.5-1.3
	C16.4,93.5,16.3,93.3,16.2,95.1z M16.2,126.6c0-0.1,0-0.1,0.1-0.2c0-0.3,0-0.6,0-0.9c0,0.1-0.1,0.1-0.1,0.2
	C16.1,126,16.2,126.3,16.2,126.6z M10.4,202.9c0,0.2-0.1,0.4-0.1,0.5c0,0.2,0,0.3,0.1,0.5c0-0.2,0-0.5,0.1-0.7
	C10.5,203.1,10.5,202.9,10.4,202.9z M15.8,177.4c0,0.1,0,0.2,0,0.2c0,0.2,0,0.4,0.1,0.7c0-0.1,0-0.1,0-0.2
	C15.9,177.8,15.9,177.6,15.8,177.4z M16.7,147.8C16.7,147.8,16.7,147.8,16.7,147.8C16.7,147.9,16.7,147.9,16.7,147.8
	c0,0.1,0,0.1,0,0.1C16.7,147.9,16.7,147.8,16.7,147.8C16.7,147.8,16.7,147.8,16.7,147.8z M16.9,150c0-0.1,0-0.3,0-0.4
	c-0.1-0.6-0.2-1.1-0.2-1.7c0,0.6,0,1.2,0,2C16.8,149.9,16.8,150,16.9,150z M15.2,153c0,0,0.1,0.1,0.1,0.1c0-0.1-0.1-0.3-0.1-0.4
	C15.2,152.8,15.2,152.9,15.2,153z M21.1,228.1c0,0,0,0.1,0,0.1c0,0.2,0,0.4,0.1,0.6C21.2,228.6,21.2,228.4,21.1,228.1
	C21.1,228.2,21.1,228.2,21.1,228.1z M21.2,228.8c0,0.3,0,0.5,0.1,0.8l0,0c0,0,0,0,0,0c0,0,0,0,0,0C21.3,229.4,21.2,229.1,21.2,228.8
	z M21.3,229.7c0,0.6,0,1.1,0,1.6c-0.3,1.5-0.5-0.4-0.8-1.1c-0.1,1.3-0.1,2.5-0.2,4c-0.1,0.7-0.2,1.7-0.3,2.8c-0.4,0.6-0.8,1.3-1.2,2
	c0,0.1-0.1,0.7-0.1,0.7c-0.3,2.3-0.7,0.4-1.1,2.1c0.1,0.9,0.2,1.5,0.3,2.1c0.3-0.5,0.5-0.9,0.8-1.3c0.2-0.7,0.3-2.6,0.6-2.3
	c0.1,0.5,0.2,1.1,0.3,1.8c0.4-2.3,0.8,1.1,1.2,0.4c0.1,0.6,0.2,1.1,0.2,1.2c0.4,0,0.7,0,1,0c0.1-1.1,0.1-2.1,0-3.1
	c-0.1,0.4-0.2,0.8-0.3,1.1c0-0.1,0-0.3,0-0.4c-0.3-0.2-0.5-0.4-0.8-0.6c-0.2-0.4-0.3-0.7-0.5-1.1c-0.2-0.5-0.3-1-0.3-2.7
	c0.1-0.5,0.3-0.9,0.4-1.4c0.3-1.3,0.6-3,1-2c0.2-1.7,0-3,0-4.7C21.4,229.2,21.4,229.4,21.3,229.7z M19.7,58.6
	C19.7,58.6,19.7,58.7,19.7,58.6c-0.1,0.4,0,0.6,0,0.9c0,0,0,0,0,0C19.7,59.1,19.7,58.9,19.7,58.6z M19.2,210.7
	c0.2,0.6,0.5,1.2,0.7,1.8c0.1-0.4,0.2-0.8,0.3-1.3c0.2,1.6,0.6-1,0.9,1.6c-0.3,0.9-0.5,1.2-0.9,1.5c-0.1,0.7-0.2,1.5-0.3,2.6
	c0.1,0.8,0.1,1.6,0.2,2.1c0.2,1.6,0.7,2.8,0.9,2.9c0.2,0.7,0.4,1.3,0.5,1.9c-0.1,1.2-0.1,1.2-0.4,2.4c0,0.5,0,1.2,0,1.9
	c-0.2-1.6-0.4-3.3-0.6-5.1c-0.3-1.2-0.5,0.8-0.8,1.7c-0.3-0.8-0.3-0.8-0.5-3.3c0.1-0.1,0.2-0.1,0.3-0.2c0.3-1.3,0.2-3.4,0.2-5.5
	c-0.1-0.2-0.2-0.3-0.3-0.5c-0.1-0.7-0.1-2.4-0.3-1.9c-0.1,1.5-0.3,3-0.4,4.6c-0.3,0.4-0.5,0.7-0.8,1.2c-0.1,0.3-0.3,0.9-0.4,1.2
	c0,2.9,0,3.4,0.4,3.9c0.2,0.3,0.3,0.6,0.5,0.8c0.2,0.3,0.2,0.1,0.3-1.8c-0.1-0.5-0.2-0.9-0.3-1.7c0.1-0.9,0.2-1.7,0.4-2.7
	c0.1,0.4,0.1,0.7,0.2,1.1c-0.1,0.7-0.1,1.3-0.2,1.8c0,2,0.2,2.3,0.4,3.1c0,0.7,0.1,1.5,0.2,2.5c0.1,0.4,0.2,0.9,0.4,1.4
	c0.1,0.8,0.2,1.7,0.3,2.7c-0.1,1-0.3,2-0.4,3.1c-0.2-0.2-0.5-0.4-0.7,1c-0.3,0.1-0.5,0.2-0.8,0.4c0.2-1.2,0.4-2.2,0.5-3.2
	c-0.1-0.8-0.1-1.4-0.1-1.9c-0.3,0-0.5,0-0.7,0c0-2.4,0.3-1.8,0.4-2.7c-0.4-2.1-0.9-2.4-1.2-5.5c0.1-0.6,0.2-1.1,0.3-1.7
	c0-0.8,0.1-1.7,0.1-2.9c0.2-0.6,0.5-1.3,0.7-2c0,0.1,0,0.2,0,0.3c0.1-0.5,0.2-0.9,0.2-1.4c0.1,0.2,0.2,0.4,0.3,0.5
	C19.2,214.5,19.1,212.2,19.2,210.7z M18.6,227.7c0.1,0.8,0.1,1.4,0.1,1.9c0.2,0,0.3-0.7,0.2-2.7C18.8,227.2,18.7,227.4,18.6,227.7z
	 M10.9,202.5c0,0.1,0,0.2,0,0.3c0,0,0,0.2,0,0.2c0-0.1,0-0.1,0-0.2C10.9,202.7,10.9,202.6,10.9,202.5z M21.8,282.6
	c0.1-0.6,0.2-1.1,0.4-1.7c-0.1-0.6-0.1-1.1-0.2-1.6C21.8,280.2,21.7,281,21.8,282.6z M19.4,209.2c1-0.9,1.4-1.9,1.7-4.4
	c-0.2-1-0.4-2.1-0.7-3.2c-0.1,0.2-0.2,0.3-0.4,0.6c0.1,1.1,0.1,1.9,0.2,2.6c-0.2,1.9-0.5,2.2-0.8,2.9
	C19.4,208.2,19.4,208.6,19.4,209.2z M21.9,208.8c-0.1-0.1-0.2-0.2-0.3-0.4c0,0.8,0,1.2,0.1,1.7c0.1-0.2,0.2-0.5,0.3-0.7
	C21.9,209.2,21.9,209,21.9,208.8z M22.2,216.3c0.3-0.3,0.5-0.5,0.8-0.8c0-0.1,0.1-0.5,0.2-0.9c0-0.1,0-0.4,0.1-0.9
	c-0.2-0.9-0.4-1.8-0.7-2.8c0,1.1,0,1.9,0,2.8c-0.2,0.4-0.4,0.8-0.6,1.2C22.1,215.6,22.2,216.1,22.2,216.3z M22.5,204.1
	c-0.3-0.5-0.3-0.5-0.5,0.6c0.1,0.2,0.3,0.5,0.4,0.7c0-0.3,0.1-0.4,0.1-0.6C22.5,204.6,22.5,204.4,22.5,204.1z M22.5,267.7
	c-0.1-1.4-0.2-2.5-0.2-3.6c-0.2-0.5-0.4-1.1-0.5-1.6c-0.1,0.1-0.2,0.2-0.2,0.3c-0.3-1.2-0.6-2.1-0.9-1.6c0,1.4-0.1,2.6-0.1,3.8
	c0.1,0.6,0.2,1.2,0.3,1.7c0.3-1.1,0.5-4.4,1-2.6c0.1,1.2,0.2,2.1,0.4,3.2c0,0.5,0,1.1,0,2.4C22.3,268.8,22.4,268.2,22.5,267.7z
	 M19.8,4.1c-0.2-1.1-0.3-0.2-0.4,0.4C19.6,4.6,19.7,4.8,19.8,4.1z M19.2,3.8C19.2,3.8,19.2,3.8,19.2,3.8L19.2,3.8z M12.3,205.4
	c0,0.1,0,0.2,0,0.3c0,0.1,0,0.1,0,0.1c0-0.1,0-0.2,0-0.3C12.4,205.4,12.4,205.4,12.3,205.4z M12.2,426.5c0,0.8-0.1,1.5-0.2,2.8
	C12.3,428.2,12.3,428.2,12.2,426.5z M11.9,219.6c0.1,0.2,0.2,0.5,0.3,0.4c0.1,0,0.1-0.5,0.2-0.9C12.2,218.1,12,218.8,11.9,219.6z
	 M12.5,247.8c0.2,0.5,0.4,0.8,0.6,1.2c0.3,0,0.7,0,1,0c0.1,0.7,0.1,1.4,0.2,2c0.2,0.5,0.4,1.1,0.6,1.7c0.1-1,0.2-1.9,0.3-2.7
	c0.1-0.8,0.2-1.6,0.3-2.7c-0.1-0.7-0.2-1.2-0.4-1.8c0-0.7-0.1-1.4-0.2-2.5c-0.1,0.9-0.2,1.5-0.2,2c-0.2,0.3-0.4,0.7-0.6,0.9
	c-0.2-0.4-0.4-0.7-0.7-1.2c0-0.3-0.2-0.9-0.3-1.6c0-0.4,0-0.8,0.1-1.2c0-0.4,0-0.8,0.1-1.5c-0.1-0.8-0.3-1.7-0.4-2.6
	c0.2-1.2,0.3,0.2,0.5,0.7c0.1,0,0.2,0,0.2,0c0.3,0.5,0.5,0.8,0.8,1.3c0,0.1,0.1,0.5,0.2,1c0.2,0,0.4,0,0.6,0c0-0.6,0.1-1.2,0.1-1.8
	c-0.2-1.2-0.4-2.3-0.6-3.6c0.1-0.4,0.2-0.8,0.3-1.3c0-1-0.1-1.9-0.1-3.4c0.2,0.6,0.3,1,0.4,1.6c0.1-0.4,0.3-0.8,0.4-1.2
	c0.1,0.3,0.2,0.6,0.3,1c0.2-0.4,0.4-0.8,0.5-1.2c0.1,1.4,0.2,2.7,0.3,4.3c-0.1,0.5-0.2,1.3-0.3,2c0,2.1,0.2,1.4,0.4,2.1
	c0,0.4,0.1,1,0.1,1.4c-0.1,2.1-0.7,2.9-1.2,1.7c-0.4,2.6-0.4,2.6-0.4,4.4c0.3,0.5,0.7,0.1,1-0.5c0.2-0.4,0.4-0.2,0.6-0.3
	c0.2-0.1,0.4-0.2,0.6-0.5c0.2,0.4,0.3,0.8,0.5,1.2c0.1-0.2,0.2-0.4,0.3-0.6c0.2,0.4,0.3,0.8,0.6,1.3c-0.2,1.6-0.6,0.4-0.6,3.3
	c0.2,2.2,0.5-0.1,0.7-0.4c0.1,0.8,0.2,1.6,0.3,2.6c0.1,0.2,0.1,0.4,0.2,0.8c-0.1,1.3-0.2,2.6-0.4,3.2c-0.2-1.4,0.1-1.8,0.1-3.4
	c-0.1-0.2-0.2-0.5-0.3-0.9c-0.1,1.2-0.2,2.1-0.3,2.8c-0.3-0.9-0.6-1.6-0.9-2.5c-0.2,1.5-0.5,2.9-0.7,4.5c-0.2,0.4-0.4,1.2-0.7-0.5
	c0.2-1.5,0.5-3,0.7-4.4c0.2-0.1,0.4-0.2,0.7-0.4c0.1-0.1,0.1-0.5,0.1-0.8c0-0.1,0-0.5,0-0.9c-0.1,0-0.2,0-0.3,0
	c-0.1-1-0.2-1.9-0.3-2.9c-0.1,0.6-0.2,1.1-0.4,1.7c-0.1-0.2-0.2-0.5-0.3-0.8c-0.1,0.9-0.2,1.8-0.3,3c-0.1-0.7-0.2-1.3-0.4-2.1
	c-0.1,0.6-0.2,1.2-0.3,1.8c-0.1,0.2-0.2,0.5-0.3,0.7c-0.1,0.8-0.2,1.6-0.3,2.5c-0.1,0.2-0.2,0.5-0.3,0.8c0,1.4-0.2,2.2-0.3,2.4
	c-0.3,0.4-0.6,0.6-0.9,0.4c0.1-0.5,0.2-1.1,0.3-1.8c-0.1-0.8-0.1-1.6-0.2-2.1c-0.3-0.5-0.4,1.2-0.5,2.7c-0.1-0.3-0.3-0.6-0.5-1
	c0.1-1.5,0.1-2.8,0.2-4.3c-0.4-0.8-0.7,1.8-1.1,0c0-0.6-0.1-1.2-0.2-2.1c0.1-0.1,0.2-0.2,0.3-0.2c0.2-0.9,0.3-1.8,0.5-2.7
	C12.4,247.1,12.5,247.6,12.5,247.8z M14.2,240.9c-0.4-0.7-0.4-0.6-0.5,1.9c0.2,0.1,0.3,0.2,0.4,0.3
	C14.2,242.2,14.2,241.5,14.2,240.9z M15.7,239.9c0.5-1,0.6-1.4,0.6-3.7c-0.6-1-0.7-0.8-0.9,1.7C15.5,238.5,15.6,239.2,15.7,239.9z
	 M15.3,212.4c0.1-1.1,0.3-2.1,0.4-3.4c0.1,1,0.2,1.7,0.3,2.7c0.1,0.4,0.2,0.8,0.4,1.4c0.2-1.4,0.3-2.6,0.4-3.7
	c-0.1-2.4-0.4-2.4-0.7-2.8c-0.2,0.6-0.3,1.2-0.4,1.7c-0.2-0.2-0.3-0.4-0.5-0.5c-0.1,1.9-0.5,2.2-0.5,4.4
	C14.9,213,15.1,212.6,15.3,212.4z M14.9,205.5c0.1-0.3,0.2-0.6,0.3-0.9C15,203.6,14.9,203.7,14.9,205.5z M14.1,220.1
	c0.1-0.4,0.2-0.8,0.3-1c0.4-0.3,0.9,1.8,1.2-1.8c0.2,1,0.4,2,0.6,2.9c0.2-0.9,0.3-1.7,0.5-2.6c0.2,0.8,0.3,1.4,0.4,2
	c0.1-0.4,0.2-0.8,0.4-1.3c0-1.4-0.1-2.5-0.1-3.9c-0.2,0.6-0.3,1-0.3,1.2c-0.6,0-1.1,0-1.5,0c0,0.2,0,0.4,0,0.5
	c-0.2,0.5-0.5,1.1-0.7,1.7c0,0,0-0.1,0-0.1c-0.2,0.4-0.5,0.7-0.7,1.2C14,219.4,14.1,219.7,14.1,220.1z M12.8,242.2
	c0,0.1-0.1,0.2-0.1,0.2c0,0.1,0,0.3,0,0.4c0-0.1,0.1-0.1,0.1-0.2C12.8,242.4,12.8,242.2,12.8,242.2z M16.5,612.7
	c0,0.6,0.1,1.3,0.3,1.2c-0.1-0.7-0.1-1.2-0.2-1.6C16.5,612.4,16.5,612.5,16.5,612.7z M16,56c0-1.2,0-2.3,0-3.2
	c-0.2,0.5-0.4,0.9-0.6,1.5c0.1,0.5,0.3,1,0.4,1.5c0,0.4,0,0.9,0,1.3C15.8,56.7,15.9,56.3,16,56z M16.6,36.3c-0.1-0.8-0.2-2-0.4-1.8
	c0,0.9,0.1,1.6,0.1,2.3c0,0.7-0.1,1.3-0.1,2c0,0,0,0.1,0,0.1C16.4,38.1,16.5,37.3,16.6,36.3z M15.4,24.2
	C15.4,24.1,15.4,24.1,15.4,24.2C15.4,24.1,15.3,24.2,15.4,24.2c0,0.1,0,0.2,0,0.2C15.4,24.3,15.4,24.2,15.4,24.2z M16.3,23.5
	c0,0.9,0,1.6,0.1,1.8C16.5,24.3,16.5,23.8,16.3,23.5z M16.3,58.9l0-0.2L16.3,58.9L16.3,58.9z M16.5,6.3c-0.1-0.9-0.3-1.8-0.4-2.9
	c0,2.1,0.1,3.1,0.2,4.7C16.4,7.4,16.5,6.9,16.5,6.3z M15.8,15.2c0.2,1.5,0.3-0.5,0.5-0.2c0.3,0.4,0,2.1,0.1,3c0.1-1,0.1-1.8,0.2-3
	C16.4,13.7,16.2,14.5,15.8,15.2z M16.2,0.7c0,0,0-0.1,0-0.2c0,0,0,0,0,0.1c0,0,0,0.1,0,0.2C16.2,0.8,16.2,0.8,16.2,0.7z M16.5,27.3
	c-0.1,0.1-0.1,0.2-0.2,0.3c0,0.8,0.1,1.6,0.1,2.3c0,0.5-0.1,0.9-0.1,0.9c0.2,1.7,0.3,3,0.5,4.3C16.9,31.9,16.5,30.1,16.5,27.3z
	 M15.4,43.7c0.1,1.7,0.2,3.3,0.3,5.4c0,0.2,0,0.9,0,1.7c0.1-1.5,0.1-4.2,0-5.9C15.6,44.1,15.6,43.5,15.4,43.7z M15.4,6.5
	c0.2,0.8,0.4,1.4,0.5,2C15.8,6.9,15.6,6.2,15.4,6.5z M15.1,14.7c0-0.1,0-0.1,0.1-0.2c0-0.2,0-0.5-0.1-0.7
	C15.1,14.1,15.1,14.4,15.1,14.7z M15.1,13.8l0-0.1c0,0,0,0,0,0L15.1,13.8z M15.7,57.2C15.7,57.2,15.7,57.2,15.7,57.2
	c0-0.1,0-0.1,0-0.2c0,0,0,0,0,0.1C15.7,57.2,15.7,57.2,15.7,57.2z M15.4,60.1c0.3-0.6,0.3-0.7,0.3-2.8c-0.1,0.2-0.2,0.3-0.3,0.6
	C15.5,58.5,15.5,59.2,15.4,60.1z M15.9,10.8c0,0-0.1-0.1-0.1-0.1c0,0.2,0,0.3,0,0.5c0,0.1,0.1,0.2,0.2,0.3
	C15.9,11.2,15.9,11,15.9,10.8z M15.5,21.7c0.1-0.8,0.2-1.6,0.3-2.8c-0.2-0.3-0.2-0.5-0.3-0.7C15.4,19.5,15.4,20.6,15.5,21.7z
	 M15.1,13.7C15.1,13.8,15.1,13.8,15.1,13.7C15.1,13.8,15.1,13.8,15.1,13.7L15.1,13.7z M22.9,233.8c-0.1,0.1-0.1,0.1-0.2,0.2
	C22.8,234.8,22.8,234.8,22.9,233.8z M23,229.4c-0.1,1.4-0.1,2.5,0,4c0.1-0.2,0.2-0.3,0.3-0.5C23.3,231,23.2,230.2,23,229.4z
	 M17.3,112.9C17.3,112.9,17.3,112.9,17.3,112.9c0-0.2,0-0.5,0-0.7c0,0,0,0,0,0C17.3,112.5,17.3,112.7,17.3,112.9z M17.3,122.9
	c0-0.2,0.1-0.4,0.1-0.5c0-0.1,0-0.3,0-0.4c0,0.2-0.1,0.4-0.1,0.5C17.3,122.6,17.3,122.8,17.3,122.9z M12.1,621.1c0,0.1,0,0.3,0,0.4
	c0-0.1,0.1-0.2,0.1-0.2c0-0.2,0-0.5,0-0.7C12.2,620.7,12.1,620.9,12.1,621.1z M26.3,0c0,150.7,0,301.4,0,452.1
	c-0.2,0.2-0.2-1.3-0.3-1.8c0-2.8,0-5.3,0-7.9c-0.1-3.5-0.1-7.4,0.2-10.6c-0.1-2.6-0.5-4.6-0.3-7.8c-0.1-0.7-0.3-1.5-0.4-2.3
	c0-0.5-0.1-1.3-0.1-2.2c-0.3-1.1-0.4-3.1-0.4-5.5c-0.1-0.5-0.2-1-0.3-1.6c0-1.5-0.1-3.2-0.1-5.4c0-0.2-0.1-0.8-0.2-1.4
	c0-1.5,0.1-3,0.1-4.8c-0.2-1.2-0.3-2.3-0.5-3.6c0-0.6,0-1.4,0-2.6c-0.1-0.8-0.2-1.9-0.4-3.2c0-0.4,0-1.1-0.1-1.8
	c-0.3-1.5-0.5-2.9-0.8-4.4c0-0.8,0.1-1.5,0.1-2.3c-0.1-1.1-0.1-2.2-0.2-2.8c0.1-2.1,0.1-3.8,0.2-5.4c0.1-1.6,0.2-3.1,0.2-4.9
	c0-1.2,0.1-2.4,0-3.7c0-0.7,0-1.5,0.1-2.5c-0.1-1-0.1-2.1-0.2-3.5c0-0.4,0.1-0.9,0.2-1.6c0.4,2.9,0.5,7.7,1.1,10.1
	c0.1-4,0-7.4-0.1-11.1c0.2-1.5,0.3-3.5,0.3-5.8c0-0.5,0.1-1.2,0.1-1.7c0-0.7,0.1-1.4,0.1-1.7c-0.2-3.1-0.3-5.8-0.4-8.7
	c-0.2-1.5-0.3-3.7-0.3-6.5c-0.1-0.4-0.2-0.8-0.3-1.1c0-1.4,0-2.5,0.1-3.7c-0.2-1.5-0.4-3.1-0.5-4.8c0,0,0-0.1,0-0.1
	c-0.1-2-0.3-4-0.4-6.3c0-1.1,0-2.6,0-4.1c-0.1-0.8-0.2-1.5-0.2-2c-0.1-2.6-0.2-5.1-0.3-7.5c0.1-1.6,0.4-2.6,0.3-5
	c-0.1-0.1-0.2-0.3-0.4-0.5c0-1.3-0.1-2.7-0.1-4.1c0.3-1.9,0.5-4.2,0.5-7.2c0-0.7-0.1-1.4-0.2-2.2c0.1-1.1,0.3-0.3,0.4-0.5
	c0.1-0.2,0.3-0.5,0.4-0.8c0,0.2,0.1,0.5,0.2,0.8c0.3-0.4,0.4-1.4,0.4-3.3c-0.1-2.4-0.4-2-0.7-2.4c-0.1-0.8-0.1-1.6-0.2-2.5
	c0.1-0.7,0.2-1.3,0.3-2.2c0-0.3-0.1-0.5-0.1-0.6c-0.2-0.3-0.4,1.3-0.6,0c0.1-1.2,0-3,0.3-3.3c0.3,1.1,0.5,4.2,1,4.2c0-1.2,0-2.1,0-3
	c-0.2-1.4-0.3-2.7-0.5-4.2c0-1.2,0-2.6-0.1-4c0.2-1.3,0.4-1.9,0.5-3.8c-0.1-1.1-0.3-2-0.4-3.3c-0.2-0.1-0.4,0.2-0.6-1.5
	c0.1-2.1,0.4-2.6,0.6-4.1c0-0.8,0-1.7,0-2.5c0.1-0.9,0.3-1,0.3-2.7c-0.1-0.9-0.2-0.8-0.4-0.1c-0.1,0.7-0.3,1.4-0.5,2.3
	c0-0.9-0.1-1.6-0.1-2.3c-0.1-0.4-0.2-0.8-0.3-1.2c0.4,0.3,0.7-0.5,0.9-2.8c-0.1-0.8-0.2-1.5-0.3-2.2c0.1-1.7,0.4-0.1,0.5-1.4
	c0-0.4-0.1-0.9-0.1-1.3c-0.1-0.4-0.1-0.7-0.3-1.3c0.2-0.6,0.2-0.8,0.3-1.1c0-0.5,0.1-1.1,0.1-1.7c0.1-0.2,0.2-0.5,0.4-0.8
	c0-1.4,0-2.6-0.1-3.5c-0.2-2-0.4-2.3-0.6-2.6c0-1.3,0.1-1.4,0.2-1.8c0.1-0.3,0.2-0.7,0.3-1.3c-0.1-1-0.2-1.7-0.3-2.2
	c-0.3,0-0.4,2.4-0.7,1.3c0.1-0.8,0.1-1.5,0.2-2.3c0.1,0,0.3,0,0.4,0c0.1-1.4,0.2-2.8,0.2-3.9c0.2-1.2,0.4-2.2,0.6-3.4
	c0-0.8,0-1.5-0.2-1.8c-0.1,0.2-0.2,0.5-0.3,0.9c-0.1-0.2-0.1-0.5-0.2-0.8c0.1-0.9,0.1-1.6,0.2-2.3c-0.2-1.1-0.2-1.1-0.5,0.7
	c-0.2,0.3-0.5,1.2-0.8,0.5c0.2-1,0.3-1.7,0.4-2.7c-0.1-0.7-0.1-1.3-0.2-2c0.1-0.4,0.2-0.8,0.3-1.2c-0.1-2-0.2-2-0.4-1.4
	c-0.1,0.6-0.2,0.9-0.4,0.2c-0.1-0.6-0.1-1.3-0.2-2.1c-0.1-0.5-0.3-0.9-0.5-1.6c-0.2,0.4-0.4,1.1-0.6,1.4c-0.2,0.3-0.5,0.6-0.6,0
	c-0.5-1.7-0.8,0.3-1.2,2c0-0.7,0-1.3,0-2.3c-0.1-0.1-0.2-0.3-0.3-0.4c-0.1,1-0.1,1.8-0.2,2.8c-0.3,0.5-0.6,1.1-0.8,1.6
	c-0.1,1.1-0.1,2-0.2,3.3c-0.3-0.4-0.5-0.7-0.8-1.2c-0.2-0.4-0.4-0.7-0.6-0.3c-0.1,0.2-0.3,0-0.4,0c0-1.1-0.1-2-0.1-3
	c-0.2,0.1-0.3,0.3-0.4,0.4c-0.3-0.8-0.5-1.6-0.7-2.1c-0.1-0.2-0.2,0.2-0.3,0.3c0,0.9,0,1.7,0,2.7c-0.1,0.2-0.1,0.5-0.3,0.8
	c0-1.2,0.1-2.2,0.1-3.3c-0.2-0.8-0.5-1.6-0.7-2.4c-0.1,0.7-0.2,1.3-0.3,2c-0.1-0.3-0.2-0.6-0.2-0.8c-0.2-0.2-0.4-0.4-0.5-0.5
	c-0.2-0.2-0.4,0.1-0.6,1.1c-0.1,0.8-0.2,1.6-0.4,2.3c0,0.2-0.1,0.2-0.3,0.3c0.2-1.4,0.3-2.2,0.4-3c0.1-0.5,0.3-1,0.4-1.5
	c0-2.2-0.2-3.4-0.5-3.9c-0.1,0.7-0.2,1.4-0.3,2.1c-0.1,0.2-0.3,0.3-0.4,0.5c-0.1-0.5-0.2-1-0.3-1.5c-0.1,0.6-0.1,1.1-0.2,1.9
	c-0.1-0.2-0.2-0.5-0.4-0.8c0.2-1.2,0.6-0.9,0.5-3.7c-0.2-0.9-0.3,1.4-0.4-0.1c0-1.5,0.1-3,0.1-4.8c0.2,0.6,0.3,1.1,0.5,1.6
	c0,0.7,0,1.3,0.1,2.1c0.3,0.3,0.6,0.6,0.9,0.9c0.2,1.2,0.5,2.5,0.8,4c0.3,0.5,0.3,0.5,0.6-0.5c0-0.8,0-1.6,0.1-2.6
	c0.1,0,0.2,0,0.2,0c0,0.9-0.1,1.8-0.1,2.8c0.1,0.6,0.2,1.2,0.3,1.8c0.1-0.2,0.2-0.3,0.3-0.6c0.1-0.3,0.2-0.7,0.3-1.1
	c0.3,1.1,0.5,2.1,0.8,3.1c0.1-0.3,0.2-0.7,0.4-1.2c0.2,0.7,0.4,1.5,0.7,2.4c0.2-0.1,0.3-1,0.4-2.4c0-0.7-0.1-1.4-0.1-2.1
	c0.2-1.2,0.3,0.3,0.5,0.2c0.1-0.2,0.2-0.7,0.3-1c0.1-1.2,0.1-2.1,0.2-3.5c0.1,0.7,0.2,1.2,0.4,1.7c-0.1,1.2-0.2,2.3-0.2,3.3
	c-0.1,0.2-0.2,0.5-0.4,0.8c0.1,1.4,0.2,2.6,0.3,3.9c0.2-0.9,0.3-1.7,0.5-2.7c0-0.6,0-1.4,0-2.2c0.2-0.6,0.4-1.1,0.7-1.7
	c0.1,0.3,0.1,0.7,0.2,1.1c0.1-0.1,0.2-0.1,0.3-0.2c0.1,0.3,0.2,0.6,0.3,0.9c0.2-0.3,0.3-0.5,0.5-0.8c0-1.4,0-2.7,0-4
	c-0.2-2.5-0.3-2.5-1,0.4c0-1.3,0.3-1.8,0.1-3.4c-0.2,0-0.4,0-0.7,0c0-0.9,0-1.7,0.1-2.4c-0.2-0.3-0.5-0.5-0.7-0.8
	c-0.1,0.7-0.1,1.6-0.2,2.6c-0.1-0.2-0.2-0.3-0.3-0.5c0-2.1,0-4.2,0-6.1c0.3-0.9,0.4,1.3,0.6,1.7c0.2-0.4,0.3-2.4,0.6-1.7
	c0.1,2.3,0.4,3.3,0.8,3.1c0.1-0.4,0.2-1,0.3-1.7c-0.1-0.9-0.2-1.6-0.3-2.3c0-4.9,0-4.9-0.4-5.4c-0.3,1.4-0.6,2.9-0.9,4.3
	c0-0.2-0.1-0.3-0.1-0.5c0-0.2,0-0.5-0.1-0.9c0.1-0.5,0.1-1,0.2-1.5c0-0.5,0-1.2,0-1.3c0.2-2.4,0.3-4.4,0.5-6.6
	c-0.1-0.7-0.2-1.2-0.3-1.7c-0.1,0.3-0.3,0.6-0.4,0.9c-0.1,0.3-0.2,0.8-0.3,1.2c0,1.5,0,2.9,0,4.3c-0.1,0.5-0.2,1-0.3,1.5
	c0.1,0.7,0.1,1.4,0.2,2.1c0,0.2-0.1,0.5-0.1,0.4c-0.2-0.9-0.4-1.8-0.6-2.7c0.1-1.5,0.2-2.8,0.3-4.3c0.1-0.2,0.3-0.4,0.4-2.4
	c-0.1-0.7-0.2-1.6-0.2-2.1c-0.3-0.5-0.5-0.8-0.8-1.2c0.1-1,0.1-1.7,0.2-2.4c0-0.5-0.1-1.1-0.1-1.6c0.1-1.7,0.3-3.2,0.4-4.6
	c0.3,0,0.5,0,0.7,0c0.1-0.8,0.2-1.7,0.3-2.9c-0.2-0.9-0.4-1.7-0.5-2.5c0.1-0.9,0.2-1.9,0.3-2.9c0.1,0,0.3,0,0.4,0
	c0.4,2.3,0.4,2.3,0.6,1.3c0-2,0-3.9,0-6c0.2,0.2,0.3,0.4,0.5,0.6c0.1-1.5,0.2-2.7,0.3-4c-0.1-2.1-0.1-2.1-0.4-1.9c0,0.8,0,1.7,0,2.7
	c-0.3,0.4-0.2-1.8-0.2-2c-0.3-1.2-0.5-0.2-0.7-0.2c0.1-1,0.2-2,0.2-2.9c0.2-0.2,0.3-0.4,0.6-0.6c0,0.1,0.1,0.4,0.2,0.7
	c0.1-0.4,0.3-0.7,0.4-1.2c0.4,1.4,0.6,4.1,1,6.8c0.1,0.4,0.2,1,0.4,1.6c0.2-0.2,0.3-1.6,0.5-3c0.2,0.5,0.3,1,0.5,1.7
	c0.2-1.3,0.3-2.7,0.5-4.3c0-0.9,0-1.9-0.1-3.1c-0.1-0.1-0.2-0.1-0.3-0.2c0,1-0.1,1.8-0.1,2.8c-0.1,0-0.1,0-0.2,0
	c-0.1-2.7,0.3-3,0.4-4.4c0.2,0.4,0.4,0.7,0.7,1c0.1,0.7,0.2,1.3,0.2,2c0,0.6-0.1,1.1-0.1,1.8c0.2,0.7,0.3,1.3,0.5,2
	c0.1-0.2,0.2-0.5,0.3-0.9c0-1.1,0-2.1,0-3.1c-0.1-0.9-0.2-1.7-0.3-2.3c-0.4-1.2-0.8-2.2-1.3-3.4c-0.1,0.2-0.3,1.6-0.5,1
	c0-0.9,0-1.7,0.1-2.9c-0.3-0.1-0.5-0.2-0.8-0.3c-0.1-1-0.1-2-0.2-3c-0.2,0.7-0.2,1.9-0.3,3.1c0.2,0.7,0.3,1.3,0.5,2.1
	c-0.2,0.5-0.3,1-0.4,1.4c0,1.8,0.2,2.3,0.4,2.6c0.1-0.5,0.2-1,0.3-1.6c0.1,0.1,0.2,0.3,0.3,0.5c0.1,1.4,0.2,2.8,0.2,4.3
	c0,0.9-0.1,1.7-0.2,1.7c0-0.2-0.1-0.5-0.1-0.8c-0.1-1.8-0.2-2.4-0.5-2.7c-0.3-0.3-0.5-1.4-0.8-2.1c0-0.3,0-0.5,0-0.8
	c0.1-0.2,0.1-0.5,0.2-0.7c0.1-0.2,0.1-0.5,0.2-0.7c0.1-1.8-0.1-2.6-0.2-3.5c0.1-0.8,0.1-1.7,0.2-2.5c0-1.4-0.1-2.8-0.4-3.1
	c-0.2,1.2,0,2.9-0.1,4.3c0,0-0.1,0.1-0.2,0.1c-0.1-1.4-0.2-2.6-0.3-4c0.1-2.1,0.1-4.3-0.2-5.8c0-1.1,0-2,0.1-3
	c-0.1-0.9-0.1-2-0.2-3.3c-0.2,1.9-0.4,3.5-0.6,5.3c0,0.5,0.1,1.2,0.1,2.2c-0.1,0.5-0.1,0.9-0.2,1.4c0,0,0-0.1-0.1-0.1
	c0-1.3,0-2.6,0-3.9c0-1.2-0.2-2.4-0.2-3.8c0.1-0.2,0.2-0.3,0.3-0.5c0-0.7,0.1-1.5,0.2-2.4c0.1-0.5,0.2-1.2,0.3-1.7
	c0.1-1.5,0-2.2-0.2-2.2c0-0.8,0-1.5,0.1-2.3c-0.2-1.4-0.4-4-0.8-3.8c-0.1-2.5-0.3-3.9-0.7-4.3c-0.2-2.9-0.6-3.3-0.9-4.4
	c-0.1,0.6-0.2,1.1-0.2,1.6c-0.1,0.1-0.3,0.4-0.4-0.8c0.1-0.9,0.2-1.7,0.3-2.6c-0.3-1.2-0.6-2.2-0.8-3.3c-0.1,0.7-0.2,1.3-0.3,2.4
	c0-1.7,0-3-0.1-4c0.2-1.4,0.3-2.6,0.5-4.2c0,0,0.1,0.1,0.2,0.1c0.1-0.8,0.3-1.5,0.4-2.4c-0.2-0.5-0.4-1-0.5-3.1
	c0.1,0.1,0.3,0.2,0.4,0.3c0.1-0.6,0.1-1.2,0.2-1.9c0-1-0.1-1.8-0.1-2.5c-0.2-1.7-0.5-2.6-0.6-4.9c0.3-1.1,0.6-2.1,0.9-3.1
	c0.1,0.2,0.2,0.4,0.3,0.6c0.3-0.8,0.5-1.7,0.8-2.5c0-0.6,0-1.1,0-1.7c-0.1-0.2-0.2-0.3-0.4-0.5c0.1-0.5,0.1-1.1,0.2-1.1
	c0.2,0.5,0.4,1.1,0.6,1.7c-0.1,1.3-0.1,2.4-0.1,3c0.2,2,0.4,3.6,0.6,5.6c0,0.1,0.1,0.3,0.3,0.6c0,0.7-0.1,1.4-0.1,2.3
	c0.1,0.5,0.3,1,0.4,1.5c0.1-1.1,0.2-2,0.3-3.1c0-0.7-0.1-1.4-0.1-2.4c0.1,0,0.1,0.1,0.2,0.1c0.1,1.3,0.2,2.5,0.3,3.6
	c0,0,0-0.1,0-0.1c0,1,0,1.9,0,3.1c0.1,0.1,0.1,0.1,0.2,0.1c0.1,0,0.1,0,0.2,0c0,1.7-0.2,3.2,0,4.9c0.2-1.1,0.1-2.3,0.1-3.5
	c0-3,0-3,0.1-5.1c0-0.1,0.1-0.2,0.2-0.4c0.1-0.1,0.1-0.2,0.2-0.3c0-0.6,0-1.1,0-1.8c-0.1,0-0.2-0.1-0.3-0.1c0-0.5-0.1-1.1-0.1-1.8
	c0.1-0.5,0.3-1.1,0.4-1.7c0.1,0.3,0.2,0.7,0.3,1.2c0.1-0.4,0.3-0.9,0.5-1.5c-0.1-0.9-0.1-1.5-0.2-2.1c-0.2,0.5-0.3,0.8-0.4,1.2
	c-0.1-2.5-0.2-4.6-0.3-6.9c0-0.6,0.1-1.3,0.1-2.1c-0.1-1.4-0.2-2.4-0.4-2.6c-0.1,0.2-0.2,0.5-0.3,0.8c0-0.5-0.1-0.9-0.1-1.3
	c-0.1,0.4-0.2,0.8-0.4,1.3c0-1.1,0-2,0.1-3c-0.1-0.3-0.1-0.7-0.2-1.2c-0.1,0.4-0.2,0.8-0.3,1.1c0,1.2,0,2.3,0,3.9
	c0,0.2,0.1,0.8,0.1,1.5c0,0.4,0,0.8,0,1.1c-0.1,1.9-0.1,3.6,0.1,5.3c0.1,0.9,0.2,2.1,0.3,3.5c-0.4,0.5-0.4-2.1-0.7-2.2
	c-0.1-1.9-0.1-3.6-0.2-5.8c0-0.2,0.1-0.9,0.2-1.4c0.1-0.5,0.2-0.8,0.2-1.1c0-1.9-0.3-1.4-0.4-2.1c0-3.6,0-4.3-0.4-4.9
	c-0.2,1-0.1,2.4-0.1,3.8c-0.1,1.2-0.1,2.6-0.2,4c-0.2-0.9-0.1-2.3-0.2-3.3c-0.1-0.8-0.3-1.7-0.4-2.6c0-1.1,0-2.1,0-3.2
	c0.2-0.3,0.3-0.6,0.5-0.9c0-0.9,0.1-1.7,0.2-2.5c-0.1-1.1-0.1-2.3-0.2-3.9c0.2,0.5,0.3,0.7,0.4,1.1c0.1-0.9,0.2-1.7,0.2-2.6
	c0-0.8,0-1.6-0.1-2.4c0.1-0.4,0.1-0.7,0.1-1c0.1,0.2,0.3,0.3,0.5,0.5c0,0.6,0.1,1.3,0.1,2.1c0.2-0.1,0.2,2.2,0.5,1.7
	c-0.1-0.9-0.1-1.7-0.1-2.1c0-3.2,0.1-6.1,0.1-9.1c0.1,0.3,0.2,0.6,0.3,0.8c0.3-0.3,0.3-1.7,0.4-3c0.1-0.2,0.2-0.4,0.3-0.6
	c0.1-1.3-0.5-2.4-0.9-1.8c0,0.9-0.1,1.9-0.1,3.1c-0.1-0.3-0.2-0.5-0.3-0.8c0-0.1,0-0.3-0.1-0.4c-0.1,0.8-0.2,1.5-0.3,2.3
	c0,0.2,0,0.3,0.1,0.5c-0.1,1.8,0.3,4.4-0.2,6c-0.1-0.9-0.1-1.7-0.2-2.6c-0.1-0.1-0.2-0.2-0.3-0.4c0-1.3-0.1-2.6-0.1-4
	c-0.1-0.5-0.2-1.1-0.4-1.8c0-0.4,0-0.9,0-1.8c0.1,0.6,0.2,1,0.3,1.4c0-0.2,0.1-0.5,0.1-0.6c0-0.8,0-1.6-0.1-2.3c0-0.7-0.1-1.3-0.2-2
	c0.1-0.9,0.1-1.7,0.2-2.8c-0.1-1.4-0.3-3-0.4-4.6c0.1-0.9,0.1-2.6,0.4-2.8c0.1,0.2,0.3,0.6,0.4,1c0.2-0.2,0.3-0.5,0.5-0.7
	c0-0.8,0-1.3-0.1-2c0.2-0.2,0.3-0.3,0.4-0.5c0,0.1,0,0.1,0,0.2c0.2,0.3,0.5,0.7,0.7,1c0,0.1,0.1-0.4,0.1-0.7
	c0.1,0.2,0.2,0.4,0.2,0.6c0,0,0,0,0,0v0c0,0,0,0,0,0c0,0,0,0,0,0c0,0,0,0,0,0c0,0.9-0.1,1.3-0.2,1.3c-0.2,0-0.4-0.1-0.5-0.4
	c-0.2-0.3-0.3-0.3-0.4,1c0.3,0.8,0.7,0.8,1,2c-0.2,0.9-0.2,0.9-0.5,0.8c0,1-0.1,2.1-0.2,3.3c0.1,0.2,0.1,0.4,0.2,0.6
	c0.1,0.2,0.1,0.4,0.2,0.6c0.2-0.2,0.4-0.3,0.5-0.4c0.1-0.4,0.2-0.9,0.3-1.4c0.2,0.5,0.3,1,0.5,1.4c0.2-0.7,0.4-1.3,0.7-2.2
	c0.1-0.9,0.2-2.4,0.3-4.2c0.1,0,0.2,0,0.3,0c0-0.4,0.1-0.8,0.1-1.3c-0.1-0.4-0.2-0.8-0.4-1.2c-0.1,0.5-0.2,1.1-0.3,1.6
	c0,0.8,0,1.4,0.1,2.3c-0.5,1.3-1,2-1.6,1.9c0.1-1.1,0.2-2,0.4-3.3c0.1,0.3,0.2,0.7,0.4,1.2c0.2-0.6,0.3-1.2,0.5-1.9
	c-0.2-0.4-0.4-0.8-0.6-1.2c0-0.6,0-1,0.1-1.6c0.1,0.5,0.2,1,0.3,1.4c0.2-0.1,0.4-0.2,0.6-0.2c0-0.8,0-1.4-0.1-2.1
	c-0.1,0.1-0.2,0.1-0.3,0.2c-0.1-0.4-0.2-0.7-0.3-1.2c0-0.5-0.1-1-0.1-1.6h0.5c0,0.5,0,1,0,2.1C21,0.8,21.3,2.2,21.4,0h1.1
	c0,0.2,0.1,0.2,0.1,0H26.3z M16.9,6.9c-0.1,0.5-0.1,0.8-0.2,1.1c0,0.3,0.1,0.6,0.1,0.9C17,8.8,17.1,8.6,16.9,6.9z M18.2,10.7
	c0.1-0.4,0.2-0.9,0.3-1.7c-0.2-0.8-0.3-1.3-0.5-1.8C17.9,9.2,17.9,9.3,18.2,10.7z M18.1,11.5c-0.1,0.4-0.1,1.1,0,2
	c0.1-0.4,0.2-0.7,0.2-1.1C18.3,11.4,18.2,11,18.1,11.5z M17.8,8.6c-0.3-0.9-0.5-0.3-0.7,1c0,0.5,0,0.9,0.1,1.4
	C17.4,10.6,17.6,10.3,17.8,8.6z M17.4,13.1c0.2,0.5,0.3,0.3,0.4-0.8C17.5,10.9,17.5,11.1,17.4,13.1z M18,18.9
	c-0.2-0.8-0.4-1.7-0.7-1.2c0,0.7-0.1,1.3-0.1,2.1c0.1,1.3,0.2,2.6,0.3,4C17.8,22.4,18,21.3,18,18.9z M19,17
	c-0.1-0.4-0.2-0.6-0.3-0.8c0-0.7-0.1-1.4-0.1-2.4c-0.2,0.4-0.3,0.9-0.5,1.1c-0.1,0.2-0.3-0.6-0.4,1.2c0.1,0.5,0.2,1,0.3,1.5
	c0.2-0.5,0.3-1,0.4-1.4C18.6,16.7,18.7,17.9,19,17z M15.8,85.7l0-0.2L15.8,85.7L15.8,85.7z M16.6,70.2c0-0.1,0-0.2,0-0.3
	c0,0-0.1,0-0.1,0c0,0.2,0,0.3,0,0.5C16.6,70.4,16.6,70.3,16.6,70.2z M17.3,84c0,1.1,0.1,2.1,0.1,3.1c0.1-0.1,0.1-0.2,0.2-0.3
	C17.6,85.4,17.5,84.4,17.3,84z M18.6,73.4c-0.3,0.2-0.4,0.8-0.2,2.8C18.7,75.6,18.7,75.6,18.6,73.4z M19.9,113.6
	C19.9,113.6,19.9,113.6,19.9,113.6c0,0,0,0.1,0,0.2c0,0.1,0,0.1,0,0.1C19.9,113.8,19.9,113.7,19.9,113.6z M20.1,72.9
	c-0.1,0.5-0.1,0.7-0.2,1C20.1,74.5,20.1,74.5,20.1,72.9z M20.3,68.6c-0.2-0.1-0.2,0.4-0.2,1.5C20.2,69.6,20.3,70,20.3,68.6z
	 M21.7,8.7c0,0.1,0,0.3,0,0.5c0.1,0,0.1,0,0.2-0.1c0-0.2,0-0.4,0-0.7C21.8,8.5,21.8,8.6,21.7,8.7z M21.6,21.7c0,0.8,0.1,1.5,0.1,2.6
	c0.1-1.2,0.2-2.2,0.2-3.2C21.8,20.4,21.7,20.8,21.6,21.7z M21.6,17.1c-0.1,0.6-0.2,1.2-0.1,1.8c0,0.3,0.1,0.3,0.2,0.4
	C21.8,17.9,21.7,17.5,21.6,17.1z M21.1,14.7c0.1,0.9,0.2,1.9,0.4,1.5C21.4,14.7,21.3,14,21.1,14.7z M21,24.6
	c-0.1,1.6-0.3,3.1-0.6,3.3c-0.1-1-0.2-2-0.1-3.2c0.1,0,0.2,0.4,0.3-0.7c-0.1-0.5-0.2-0.9-0.3-1.3c0-0.8,0-1.7,0.1-2.8
	c-0.1,0.3-0.2,0.5-0.3,0.7c0,1,0,1.8,0,2.6c0,0,0-0.1,0-0.1c-0.1,1.7-0.2,3.4-0.3,5.1c0.1,0.7,0.2,1.3,0.2,2c0,1.4,0,2.7,0.3,3.3
	c0.1-0.4,0.1-0.8,0.2-1.3c0.1-0.6,0.1-1.3,0.2-2.1c0.1,0.1,0.2,0.1,0.3,0.2c0.4-2.5,0.5-4.8,0.3-5.9C21.2,24.4,21.1,24.5,21,24.6z
	 M19.7,17.6c0.1,0.5,0.1,1,0.2,1.6c0.1-0.2,0.2-0.4,0.3-0.7c0-0.7,0-1.2-0.1-1.7c0.2-0.1,0.4-0.2,0.6-0.4c0-0.7,0-1.2,0.1-1.7
	c-0.4,0.1-0.7,0.1-1,0.2c-0.1,0.1-0.3,0.1-0.4,0.4c-0.1,0.2-0.2,0.9-0.1,2C19.5,17.5,19.6,17.5,19.7,17.6z M19.4,36.1
	c0.1-0.4,0.2-0.8,0.3-1.2c0-1.7,0-3.3,0-4.9c0-1.9-0.2-2.3-0.5-1.7C19.1,32.7,19.1,34,19.4,36.1z M17.5,40.4
	c-0.1,0.4-0.1,0.7-0.2,1.4c0.1,0.5,0.2,0.8,0.2,1.1C17.6,41.9,17.6,41.2,17.5,40.4z M17.9,39.5c-0.2-0.6,0-3-0.4-3.3
	c0,1.8,0.1,2.8,0.2,4.4C17.8,40.2,17.8,40,17.9,39.5z M17.9,34.6l0-0.2L17.9,34.6L17.9,34.6z M18.3,46.4c0-0.5-0.1-1.1-0.1-2
	c-0.1,0.8-0.1,1.1-0.1,1.7C18.2,46.2,18.2,46.3,18.3,46.4z M18.3,35.6C18.2,36,18.1,36.4,18,37c0.1,1,0.2,2.1,0.4,2
	C18.4,37.9,18.4,36.9,18.3,35.6z M19.1,38.6c-0.1-0.7-0.1-1.3-0.2-1.9c-0.3,0.2-0.4,1.5-0.5,3.3c0.1,1,0.1,2.5,0.3,3.6
	c0.1-0.5,0.2-1.1,0.4-1.7C19,40.7,19,39.7,19.1,38.6C19.1,38.6,19.1,38.6,19.1,38.6z M19.1,38.7c0.1,0.4,0.3,1.2,0.4-0.4
	c0-1.1-0.1-1.3-0.2-0.9C19.2,37.7,19.1,38.2,19.1,38.7z M20.2,56.9c0.4-1.8,0.4-4.6,0.5-6.4c0-1.7,0-2.9,0-4.4
	c-0.3-1.7-0.2-4.2-0.2-6.9c-0.1-0.4-0.2-0.9-0.3-1.4c-0.1,0.8-0.2,1.4-0.2,1.9c0,1,0,1.9,0,2.8c-0.1,1.6-0.2,3.1-0.5,3.9
	c0-0.5-0.1-0.9-0.1-1.3c0-0.4-0.1-0.7-0.1-1.2c-0.1,0.5-0.2,1-0.3,1.3c0,1.2,0.1,2.1,0.1,3c0.1,0,0.2,0,0.4,0
	c0.1-0.4,0.2-0.7,0.3-1.1c0.1,0.8,0.2,1.5,0.3,1.8C20.3,51.6,20,54.3,20.2,56.9z M20.6,55.5c0,0.9,0,1.5,0.1,2.4
	C20.8,56.5,20.8,56.5,20.6,55.5z M20.7,69.2c0-0.1,0.1-0.1,0.1-0.2c0-0.2,0-0.4-0.1-0.8C20.7,68.7,20.7,68.9,20.7,69.2z M20.6,75.2
	c0,0.4,0.1,0.8,0.1,1.2c0-0.1,0-0.1,0.1-0.2c0-0.3,0-0.7,0-0.9c0-0.2-0.1-0.3-0.1-0.5C20.6,74.9,20.6,75,20.6,75.2z M20.8,118.3
	c-0.1-0.8-0.2-1.4-0.4-0.7c0.1,1,0.1,1.8,0.2,2.7c-0.1,0.7-0.2,1.2-0.2,2c0.1,0.4,0.1,0.6,0.2,0.8C20.8,121.7,20.8,120,20.8,118.3z
	 M21.1,52.1c0.1-0.3,0.2-0.5,0.3-0.9c0-2-0.2-2-0.4-2.1C20.9,50.4,20.9,51.2,21.1,52.1z M21.4,73.1c0.1-0.7,0.1-1.4,0-2.1
	C21.3,72.2,21.3,72.2,21.4,73.1z M21.5,75.8c0,0.1,0,0.2,0,0.3C21.5,76,21.5,75.9,21.5,75.8c0.1-0.1,0.1-0.2,0-0.2
	C21.5,75.6,21.5,75.7,21.5,75.8z M21.6,123.3c0-0.7-0.1-1.1-0.1-1.5c0,0-0.1-0.1-0.1-0.1c0,0.5-0.1,0.9-0.1,1.7
	C21.4,123.3,21.5,123.3,21.6,123.3z M21.8,38.7c-0.2-3-0.4-5.6-0.6-8.5c-0.2,0.8-0.3,1.4-0.5,2.2c0.1,0.3,0.2,0.5,0.3,0.8
	c0,0.9,0,1.7,0,2.2c0.1,2.4,0.2,4.4,0.3,6.5C21.6,41.5,21.7,39.8,21.8,38.7z M22.3,50c-0.1-1.3-0.1-2-0.2-2.8c0-0.9-0.1-1.5-0.3-1
	c0,1,0,2,0,2.3c0.1,1.1,0.2,1.8,0.3,3C22.2,50.7,22.2,50.3,22.3,50z M22.5,31.7c-0.1-2.7-0.3-4.9-0.4-7.1c-0.2,0.3-0.3,1.3-0.3,2.2
	c0.1,1.4,0.2,2.5,0.2,3.5c0.1,1,0.2,2,0.4,2.1C22.4,32.1,22.5,31.8,22.5,31.7z M16.9,202.3c0-1.7-0.1-2.5-0.3-3.3
	c-0.3,0.5-0.3,0.5-0.4,2.1C16.5,203.6,16.6,203.8,16.9,202.3z M19.8,139.8c0,0,0.1-0.1,0.1-0.1c0-0.1,0-0.2,0-0.4
	c0,0-0.1-0.1-0.1-0.1C19.8,139.4,19.8,139.6,19.8,139.8z M19.7,152.6c0.1,1.1,0.2,1,0.3,0.2C19.9,151.8,19.8,151.5,19.7,152.6z
	 M19.7,144.6c0,0.7,0.1,1.2,0.1,1.8c0.2-0.7,0.2-1.3,0.1-2.3C19.8,144.3,19.8,144.4,19.7,144.6z M18.8,153.3
	c-0.1,0.1-0.2,0.3-0.2,0.4c-0.1,2.1-0.2,3.9-0.3,5.6c-0.2,2.5-0.1,3.1,0.2,5c0.2,0.1,0.3-0.9,0.3-2.2c0-1.7,0-3.4,0-4.9
	C18.7,155.9,19,155,18.8,153.3z M19,145.9c0.1,1.1,0.2,2.1,0.3,3c0.2,0.3,0.4,0.6,0.6,0.9c0-1.7-0.1-1.7-0.2-2.1
	c-0.1-0.4-0.2-0.8-0.3-1.3c-0.1-0.5-0.1-1.2-0.2-2C19.1,145,19.1,145.4,19,145.9z M19.2,150.3c0,0.7,0,1.2,0,1.7
	C19.4,151.3,19.4,150.8,19.2,150.3z M20,164.2c0-1,0-1.9,0-2.6c-0.2-1-0.4-0.5-0.5,0.7c-0.1,0.9-0.2,2,0,3.3
	C19.6,165.2,19.8,164.8,20,164.2z M20.9,143.7L20.9,143.7l0-0.2L20.9,143.7z M20.6,149.7c0.1,0.3,0.2,0.1,0.3,0.2c0-2-0.1-2.5-0.3-2
	C20.5,148.5,20.5,149.3,20.6,149.7z M20.2,143c0,0.1,0,0.3,0.1,0.5c0-0.4,0.1-0.8,0.1-1.1c0-0.1,0-0.3-0.1-0.4
	C20.3,142.3,20.2,142.6,20.2,143z M20.4,179.4c0.1-0.7,0.2-1.1,0.3-1.4c-0.1-1.6-0.1-2.7-0.1-4.1c-0.3,0.4-0.3,0.4-0.4,2.9
	C20.2,177.5,20.3,178.4,20.4,179.4z M20.6,181.2c0,0.2,0,0.4-0.1,0.6c0,0.2,0.1,0.4,0.1,0.6c0-0.1,0-0.3,0-0.4
	C20.6,181.7,20.6,181.5,20.6,181.2z M20.3,187.7c0,1.2,0.1,2,0.3,2c0-0.6,0.1-1.2,0.1-1.8C20.6,186.8,20.5,186.7,20.3,187.7z
	 M21.2,193.4c-0.5-1.8-0.7-0.6-0.7,3.1c0.1,0.3,0.2,0.7,0.2,1c0.2-0.3,0.3-0.5,0.5-0.9C21.2,195.6,21.2,194.4,21.2,193.4z
	 M21.8,145.6c0-1.8,0-1.8-0.3-2.1c-0.1,1.5-0.4,1.9-0.3,4.2C21.4,147.9,21.5,145.5,21.8,145.6z M21.8,181.8
	c-0.3,1.1-0.3,2.7-0.2,4.4c0.1,1.2,0.2,1.6,0.4,0.8C22,185.1,21.9,183.6,21.8,181.8z M22.1,176c0-0.1,0-0.1-0.1-0.2
	c0,0.1,0,0.3,0,0.4c0,0.1,0,0.2,0.1,0.2C22.1,176.4,22.1,176.2,22.1,176z M22.4,138.2c0,0.4,0,0.9,0.1,1.7c0.1-0.4,0.3-0.7,0.4-1
	C22.7,137.1,22.7,137.1,22.4,138.2z M22.5,152.9c0-0.1,0-0.3-0.1-0.4c-0.1,0.1-0.2,0.2,0,1.3C22.4,153.5,22.4,153.2,22.5,152.9z
	 M23,193.3c-0.1,0-0.2,0.1-0.4,0.1c0,1.7,0,2.7,0.2,3.2C23,195.6,23,195.6,23,193.3z M23.1,150C23.1,150,23.1,149.9,23.1,150
	c0,0,0,0.1,0,0.2c0,0.1,0,0.1,0,0.1C23.1,150.2,23.1,150.1,23.1,150z M23.3,288c-0.2-0.8-0.3-0.8-0.4,0.4c0.1,2.5,0.1,2.5,0.4,2.5
	C23.3,289.9,23.3,288.9,23.3,288z M23.6,10.3c0.2-0.5,0.2-1,0-1.6C23.6,9.4,23.6,9.8,23.6,10.3z M22.6,18.3c0,0.2,0,0.4,0,0.7
	c0.2-0.2,0.3-0.4,0.5-0.5c0-0.5,0-0.7-0.1-1.1C22.9,17.7,22.8,18,22.6,18.3z M23.2,24.4c-0.1-1.2-0.2-2-0.4-1.8
	C22.9,24.9,22.9,25,23.2,24.4z M22.9,27.5c-0.1,0.8-0.1,1.7,0,2.8c0.1-0.9,0.2-1.6,0.3-2.5C23.1,26.6,22.9,26.8,22.9,27.5z M23,42.7
	c0-0.4,0-0.8-0.1-1.3c-0.2,0.6-0.2,0.6-0.3,1.8C22.7,43.9,22.8,43.9,23,42.7z M23.4,58.2c-0.1-0.4-0.3,0-0.3,0.7
	c-0.1,1-0.1,2.1,0,3.2c0.1-0.4,0.3-0.8,0.4-1.2C23.6,59.4,23.6,58.6,23.4,58.2z M23.8,14.8c-0.3-1.3-0.5-1-0.7-0.2
	C23.3,15.6,23.5,16,23.8,14.8z M23.7,189.6c0-2.2,0-2.2-0.3-1.8c0,0.5,0,1.1,0,2C23.5,189.8,23.6,189.7,23.7,189.6z M24,200
	c0-2.2,0-2.2-0.3-1.6C23.7,200.5,23.7,200.7,24,200z M24.3,151.4c-0.3-1.8-0.5-1.9-0.7-0.8C24.2,152,24.2,152,24.3,151.4z
	 M24.3,225.1c0.1-0.9,0.1-1.8,0.2-2.8c-0.2-1.1-0.3,0.2-0.4,0.9C24,224.4,24.1,225.2,24.3,225.1z M24.5,237c0-2,0-2-0.2-2.5
	c0,0.8,0,1.6,0,2.6C24.4,237.1,24.5,237.1,24.5,237z M24.5,394c-0.1-0.8-0.2-0.5-0.3,1.1c0.2,1.4,0.3,1.7,0.4,0.8
	C24.5,395.4,24.5,394.5,24.5,394z M24.8,379.9c-0.2-1.3-0.2-1.4-0.3-0.9c-0.2,0.7-0.3,1.8-0.2,3.7C24.5,382.6,24.7,381.4,24.8,379.9
	z M24.8,363.2c-0.2,2.1-0.2,2.6,0.2,3.1C25.1,365,25.1,364,24.8,363.2z M20.3,24.6L20.3,24.6L20.3,24.6L20.3,24.6
	C20.3,24.7,20.3,24.7,20.3,24.6z M17.9,139.6c0,1-0.1,1.7-0.1,2.3c0.1-0.2,0.2-0.3,0.4-0.6C18.1,140.6,18,140.2,17.9,139.6z
	 M18.7,126.2c-0.2-0.2-0.3,0.3-0.3,1.8c0.1,0.5,0.2,1.1,0.4,1.8C18.9,127.3,18.9,126.4,18.7,126.2z M15.2,10.9
	c-0.1-0.6-0.2-1.1-0.3-1.7c0,0,0,0-0.1,0c0,0.5-0.1,1-0.1,1.6C15,12,15.1,11.7,15.2,10.9z M18,125.5c0,0.1,0,0.3,0,0.7
	c0.1-0.1,0.2-0.1,0.3-0.2C18.1,125,18.1,124.9,18,125.5z M15.1,7.2c0-0.1,0-0.2,0-0.3c0,0.1,0,0.1-0.1,0.2c0,0.1,0,0.3,0,0.3
	S15.1,7.3,15.1,7.2z M17.7,143.5c0-0.6,0-1.1,0.1-1.5c0,0,0,0,0,0c0,0,0-0.1,0-0.1c0,0,0,0,0,0c0,0,0,0,0,0
	c-0.2-0.3-0.3-0.7-0.6-1.2C17.4,142.7,17.5,143,17.7,143.5z M17.7,102.4c0,0.1-0.1,0.1-0.1,0.2c0,0.1,0,0.3,0,0.5
	c0-0.1,0.1-0.1,0.1-0.2C17.8,102.7,17.8,102.6,17.7,102.4z M15.1,27.7c0.1,0.8,0.2,1.5,0.3,2.4c-0.1,0.6-0.2,0.9-0.3,1.4
	c0.1,0.6,0.2,1.1,0.3,1.8c-0.1,1-0.1,2-0.2,3.1c0.1,0,0.1,0,0.2,0c0-0.8,0.1-1.6,0.1-2.5c0,0,0,0-0.1-0.1c0-1.9,0-3.8,0-5.9
	C15.4,27.9,15.3,26.8,15.1,27.7z M15.3,468.7c0-0.2-0.1-0.1-0.2-0.2c0,1.3,0.1,1.7,0.3,1.3C15.4,469.3,15.3,468.9,15.3,468.7z
	 M18,61.3c-0.1,0.6-0.2,1-0.3,1.5c0.1,0.6,0.2,1.1,0.3,1.5C18.1,63.4,18.1,62.5,18,61.3z M17.7,59.6c0-0.1,0-0.1,0-0.2
	c0,0,0-0.1,0-0.1C17.7,59.4,17.7,59.5,17.7,59.6z M21.8,556.9c0-0.2,0-0.5-0.1-0.8c0,0.1,0,0.1,0,0.2c0,0.3,0,0.5,0.1,0.8
	C21.8,557,21.8,556.9,21.8,556.9z M22.4,568.9c0-1.5-0.1-3-0.1-4.2c-0.2-0.6-0.5-1.2-0.6,0.6c0.1,0.9,0.1,1.7,0.2,2.6
	C22,568.5,22.2,569.4,22.4,568.9z M22.5,637.7c0-1.5,0-3.5-0.3-4.3c-0.1,1.1-0.3,2.2-0.4,3.1c0,2,0.2,2.5,0.3,3
	c0.1,1.9,0.2,3.3,0.3,4.9c-0.1,1.4,0,2.7,0.2,4c0.1,0,0.1,0.1,0.2,0c0,0,0.1-0.3,0.1-0.4c0-1.5,0-2.9,0-4.2
	C22.5,641.2,22.6,641.2,22.5,637.7z M15,37.6c-0.1-0.8-0.2-1.6-0.4-2.9c0,2.5,0.1,4.4,0.1,6.6C14.8,40.2,15,39.4,15,37.6z
	 M26.3,679.4c0,5.2,0,10.5,0,15.7c-0.2,0.4-0.3,0.7-0.5,1.2c-0.2-1-0.1-3.6-0.3-4.6c0-1.3,0-2.5,0-3.7c0.1-0.5,0.2-1,0.3-1.5
	c0-0.8,0-1.6,0.1-2.4c0,0,0,0.1,0,0.1c0.1-1.3,0.2-2.7,0.3-4C26.1,679.6,26.2,679.2,26.3,679.4z M26.2,693c0-2.2-0.2-3.1-0.5-3.4
	c0,1.7,0,3,0.2,4.1C26,693.5,26.1,693.3,26.2,693z M15.1,75.9c0,0.1,0,0.1,0,0.2c0,0,0.1,0,0.1,0C15.2,76.1,15.2,76,15.1,75.9
	C15.2,75.9,15.2,75.9,15.1,75.9z M14.2,648.2c0,0.1,0,0.2,0,0.3c0,0,0-0.1,0-0.1c0-0.1,0-0.2,0-0.3
	C14.2,648.1,14.2,648.1,14.2,648.2z M14.8,67.1c0.1,0.6,0.2,0.5,0.3-0.6C15,66,14.9,66.1,14.8,67.1z M11.7,654.6
	c0.1,0.5,0.2,0.8,0.3,1.1c0-0.2,0-0.3,0.1-0.5c0-0.5-0.1-1.1-0.1-2.4C11.9,653.6,11.8,654,11.7,654.6z M19.7,669.7
	c-0.1-2.1-0.2-4.3-0.2-6.5c-0.1-2-0.1-4-0.2-6c-0.1-2-0.1-4.1-0.2-6c-0.1-1.8-0.1-3.4-0.1-5.1c-0.1-2.5-0.3-5-0.7-5.7
	c-0.3-0.6-0.7-0.5-1.1-0.7c0-0.4-0.1-1-0.1-1.5c-0.2,0.5-0.3,1.3-0.2,2.8c0.3,1.1,0.7-0.4,0.9,0.8c0.2,2.6,0.3,4.6,0.5,6.8
	c-0.1,0.5-0.2,1.1-0.3,1.6c0,2,0.2,2.5,0.4,3.7c0,1.3-0.1,2.7-0.1,4c0.1,2.2,0.2,4.3,0.3,6.4c0.1,1.2,0.1,2.7,0.2,3.6
	c0.2,1.4,0.3,3,0.2,4.9c0,0.7,0,1.4,0,2.4c0.4,1.8,0.4,4.6,0.4,7.2c0,2.3,0.1,3.9,0.3,5.4c0.2-0.5,0.4-0.9,0.6-1.4
	c-0.1-2.3-0.1-4.6-0.2-6.8C20.1,676.3,19.9,673.1,19.7,669.7z M14.2,652.5c-0.4-0.4-0.8-0.8-1.2-1.2c0-0.2-0.1-0.6-0.2-1
	c0,0.1,0,0.2,0,0.2c-0.2-0.3-0.4-0.5-0.6-0.8c0.1,1.6,0.2,3.1,0.3,4.9c0.2-0.4,0.3-0.7,0.5-1.1c0.4,0.7,0.7,2.3,1,4.6
	c0.2-1.7-0.1-2.8,0-4.2C14,653.5,14.1,653,14.2,652.5z M14.4,625.4c0.1,1.4,0.3,2.7,0.3,4.1c0,1.5,0,3.1-0.1,4.7
	c0.2,1.3,0.3,1.5,0.6,1.2c-0.1-0.8-0.2-1.6-0.2-2.3c0-1.1,0-2.1,0.1-3.2l0,0.1c0.2-1.4,0.2-3.3,0.2-5.3
	C14.9,624.6,14.6,624.7,14.4,625.4z M17.7,652.7c0,0.7,0.1,1.5,0.1,2.2c0,1.9-0.2,2.6-0.4,3.4c-0.2,0.1-0.4,0.2-0.6,0.3
	c-0.4-1.6-0.6-4.5-0.7-8c-0.1-0.6-0.2-1.2-0.4-1.7c-0.1,0-0.2,0-0.4,0c0-0.4-0.1-1-0.2-1.8c0.1-0.5,0.2-0.9,0.3-1.3
	c0.4,2.2,1,1.9,1.3,5.1c0.2-0.5,0.4-1,0.7-1.6c0.1,0.4,0.1,0.8,0.2,1.2C17.8,651.3,17.7,652,17.7,652.7z M16.9,655.4
	c-0.1-1.2-0.1-1.9-0.3-1.5c0,0.5,0,0.9,0,1.7C16.7,655.5,16.8,655.4,16.9,655.4z M19.4,61.2c0-1.2,0-2.1,0-3.1
	c-0.1-0.9-0.2-1.8-0.3-2.8C18.9,58.6,19.1,60.7,19.4,61.2z M21.2,616.6c0,0.5,0.1,1,0.2,1.7c-0.2,0.4-0.4,0.7-0.6,1
	c-0.2-3.5-0.4-7-0.6-10.7c-0.1-0.1-0.2-0.3-0.4-0.5c0-2.4,0.1-5.1-0.3-6.4c-0.1-1.4-0.1-2.7-0.2-4.5c0-0.5,0-1.5,0-2.8
	c0.1-0.9,0.2-1.8,0.3-3c0.2,1.7,0.3,3,0.5,4.5c0,0.6,0,1.5,0,2.6c0.2,0.4,0.3,0.8,0.4,1.2c0,1.1,0.1,2.1,0.1,3.5
	c0,0.1,0,0.7-0.1,1.3c0.1,1.1,0.2,2.1,0.3,3.1c0.1,3,0.2,5.9,0.3,8.7C21.2,616.6,21.2,616.6,21.2,616.6z M20.7,611.3
	c0-0.1,0-0.3,0-0.5c0,0.1-0.1,0.1-0.1,0.1C20.6,611.1,20.6,611.4,20.7,611.3C20.6,611.4,20.7,611.4,20.7,611.3z M19.5,4.5
	C19.5,4.5,19.4,4.5,19.5,4.5C19.4,4.5,19.4,4.5,19.5,4.5C19.5,4.5,19.5,4.5,19.5,4.5z M19.5,0.5c0-0.2,0-0.3,0-0.5H19
	c0,0.4-0.1,0.9-0.1,1.3C19,2.2,19.1,3,19.2,3.8C19.3,2.7,19.4,1.6,19.5,0.5z M17.6,0L17.6,0c0,0.1,0,0.2,0,0.3
	C17.7,0.2,17.7,0.1,17.6,0z M18.7,0.9c0-0.3,0-0.6-0.1-0.9h-0.2c0,0.3,0,0.6,0,0.9C18.5,0.9,18.5,0.9,18.7,0.9z M11.8,647.6
	c0,0,0-0.1,0-0.2c0-0.1,0-0.2,0-0.4c0,0.1,0,0.2,0,0.3C11.8,647.5,11.8,647.6,11.8,647.6z M15.2,22.2c0-0.1,0-0.2,0-0.3
	c0-0.1,0-0.2,0-0.3c0,0.2,0,0.3,0,0.4C15.1,22.1,15.2,22.2,15.2,22.2z M25.4,571.3c0-0.2,0-0.5,0-0.8c0-0.2-0.1-0.3-0.2-0.7
	c0,0.9,0,1.4,0,2.1C25.3,571.6,25.4,571.5,25.4,571.3z M22.2,335.3c0,0.1,0,0.2,0,0.3c0,0.1,0,0.2,0,0.2c0,0,0-0.1,0-0.2
	C22.2,335.5,22.2,335.4,22.2,335.3z M23.3,426.5c0.1-1.1,0.2-2.3,0.3-3.7c-0.3-1.2-0.2-4.4-0.5-5.8c0.1,0.7,0.1,1.3,0.2,2
	c-0.1,1.7-0.2,3.3-0.3,4.5C23.2,424.6,23.3,425.6,23.3,426.5z M25.9,453.4c0.1,1.3,0.2,2.3,0.4,2.4c0,32.4,0,64.8,0,97.2
	c-0.3-1-0.5-2.8-0.8-2.7c-0.1,0.7-0.2,1.4-0.3,2.1c-0.1-0.3-0.2-0.6-0.3-0.8c-0.2,1.4,0.1,2.2,0,3.5c0,0.1-0.1,0.3-0.1,0.4
	c-0.2-1.8-0.3-3.6-0.2-5.8c0.1-0.5,0.4-0.2,0.3-2.4c-0.2-0.1-0.5-0.2-0.7-0.2c0,0.6-0.1,1.3-0.1,1.8c0.1,0.5,0.1,0.9,0.2,1.2
	c-0.1,1.1-0.2,2-0.2,2.8c0.1,0.3,0.2,0.5,0.3,0.7c0.1,1.6-0.2,2.5,0,4.1c0.1-0.3,0.3-0.6,0.4-0.9c0.1,1.3,0.2,2.5,0.3,3.6
	c-0.1,1.2-0.1,2.2-0.2,3.5c0.1,0.5,0.2,1,0.3,1.5c0.1,1.1,0.1,2.2,0.2,3.2c-0.4,2-0.5,1.7-0.3,4.8c0.1,0.4,0.2,0.8,0.4,1.2
	c0.1,2.3-0.2,5.2,0.2,7c0.1-0.6,0.2-1.2,0.3-1.8c0.1,0.8,0.1,1.5,0.2,2.1c-0.1,0.7-0.1,1.4-0.2,2.1c0.1,0.5,0.1,0.9,0.1,1.1
	c0.2-0.2,0.4-0.4,0.5-0.6c0,28,0,56.1,0,84.1c-0.2-0.6-0.3-1.9-0.4-3.5c-0.1-0.6-0.2-1.2-0.4-2c0-1.1,0-2.4,0-4.1
	c-0.2-3-0.4-6.4-0.5-9.8c-0.1-1.8-0.1-3.7-0.2-5.6c-0.1-2.4-0.1-4.9-0.2-7.6c0.2-1.1,0.4-1.9,0.5-4c0-1-0.1-2-0.1-3.2
	c0.1-0.3,0.2-0.6,0.3-0.9c0.1-1.5,0-2-0.3-2c-0.1,0.5-0.2,1-0.2,1.5c-0.2,0.1-0.4,0.2-0.6,0.2c-0.1-1.5-0.2-3-0.3-4.7
	c0-0.5,0-1.4,0-2.3c0.1-0.3,0.2-0.5,0.3-0.8c0.1-1.9,0.1-3.7,0.2-5.3c-0.1-2.1-0.2-3.9-0.3-5.9c0-1.1,0-2.3,0.1-3.5
	c-0.4-4.3-0.8-8.8-0.8-14.4c-0.1-0.8-0.1-1.4-0.2-2.2c0-3.6,0-7.2,0-10.9c0.1-0.5,0.2-1,0.3-1.4c0-1.5,0-1.5-0.3-2.5
	c0-3-0.1-6-0.4-8.6c0-2.9-0.1-5.6-0.3-8.3c-0.1-1.8-0.3-3.4-0.5-5.2c0-0.8,0-1.7,0-2.7c-0.1-0.5-0.2-1-0.2-1.4
	c0-2.1,0.1-4.1,0.1-6.5c0.1-0.6,0.2,0.3,0.3,0.6c0.1,0.2,0.2,0.3,0.3,0.4c0-0.2,0-0.4,0-0.5c-0.1-0.9-0.2-1.9-0.3-3.2
	c0.1-2.4-0.1-4.3-0.4-6.2c-0.2-1.7-0.5-3.1-0.5-5.5c0-0.6-0.1-1-0.2-1.5c0-1.9,0.3-2.8,0.4-4.5c0-1.6-0.1-3.4,0-5.3
	c0-1.9,0.1-3.7,0.2-5.5c0-1.2-0.3-2.1-0.1-3.7c0.2-0.3,0.3,0.8,0.4,1.5c0,2.1,0,4,0,5.8c0.2,0.6,0.3,1.1,0.4,1.7c0,0.7,0,1.5,0,2.3
	c0.2,0.6,0.3,1.2,0.5,1.8c0.1,0,0.2,0,0.3,0c0,0.4,0,0.8,0.1,1.4c-0.1,0.4-0.2,0.8-0.4,1.3c0,1.6,0.1,3.2,0.1,4.9
	c0.1,0.6,0.1,1.2,0.2,2c0,0.9,0,1.9,0,2.9c-0.3,4.1-0.3,4.3,0.1,6.2c0-0.9,0.1-1.7,0.1-2.6c0.1-0.4,0.2-0.8,0.3-1.3
	c0-0.8,0.1-1.7,0.1-2.5c-0.2-2.6-0.3-5.1-0.5-7.8c0-1.4,0.2-0.8,0.4-1.6c0-0.4,0.1-1.2,0.1-2c-0.1-0.8-0.2-1.3-0.3-2.1
	c0-1,0-2.5-0.3-3c-0.1-0.1-0.1,0.1-0.2,0.1c0,1,0,1.8-0.1,2.7c-0.2,0.2-0.2-0.5-0.3-1.4c0-0.7-0.1-1.2-0.2-2c0-1-0.1-2.2-0.1-3.4
	c-0.1-0.7-0.1-1.3-0.2-2.1c0-0.7,0-1.4,0-2.2c-0.1-0.8-0.1-1.7-0.2-2.6c0-1.3,0.1-2.2,0.3-2.8c0.2-0.5,0.3-1.4,0.4-2.7
	c0-0.8,0.1-1.5,0.3-1.5c0,1.1-0.1,2.2-0.1,3.3c0.1,0.6,0.2,1.1,0.3,1.5c0.1,2.9,0.2,5.5,0.3,8.4c-0.2,0.8-0.3,1.6-0.5,2.6
	c0,0.4,0.1,1,0.1,1.5c0.3-0.3,0.3-2.4,0.5-3.4c0.1,0.4,0.3,0.8,0.5,1.3c0-0.9,0.1-1.6,0-2.1c-0.1-2.1-0.2-4.1-0.3-6.1
	c0-0.8-0.1-1.5-0.1-2.3c0-1.7-0.1-3.5-0.2-5.3c0.1-1.1,0.2-2.1,0.2-3.1c0,0,0,0.1,0.1,0.1c0,0.8,0,1.7,0,2.6
	c0.2,0.6,0.4,1.1,0.6,1.7c0.4-1.3,0.4-2,0.4-6.1c-0.2-0.7-0.4-1.6-0.6-2.6c0-0.9,0-2.1,0-3.5c0.1-0.4,0.1-0.8,0.2-1.2
	c0-0.8,0.1-1.6,0.1-2.4c0.1-1.2,0.1-2.5,0.1-3.9c0-1.8,0-3.6,0-5.4c0-1.7,0-3.5-0.1-5c-0.1-2.4-0.1-4.5,0.1-6.7c0-0.3,0-0.7,0.1-1.2
	c-0.1-1.4-0.2-2.8-0.3-4.5c0-0.9,0-2.1,0-3.6c0.1-1,0.2-2.3,0.3-3.7c-0.1-1.3-0.2-2.6-0.1-4.3c0.1-0.1,0.2-0.2,0.3-0.4
	c0.3,2,0.5,3.9,0.8,6.3C25.8,450.5,25.9,451.9,25.9,453.4z M24.3,569.5c0.1,0.5,0.2,0.4,0.3-0.5c-0.1-2.2-0.1-2.4-0.4-2
	C24.1,568.1,24.1,568.9,24.3,569.5z M23.7,543.6c0.1-0.5,0.1-1.1,0-2.1C23.5,542.3,23.5,542.9,23.7,543.6z M23,545.8
	c0.1-0.7,0.2-1.5,0.2-2.9c-0.2,0.2-0.3,0.5-0.5,0.7C22.9,545.1,22.9,545.1,23,545.8z M24.1,545.8c-0.1-0.6-0.2-0.9-0.2-1.5
	c-0.1,1-0.2,1.9-0.3,2.9c-0.3-0.2-0.4,0.5-0.6,2c0,1.2,0,2.3,0.1,3.6c0.2,0.2,0.4-0.1,0.6-1.1c0-0.8-0.1-1.6-0.1-2.6
	C23.6,548.1,23.8,547,24.1,545.8z M24.4,433.6c-0.1,0.7-0.2,1.2-0.3,1.8C24.3,435.3,24.3,435.3,24.4,433.6z"/>
</svg>
