<svg version="1.1" id="Layer_1" xmlns="http://www.w3.org/2000/svg" xmlns:xlink="http://www.w3.org/1999/xlink" x="0px" y="0px"
	 viewBox="0 0 49.3 342.6" style="enable-background:new 0 0 49.3 342.6;" xml:space="preserve">
<style type="text/css">
	.st0{fill:none;}
	.st1{fill:#FFFFFF;}
</style>
<path class="st0" d="M42.6,115.6c0.2,0.2,0.4,0.3,0.5,0.5c0.3-0.1,0.6-0.2,1-0.4c0-0.6,0-1.1,0-1.5
	C43.1,113.3,42.6,113.9,42.6,115.6z"/>
<path class="st0" d="M45.4,92c-0.1-0.9-0.1-0.9-0.7-1c-0.1,0.7-0.8,0.9-0.7,2C44.6,93.1,44.8,92,45.4,92z"/>
<path class="st0" d="M45,110.8c0.2,0.6,0.4,0.7,0.7,0.4c0.2-0.9-0.1-1.5-0.3-2.4C44.9,109.3,44.8,110,45,110.8z"/>
<path class="st0" d="M45.8,106.2c0,0,0.1,0.1,0.1,0.1c0,0,0-0.1,0.1-0.2c0,0-0.1-0.1-0.1-0.1C45.9,106.1,45.8,106.2,45.8,106.2z"/>
<path class="st0" d="M43,109.1c0-0.1,0.1-0.1,0.1-0.2c-0.1-0.1-0.2-0.2-0.2-0.4c0,0.1-0.1,0.2-0.1,0.3C42.8,108.9,42.9,109,43,109.1
	z"/>
<path class="st0" d="M43.1,107c-0.1-0.7-0.2-1.3-0.3-1.9c-0.6,0.2-0.6,0.2-0.9,1.3c0.2,0.3,0.3,0.7,0.6,1.2
	C42.8,107.4,43,107.1,43.1,107z"/>
<polygon class="st0" points="37.3,40.7 37.3,40.8 37.3,40.7 "/>
<path class="st0" d="M48.1,94.2C48.1,94.2,48.1,94.2,48.1,94.2C48.1,94.2,48.1,94.1,48.1,94.2C48.1,94.1,48.1,94.1,48.1,94.2
	C48.1,94.1,48.1,94.1,48.1,94.2z"/>
<path class="st0" d="M47.6,88.9c-0.4-0.8-0.4-0.8-1-0.3c0,0.2,0.1,0.4,0.1,0.8C47.1,89.2,47.3,89.1,47.6,88.9z"/>
<path class="st0" d="M35.9,44.1c0.2,0.2,0.4,0.4,0.5,0.5c0.3-0.4,0.3-0.8,0-1.2C36.2,43.6,36.1,43.8,35.9,44.1z"/>
<path class="st0" d="M36.5,41.5c-0.1,0.8,0.3,1.3,0.3,2c0.2-0.2,0.3-0.3,0.4-0.5C36.8,42.8,37.3,41.7,36.5,41.5z"/>
<path class="st0" d="M46.6,95.8c0.1-0.1,0.1-0.3,0.2-0.4c0-0.1-0.1-0.1-0.1-0.2C46.5,95.3,46.3,95.3,46.6,95.8z"/>
<path class="st0" d="M47,114.2c0,0.8,0,1.3,0.4,1.5c0.6-0.5,0.6-0.5,0.4-1.5C47.6,114.1,47.3,114.1,47,114.2z"/>
<polygon class="st0" points="43.6,91.1 43.6,91.2 43.7,91.2 "/>
<path class="st0" d="M38.8,31.2c-0.4,0.2-0.7,0.4-1,0.5c-0.3,0.1-0.7-0.3-0.9,0.6c0.2,0.2,0.4,0.5,0.6,0.7c0.3-0.3,0.6-0.5,0.8-0.7
	c0.4,0.3,0.7,0.8,1.3,0.4c-0.3-0.2-0.4-0.3-0.6-0.4C39,31.9,38.9,31.6,38.8,31.2z"/>
<path class="st0" d="M33.7,117.7c0.7,1.2,0.9,1.3,1.5,0.6c0-0.8-0.3-1.2-0.7-1.5C34,117,34,117,33.7,117.7z"/>
<path class="st0" d="M42.4,90.5c0-0.1-0.1-0.1-0.1-0.2c-0.1,0.2-0.2,0.3-0.3,0.5c0,0.1,0.1,0.1,0.1,0.2
	C42.3,90.9,42.3,90.7,42.4,90.5z"/>
<path class="st0" d="M43.4,94c-0.1-0.9-0.3-1.1-0.6-0.9c-0.1,0.3-0.2,0.7,0,0.9C43,94.1,43.2,94,43.4,94z"/>
<path class="st0" d="M48.7,111.6c0,0.2,0,0.5,0,0.9c0.2,0,0.4,0,0.6-0.1v-0.6C49.3,111.4,49.2,111.4,48.7,111.6z"/>
<path class="st0" d="M49.3,94.4L49.3,94.4C49.3,94.3,49.3,94.3,49.3,94.4C49.3,94.4,49.3,94.4,49.3,94.4z"/>
<path class="st0" d="M38.7,95.8c-0.2,1-0.3,1.8-0.6,2.6c-0.3,1.2-0.3,1.4,0.3,2.3c0.5,0.1,0.6-0.4,0.6-1c0-0.8-0.1-1.6-0.1-2.3
	c0.1-0.7,0.6-1,0.2-1.8C39,95.7,38.8,95.7,38.7,95.8z"/>
<path class="st0" d="M41.5,94c0-0.8-0.3-0.8-0.4-1c-0.2-0.2-0.4-0.4-0.6-0.6c-0.2-0.2-0.3-0.6-0.5-0.9c-0.2,0.3-0.3,0.5-0.4,0.7
	c0.2,0.5,0.4,1,0.6,1.4C40.6,93.7,41,93.8,41.5,94z"/>
<path class="st0" d="M40.5,99.8c-0.2,0.4-0.3,0.9,0,1.5c0.4-0.2,0.8-0.4,1.2-0.7c0-0.5-0.1-0.9-0.1-1.2C41.1,99,40.7,99.3,40.5,99.8
	z"/>
<path class="st0" d="M40,94.2c0,0.3,0,0.6,0,0.8C40.4,94.7,40.4,94.5,40,94.2z"/>
<path class="st0" d="M41.6,89.1c-0.1,0-0.2,0-0.2-0.1c0,0.1,0,0.2,0,0.3c0.1,0,0.2,0,0.2-0.1C41.6,89.3,41.6,89.2,41.6,89.1z"/>
<path class="st0" d="M41,95.3c0.2,0.5,0.4,0.5,0.7,0.1C41.5,94.9,41.3,94.8,41,95.3z"/>
<path class="st0" d="M41.4,91.4c-0.1,0.1-0.2,0.1-0.4,0.2c0.1,0.3,0.2,0.6,0.2,0.8C41.6,92.1,41.7,91.8,41.4,91.4z"/>
<path class="st0" d="M43,112.4c0.1-0.3,0.1-0.6,0.2-0.8c-0.3-0.5-0.5-0.5-0.8-0.1C42.4,112,42.5,112.4,43,112.4z"/>
<path class="st0" d="M12.1,105.7c0-0.1,0.1-0.3,0.1-0.5c-0.1,0.1-0.2,0.1-0.3,0.2c0,0.1,0,0.2,0,0.3C12,105.6,12,105.7,12.1,105.7z"
	/>
<path class="st0" d="M38.3,60c0.6-0.3,0.6-0.3,0.5-1.3C38.1,58.8,38,59.1,38.3,60z"/>
<path class="st0" d="M11.7,101.8c-0.1,0-0.2,0-0.3,0.1c0,0.1,0,0.1,0,0.2c0.1,0,0.2,0,0.3,0.1C11.7,102,11.7,101.9,11.7,101.8z"/>
<path class="st0" d="M47.7,158c0.1,1.2,0.1,1.2,0.8,1.1c0-0.4,0-0.9,0.1-1.3C48.2,157.5,47.9,157.5,47.7,158z"/>
<path class="st0" d="M39.5,129.6c-0.3,0.1-0.5,0.3-0.8,0.4c0.1,0.4,0.2,0.6,0.2,0.9C39.5,130.9,39.7,130.6,39.5,129.6z"/>
<path class="st0" d="M48,31.5c0.4,0.4,0.8,0.6,1.3,0.2v-0.3C48.9,31,48.5,31.2,48,31.5z"/>
<path class="st0" d="M47.7,278.6c0,0.5,0.1,1.1,0.1,1.7c0.5,0.1,0.8-0.1,1.2-0.5c-0.1-0.4-0.2-0.7-0.3-1.2c0.2-0.2,0.4-0.4,0.6-0.7
	v-1.1c-0.1,0.3-0.3,0.5-0.4,0.8C48.4,277.5,48,277.9,47.7,278.6z"/>
<path class="st0" d="M34.5,326.9c0,0.2,0,0.4,0,0.8c0.2,0,0.4-0.1,0.7-0.1C35,327,34.9,326.7,34.5,326.9z"/>
<path class="st0" d="M48,277c0.3-0.3,0.5-0.7,0.5-1.3c-0.3,0.1-0.6,0.2-1,0.3C47.6,276.6,47.6,276.6,48,277z"/>
<polygon class="st0" points="10,97.7 10,97.7 10,97.6 "/>
<path class="st0" d="M42.9,307.1c0,0.1,0,0.2,0,0.2c0.1,0,0.1,0,0.2,0c0-0.1,0-0.1,0-0.2C43,307,43,307.1,42.9,307.1z"/>
<path class="st0" d="M49.3,19.4v-1.3C49.1,18.6,49.2,19,49.3,19.4z"/>
<path class="st0" d="M49.3,275.9C49.3,275.9,49.3,275.9,49.3,275.9l0.1-0.9c0,0,0,0,0,0C49,275.4,49,275.6,49.3,275.9z"/>
<path class="st0" d="M49.3,5C49.3,5,49.3,5,49.3,5l0-0.2C49.3,4.8,49.3,4.9,49.3,5C49.3,4.9,49.3,5,49.3,5z"/>
<path class="st0" d="M28.6,137c0.3,0.1,0.6,0.1,0.9,0.1c0-0.4,0.1-0.7,0.1-1C28.9,135.8,28.8,135.8,28.6,137z"/>
<path class="st0" d="M37.7,30.1c-0.2,0.2-0.2,0.5,0,0.9c0.2-0.2,0.3-0.3,0.5-0.5C38.1,30,37.9,29.9,37.7,30.1z"/>
<path class="st0" d="M35,28.5c0.1,0.1,0.2,0.3,0.3,0.4c0.2-0.1,0.3-0.1,0.1-0.9C35.1,28.2,35.1,28.3,35,28.5z"/>
<path class="st0" d="M38.7,29c-0.4-0.4-0.7-0.6-1-0.8c-0.3,0.9-0.3,0.9,0.3,1.6C38.2,29.5,38.4,29.3,38.7,29z"/>
<path class="st0" d="M49.2,11c0,0.1,0.1,0.1,0.1,0.2v-0.4c0,0,0,0,0,0C49.3,10.9,49.3,10.9,49.2,11z"/>
<path class="st0" d="M36.3,30.8c0.3,0.2,0.6,0.2,0.8-0.4C36.5,29.8,36.4,29.9,36.3,30.8z"/>
<path class="st0" d="M37.1,28.8c-0.6-0.4-1-0.2-1.5,0.5c0,0.2,0.1,0.4,0.1,0.6C36.2,29.7,36.7,29.6,37.1,28.8z"/>
<path class="st0" d="M49.2,7.3c0.1,0,0.1,0.1,0.2,0.2V6.9c0,0,0,0,0,0C49.3,7,49.2,7.1,49.2,7.3z"/>
<path class="st0" d="M33.9,133.9c-1.2-0.5-1.5-0.4-1.9,0.8c0.2,0.3,0.4,0.6,0.7,0.9C33.8,135.1,33.9,134.9,33.9,133.9z"/>
<path class="st0" d="M36.1,33c-0.1,0.3-0.1,0.6-0.2,1c0.2,0.6,0.4,1.2,0.7,1.8c0.6-0.6,1-1.1,0.9-2.3C37,33.1,36.6,32.7,36.1,33z"/>
<path class="st0" d="M40.5,26.9C40.5,26.9,40.5,26.9,40.5,26.9C40.5,26.9,40.5,26.9,40.5,26.9C40.5,26.9,40.5,26.9,40.5,26.9
	C40.5,26.9,40.5,26.9,40.5,26.9L40.5,26.9z"/>
<path class="st0" d="M49.3,4.2v-1c-0.2,0.2-0.4,0.4-0.6,0.6C49,4.3,49.2,4.3,49.3,4.2z"/>
<path class="st0" d="M49.2,29.5c0.1,0,0.1-0.1,0.2-0.1v-0.5c0,0-0.1-0.1-0.1-0.1C49.2,29.1,49.2,29.3,49.2,29.5z"/>
<path class="st0" d="M7.3,64.9c-0.1-0.2-0.2-0.4-0.3-0.6c-0.1,0.1-0.1,0.2-0.2,0.2C6.8,64.9,6.9,65.1,7.3,64.9z"/>
<path class="st0" d="M36,63.6c0.1,0.5,0.1,1,0.2,1.4c0.1-0.1,0.2-0.1,0.3-0.1C36.6,64.3,36.6,63.8,36,63.6z"/>
<path class="st0" d="M44.3,16.6c-0.3-0.2-0.5-0.4-0.9-0.7c-0.1,0.4-0.3,0.7-0.4,1.2C43.9,17.2,43.9,17.2,44.3,16.6z"/>
<path class="st0" d="M44.5,15.2c-0.3-0.3-0.3-0.3-0.7,0.1C44.1,15.6,44.3,15.7,44.5,15.2z"/>
<path class="st0" d="M45,13.1c0.3-0.2,0.5-0.4,0.7-0.6c0-0.1,0-0.2,0-0.3c-0.3-0.1-0.5-0.3-0.7-0.4c-0.2,0.7-0.4,1.2-0.6,1.8
	c0.1,0.1,0.1,0.2,0.3,0.5C44.8,13.7,44.9,13.3,45,13.1z"/>
<path class="st0" d="M47.5,11.2c-0.2-0.2-0.3-0.4-0.5-0.6c-0.2,0.6-0.4,1-0.6,1.5c0.2,0.1,0.3,0.2,0.5,0.4
	C47.2,12,47.3,11.7,47.5,11.2z"/>
<path class="st0" d="M45.1,14.2c0.1-0.1,0.3-0.2,0.4-0.2c0.2-0.1,0.3-0.1,0.5-0.2c0-0.2,0.1-0.5,0.1-0.7
	C45.3,13.5,45.3,13.5,45.1,14.2z"/>
<path class="st0" d="M43.4,25.8c0.4-0.6,1,0.1,1.3-1c-0.5,0-0.9,0-1.3,0C43.4,25,43.4,25.2,43.4,25.8z"/>
<path class="st0" d="M12.5,70c-0.1,0-0.2-0.1-0.4-0.1c0,0.1,0,0.2,0,0.3c0.1,0,0.2,0,0.4,0C12.5,70.2,12.5,70.1,12.5,70z"/>
<path class="st0" d="M43.9,23.5c0,0,0.1,0,0.1,0c0-0.1,0-0.1-0.1-0.2C44,23.4,43.9,23.5,43.9,23.5z"/>
<path class="st0" d="M45.5,18.6c0.4,0.4,0.8,0.8,1.2,0.4c0-0.3-0.1-0.5-0.1-0.9c-0.3,0.1-0.5,0.1-0.7,0.1c0,0,0-0.1-0.1-0.1
	c0-0.1,0-0.2,0-0.3c0-0.1,0.1-0.2,0.1-0.3c0.9-0.5,1.1-0.4,1.6,0.9c0.1,0.3,0.2,0.5,0.4,0.8c0,0.6,0,1.2,0.1,1.8
	c0.1,0.6,0.2,1.1,0.3,1.6c0.5,0,0.7-0.6,1-1c0.1-0.1,0-0.4,0-0.5c-0.4-0.2-0.7-0.3-1-0.4c0-1,0-1.8,0-2.7c-0.6-0.6-1.1-1.2-1.6-1.9
	c0-0.3,0.1-0.6,0.1-1.1c-0.6,0-1-0.8-1.5,0c0,0.1,0,0.2,0,0.4c0.2,0.1,0.4,0.3,0.7,0.5c-0.5,0.3-0.8,0.6-1.2,0.8c0,0.5,0,0.9,0,1.4
	c-0.2,0-0.4,0-0.6-0.1c-0.2-0.1-0.4-0.1-0.6,0.4c0.2,0.3,0.4,0.6,0.6,0.8C44.7,19,45.1,18.8,45.5,18.6z M45.3,17.4
	c0,0.1,0.1,0.2,0.1,0.3c-0.1,0.1-0.1,0.1-0.2,0.1c0-0.1,0-0.1-0.1-0.2C45.2,17.6,45.2,17.5,45.3,17.4z"/>
<path class="st0" d="M45.8,20.2c0.1,0.3,0.3,0.7,0.5,1.2c0.1-0.6,0.4-0.9,0.2-1.4C46.3,19.7,46,19.7,45.8,20.2z"/>
<path class="st0" d="M45.1,34.8c0.1,0.4,0.1,0.7,0.2,1.2c0.2-0.6,0.3-1,0.5-1.5C45.4,34.2,45.2,34.4,45.1,34.8z"/>
<path class="st0" d="M41.5,77.3C41.5,77.4,41.5,77.4,41.5,77.3C41.5,77.4,41.5,77.3,41.5,77.3C41.5,77.3,41.5,77.2,41.5,77.3
	C41.5,77.3,41.5,77.3,41.5,77.3z"/>
<path class="st0" d="M41.8,57.2c0.2-0.2,0.5-0.1,0.5-0.7C42,56.4,41.8,56.7,41.8,57.2z"/>
<path class="st0" d="M47.5,35.2c0.1,1.1,0.2,1.1,0.7,0.8C48.1,35.5,47.9,35.1,47.5,35.2z"/>
<path class="st0" d="M47.6,37.5c-0.2,0.4-0.2,0.8,0.1,1.3c0.2-0.4,0.4-0.8,0.7-1.2C48.1,37.1,47.8,37.2,47.6,37.5z"/>
<path class="st0" d="M42,58.4c-0.2,0.2-0.3,0.3-0.4,0.5C41.9,59.2,41.9,59.2,42,58.4z"/>
<path class="st0" d="M43.8,22.3c0.3,0.2,0.5,0.4,0.9,0.7c-0.1-0.6-0.2-1-0.2-1.4C43.9,21.6,43.9,21.6,43.8,22.3z"/>
<path class="st0" d="M47.4,15.2c0.1-0.7,0.2-1.3,0.2-1.9c0.3-0.2,0.5-0.4,0.8-0.6c0-0.3,0-0.6-0.1-0.9c0.1-0.1,0.2-0.2,0.3-0.3
	c0-0.3-0.1-0.6-0.1-0.8c0.1-0.5,0.5-0.7,0.3-1.4c-0.3,0.1-0.6,0.2-1,0.4c0.1,0.6,0.2,1.1,0.3,1.7c-0.3,0.6-0.7,1.1-0.9,1.7
	C46.9,13.7,47.1,14.5,47.4,15.2z"/>
<path class="st0" d="M48,16.8c0,0-0.1,0-0.1,0c0,0,0,0.1,0.1,0.1C48,16.9,48,16.8,48,16.8z"/>
<path class="st0" d="M47.1,8.6C47,9,47,9.4,46.9,10.1c0.2-0.1,0.4-0.1,0.6-0.2c-0.1-0.5-0.2-0.9-0.3-1.3C47.2,8.6,47.1,8.6,47.1,8.6
	z"/>
<path class="st0" d="M37.6,46.1c0.2,0.1,0.4,0.1,0.5,0.1c-0.1-0.2-0.2-0.5-0.3-0.9C37.8,45.7,37.7,45.8,37.6,46.1z"/>
<path class="st0" d="M48.3,3.7c-0.2-0.1-0.3-0.2-0.5-0.3c0,0.3,0,0.5,0,0.8C48,4,48.1,3.9,48.3,3.7z"/>
<path class="st0" d="M48.2,2.6c0-0.1-0.1-0.1-0.2-0.2c-0.2,0.1-0.4,0.2,0,0.6C48.1,2.8,48.2,2.7,48.2,2.6z"/>
<path class="st0" d="M47.2,33.6c0.3-0.1,0.7-0.2,1.1-0.3c-0.1-0.2-0.1-0.3-0.2-0.5c-0.4,0.2-0.7,0.3-1,0.5
	C47.1,33.4,47.2,33.5,47.2,33.6z"/>
<path class="st0" d="M47.1,8.1c0.4-0.3,0.6-0.6,0.4-1.4C47.2,7,47,7.2,46.8,7.4c0,0.2,0,0.3,0.1,0.4C46.9,7.9,47,8,47.1,8.1z"/>
<path class="st0" d="M44.7,81c-0.1,0.2-0.1,0.4-0.2,0.8c0.2,0,0.4,0,0.6,0c-0.1-0.3-0.1-0.5-0.2-0.7C44.8,81,44.8,81,44.7,81z"/>
<path class="st0" d="M42.6,79.1c0.1,0.4,0.3,0.9,0.4,1.2c-0.2,0.3-0.3,0.6-0.5,0.9c0.2,0.2,0.3,0.3,0.4,0.4c0.5-0.6,0.5-1.4,0.4-2.2
	C43.2,79.1,43,78.8,42.6,79.1z"/>
<path class="st0" d="M43.3,39.7c0.3,0.2,0.4,0.2,0.6,0.4c0,0.4-0.1,0.8-0.1,1c0.2,1.1,0.5,2,0.7,3c0.6-0.2,0.7-1,1-1.5
	c-0.4-1.4-0.8-2.6-1.2-3.9C43.9,39.1,43.6,39.4,43.3,39.7z"/>
<path class="st0" d="M43.8,47.5c-0.2,0.6-0.2,1,0.1,1.4c0.2-0.1,0.5-0.3,0.7-0.4C44.6,47.5,44.2,47.5,43.8,47.5z"/>
<path class="st0" d="M45.3,20c-0.3-0.2-0.5-0.1-0.6,0.4c0.1,0.2,0.1,0.5,0.2,0.7c-0.1,0.3-0.2,0.6-0.3,0.9c0.5,0.2,0.6-0.3,0.7-0.7
	C45.4,20.9,45.4,20.5,45.3,20z"/>
<path class="st0" d="M45.5,46.1c0,0.5,0,0.9,0,1.1c0.2,0.5,0.3,0.8,0.6,1.4c0.2-0.4,0.3-0.5,0.4-0.7c-0.2-0.6-0.3-0.9-0.3-1.3
	C46,46.1,45.8,45.9,45.5,46.1z"/>
<path class="st0" d="M44.9,59.8C44.9,59.8,44.8,59.7,44.9,59.8c-0.1,0-0.1,0-0.1,0c0,0,0.1,0.1,0.1,0.1
	C44.8,59.9,44.9,59.8,44.9,59.8z"/>
<path class="st0" d="M45.4,37.2c0.2,0.7,0.3,1.2,0.5,1.6c0.2,0.5,0.4,0.9,0.8,1c0.1-0.2,0.2-0.3,0.2-0.4c-0.3-1.2-0.5-2.3-0.8-3.3
	C45.5,36.3,45.4,36.7,45.4,37.2z"/>
<path class="st0" d="M48.7,51.7c-0.3-0.2-0.5,0-0.7,0.3c-0.2,0.5-0.3,1,0.1,1.5c0.3-0.2,0.6-0.4,0.8-0.6
	C49.2,52.2,49.1,51.9,48.7,51.7z"/>
<path class="st0" d="M37.4,41.9c0.3,0.5,0.3,1,0.7,0.9c0.1-0.5,0.2-1-0.1-1.6C37.9,41.4,37.7,41.6,37.4,41.9z"/>
<polygon class="st0" points="32.9,64.4 32.9,64.4 32.9,64.3 "/>
<path class="st0" d="M47.5,24.7c-0.3-0.6-0.5-0.5-0.7-0.1C47.1,24.9,47.1,24.9,47.5,24.7z"/>
<path class="st0" d="M47.1,44.7c0.3,0.3,0.5,0.3,0.7-0.2c0-0.2-0.1-0.4-0.2-0.6C47.2,44.2,47.2,44.2,47.1,44.7z"/>
<path class="st0" d="M44.6,57.6c-0.2,0.6-0.2,0.6,0,1C44.8,58.2,44.9,57.9,44.6,57.6z"/>
<path class="st0" d="M45.6,29c0-0.1,0-0.2,0-0.3c-0.1,0-0.2,0.1-0.3,0.1c0,0.1,0,0.1,0,0.2C45.4,29,45.5,29,45.6,29z"/>
<path class="st0" d="M38.3,43.3c0.2,0.5,0.1,1.2,0.6,1.7c0.2-0.3,0.5-0.5,0.7-0.8c0-0.6,0-1.1,0-1.6c0,0,0,0,0,0
	c-0.1-0.3-0.2-0.6-0.3-0.9C38.7,41.8,38.5,42.4,38.3,43.3z"/>
<path class="st0" d="M42.9,50.4c0.1,0.4,0.1,0.7,0.2,1.1C43.4,50.9,43.4,50.9,42.9,50.4z"/>
<path class="st0" d="M43.2,46.1c-0.6-0.8-0.5-2-0.4-3.2c-0.2-0.2-0.3-0.4-0.5-0.7c-0.2,0.4-0.3,0.6-0.5,0.9c0,0.5,0.1,0.9,0.1,1.3
	c-0.2,0.8-0.4,1.4-1,1.8c-0.1-0.3-0.1-0.4-0.2-0.6c-0.1-0.2-0.1-0.3-0.3-0.6c-0.3,0.2-0.5,0.5-0.7,0.6c0.1,0.6,0.1,1,0.2,1.4
	c0.3,0,0.5,0,0.8,0c0.2-0.2,0.4-0.3,0.6-0.5c0.2,0.4,0.5,0.7,0.6,0.9c0.3,1.3-0.1,2.6,0.3,3.8c0.8-0.9,0.8-2.1,1-3
	C43.2,47.3,43.2,46.7,43.2,46.1z"/>
<path class="st0" d="M40.6,42.5c-0.1-0.5-0.3-0.6-0.5-0.4c-0.1,0.1-0.3,0.4-0.4,0.6C40,42.8,40.3,43.2,40.6,42.5z"/>
<path class="st0" d="M34.5,57.1c0,0.1,0,0.2,0,0.2c0.1,0,0.1-0.1,0.2-0.1c0-0.1,0-0.1,0-0.1C34.6,57.1,34.5,57.1,34.5,57.1z"/>
<path class="st0" d="M42.6,37.7c-0.2-0.5-0.4-0.9-0.3-1.5c0.2,0,0.5,0.2,0.7-0.3c-0.2-0.2-0.4-0.4-0.6-0.6c0.1-0.4,0.1-0.8,0.2-1.3
	c-0.3,0.1-0.5,0.2-0.6,0.3c0,0.5,0,0.8,0,1.2c0,0-0.1,0-0.1-0.1c-0.2,0.8-0.4,1.6-0.6,2.4c0.2,0.3,0.3,0.6,0.5,0.9
	c-0.1,0.7,0,1.2,0.5,1.5c0.1-0.2,0.3-0.4,0.4-0.6c0.1-0.3,0.2-0.6,0.4-1c0.2,0,0.4,0.1,0.5,0.1c0.8-1.1,1.1-2.2,0.5-2.7
	c-0.1,0-0.3,0.1-0.4,0.1C43.5,36.9,43.2,37.6,42.6,37.7z M42.3,36.2L42.3,36.2C42.3,36.2,42.3,36.2,42.3,36.2L42.3,36.2L42.3,36.2z"
	/>
<path class="st0" d="M44.8,32.2c-0.2-0.7-0.4-1-0.9-0.7C44.2,32,44.3,32.4,44.8,32.2z"/>
<path class="st0" d="M41.4,33.7c0.2-0.1,0.5-0.2,0.7-0.3c0-0.3-0.1-0.6-0.1-0.8c0.4-0.1,0.9-0.1,1.3-0.2c0-0.3,0.1-0.6,0.1-0.8
	c-0.7,0-1.4,0.1-2,0.1c-0.3,0-0.5,0.1-0.8,0.2c-0.3,0.1-0.4,0.4-0.2,0.9c0.2,0,0.4,0.1,0.6,0.1C41.1,33.1,41.3,33.4,41.4,33.7z"/>
<path class="st0" d="M43.3,60c0-0.1,0-0.3,0-0.4c-0.1-0.1-0.2-0.2-0.3-0.2c0,0.1,0,0.1-0.1,0.2c0.1,0.2,0.2,0.4,0.3,0.5
	C43.2,60,43.3,60,43.3,60z"/>
<path class="st0" d="M43.1,56.3c0,0.3,0,0.4,0,0.5c0.1,0,0.1-0.1,0.2-0.1C43.3,56.6,43.2,56.5,43.1,56.3z"/>
<path class="st0" d="M41,40.9c0-0.8,0.1-1.5,0-2.3c-0.1-0.9-0.4-1.1-0.9-0.8c-0.3,2.1-0.2,2.7,0.3,3.6C40.6,41.3,40.7,41.1,41,40.9z
	"/>
<path class="st0" d="M44.8,33.5c0.1,0.2,0.3,0.1,0.4,0.2c0.2-0.7,0-0.9-0.3-1C44.7,33,44.6,33.3,44.8,33.5z"/>
<path class="st1" d="M7.3,88.6c0.1,0.6,0,0.9-0.3,0.9C6.7,89,6.9,88.8,7.3,88.6z M24,85.1c0.7,0.4,1.3,0.2,1.9-0.7
	C25.3,83.7,24.5,84,24,85.1z M5.9,80.6C6,80.3,6.1,80,6.2,79.8C5.8,80,5.8,80,5.9,80.6z M6.7,108.6c0.4-0.4,0.8-0.6,0.9-1.6
	C7.2,107.6,6.7,107.5,6.7,108.6z M7.8,111.6c0.1,0,0.1,0,0.2,0c0-0.2-0.1-0.4-0.1-0.5c0,0-0.1,0-0.1,0
	C7.8,111.3,7.8,111.4,7.8,111.6z M10.1,118.4c0.1,0,0.2,0,0.3,0C10.3,118.2,10.2,118.1,10.1,118.4z M9.9,103.1
	c-0.2-0.5-0.3-0.9-0.5-1.4c-0.1,0.1-0.2,0.1-0.3,0.2C9,102,9,102.2,8.8,102.5c0.2,0.1,0.3,0.3,0.3,0.3c-0.1,0.8-0.1,1.3-0.2,1.9
	C9.8,104.7,9.7,103.8,9.9,103.1z M8.2,108.5c0.1,0.1,0.1,0.1,0.2,0.1c0-0.1,0-0.2,0-0.3c-0.1,0-0.2,0-0.2,0
	C8.2,108.3,8.2,108.5,8.2,108.5z M7.1,112.6c-0.1,0.1-0.2,0.1-0.3,0.2c0,0.1,0,0.1,0,0.2c0.1,0,0.2-0.1,0.3-0.1
	C7.2,112.8,7.2,112.7,7.1,112.6z M7,113.7c0,0.1,0,0.1,0,0.2c0.1,0,0.1,0,0.4-0.1C7.1,113.8,7.1,113.7,7,113.7z M7.9,109.1
	C7.8,109.1,7.8,109.1,7.9,109.1c0,0.1,0,0.1,0,0.1C7.9,109.2,7.9,109.1,7.9,109.1C7.9,109.1,7.9,109.1,7.9,109.1z M7.5,110.1
	c-0.2,0.2-0.3,0.3-0.4,0.5C7.5,110.8,7.6,110.7,7.5,110.1z M7.1,131.4L7.1,131.4L7.1,131.4L7.1,131.4z M6.1,128.6
	c0.3,0.2,0.6,0.3,1,0.6c0-0.4,0.1-0.7,0.1-1.3c-0.5,0.2-0.8,0.4-1.1,0.5C6.1,128.4,6.1,128.5,6.1,128.6z M7.1,130.1
	c-0.1,0-0.1,0-0.2,0c0,0,0,0.1,0,0.1c0.1,0,0.1,0,0.2,0C7.1,130.2,7.1,130.1,7.1,130.1z M7.2,124.7c0.2-0.5,0.2-0.8-0.1-1.2
	C6.9,124,6.9,124.3,7.2,124.7z M7.3,122.5c0,0.1,0,0.1,0,0.2c0.1,0,0.2,0,0.2-0.1c0,0,0-0.1,0-0.1C7.5,122.5,7.4,122.5,7.3,122.5z
	 M5.6,79C5.6,79,5.6,79,5.6,79c0.1-0.1,0.1-0.2,0.1-0.3c0,0-0.1,0-0.1,0C5.6,78.8,5.6,78.9,5.6,79z M6.6,119.2c0,0-0.1-0.1-0.1-0.1
	c0,0,0,0.1-0.1,0.2c0,0,0.1,0.1,0.1,0.1S6.5,119.2,6.6,119.2z M7.4,117.4c0.4,0,0.7,0,1.1,0c0.3,0.6,0.5,1.1,0.8,1.7
	c0.3-0.7,0.5-1.4,0.8-2.2c-0.3-0.2-0.5-0.5-0.7-0.7c0.3-1.1,0.6-2.1,1-3.2c-0.1-0.3-0.3-0.6-0.5-0.9c-0.2,0.3-0.4,0.5-0.5,0.6
	c-0.2-0.2-0.3-0.4-0.5-0.6c0,0-0.1,0.1-0.1,0.1c0.1,0.5,0.1,1,0.2,1.3c0.2,0.6,0.7,0.7,0.7,1.3c-0.3,0.5-0.5,0.9-0.7,1.2
	c-0.4,0.3-0.6,0.5-0.9,0.8c-0.5-0.1-0.7-1.3-1.4-0.9c-0.2,0.7,0,1.2,0.3,1.6c0.1,1.1,0.3,2.2,0.4,3.2c0.1,0.2,0.3,0.5,0.5,0.8
	c0.1-0.6,0.2-1.1,0.3-1.6c-0.2-0.5-0.4-0.9-0.7-1.4C7.3,118.2,7.3,117.8,7.4,117.4z M7.1,120.8C7.1,120.7,7.1,120.7,7.1,120.8
	C7.1,120.7,7.1,120.7,7.1,120.8C7.1,120.7,7.1,120.7,7.1,120.8C7.1,120.8,7.1,120.8,7.1,120.8z M6.6,124.3c0.1-0.5,0.2-0.9,0.2-1.2
	c-0.1-0.3-0.1-0.6-0.2-0.8c-0.4,0.1-0.6-0.6-0.9-1c-0.1,0.3-0.3,0.5-0.4,0.8c0.3,0.2,0.5,0.3,0.7,0.4c0,0.4,0.1,0.9,0.1,1.5
	C6.3,124,6.4,124.1,6.6,124.3z M5,134.4c0,0,0.1,0,0.1,0.1c0-0.1,0-0.2,0.1-0.4c0,0-0.1,0-0.1,0C5.1,134.2,5,134.3,5,134.4z
	 M5.6,60.3c-0.4,0.6-0.4,0.9,0.1,1.5C5.6,61.2,5.6,60.8,5.6,60.3z M4.7,123.2c0.1,0.2,0.2,0.3,0.4,0.6c0-0.4,0.1-0.6,0.1-0.8
	c-0.2,0-0.3,0-0.4,0C4.8,123.1,4.8,123.2,4.7,123.2z M7.1,120.7c-0.3,0-0.6,0-0.6,0.7c0.1,0.3,0.1,0.5,0.2,0.8
	c0.1-0.2,0.3-0.3,0.3-0.5C7,121.4,7.1,121.1,7.1,120.7z M6.6,122.2C6.6,122.2,6.6,122.2,6.6,122.2C6.6,122.2,6.6,122.3,6.6,122.2
	C6.6,122.3,6.6,122.3,6.6,122.2C6.6,122.3,6.6,122.3,6.6,122.2C6.6,122.3,6.6,122.2,6.6,122.2z M9.6,122.1c0-0.3,0-0.5,0.1-0.8
	c-0.2,0-0.4-0.1-0.5-0.1c-0.1,0.3-0.1,0.5-0.3,0.9C9.2,122.2,9.4,122.1,9.6,122.1z M13.6,88.3c0.2,0.3,0.3,0.5,0.5,0.7
	C14.2,88.2,14.1,88.1,13.6,88.3z M13.6,94.7c0,0,0.1,0,0.1,0c0-0.2,0-0.3,0-0.5c-0.1,0-0.1,0-0.2,0.1C13.5,94.4,13.5,94.6,13.6,94.7
	z M12.1,97c0-0.1,0-0.2,0-0.3c-0.1-0.1-0.3-0.3-0.5-0.5c0,0.5,0,0.8,0,1.2C11.8,97.1,11.9,97,12.1,97z M11.3,91.5c0.2,0,0.4,0,0.6,0
	c0,0,0-0.1,0-0.1C11.7,91.4,11.6,91.5,11.3,91.5z M14.8,103c-0.2,0.5-0.9,0-1,1c0.8,0.3,1.3,0.2,1.9-0.4
	C15.4,103.4,15.1,103.2,14.8,103z M13,92.8c0.3,0.5,0.4,0.4,0.6,0.1c0-0.1,0-0.1,0-0.3C13.4,92.6,13.3,92.7,13,92.8z M14.7,107.7
	c-0.4-0.4-0.7-0.6-0.9-0.9c-0.3,0.3-0.6,0.6-1,1C13.5,108.2,14,108,14.7,107.7z M23.9,72c0.1-0.2,0-0.5,0-0.7
	c-0.1,0-0.1-0.1-0.2-0.1c-0.2,0.4-0.3,0.7-0.5,1.1C23.6,72.6,23.8,72.4,23.9,72z M14,97.6c0,0.2-0.1,0.3-0.1,0.6
	C14.2,97.9,14.2,97.9,14,97.6z M11.3,105.1c0.1-0.3,0.3-0.6,0.5-1c-0.3-0.4-0.6-0.8-0.9-1.2c0-0.3-0.1-0.7-0.1-1.2
	c0.3-0.4,0.6-0.7,0.9-1.1c0.2,0.3,0.3,0.5,0.5,0.8c-0.2,0.6-0.4,1.1-0.6,1.7c0.6,0.6,1.1,1.2,1.7,1.8c-0.5,0.6-0.9,1.2-1.3,1.8
	C11.6,106.2,11.6,106.2,11.3,105.1z M11.5,102c0.1,0,0.2,0,0.3,0.1c0-0.1,0-0.2,0-0.3c-0.1,0-0.2,0-0.3,0.1
	C11.5,101.9,11.5,102,11.5,102z M11.9,105.3c0,0.1,0,0.2,0,0.3c0,0,0.1,0,0.1,0c0-0.1,0.1-0.3,0.1-0.5
	C12,105.2,11.9,105.2,11.9,105.3z M21.2,98c0.4,0.3,0.9,0.5,1.3,0.8c0.1,0.5,0.2,0.9,0.3,1.3c0.3,0,0.7,0.1,1,0.1
	c0.2-0.4,0.4-0.9,0.6-1.3c0-0.5,0-0.9,0.1-1.4c-0.2-0.2-0.4-0.4-0.5-0.5c-1,0.4-1.8,0.8-2.7,0.4c-0.3-0.1-0.6-0.2-1-0.4
	c0,0,0,0.1,0,0.1c-0.4-0.2-0.7-0.5-1-0.7c-0.3,0.6-0.6,1.1-1,1.7c0.5,0.6,0.9,1.1,1.3,1.7C20.2,99.1,20.7,98.6,21.2,98z M9.2,121.3
	C9.2,121.2,9.2,121.2,9.2,121.3c-0.1-0.1-0.1-0.2-0.2-0.3l0,0l0,0.1C9,121.1,9.1,121.2,9.2,121.3L9.2,121.3z M18.9,100
	c-0.4,0-0.7,0-1.2,0c0.3,0.9,0.4,1.6,0.9,2c0.1-0.3,0.2-0.5,0.3-0.7c-0.2-0.2-0.4-0.4-0.6-0.6c0.3-0.2,0.5-0.3,0.6-0.5
	C18.9,100.1,18.9,100.1,18.9,100z M22.6,95.3c0.1,0.1,0.3,0.1,0.4,0.2c0-0.1,0-0.2,0.1-0.3c-0.1-0.1-0.2-0.2-0.4-0.2
	C22.7,95.1,22.7,95.2,22.6,95.3z M21.4,93.8c0.3-0.3,0.4-0.5,0.6-0.6C21.6,92.9,21.4,93,21.4,93.8z M21.2,71.2
	c-0.3-1-0.8-0.4-1.2-0.5c-0.2-0.1-0.4-0.2-0.7-0.4c-0.1,0.4-0.1,0.8-0.2,1.1c0.5,0.1,1,0.3,1.5,0.4C20.7,71.6,20.9,71.4,21.2,71.2z
	 M19.2,79.2c0.4-0.5,0.7-0.8,1-1.3c-0.7-0.6-1.2,0-1.8,0.6C18.7,78.8,19,79,19.2,79.2z M10.1,118.5L10.1,118.5
	C10.1,118.5,10.1,118.5,10.1,118.5C10.1,118.4,10.1,118.4,10.1,118.5L10.1,118.5z M17.2,100.8c-0.1-0.3-0.3-0.8-0.8-0.5
	c0.3,0.3,0.4,0.6,0.6,0.8C17.1,101,17.1,100.9,17.2,100.8z M20.9,47.9c-0.1-0.2-0.2-0.3-0.3-0.4c-0.3,0.4-0.9,0.3-1.1,1.1
	c0.1,0.1,0.2,0.3,0.3,0.5C20.2,48.7,20.5,48.3,20.9,47.9z M10.4,118.4C10.4,118.4,10.4,118.4,10.4,118.4
	C10.4,118.4,10.4,118.4,10.4,118.4C10.5,118.4,10.5,118.4,10.4,118.4C10.4,118.4,10.4,118.4,10.4,118.4z M18.1,48.4
	c-0.2,0.5,0,0.9,0.2,1.3C18.6,49,18.6,48.9,18.1,48.4z M10.8,98.8c-0.3,0.2-0.6,0.5-1,0.8c-0.3-0.9-1.2-0.9-1.1-2.5
	c0.2,0.3,0.4,0.5,0.5,0.8c0.1-0.1,0.2-0.2,0.1-0.3c0-0.3-0.1-0.5-0.1-0.8c-0.1-0.4-0.2-0.7-0.3-1.3c0.6,0.4,0.9,0.7,1.4,1
	C10.2,97.2,11,97.7,10.8,98.8z M10,97.7L10,97.7L10,97.7L10,97.7z M20.5,50.1c-0.1-0.2-0.2-0.4-0.4-0.7C20,50,20.1,50.2,20.5,50.1z
	 M16.9,95.7c-0.3,0-0.5,0-0.8,0c-0.3,0.8-1.1,0.5-1.3,1.8c0.8,0.5,0.9-1.1,1.6-1c0.4,0.9,0.4,0.9,0.8,0.5
	C17.1,96.6,17,96.1,16.9,95.7z M16.7,108.3c0.2-0.1,0.5-0.2,0.9-0.3c-0.2-0.4-0.3-0.6-0.4-0.8c-0.2,0.2-0.4,0.4-0.6,0.6
	c-0.1-0.3-0.2-0.5-0.3-0.6c0.3-1,0.3-1,0.3-1.4c-0.4,0.4-0.7,0.7-1.1,1.1C15.8,107.7,16.2,108.1,16.7,108.3z M16.6,104.2
	c0-0.1,0.1-0.1,0.2-0.2c-0.1-0.3-0.2-0.5-0.3-0.8c0,0-0.1,0.1-0.1,0.1C16.4,103.6,16.5,103.9,16.6,104.2z M19.9,74.1
	c-0.7,0.7-1,1.8-0.7,2.6c0.3-0.3,0.6-0.5,1-0.9C20,75.3,20.4,74.6,19.9,74.1z M17.5,103.7L17.5,103.7L17.5,103.7L17.5,103.7z
	 M18.7,85.6c0,0.4,0.1,0.8,0.1,1.3c0.2,0.3,0.4,0.6,0.6,0.9c0.3-0.2,0.5-0.3,0.6-0.4c0.2,0.2,0.4,0.3,0.6,0.4
	c0.2-0.7,0.3-1.2-0.1-1.7c-0.2,0.2-0.4,0.3-0.7,0.5c-0.3-0.5-0.5-1-0.7-1.4c-0.3-0.4-0.5-0.9-1-0.5C18.4,85,18.5,85.3,18.7,85.6z
	 M21.2,83.4c0,0-0.1-0.1-0.1-0.1c0,0.1,0,0.1,0,0.2c0,0,0,0.1,0,0.1C21.1,83.4,21.2,83.4,21.2,83.4z M7.4,67.4
	c-0.1,0-0.2,0.1-0.3,0.1c0,0.1,0,0.1,0,0.2c0.1-0.1,0.2-0.1,0.3-0.1C7.5,67.5,7.5,67.5,7.4,67.4z M45.4,282.1c0-0.1-0.1-0.2-0.2-0.4
	c0,0-0.1,0.1-0.1,0.1c0,0.1,0.1,0.2,0.1,0.4C45.3,282.1,45.4,282.1,45.4,282.1z M46.7,287.6c-0.1-0.7-0.2-1.4-0.3-2
	c-0.5-0.3-0.9-0.6-1.2,0.3c0.1,0.4,0.2,0.8,0.3,1.2C45.8,287.4,46.2,287.9,46.7,287.6z M47,319.4c0-0.7,0-1.6-0.6-2
	c-0.3,0.5-0.5,1-0.8,1.4c0,0.9,0.5,1.1,0.6,1.4c0.3,0.9,0.4,1.5,0.6,2.2c-0.2,0.6,0,1.2,0.3,1.8c0.1,0,0.3,0,0.4,0
	c0.1,0,0.1-0.1,0.2-0.2c0-0.7,0-1.3-0.1-1.9C47,321,47,321,47,319.4z M48,262.4c-0.1-0.2-0.2-0.5-0.2-0.7c0.4-0.5,0.7-0.8,1-1.2
	c-0.2-1.4-0.4-2.6-0.6-3.9c-0.1-0.2-0.3-0.4-0.5-0.7c0.1-0.5,0.2-1,0.2-1.5c-0.4,0-0.5,0.3-0.6,0.7c-0.2,0.6-0.4,1-0.7,1.2
	c-0.3,0.3-0.5,0.7-0.5,1.3c0.1,0.4,0.3,0.8,0.4,1.2c0,0.4,0,0.7,0,1c0.2,0.3,0.3,0.7,0.5,1c0.1,0.6,0.1,1.1,0.2,1.6
	c0.2,0.4,0.4,0.6,0.5,0.9c0.1,0.4,0.2,0.8,0.6,0.7c0-0.4,0.1-0.8,0.1-1.2c0.2,0,0.3-0.1,0.5,0c0.5,0.2,0.5,0.9,0.5,1.4
	c0,0.1,0.1,0.1,0.1,0.2v-3.3c-0.1-0.1-0.2-0.1-0.3-0.2C48.7,261.4,48.6,262.3,48,262.4z M48.7,266.7c0.2,0.8,0.4,1.5,0.7,2.2v-2.8
	C49,266.3,48.7,266.2,48.7,266.7z M49.2,256.6c0,0.2,0.1,0.4,0.1,0.5v-4.3c-0.1,0.5-0.3,0.9-0.4,1.4C49.1,255,49.2,255.8,49.2,256.6
	z M47.8,191.1c0.2,0.6,0.3,1.2,0.4,1.6c-0.1,0.5-0.2,0.9-0.2,1.2c0.1,0.6,0,1.1-0.1,1.7c0,0.8-0.3,1.5-0.4,2.3
	c-0.1,0.7-0.2,1.5-0.3,2.5c0.1,0.3,0.2,0.8,0.4,1.3c0,0.3-0.1,0.7-0.2,1.1c0.6,0.7,1.1,1.3,1.7,2c0,0.3,0.1,0.7,0.1,0.8
	c0,0.1,0.1,0.1,0.1,0.2v-12.5c-0.4-1-0.7-2.1-1.2-2.9C48,190.7,47.9,190.9,47.8,191.1z M44.1,309.7c0.1,0.2,0.2,0.5,0.3,0.8
	c-0.4,0.2-0.8,0.3-1.2,0.5c-0.4-1.6-0.8-3.2-1.2-4.9c-0.2-0.1-0.5-0.1-0.7-0.2c-0.1-1.1,0.2-2.4-0.6-2.9c-0.1-0.7-0.3-1.2-0.4-2.1
	c0-0.2,0-0.7,0-1.3c0.2-0.4,0.4-0.8,0.6-1.4c0.4,0.8,0.7,1.4,1,2.1c0,0.3,0,0.7,0,1.2c0.3,0.2,0.6,0.4,0.9,0.6
	c0.1,0.5,0.2,1,0.3,1.6c0,0.1-0.1,0.3-0.1,0.6c0.3,0.5,0.5,1,0.7,1.4c0.2,1.4,0.4,2.7,0.6,4C44.2,309.7,44.2,309.7,44.1,309.7z
	 M43.1,307.2c0-0.1,0-0.1,0-0.2c-0.1,0-0.1,0-0.2,0.1c0,0.1,0,0.2,0,0.2C43,307.3,43.1,307.3,43.1,307.2z M29.5,326.3
	c-0.8-0.2-1.6-0.4-2.5-0.6c-0.1-0.1-0.3-0.3-0.5-0.5c0,0,0,0.1,0,0.1c-0.4-0.1-0.9-0.3-1.3-0.4c0.2,0.8,0.4,1.5,0.6,2.3
	c0.3-0.2,0.6-0.3,1-0.5c0.8,0.3,1.5,1.1,2.2,2.1c0.4-0.8-0.2-1.3-0.1-2C29.1,326.7,29.3,326.5,29.5,326.3z M29.6,324.3
	c0,0.1,0,0.1,0.1,0.1c0,0,0,0,0.1-0.1C29.7,324.3,29.7,324.3,29.6,324.3C29.7,324.2,29.6,324.2,29.6,324.3z M24.5,327.3
	c0.3,0.2,0.4,0.4,0.6,0.5c0-0.1,0.1-0.2,0.2-0.2c-0.1-0.3-0.1-0.5-0.3-1.1C24.7,326.8,24.6,327,24.5,327.3z M31.9,241.3
	c-0.1-0.1-0.2-0.1-0.4-0.1c0.1,0.6,0.2,0.8,0.6,0.6C32,241.6,32,241.4,31.9,241.3z M29.9,313.8c0.3,0.7,0.6,1.2,0.7,1.9
	c0.1,0.7-0.1,1.4-0.1,2.2c0.5,0.6,0.7,0.7,1.3,0.6c-0.2-0.4-0.3-0.7-0.5-1.1c0-0.5,0.1-1,0.1-1.5l0,0c0.5-0.7,0.4-1.5,0.4-2.4
	C31.1,313.4,30.5,313.4,29.9,313.8z M36.9,326.4c0.1,0.3,0.2,0.7,0.3,1c0,0.9-0.4,1.2-0.7,1.6c-0.4,0-0.8,0.1-1.2,0.1
	c-0.9-0.8-1.3-2.1-1.4-3.7c-0.3-0.3-0.5-0.5-0.7-0.8c-0.2,0-0.5,0-0.8,0c-0.1-0.2-0.2-0.5-0.3-0.8c0.2-0.2,0.4-0.4,0.6-0.6
	c0.9,1,2,0.9,2.7,2.4c0.5-0.3,0.9-0.5,1.4-0.7c0.1,0.2,0.2,0.4,0.4,0.6C37,325.7,36.9,326,36.9,326.4z M35.2,327.6
	c-0.1-0.6-0.3-0.9-0.7-0.7c0,0.2,0,0.4,0,0.8C34.8,327.6,34.9,327.6,35.2,327.6z M41.1,334.2c-0.2-1-0.3-2-0.5-3
	c-0.1-0.9-0.3-1.9-0.4-2.8c-0.1-0.9-0.1-1.9-0.3-2.8c-0.2-0.8-0.3-1.6-0.1-2.4c-0.3-1.2-0.6-2.3-1.4-2.6c-0.7-0.3-1.5-0.2-2.3-0.3
	c-0.1-0.2-0.2-0.4-0.3-0.7c-0.4,0.2-0.5,0.6-0.4,1.3c0.6,0.5,1.5-0.2,1.9,0.4c0.4,1.2,0.7,2.1,1,3.1c-0.2,0.3-0.4,0.5-0.5,0.8
	c0,0.9,0.5,1.2,0.8,1.7c-0.1,0.6-0.1,1.3-0.2,1.9c0.2,1,0.4,2,0.7,2.9c0.1,0.6,0.3,1.2,0.5,1.7c0.4,0.7,0.5,1.4,0.5,2.3
	c0,0.3,0,0.7,0,1.1c0.8,0.9,0.8,2.1,0.8,3.3c0,1.1,0.2,1.8,0.6,2.5c0.4-0.2,0.8-0.4,1.3-0.7c-0.2-1.1-0.3-2.1-0.5-3.1
	C41.8,337.3,41.4,335.8,41.1,334.2z M47.4,0h-0.2c0.1,0,0.1,0.1,0.2,0.1C47.4,0.1,47.4,0,47.4,0z M40.6,15.7c-0.3,0.1-0.5,0.1-1,0.1
	c0.2,0.3,0.3,0.4,0.3,0.4c0.4,0,0.8-0.1,1.2-0.1c0.2,0.2,0.4,0.4,0.6,0.7c0.1-0.5,0.2-0.9,0.4-1.5c-0.1,0-0.2,0-0.2,0
	C41.5,15.4,41.1,15.6,40.6,15.7z M49.3,121.5v-0.3C49.3,121.3,49.3,121.4,49.3,121.5C49.3,121.5,49.3,121.5,49.3,121.5z M40.5,26.9
	C40.5,26.9,40.5,26.9,40.5,26.9C40.5,26.9,40.5,26.9,40.5,26.9C40.5,26.9,40.5,26.9,40.5,26.9z M42.2,15.3
	C42.2,15.3,42.2,15.3,42.2,15.3C42.2,15.3,42.2,15.3,42.2,15.3C42.2,15.3,42.2,15.3,42.2,15.3z M42.2,0h-0.9c0,0.1,0,0.1-0.1,0.2
	c0.2,0.2,0.4,0.4,0.6,0.6C42.1,0.6,42.2,0.3,42.2,0z M45,1c0.6,0.3,0.8,0.3,0.9-0.3c-0.1-0.2-0.2-0.4-0.2-0.5
	c-0.3-0.1-0.6-0.2-0.9-0.2h-0.7c0,0.4,0,0.8,0.1,1.3C44.5,1.2,44.7,1.1,45,1z M24.6,324C24.7,324,24.7,323.9,24.6,324
	c0-0.1,0-0.2,0-0.2c0,0-0.1,0.1-0.1,0.1C24.6,323.9,24.6,324,24.6,324z M8.9,125.5c0,0.1,0,0.1,0,0.2c0.1,0,0.2-0.1,0.2-0.1
	c0-0.1-0.1-0.2-0.1-0.3C9,125.4,9,125.4,8.9,125.5z M48.8,140.2c-0.4,0.7-1.1,0.9-1.3,1.9c0.4,0.8,0.9,0.7,1.2,0.7
	c0.2,0.4,0.4,0.7,0.6,1v-5.4c-0.1,0.2-0.4,0.3-0.5,0.6C48.8,139.5,48.8,139.9,48.8,140.2z M48.7,148c0.2,0.4,0.4,0.8,0.6,1.2v-4.1
	c-0.2,0.4-0.5,0.6-0.8,1C48.6,146.7,48.7,147.4,48.7,148z M47.6,149.3c-0.6,0.1-0.5,0.9-0.7,1.5c0.4,0.6,0.7-0.1,1.2,0
	c0,0,0.1,0.1,0.2,0.3c-0.2,0.4-0.4,0.7-0.6,1c0.1,0.4,0.3,0.8,0.4,1.1c0.4,0.1,0.9,0.1,1.2,0.5v-2.5C48.6,151,48.3,149.8,47.6,149.3
	z M49.3,155.4v22.9c-0.1-0.1-0.2-0.2-0.3-0.2c0.1-0.7,0.1-1.2,0.2-1.7c-0.4-0.7-0.7-1.5-1.1-2.2c0,0,0.1,0,0.1-0.1
	c-0.3-0.9-0.6-1.8-0.9-2.9c0-0.5,0-1.2,0-1.9c-0.2-0.4-0.4-0.7-0.5-0.9c-0.3-1.2-0.5-2.3-0.7-3.5c0.3-0.8,0.9-1.2,0.7-2.3
	c-0.2-0.1-0.4-0.1-0.7-0.2c-0.1-0.6-0.2-1.2-0.2-1.9c0.7-0.9,1-2,1.1-3.3c-0.1-0.3-0.2-0.7-0.3-1c0.3-0.5,0.6-0.1,0.9-0.2
	c0.3-0.1,0.5-0.2,0.9-0.4c0.1,0.1,0.2,0.2,0.3,0.4C49,155.8,49.2,155.7,49.3,155.4z M48.6,157.9c-0.4-0.4-0.7-0.4-0.9,0.2
	c0.1,1.2,0.1,1.2,0.8,1.1C48.5,158.7,48.5,158.3,48.6,157.9z M48.8,128.6c0.2,0.1,0.4,0.1,0.6,0.2v-1.2c-0.1,0.1-0.1,0.1-0.2,0.2
	C48.9,127.9,48.7,128,48.8,128.6z M48,125.7c-0.1,0.3-0.3,0.7-0.4,1c0.7,0.5,0.9-0.6,1.5-0.6c0.1,0.1,0.1,0.2,0.2,0.3V124
	c-0.1,0.5-0.3,1.1-0.5,1.7C48.6,125.7,48.3,125.7,48,125.7z M48.3,134.9c0.2,0.3,0.4,0.7,0.6,1c-0.5,1.1-1.1,1.5-1.9,1.3
	c0.2,0.2,0.4,0.4,0.6,0.5c0.1,0.3,0.1,0.6,0.2,1c0.4-0.4,0.7-0.7,0.9-1.1c0.3-0.3,0.5-0.4,0.7-0.1v-3.3
	C49,134.7,48.5,134.2,48.3,134.9z M48.6,133.1c0.3,0.3,0.4,0.4,0.6,0.6c0.1,0.1,0.1,0.3,0.2,0.4v-1.8c0,0.1,0,0.2-0.1,0.2
	C49.1,132.7,48.9,132.8,48.6,133.1z M13.6,156.6c0,0.1,0,0.1,0,0.2c0-0.1,0.1-0.1,0.1-0.1c0-0.1,0-0.1-0.1-0.2
	C13.7,156.5,13.6,156.5,13.6,156.6z M14.3,114.4c-0.3-0.4-0.4-0.9-0.8-0.4C13.7,114.6,13.9,114.7,14.3,114.4z M14.9,118
	c-0.6-0.7-1-0.6-1.3,0.2C14,118.7,14.4,118,14.9,118z M13.4,127.7c0.2,0.2,0.3,0.4,0.4,0.5c0-0.1,0.1-0.2,0.1-0.3
	C13.9,127.6,13.8,127.3,13.4,127.7z M15.8,158.1c0,0-0.1-0.1-0.1-0.1c-0.1,0.1-0.1,0.2-0.2,0.3c0,0,0.1,0.1,0.1,0.1
	C15.6,158.3,15.7,158.2,15.8,158.1z M13.2,122.1c0.3,0.7,0.6,1,1.2,1.1C14.2,122.2,13.8,122.3,13.2,122.1z M16.2,127.1
	c-0.1-0.2-0.2-0.4-0.3-0.6c-0.4,0.2-0.7,0.4-1.1,0.6c0.3,0.7,0.7,0.7,1.1,0.8C15.9,127.6,16,127.4,16.2,127.1z M11.2,117.2
	c0.1,0,0.2-0.1,0.5-0.2C11.4,116.8,11.3,116.9,11.2,117.2z M10.3,121.3c-0.1,0.5-0.1,0.8,0.2,0.9C10.8,121.4,10.8,121.4,10.3,121.3z
	 M10.4,118.4c0,0.3,0,0.6,0.3,0.7C10.8,118.7,10.6,118.6,10.4,118.4z M8.4,122.9c-0.1,0.2-0.2,0.4-0.3,0.6c0.2,0.3,0.4,0.5,0.5,0.7
	c0.8,0.3,1.3-0.4,1.9-0.6c0,0,0-0.2,0.1-0.5c-0.3,0.2-0.5,0.3-0.8,0.4C9.3,123.3,8.9,123.1,8.4,122.9z M11.2,117.3
	C11.2,117.3,11.2,117.2,11.2,117.3C11.2,117.2,11.2,117.2,11.2,117.3C11.2,117.2,11.2,117.2,11.2,117.3
	C11.2,117.2,11.2,117.3,11.2,117.3z M11.1,117.6c0-0.1,0.1-0.2,0.1-0.3c-0.1,0.1-0.1,0.1-0.2,0.2C11,117.5,11.1,117.5,11.1,117.6z
	 M15.6,308.7c0.5,0.2,0.5,0.2,0.4-0.4C15.9,308.5,15.8,308.5,15.6,308.7z M16.5,111c0.2,0.8,0.2,0.8,0,1.9c-0.4,0.3-0.7,0.7-0.7,1.7
	c0.5,0.8,1,1.6,1.5,2.5c0.5-0.5,0.6-1.5,1-2.2c0.2,0,0.4,0,0.7,0c0.2-0.6,0.5-1.1,0.7-1.7c-0.2-0.2-0.4-0.4-0.5-0.5
	c-0.3,0.2-0.5,0.3-0.7,0.4c-0.4-0.3-0.7-0.6-1.1-0.9c0.1-0.4,0.2-0.7,0.3-1c0.3,0,0.6,0,0.8,0c0.2-0.5,0.3-1,0.5-1.5
	c-0.1-0.5-0.4-0.5-0.6-0.4c-0.8,0.6-1.7,0.6-2.6,0.6c-0.6,0-1.1,0-1.4-1c0-0.1-0.2-0.2-0.3-0.3c-0.1,0.3-0.2,0.5-0.3,0.8
	c-0.4,0.2-0.8,0.4-1.2,0.5c-0.1-0.5-0.3-0.8-0.3-1c-0.2-0.2-0.4-0.4-0.6-0.5c-0.2-0.5,0.1-1.1-0.3-1.4c-0.1,0.5-0.2,1-0.3,1.4
	c0.1,0.3,0.3,0.7,0.5,1.1c-0.3,0.3-0.5,0.5-1,0.9c0.4,0.3,0.7,0.6,1,0.8c-0.4,1-0.7,1.7-1,2.5c0.2,0.5,0.3,0.8,0.5,1.3
	c0.5-0.8,0.5-2,1.4-2.1c0.1,0,0.4,0.1,0.6,0.2c0.4-0.2,0.8-0.5,1.3-0.7C14.8,111,15.6,110.5,16.5,111z M21,139.1c0-0.1,0-0.2,0-0.3
	c-0.3-0.2-0.6-0.4-0.9-0.6c-0.1-0.3-0.3-0.6-0.4-1c-0.2,0.1-0.4,0.2-0.6,0.3c0,0.1,0,0.2,0,0.3c0.3,0.3,0.7,0.6,1,0.9
	c0.1,0.3,0.3,0.6,0.5,1C20.7,139.5,20.8,139.3,21,139.1z M21,290.4c-0.2,0.4-0.4,0.8-0.6,1.2c0.3-0.2,0.7-0.1,0.8-0.8
	C21.2,290.6,21.1,290.5,21,290.4z M21.7,312.4c0.2-0.7,0-1-0.4-1.4C21,312.1,21,312.3,21.7,312.4z M20.9,288.2
	c-0.6,0.7-0.5,1.8-0.8,2.5c0.1,0.3,0.3,0.6,0.4,0.9c0.1-0.6,0.2-1.2,0.4-1.8C20.9,289.3,21,288.8,20.9,288.2z M21.6,307.3
	c0,0.1,0,0.2,0,0.3c0.1,0,0.2-0.1,0.3-0.1c0-0.1,0-0.1,0-0.2C21.8,307.3,21.7,307.3,21.6,307.3z M25.2,305.6
	c-0.4-0.3-0.8-0.6-1.2-0.9c-0.2,0.1-0.4,0.4-0.3,0.9c0.6,0.4,1.2,0.9,1.8,1.3C25.7,306.1,25.7,305.9,25.2,305.6z M21,191.3
	c-0.1-0.5-0.2-1-0.4-1.6c-0.2,0.3-0.4,0.5-0.6,0.7c0.3,0.4,0.6,0.8,0.8,1.1C20.9,191.3,20.9,191.3,21,191.3z M22.1,310.7
	c-0.1,0.1-0.1,0.2-0.2,0.3c0.1,0.2,0.2,0.5,0.3,0.6c0.4,0.3,0.9,0.6,1.3,1c0-0.2,0-0.5,0-0.5C23.1,311.5,22.6,310.9,22.1,310.7z
	 M16.6,165.2c-0.1,0-0.1,0-0.2,0.1c0,0.3-0.1,0.7,0.3,1C16.7,165.8,16.6,165.5,16.6,165.2z M16.7,300.4c0,0.6,0.1,1.1,0.1,1.6
	C17.2,300.9,17.2,300.8,16.7,300.4z M16,301.2c0,0.1,0,0.2,0,0.3c0,0,0,0,0.1,0C16.1,301.3,16.1,301.2,16,301.2
	C16,301.2,16,301.2,16,301.2z M25.2,311.7c0,0.1,0,0.1,0.1,0.2c0.1,0,0.2-0.1,0.3-0.1c0-0.1,0-0.2-0.1-0.3
	C25.4,311.6,25.3,311.7,25.2,311.7z M15.9,136.7c0.1,0.1,0.3,0.2,0.5,0.3C16.3,136.5,16.2,136.3,15.9,136.7z M19.6,180.4
	c0.3-0.3,0.5-0.5,0.3-1C19.5,179.5,19.4,179.7,19.6,180.4z M18.2,176.8c-0.4,0.3-0.3,0.9-0.3,1.4c-0.3,0.6-0.7,1-0.6,1.9
	c0.1,0,0.3,0,0.4-0.1c0-0.4,0-0.7,0.1-1c0.2-0.3,0.4-0.6,0.6-0.9C18.4,177.8,18.6,177.3,18.2,176.8z M17.8,188.8c0,0,0,0.1,0,0.1
	c0,0,0.1,0,0.1-0.1C17.9,188.9,17.9,188.8,17.8,188.8C17.9,188.8,17.8,188.8,17.8,188.8z M44.8,159.1c-0.1-0.2-0.1-0.4-0.2-0.6
	c-0.1,0-0.1,0.1-0.1,0.1c0,0.2,0.1,0.4,0.1,0.6C44.6,159.2,44.7,159.1,44.8,159.1z M33.2,96.4c0.4,0.6,0.8,0.1,1.2,0.3
	C33.9,96,33.8,96,33.2,96.4z M34.4,94.2c-0.2,0-0.4,0.1-0.6,0.1c0,0.1-0.1,0.2-0.1,0.3c0.1,0.3,0.3,0.5,0.4,0.7
	C34.4,95,34.6,94.8,34.4,94.2z M33.9,105c0,0-0.1,0.1-0.1,0.1c0,0,0,0,0,0.1C33.9,105.2,33.9,105.1,33.9,105
	C33.9,105.1,33.9,105,33.9,105z M31.6,95.5c0.1,0,0.2,0,0.3,0.1c-0.1-0.1-0.2-0.1-0.3-0.2C31.6,95.4,31.6,95.4,31.6,95.5z
	 M30.5,68.7c0,0,0.1,0.1,0.1,0.1c0.1-0.2,0.1-0.5,0.2-0.7c0,0-0.1-0.1-0.1-0.1C30.6,68.2,30.5,68.4,30.5,68.7z M33.2,98.7
	c-0.4,0.3-0.6,1.2-1.1,0.6c0-0.3,0-0.6,0-0.9c-0.6,0-0.5,0.8-0.6,1.3c-0.1,0.3-0.5,0.2-0.4,0.8c1-0.1,1-0.1,1.8,0.5
	c0.3-0.2,0.6-0.5,1-0.8C33.6,99.6,33.4,99.1,33.2,98.7z M34.3,111.9c-0.1-0.4-0.1-0.7-0.2-1.2c-0.3,0.2-0.5,0.4-0.8,0.6
	c0.3,0.4,0.6,0.6,0.8,0.9C34.2,112,34.2,112,34.3,111.9z M31.9,95.5L31.9,95.5C31.9,95.5,31.9,95.5,31.9,95.5
	C31.9,95.5,31.9,95.5,31.9,95.5C31.9,95.5,31.9,95.5,31.9,95.5L31.9,95.5L31.9,95.5z M21.8,118.5c-0.1,0.1-0.1,0.2-0.2,0.2
	c0,0.1,0.1,0.1,0.1,0.2c0-0.1,0.1-0.2,0.2-0.3C21.8,118.6,21.8,118.5,21.8,118.5z M22.7,118.3c0,0.1-0.1,0.1-0.1,0.2
	c0,0,0,0.1,0,0.1c0,0,0.1-0.1,0.1-0.1C22.8,118.4,22.7,118.4,22.7,118.3z M24.8,126.2c0.2,0.1,0.4,0.2,0.6,0.2
	c0.1,0,0.2-0.2,0.4-0.4C25.3,125.6,25.1,125.9,24.8,126.2z M24.2,119.7c-0.3-0.3-0.5-0.3-0.7,0.3C23.8,120.3,24,120.2,24.2,119.7z
	 M28.7,114.4c0-0.7,0-1.4,0.6-1.5c0.2,0.2,0.4,0.4,0.6,0.6c0.7-0.3,1.4-0.6,2.1-1.4c-0.3-0.4-0.5-0.6-0.7-0.9
	c-0.2,0.3-0.3,0.6-0.4,0.8c-0.5,0.1-1,0.2-1.5,0.4c0-0.5,0-0.9-0.1-1.3c-0.3-0.1-0.5-0.2-0.7-0.3c-0.2,0.3-0.3,0.6-0.4,0.9
	c-0.4-0.1-0.7-0.1-1-0.2c-0.1-0.5-0.2-0.9-0.3-1.3c0.2-0.2,0.4-0.3,0.6-0.5c-0.1-0.3-0.2-0.5-0.3-0.7c-0.1,0.1-0.2,0.1-0.2,0.1
	c-0.2,0.4-0.5,0.7-0.7,1.1c0.4,1.3,0.4,1.7-0.4,2.6c-0.2,0-0.5,0-0.8,0c0.1,0.9,0.3,1.2,0.8,1c0.4-0.2,0.9-0.3,1.3-0.9
	c0.3-0.5,0.6-0.7,1-0.2c-0.1,0.4-0.1,0.8-0.2,1.2C28.2,114,28.4,114.5,28.7,114.4z M20.9,122.5c-0.4-0.3-0.8-0.5-1.1-0.7
	c-0.4,0.2-0.7,0.3-1.1,0.5c-0.2-0.2-0.4-0.4-0.5-0.4c-0.8,0.2-1.4,0.3-2.1,0.4c0-0.1,0-0.1,0-0.2c-0.2,0.2-0.4,0.5-0.7,0.8
	c0.5,0,1,0.1,1.5,0.1c0.5-0.6,1-0.2,1.5,0.2c0.6-0.2,1.1-0.3,1.6-0.4c0.4,0.2,0.9,0.4,1.2,0.6c0.3-0.2,0.5-0.3,0.7-0.4
	c0.9,0.4,1.8,0,2.5,1.1c0.3-0.5,0.5-1,0.8-1.5c-0.4-0.3-0.8-0.6-1.2-0.8c-0.3,0.2-0.5,0.4-0.7,0.5c-0.9,0.1-1.7,0.1-2.5,0.1
	C20.9,122.4,20.9,122.4,20.9,122.5z M31.1,107.5c-0.3,0.3-0.6,0.5-0.8,0.8c0.5,0.6,0.8,0.4,1.3,0c0-0.4,0.1-0.7,0.1-1.1
	c0.1-0.4,0.3-0.6,0.4-1c0.1-0.3,0.2-0.7,0-1.1c-0.2,0.2-0.4,0.4-0.6,0.6c-0.2,0-0.4,0-0.5,0c-0.2,0.4-0.4,0.8-0.5,1.2
	C30.5,107.2,30.8,107.3,31.1,107.5z M34.8,68.1c-0.5-0.2-0.9-0.3-1.1,0.6C34.1,68.9,34.4,68.7,34.8,68.1z M34.1,79
	c0-0.2,0.1-0.4,0.1-0.6c-0.1,0-0.1-0.1-0.2-0.1c-0.1,0.2-0.1,0.4-0.2,0.6C33.9,78.9,34,79,34.1,79z M32.2,67.6c0,0-0.1-0.1-0.1-0.1
	c0,0.1-0.1,0.2-0.1,0.4c0,0,0.1,0.1,0.1,0.1C32.2,67.8,32.2,67.7,32.2,67.6z M32.1,72.4l0-0.1L32.1,72.4L32.1,72.4z M28.1,67.9
	c0.1-0.3,0.1-0.5,0.2-0.8c-0.3-0.1-0.5-0.2-0.8-0.3c-0.1-0.3-0.2-0.6-0.3-0.8c-0.2,0.5-0.4,1-0.6,1.5C27.1,68.4,27.7,67.8,28.1,67.9
	z M33.7,72.1c0.1-0.4,0.2-0.7,0.3-1.1C33.4,71.4,33.4,71.4,33.7,72.1z M33.6,73.7c0.5-0.6,0.5-0.6,0.1-1.1
	C33.5,73.1,33.5,73.1,33.6,73.7z M34.7,93.1C34.7,93.1,34.7,93.1,34.7,93.1C34.7,93.1,34.7,93.1,34.7,93.1
	C34.7,93.1,34.7,93.1,34.7,93.1C34.8,93.1,34.8,93.1,34.7,93.1C34.8,93.1,34.7,93.1,34.7,93.1z M33,106.7c0,0-0.1,0.1-0.1,0.1
	c0,0.1,0.1,0.2,0.1,0.3c0,0,0.1-0.1,0.1-0.1C33.1,106.9,33,106.8,33,106.7z M33.7,83.3c0,0,0.1-0.1,0.1-0.1c0-0.1,0-0.3-0.1-0.4
	c-0.1,0-0.1,0.1-0.2,0.1C33.6,83,33.7,83.2,33.7,83.3z M35.2,94.1c0-0.1,0.1-0.1,0.1-0.2c-0.2-0.3-0.3-0.5-0.5-0.8
	c0,0.3,0,0.6-0.1,0.9C34.9,94.1,35.1,94.1,35.2,94.1z M32.7,112.9c0,0.4,0,0.6,0,1c0.3-0.1,0.4-0.3,0.3-0.7
	C33,113.1,32.9,113,32.7,112.9z M44.3,162.8C44.3,162.8,44.3,162.8,44.3,162.8c0.1,0.1,0.1,0,0.1,0c0-0.1-0.1-0.1-0.1-0.2
	C44.3,162.6,44.3,162.7,44.3,162.8z M44.4,150.5c-0.1-0.3-0.3-0.5-0.5-1c-0.2,0.5-0.3,0.9-0.3,1c0.4,0.7,0.7,1.2,1,1.8
	c0.2-0.6,0.3-1.2,0.5-1.8C44.8,150.5,44.6,150.5,44.4,150.5z M43.7,153c-0.1,0.2-0.2,0.3-0.3,0.5c0.1,0.1,0.2,0.2,0.2,0.4
	c0.1-0.2,0.2-0.4,0.2-0.6C43.8,153.1,43.7,153.1,43.7,153z M43.5,164.4c0,0.1,0,0.2,0.1,0.2c0,0,0.1,0,0.1-0.1
	c0-0.1-0.1-0.2-0.1-0.3C43.5,164.4,43.5,164.4,43.5,164.4z M45.4,155.4c0.3-0.3,0.5-0.5,0.8-0.8c-0.1-0.3-0.3-0.5-0.4-0.7
	C45.4,154.2,45.3,154.6,45.4,155.4z M43.4,206.3C43.4,206.2,43.4,206.2,43.4,206.3c0.1-0.1,0-0.1,0-0.2c0,0,0,0-0.1,0
	C43.4,206.2,43.4,206.2,43.4,206.3z M30.6,93.2c0.3,0.2,0.5,0.4,0.6,0.5c0.8-0.6,1.5-1.1,2.2-1.6c0.5,0.3,0.9,0.6,1.4,0.9
	c0-0.7,0.1-1.4,0.1-2.1c-0.1-0.1-0.3-0.3-0.5-0.5c-0.1,0.4-0.2,0.7-0.2,1c-0.7,0-1.3,0-1.9,0c-0.1,0.5-0.1,0.8-0.2,1.2
	c-0.2,0.1-0.3,0.2-0.5,0.3c-0.2-0.5-0.1-1.1-0.7-1.1C30.8,92.2,30.7,92.7,30.6,93.2z M44.8,192.3c-0.1,0-0.1,0-0.2,0
	c0,0.1,0,0.1,0,0.1c0.1,0,0.1,0,0.2,0C44.8,192.4,44.8,192.3,44.8,192.3z M41.3,151.4c0.1-0.1,0.1-0.2,0.2-0.3
	c-0.1-0.1-0.1-0.1-0.2-0.2c0,0.1-0.1,0.3-0.1,0.4C41.2,151.4,41.3,151.4,41.3,151.4z M42.4,178.7C42.4,178.7,42.5,178.7,42.4,178.7
	c0.1-0.1,0.1-0.1,0.1-0.1C42.5,178.6,42.4,178.6,42.4,178.7C42.4,178.6,42.4,178.7,42.4,178.7z M41.6,147.9c-0.9,0.1-0.9,0.1-0.9,1
	c0.3,0,0.6-0.1,0.9-0.1C41.6,148.5,41.6,148.3,41.6,147.9z M46.8,148.5c-0.2-0.7-0.3-1.2-0.5-1.7c-0.4-0.3-0.7-0.5-1.1-0.7
	c-0.2,0-0.3,0.1-0.5,0.1c-0.6-0.5-1.2-1-1.8-0.8c-0.1,0.7-0.1,1.2-0.2,1.8c0.2,0.3,0.4,0.5,0.6,0.8c0.7-0.5,1.1-2,2-1.2
	c0.3,0.6,0.5,1,0.8,1.5c0,0.2,0,0.5,0.1,1.1C46.5,149,46.7,148.7,46.8,148.5z M46,145.8C46,145.8,46,145.9,46,145.8
	c0,0.1,0,0.1,0,0.2C46,146,46,145.9,46,145.8C46,145.9,46,145.8,46,145.8z M43.1,165.2c-0.1,0-0.2,0-0.3,0c0,0.1,0,0.2,0.1,0.3
	C43,165.4,43,165.4,43.1,165.2z M47,142.9c-0.2-0.4-0.4-0.7-0.5-1c-0.3,0-0.5,0-0.7,0c-0.1-0.3-0.2-0.5-0.3-0.8
	c-0.5-0.3-1.1-0.6-1.6-1c-0.5-0.4-0.9-1.1-1.6-1c0.2,0.3,0.4,0.6,0.6,1c0,0.3-0.1,0.7-0.1,0.9c0.5,1,0.9,1.9,1.3,2.7
	c0.6-0.1,1.1,0,1.5-0.3C46.1,143.1,46.7,143.8,47,142.9z M29.4,126.5c0.2-0.2,0.4-0.4,0.6-0.5c0.9-0.2,1.8,0.8,2.4-0.8
	c0.4,0.5,0.8,0.9,1.2,1.3c0.4-0.4,0.7-0.8,1-1.2c0.3,0.4,0.6,0.6,0.8,0.9c0.3-0.2,0.5-0.4,0.8-0.6c-0.1-0.6-0.2-1.2-0.3-1.8
	c-0.3,0.3-0.5,0.5-0.6,0.5c-1.2,0-2.2,0-3.2,0c0,0.1,0,0.2,0,0.2c-0.5,0.3-1,0.5-1.5,0.8c0,0,0,0,0,0c-0.5,0.2-1,0.3-1.5,0.5
	C29.2,126.1,29.3,126.3,29.4,126.5z M31.1,119.7c0.2-0.2,0.4-0.3,0.6-0.4C31.2,118.9,31.1,118.9,31.1,119.7z M31.9,122.9
	c0.3-0.5,0.6-1,0.9-1.6c0.2,0.5,0.4,0.8,0.6,1.3c0.2,0.2,0.5,0.4,0.8,0.6c0.3-0.6,0.6-1.2,0.8-1.7c-0.3-1.1-0.9-1.1-1.4-1.3
	c-0.3,0.3-0.6,0.6-0.9,0.8c-0.4-0.1-0.7-0.2-1-0.3c-0.3,0.9-1,1-1.1,2C31,123.2,31.4,123,31.9,122.9z M25.7,119.7
	c0,0-0.1,0.1-0.1,0.1c0,0,0,0,0.1,0.1C25.7,119.8,25.8,119.8,25.7,119.7C25.8,119.7,25.7,119.7,25.7,119.7z M26.6,136.7
	c-0.1,0-0.1,0.1-0.2,0.1c0,0.1,0,0.1,0,0.2c0.1,0,0.1-0.1,0.2-0.1C26.6,136.8,26.6,136.7,26.6,136.7z M40.3,120.8c0,0.2,0,0.4,0,0.7
	c2.2-0.4,3-0.9,3.5-2c-0.4-0.5-0.9-1-1.4-1.5c-0.3,0.1-0.5,0.2-0.8,0.3c0.1,0.5,0.2,0.9,0.3,1.2C41.5,120.3,40.9,120.4,40.3,120.8z
	 M26.1,139.3c0.5,0.2,0.9,0.4,1.2,0.5c0.7,0,1.4,0,2,0c0.1,0.3,0.3,0.6,0.4,0.9c0.4,0.3,0.8,0.5,1.3,0.8c0.2-0.5,0.4-0.9,0.6-1.3
	c0.2-0.4,0.4-0.8,0.6-1.2c-0.3-0.3-0.5-0.6-0.7-0.9c-0.1-0.3-0.2-0.7-0.3-1.2c-0.2,0.4-0.3,0.7-0.4,0.9c-0.4,0.2-0.9,0.3-1.3,0.4
	c-0.4-0.2-0.9-0.3-1.4-0.6c-0.1-0.1-0.3-0.4-0.6-0.7c0-0.2,0.1-0.4,0.1-0.6c0-0.2,0.1-0.4,0.2-0.7c-0.3-0.4-0.6-0.8-0.8-1.2
	c0.4-0.6,0.6,0.1,0.9,0.3c0.2,0,0.4,0,0.5,0c0.6,0.2,1,0.4,1.7,0.6c0,0,0.2,0.3,0.4,0.5c0.4,0,0.9,0,1.3,0c0.1-0.3,0.1-0.6,0.2-0.8
	c-0.4-0.6-0.8-1.1-1.2-1.7c0.2-0.2,0.4-0.4,0.6-0.6c-0.1-0.5-0.1-0.9-0.2-1.6c0.3,0.3,0.6,0.5,0.9,0.7c0.3-0.2,0.5-0.4,0.9-0.6
	c0.2,0.1,0.4,0.3,0.7,0.5c0.4-0.2,0.8-0.4,1.1-0.6c0.2,0.6,0.4,1.2,0.6,2c-0.2,0.3-0.4,0.6-0.6,0.9c-0.1,1,0.5,0.6,0.8,1
	c0.1,0.2,0.1,0.5,0.2,0.6c-0.1,1-1.4,1.4-2.5,0.8c-0.8,1.2-0.8,1.2-0.8,2c0.7,0.2,1.5,0.1,2.2-0.2c0.4-0.2,0.8-0.1,1.2-0.1
	c0.4,0,0.8-0.1,1.2-0.2c0.3,0.2,0.7,0.4,1.1,0.6c0.2-0.1,0.4-0.2,0.6-0.3c0.4,0.2,0.7,0.4,1.2,0.6c-0.4,0.8-1.3,0.2-1.3,1.5
	c0.5,1,1,0,1.6-0.2c0.2,0.4,0.3,0.8,0.6,1.2c0.1,0.1,0.3,0.2,0.5,0.4c-0.3,0.6-0.4,1.2-0.9,1.5c-0.3-0.7,0.3-0.9,0.1-1.6
	c-0.1-0.1-0.4-0.3-0.6-0.4c-0.3,0.5-0.5,1-0.7,1.3c-0.7-0.4-1.3-0.8-1.9-1.1c-0.5,0.7-1,1.3-1.5,2.1c-0.4,0.2-0.8,0.5-1.4-0.2
	c0.5-0.7,1-1.4,1.4-2c0.5-0.1,0.9-0.1,1.4-0.2c0.1,0,0.2-0.2,0.3-0.4c0-0.1,0-0.2,0-0.4c-0.2,0-0.5,0-0.6,0
	c-0.2-0.5-0.4-0.9-0.7-1.3c-0.3,0.3-0.5,0.5-0.8,0.8c-0.2-0.1-0.3-0.2-0.6-0.4c-0.2,0.4-0.4,0.8-0.7,1.4c-0.2-0.3-0.5-0.6-0.8-1
	c-0.2,0.3-0.4,0.5-0.5,0.8c-0.2,0.1-0.4,0.2-0.7,0.3c-0.2,0.4-0.4,0.7-0.6,1.2c-0.2,0.1-0.4,0.2-0.6,0.4c0,0.6-0.3,1-0.7,1.1
	c-0.6,0.2-1.3,0.3-1.9,0.2c0.2-0.3,0.3-0.5,0.6-0.8c-0.2-0.4-0.3-0.7-0.4-1c-0.7-0.2-0.8,0.6-1.1,1.2c-0.3-0.2-0.6-0.3-1-0.5
	c0.1-0.7,0.2-1.3,0.4-2c-0.8-0.4-1.5,0.9-2.3,0c-0.1-0.3-0.2-0.6-0.3-1c0.3-0.1,0.5-0.1,0.6-0.1c0.3-0.4,0.7-0.8,1-1.3
	C25.8,139,26,139.2,26.1,139.3z M29.7,136.1c-0.8-0.3-0.8-0.3-1,0.9c0.3,0.1,0.6,0.1,0.9,0.1C29.6,136.7,29.6,136.4,29.7,136.1z
	 M32.7,135.6c1.1-0.5,1.2-0.7,1.2-1.7c-1.2-0.5-1.5-0.4-1.9,0.8C32.2,135,32.5,135.3,32.7,135.6z M44.2,130.5
	c0.1,0.1,0.1,0.3,0.2,0.4l0,0c0,0,0,0,0,0c0,0,0,0,0,0C44.3,130.7,44.2,130.6,44.2,130.5z M45.7,121.2c-0.2-0.1-0.4-0.1-0.7-0.2
	c0.1,0.4,0.1,0.5,0.1,0.8c0.2-0.1,0.4-0.2,0.6-0.3C45.7,121.5,45.7,121.4,45.7,121.2z M46.3,124.7c0.6-0.2,1.1-0.3,1.6-0.4
	c0-0.1,0.2-0.2,0.4-0.4c0.1-0.1,0.1-0.2,0.2-0.4c-0.4-0.4-0.9-0.8-1.4-1.3c0,0.5,0,0.9-0.1,1.3c-0.4,0.2-0.7,0.4-1.2,0.6
	C46,124.4,46.2,124.6,46.3,124.7z M40,122.1c0.5,0.3,1,0.5,1.5,0.8c0.2-0.2,0.4-0.4,0.6-0.6c0.5,0.7,1.3-0.5,1.9,0.7
	c-0.6,0.4-1.1,0.5-1.8,0.7c-0.2,0.3-0.4,0.7-0.7,1.2c0.2,0.4,0.3,0.7,0.4,1c0.5,0.7,1.4,1.3,1.8,1.4c0.4,0.3,0.8,0.6,1.1,0.9
	c-0.2,0.6-0.2,0.6-0.8,1.1c0,0.3,0,0.6-0.1,0.9c-0.4-0.8-0.8-1.5-1.2-2.3c-0.6-0.6-1.1,0.4-1.6,0.8c-0.7-0.4-0.7-0.4-1-1.5
	c0.2,0,0.5-0.1,0.7-0.1c0.7-0.6,0.4-1.6,0.4-2.6c-0.2-0.1-0.3-0.2-0.5-0.2c-0.2-0.3-0.2-1.1-0.6-0.9c-0.3,0.7-0.6,1.4-0.9,2.1
	c-0.6,0.2-1.1,0.3-1.7,0.6c-0.3,0.1-0.6,0.4-0.8,0.6c0,1.3,0.1,1.6,0.8,1.8c0.4,0.1,0.7,0.3,1.1,0.4c0.4,0.1,0.5,0.1,0.7-0.9
	c-0.2-0.2-0.3-0.4-0.6-0.8c0.3-0.4,0.5-0.8,0.8-1.2c0.2,0.2,0.3,0.3,0.4,0.5c-0.2,0.3-0.3,0.6-0.4,0.8c0,0.9,0.5,1.1,0.9,1.5
	c0.1,0.3,0.2,0.7,0.3,1.1c0.2,0.2,0.5,0.4,0.8,0.6c0.1,0.4,0.3,0.8,0.5,1.2c-0.3,0.5-0.6,0.9-0.9,1.5c-0.5-0.1-1-0.2-1.4,0.5
	c-0.6,0.1-1,0.1-1.6,0.2c0.4-0.6,0.7-1,1.1-1.5c-0.1-0.4-0.2-0.6-0.3-0.9c-0.6,0-1,0-1.6,0c-0.1-1.1,0.6-0.8,0.9-1.2
	c-0.8-1-1.8-1.1-2.4-2.5c0.2-0.3,0.4-0.5,0.7-0.8c0.1-0.4,0.1-0.8,0.2-1.4c0.5-0.3,1-0.6,1.5-0.9c0,0.1,0,0.1,0,0.1
	c0.2-0.2,0.3-0.4,0.5-0.7c0.2,0.1,0.4,0.2,0.6,0.2C39.9,123.9,39.7,122.8,40,122.1z M38.8,130c0.1,0.4,0.2,0.6,0.2,0.9
	c0.5,0,0.7-0.3,0.5-1.3C39.3,129.7,39,129.9,38.8,130z M44.3,130.9c0,0.3,0,0.5,0,0.7c-0.7,0.7-1.1-0.2-1.7-0.5
	c-0.1,0.6-0.3,1.2-0.5,1.8c-0.2,0.3-0.4,0.8-0.6,1.3c-0.8,0.3-1.6,0.6-2.5,0.9c0,0.1-0.1,0.3-0.1,0.3c-0.7,1.1-1.5,0.2-2.3,1
	c0.3,0.4,0.4,0.7,0.6,1c0.6-0.2,1.1-0.4,1.7-0.6c0.4-0.3,0.7-1.2,1.3-1c0.2,0.2,0.3,0.5,0.5,0.8c0.9-1,1.7,0.5,2.5,0.2
	c0.2,0.3,0.4,0.5,0.5,0.6c0.8,0,1.5,0,2.2,0c0.2-0.5,0.2-1,0-1.4c-0.2,0.2-0.4,0.4-0.7,0.5c0-0.1,0-0.1,0-0.2
	c-0.6-0.1-1.1-0.2-1.7-0.3c-0.3-0.2-0.7-0.3-1-0.5c-0.5-0.2-0.6-0.4-0.6-1.2c0.3-0.2,0.6-0.4,0.8-0.7c0.7-0.6,1.3-1.4,2.1-0.9
	c0.4-0.8,0-1.4,0-2.2C44.7,130.7,44.5,130.8,44.3,130.9z M46.9,119.1c-0.7-0.2-0.7-0.2-1,0.3c0.3,0.1,0.6,0.2,0.8,0.3
	c0.1-0.2,0.1-0.2,0.1-0.3C46.9,119.3,46.9,119.2,46.9,119.1z M44,130.2C44,130.2,44,130.2,44,130.2c0,0.2,0.1,0.3,0.1,0.3
	C44.1,130.4,44.1,130.3,44,130.2C44,130.2,44,130.2,44,130.2z M12.5,60.3c0-0.1-0.1-0.2-0.1-0.3c0-0.1-0.1,0-0.4-0.1
	c0.2,0.3,0.3,0.5,0.4,0.6C12.5,60.4,12.5,60.3,12.5,60.3z M8.3,69.4C8.3,69.4,8.3,69.4,8.3,69.4C8.3,69.4,8.3,69.4,8.3,69.4
	C8.3,69.4,8.3,69.4,8.3,69.4z M12.2,63.5c-0.3-0.4-0.5-0.7-0.9-1.1c-0.1,0.2-0.2,0.4-0.3,0.5c0.3,0.5,0.5,0.8,0.7,1.3
	C11.9,64,12,63.8,12.2,63.5z M10.4,61.1c0-0.1,0-0.1,0-0.2c0,0.1-0.1,0.1-0.1,0.2c0,0.1,0.1,0.1,0.1,0.2
	C10.3,61.1,10.4,61.1,10.4,61.1z M6.9,57.9c-0.3-0.1-0.4-0.2-0.6-0.3c0.1,0.4,0.1,0.5,0.2,0.7C6.6,58.1,6.7,58.1,6.9,57.9z
	 M7.7,61.1c-0.4-0.7-0.8-1.1-1.4-0.7C6.6,61,6.8,61.4,7,61.8C7.3,61.6,7.5,61.4,7.7,61.1z M10.6,64.6c0.3-0.4,0.3-0.8,0.2-1.3
	C10.2,63.7,10.2,63.9,10.6,64.6z M5.6,64.5c0.3-0.4,0.4-0.7,0.6-1c0.2-0.3,0.3-0.6,0.5-1c0.3,0,0.6,0,1.1,0
	c-0.1,0.4-0.3,0.6-0.4,0.9c0.2,0.9,0.3,1.8,0.5,2.7c0,0.1-0.1,0.1-0.2,0.3C7.1,65.8,6.4,65.2,5.6,64.5z M6.8,64.5
	c0,0.4,0.1,0.6,0.5,0.3c-0.1-0.2-0.2-0.4-0.3-0.6C7,64.4,6.9,64.5,6.8,64.5z M41.1,163L41.1,163L41.1,163L41.1,163z M11.9,65.6
	c-0.1,0.3-0.2,0.5-0.2,0.8c0.3,0.3,0.6,0.6,0.9,0.8c0.3-0.2,0.5-0.3,0.7-0.4c0.1-0.3,0.2-0.6,0.3-0.8c0.2-0.2,0.4-0.3,0.6-0.5
	c0-0.1,0-0.2-0.1-0.3c-0.5,0.2-1,0.1-1.4,0.9C12.4,65.8,12.2,65.7,11.9,65.6z M5.6,120.3c-1,0.9-1,0.9-0.8,1.7
	C5.1,121.6,5.7,121.5,5.6,120.3z M12.5,62.2c0.1-0.1,0.2-0.2,0.4-0.3c0-0.1,0-0.2-0.1-0.3c-0.1,0.1-0.2,0.2-0.4,0.3
	C12.5,62,12.5,62.1,12.5,62.2z M30.2,27.6L30.2,27.6l0,0.1L30.2,27.6z M12.2,61.7c-0.3-0.2-0.4-0.3-0.6-0.5c0,0.4,0.1,0.6,0.1,0.9
	C11.9,62,12,61.9,12.2,61.7z M11.9,58.8c0-0.2,0-0.4,0-0.6c-0.1,0-0.2,0-0.2,0c0,0.2,0,0.4,0.1,0.7C11.8,58.8,11.8,58.8,11.9,58.8z
	 M8,92.3c0.4-0.6,0.7-1.1,1-1.6c0.1,0.1,0.1,0.2,0.2,0.3c-0.1-0.6,0-1.1,0.5-1.2c0.2,0.1,0.6,0.3,0.8,0.5c0.2-0.4,0.4-0.7,0.6-1.1
	c0.3,0.1,0.5,0.1,0.8,0.2c0-0.2,0.1-0.4,0.1-0.7c-0.7-0.1-1.2-0.6-1.7-1.5c0.3-0.5,0.4-1,0.7-1.3c0.6-0.7,1.2-1.3,1.9-1.9
	c0.7,0.2,0.5,1.3,0.6,2.1c0.2,0.5,0.4,0.9,0.6,1.4c0.6-0.2,1-0.4,1.4-0.6c0.6,0.4,1,0.7,1.5,1c0.3-0.7,1-0.2,1.1-1.4
	c-0.2-0.1-0.4-0.3-0.8-0.6c-0.1,0.4-0.2,0.8-0.3,1.2c-0.4-0.5-0.1-1.4-0.6-1.6c-0.2,0.3-0.4,0.5-0.6,0.8c-0.5-0.7-1-1.3-1.3-1.8
	c-0.1-0.6-0.1-1-0.1-1.4c-0.1-0.1-0.2-0.2-0.3-0.2c-0.6-0.2-1.3-0.3-1.9-0.4c-0.3-0.1-0.5,0.1-0.6,0.6c0.2,0.3,0.3,0.6,0.5,0.9
	c-0.5,0.9-1,1.3-1.7,1.5c-0.1,0.2-0.3,0.4-0.4,0.6c-0.1,0.2-0.3,0.4-0.4,0.5c0.8,0.9,0.8,1.2,0.3,2c-0.4-0.5-0.9-0.7-1.3-0.3
	c0,0.9,0.6,1.6,0.3,2.5c-0.2,0.2-0.4,0.3-0.6,0.4C7.8,91.8,8,92.2,8,92.3z M4,74.1c-0.1,0.2-0.2,0.5-0.3,1c0.5-0.1,0.9-0.3,1.2-0.3
	C4.9,74.1,4.9,74.1,4,74.1z M0.9,83.2c0.3,0.2,0.5,0.4,0.7-0.1c-0.2-0.2-0.4-0.3-0.6-0.5C1,82.9,1,83.1,0.9,83.2z M1.9,85.1
	c0.1,0,0.1,0,0.2-0.1c0,0,0-0.1,0-0.1C2,84.9,2,85,1.9,85C1.9,85,1.9,85.1,1.9,85.1z M1.8,77.8c0.3,0.3,0.4,0.1,0.4-0.2
	C2,77.6,1.9,77.7,1.8,77.8z M0.4,85.1C0.2,85,0,85.1,0,85.5c0.3,0.3,0.5,0.5,0.8,0.8C0.8,85.8,0.8,85.3,0.4,85.1z M0.1,71.9
	C0.1,71.9,0.1,71.9,0.1,71.9C0,71.9,0,71.9,0.1,71.9C0,71.9,0,72,0,72C0,72,0.1,71.9,0.1,71.9z M1.7,76.4l0-0.1H1.6L1.7,76.4z
	 M3,76.3c0,0.2,0,0.3,0,0.5c0,0,0.1,0,0.1,0c0-0.2,0-0.3,0-0.5C3.1,76.2,3,76.2,3,76.3z M1.3,70.9c0.1,0.2,0.3,0.4,0.4,0.6
	c0.3-0.4,0.5-0.7,0.9-1.2c0,0.5,0,0.8,0,1.1c0.1,0.1,0.1,0.2,0.2,0.2c0.2-0.3,0.3-0.5,0.6-0.8c-0.3-0.6-0.4-0.9-0.6-1.3
	C2.1,69.8,1.6,69.9,1.3,70.9z M3.7,78.1c0,0,0.1,0.1,0.1,0.1c0.1-0.1,0.1-0.2,0.1-0.3c-0.1-0.1-0.1-0.1-0.2-0.1
	C3.7,77.9,3.7,78,3.7,78.1z M1.9,88.2c0,0,0.1,0.1,0.1,0.1c0.1-0.2,0.1-0.3,0.2-0.5c-0.1-0.1-0.1-0.1-0.2-0.2C2,87.8,2,88,1.9,88.2z
	 M2.2,77.5C2.2,77.5,2.2,77.6,2.2,77.5C2.2,77.6,2.2,77.6,2.2,77.5C2.2,77.5,2.2,77.5,2.2,77.5C2.2,77.5,2.2,77.5,2.2,77.5z
	 M2.3,74.7c0.1,0.2,0.2,0.4,0.4,0.5c0-0.1,0.1-0.1,0.1-0.2c-0.1-0.2-0.3-0.3-0.4-0.5C2.4,74.6,2.4,74.6,2.3,74.7z M10.6,73
	c-0.1-0.1-0.2-0.3-0.3-0.6c0.1-0.3,0.1-0.5,0.2-0.8c-0.1-0.1-0.2-0.3-0.3-0.4c0-0.4,0-0.7,0-1.2c-0.4-0.1-0.8-0.2-1.3-0.4
	C8.9,69.3,9,69,9.1,68.5c0.6,0.3,1.1,0.6,1.7,0.8c0.2-0.3,0.4-0.5,0.5-0.7c0.4,0.3,0.7,0.5,1.2,0.9c0.2-0.1,0.4-0.2,0.9-0.4
	c-0.2,0.8-0.3,1.5-0.5,2.1C11.9,71.4,11.3,72.3,10.6,73z M12.1,70.2c0.1,0,0.2,0,0.4,0c0-0.1,0-0.1,0-0.2c-0.1,0-0.2-0.1-0.4-0.1
	C12.1,70,12.1,70.1,12.1,70.2z M25.1,80.6c-0.6,0.5-1.1,1.1-1.2,2.4C25,82.5,25.4,81.7,25.1,80.6z M21.3,89c0.1,0.4,0.2,0.8,0.3,1.2
	c-1,1-1.8-0.3-2.6-0.5c-0.1,0.3-0.2,0.7-0.3,1C18.1,91.2,18,90,17.5,90c-0.3,0.3-0.6,0.5-0.9,0.8c-0.2,0.5,0.1,1.1-0.3,1.4
	c0-0.3-0.1-0.4-0.1-0.6c0-0.2-0.1-0.3-0.1-0.5c-0.4,0.4-0.3,1-0.2,1.5c-0.3,0.3-0.4,0.9-0.8,0.8c-0.3-0.7,0.3-0.8,0.3-1.4
	c-0.1-0.2-0.3-0.3-0.4-0.5c-0.2,0.4-0.3,0.8-0.4,1c-0.2,0.2-0.4,0.4-0.6,0.5c-0.1,0.7,0.3,0.9,0.5,1.4c0.3-0.2,0.5-0.4,0.7-0.5
	c0.9-0.5,1.9-1.1,2.9-0.2c0.1,0.1,0.3,0.1,0.5,0.2c0.4,0.1,0.7,0.1,1.1,0.3c0.5,0.2,0.9,0.1,1.4-0.5c-0.7-0.4-1.4-0.8-2.1-1.3
	c0-0.5,0.1-0.9,0.1-1.3c0.3-0.2,0.5-0.3,0.7-0.4c0.6,0.3,1.1,0.6,1.6,0.9c0.4-0.6,1.1-0.1,1.3-1.2c-0.2-0.6-0.5-1.3-0.8-2
	C21.7,88.7,21.5,88.8,21.3,89z M22,87c0.1,0.1,0.3,0.3,0.4,0.4c0,0,0.1-0.1,0.2-0.3c-0.2-0.1-0.4-0.2-0.6-0.3C22,86.9,22,87,22,87z
	 M21.7,72.1c-0.2,0.6-0.2,0.6,0.2,0.7C21.8,72.5,21.8,72.3,21.7,72.1z M21.4,51.1c0-0.1-0.1-0.3-0.1-0.4c0,0-0.1,0-0.1,0
	c0,0.1,0,0.3,0,0.4C21.3,51.1,21.3,51.1,21.4,51.1z M22.3,83.6c0-0.1,0.1-0.1,0.1-0.1c-0.1-0.4-0.2-0.8-0.4-1.4
	c-0.2,0.4-0.2,0.6-0.3,0.8C21.8,83.1,22,83.3,22.3,83.6z M27,46.2c0,0.2,0.1,0.4,0.1,0.6c0.3-0.1,0.5-0.2,0.8-0.3
	c0,0.3,0.1,0.6,0.1,0.8c-0.1,0.5-0.4,0.8-0.6,1.3c0.1,0.4,0.2,0.8,0.3,1.2c0.1,0,0.1-0.1,0.2-0.1c0-0.4-0.1-0.9-0.1-1.2
	c0.3-0.5,0.6-0.9,0.8-1.3c-0.2-0.5-0.4-0.9-0.5-1.3C27.8,45.5,27.4,45.9,27,46.2z M28.1,44.6c-0.1,0-0.1,0-0.2,0c0,0,0,0.1,0,0.1
	C28,44.7,28.1,44.7,28.1,44.6C28.1,44.6,28.1,44.6,28.1,44.6z M29.6,45.8c0.2,0.3,0.4,0.4,0.6,0.7c0-0.7,0-1.1-0.1-1.8
	C30,45.2,29.8,45.4,29.6,45.8z M20.8,55c0.6-0.3,0.7-0.4,0.7-0.8c0-0.1-0.1-0.1-0.2-0.3C20.9,54.4,20.9,54.4,20.8,55z M26.7,69.8
	c0.3,0.2,0.3,1,0.8,0.6c0.1-0.7-0.3-1-0.4-1.3c-0.6-0.2-1-0.4-1.5-0.5c-0.1,0-0.2,0.1-0.4,0.1c0.1,0.4,0.2,0.7,0.2,1
	C25.9,69.7,26.3,69.8,26.7,69.8z M24.7,56.4c-0.1,0.1-0.2,0.2-0.3,0.3C24.6,56.8,24.6,56.8,24.7,56.4z M25.5,63
	C25.4,63.1,25.4,63.1,25.5,63c-0.1,0.1,0,0.1,0,0.1C25.5,63.1,25.5,63.1,25.5,63z M17.5,49.6c0-0.1-0.1-0.2-0.1-0.3
	c-0.2,0.1-0.5,0.1-0.7,0.2c0,0.4,0.1,0.7,0.1,1.3C17.1,50.3,17.3,50,17.5,49.6z M15.4,80.5c-0.5,0.1-0.9,0.1-1.2,0.9
	c0.1,0.2,0.3,0.4,0.4,0.7C15.1,81.6,15.5,81.3,15.4,80.5z M9.2,61.7c0.2,0,0.3-0.1,0.6-0.2c-0.2-0.3-0.3-0.5-0.4-0.7
	c-0.1,0.3-0.2,0.4-0.3,0.6C9.1,61.5,9.2,61.6,9.2,61.7z M8.8,52.9c0.1,0,0.1,0,0.2-0.1c0.1-0.5,0.2-1,0.4-1.6c0,0-0.1-0.1-0.1-0.1
	c-0.2,0.2-0.4,0.5-0.6,0.8C8.7,52.2,8.8,52.6,8.8,52.9z M10.5,76.2c-0.1,0.1-0.2,0.3-0.3,0.4c0.1,0.1,0.1,0.2,0.2,0.2
	c0.1-0.2,0.1-0.3,0.2-0.5C10.6,76.3,10.5,76.3,10.5,76.2z M10.1,71.3C10.1,71.3,10.1,71.3,10.1,71.3C10.1,71.3,10.1,71.3,10.1,71.3
	C10.1,71.3,10.1,71.3,10.1,71.3L10.1,71.3z M10.1,71.3c-0.2,0.1-0.3,0.1-0.6,0.2c0.2,0.2,0.3,0.2,0.4,0.3C10,71.7,10,71.5,10.1,71.3
	z M9.8,65.7c0-0.1-0.1-0.1-0.1-0.2c-0.2,0.3-0.4,0.6-0.6,0.9c0.1,0.2,0.1,0.3,0.2,0.4C9.4,66.5,9.6,66.1,9.8,65.7z M16.8,70.6
	c0.3,0.1,0.6-0.3,0.8-0.8c0-0.4-0.1-0.8-0.4-0.8c-0.1,0.3-0.2,0.7-0.4,1c-0.6-0.1-1.1-0.1-1.6-0.2c-0.3,0.5-0.3,0.5-0.1,1.3
	C15.7,70.7,16.2,70.5,16.8,70.6z M9.2,84.4c0.1,0,0.1,0,0.2,0c0.1-0.4,0.1-0.7,0.2-1.2c0.2-0.1,0.5-0.2,0.7-0.3
	c0.2,0.5,0.3,0.8,0.5,1.3c0.2-0.5,0.3-0.7,0.4-1c-0.2-0.4-0.3-0.8-0.4-1.2c-0.3,0.2-0.6,0.3-0.8,0.5c-0.3,0-0.6,0-0.9,0
	C9.1,83.3,9.1,83.9,9.2,84.4z M17.4,67.9c0,0.1,0,0.1,0.1,0.1c0,0,0.1,0,0.1,0c0-0.2,0.1-0.4,0.1-0.6c0,0-0.1,0-0.1-0.1
	C17.5,67.5,17.4,67.7,17.4,67.9z M9,50.6c0-0.1,0-0.2,0-0.2c-0.1-0.1-0.3-0.1-0.5-0.3c0.1,0.3,0.1,0.6,0.2,0.6
	C8.8,50.7,8.9,50.7,9,50.6z M15.9,67.6c0.2-0.3,0.3-0.6,0-1c-0.3,0.3-0.5,0.5-0.8,0.9C15.4,67.8,15.6,67.9,15.9,67.6z M16.1,46.8
	c-0.3,0-0.4,0-0.7,0c0.2,0.3,0.3,0.5,0.4,0.8C16,47.2,16,47.1,16.1,46.8z M31.1,65.8c0,0.1-0.1,0.1-0.1,0.2c0,0,0,0.1,0,0.1
	C31.1,66,31.1,65.9,31.1,65.8C31.1,65.9,31.1,65.8,31.1,65.8z M40.8,153.2C40.8,153.2,40.8,153.2,40.8,153.2c-0.1,0.1-0.1,0.2,0,0.5
	C40.8,153.4,40.8,153.3,40.8,153.2z M24.7,125.2c0-0.1-0.1-0.1-0.3-0.1c0,0.3-0.1,0.6-0.1,0.9c0.2,0.1,0.4,0.2,0.5,0.2
	C24.8,125.9,24.7,125.5,24.7,125.2z M25.2,134.3c-0.4-0.3-0.7-0.7-1-1c-0.4,0.3-0.8,0.5-0.8,1.5c0.1,0.1,0.3,0.4,0.5,0.4
	c0.5,0.1,1,0.2,1.5,0.3c0,0.1,0,0.1,0,0.2c0.3-0.2,0.5-0.3,0.8-0.5c0-0.3-0.1-0.6-0.1-0.9C25.8,134.3,25.5,134.3,25.2,134.3z
	 M37.7,168.1c-0.1,0-0.1,0.1-0.2,0.1c0,0.1,0,0.1,0,0.2c0.1,0,0.1,0,0.2-0.1C37.7,168.2,37.7,168.1,37.7,168.1z M36.8,236.7
	c0,0.1,0,0.2,0,0.2c0,0,0.1,0,0.1,0C36.8,236.9,36.8,236.8,36.8,236.7C36.8,236.7,36.8,236.7,36.8,236.7z M37.9,152.4
	c0,0-0.1,0.1-0.1,0.1c0,0.2,0.1,0.3,0.1,0.5c0.1,0,0.1-0.1,0.2-0.1C38,152.7,38,152.6,37.9,152.4z M18.3,176c0-0.1,0.1-0.3,0.1-0.4
	c0,0-0.1-0.1-0.1-0.1c-0.1,0.1-0.1,0.2-0.2,0.3C18.2,175.9,18.3,176,18.3,176z M38.1,171.2c0-0.6,0-1,0.1-1.2
	c-0.4-0.3-0.7-0.4-1.2-0.7c-0.2,0.2-0.5-0.3-0.8,0.3c0.4,0.2,0.7,0.3,1,0.6C37.5,170.4,37.7,170.7,38.1,171.2z M20.3,101.9
	c0.1-0.2,0.1-0.3,0.2-0.6c-0.1-0.2-0.2-0.3-0.3-0.4C20.1,101.3,20,101.6,20.3,101.9z M22.1,108.9c-0.2,0.1-0.4,0.2-0.5,0.2
	c-0.8-0.2-1.5-0.3-2.2-0.5c-0.1,0.7,0.1,0.9,0.4,1.1c0.2-0.1,0.4-0.2,0.7-0.4c0.4,0.3,0.9,0.6,1.4,0.9
	C22.3,109.2,22.3,109.2,22.1,108.9z M22.5,106.1c-0.2,0-0.4,0-0.6,0.1c0,0.1,0,0.1,0,0.2c-0.5,0.4-1,0.8-1.5,1.1
	c0.6,0.3,1.6-0.3,2.2-1.2C22.6,106.3,22.6,106.1,22.5,106.1z M19.6,116.1c-0.4-0.6-0.4-0.6-0.8,0.3
	C19.1,116.6,19.4,116.6,19.6,116.1z M17.4,127c0.1,0,0.2,0.1,0.3,0.1c0-0.1,0-0.1,0-0.2c-0.1,0-0.2-0.1-0.3-0.1
	C17.4,126.9,17.4,127,17.4,127z M17.6,117.7c-0.1,0.2-0.1,0.4-0.2,0.7c1.2,0.5,2.2,1.1,3.4,0.5c-0.8-0.7-1.7-0.8-2.6-0.8
	C18,118,17.8,117.9,17.6,117.7z M31,157.6c0.6,0.5,0.7,0.4,0.6-0.5C31.3,157.2,31.1,157.4,31,157.6z M26.7,165.3c0.1,0,0.2,0,0.3,0
	c0-0.1,0-0.2,0-0.2c-0.1,0-0.2,0-0.3,0C26.7,165.2,26.7,165.2,26.7,165.3z M27.3,296.7c-0.1-0.9-0.1-0.9-0.7-0.8
	C26.7,296.6,26.9,296.8,27.3,296.7z M30.3,145.4c0,0.3,0,0.6-0.1,1.1c-0.5,0.2-1,0.3-1.5,0.5c-1.4-2-1.4-2-1.9-1.4
	c0.2,0.2,0.4,0.4,0.5,0.6c0.1,0.5,0.2,0.9,0.3,1.3c0.3,0,0.5,0.1,0.7,0.1c0.4,0.4,0.8,0.7,1.2,1c0.5-1.1,1-2,1.8-2.5
	C30.9,145.4,30.6,145.1,30.3,145.4z M27.2,308.2c-0.1-0.3-0.2-0.6-0.3-0.9c-0.3,0.5-0.6,0.8-0.9,1.3c0.2,0.2,0.4,0.5,0.7,0.7
	C26.9,308.9,27,308.6,27.2,308.2z M20.9,102.3C20.9,102.3,21,102.3,20.9,102.3c0-0.1,0-0.2,0-0.3c0,0,0,0,0,0
	C20.9,102.2,20.9,102.2,20.9,102.3z M31.7,185.5c-0.1-0.3-0.1-0.5-0.2-0.9c-0.4,0.4-0.7,0.8-1.2,1.2
	C30.9,186.3,31.2,185.8,31.7,185.5z M30.7,309.7c0.2-0.3,0.5-0.5,0.8-0.8c0-0.1,0-0.3,0-0.5c-0.3,0.2-0.5,0.3-0.7,0.4
	c-0.2-0.2-0.4-0.3-0.6-0.4c-0.2,0.2-0.4,0.4-0.6,0.6c-0.3-0.3-0.5-0.5-0.7-0.8c-0.1,0.1-0.2,0.1-0.5,0.3c0.4,0.5,0.6,0.9,0.9,1.3
	C29.7,309.7,30.2,309.7,30.7,309.7z M33,184c-0.1-0.4-0.2-0.7-0.4-1.1c-0.2,0.5-0.4,0.8-0.6,1.3c0.5,0.5,1,0.9,1.5,1.4
	c0.1-0.3,0.2-0.6,0.4-0.9C33.5,184.4,33.2,184.2,33,184z M35.4,215.1c0.2-0.2,0.4-0.4,0.6-0.6C35.3,214,35.2,214.1,35.4,215.1z
	 M27.8,315.4c-0.2,0.3-0.4,0.5-0.7,0.8c0.2,0.2,0.3,0.4,0.4,0.5C27.7,316.3,27.9,316,27.8,315.4z M32.8,196.3
	c0.3-0.1,0.6-0.1,0.8-0.2C33.1,195.4,33,195.4,32.8,196.3z M36,318.8c0.4,0,0.7,0.1,1.2,0.1c-0.2-0.5-0.4-0.8-0.5-1.2
	c0-0.4,0-0.7,0-1c-0.6-0.8-0.6-0.8-1.1-0.8c-0.2,0.6,0.2,0.9,0.2,1.3C35.9,317.8,36,318.3,36,318.8z M30.7,223
	c-0.3-0.1-0.5-0.2-0.8-0.3c-0.1,0.2-0.2,0.4-0.3,0.6c0.6,0.4,1.5,0.4,2.2-0.1C31.5,222.4,31.5,222.4,30.7,223z M30,48.8
	c-0.3,0.4-0.4,0.9-0.2,1.4c0.4-0.4,0.5-0.5,0.5-0.9C30.2,49.1,30.1,48.9,30,48.8z M25.2,97.8c0.2,0.4,0.4,0.7,0.9,0.5
	c-0.2-0.4-0.3-0.7-0.5-1.2C25.4,97.4,25.3,97.6,25.2,97.8z M22.8,110.6c-0.1-0.1-0.1-0.2-0.2-0.3c-0.1,0.1-0.1,0.2-0.1,0.4
	c0.1,0.1,0.2,0.1,0.3,0.1C22.8,110.7,22.8,110.6,22.8,110.6z M25.4,110.4c-0.7,0-0.9,0.5-1,1.4C25,111.7,25.1,111.1,25.4,110.4z
	 M26.1,101.9C26.1,101.9,26.1,101.9,26.1,101.9C26.1,101.9,26.1,101.9,26.1,101.9C26.1,101.8,26.1,101.8,26.1,101.9
	C26.1,101.8,26.1,101.9,26.1,101.9z M29.3,62.4c-0.4,0.3-0.6,0.5-0.9,0.7c-0.1,0.5-0.4,0.8-0.3,1.4c0.2-0.2,0.5-0.3,0.6-0.4
	C28.9,63.6,29.1,63.2,29.3,62.4z M27.5,94.9c-0.2-0.4-0.3-0.7-0.5-1.1c-0.3-0.1-0.5-0.2-0.6-0.3c-0.4,0.2-0.7,0.3-1.1,0.4
	c-0.2,0.1-0.4,0.2-0.4,0.6c-0.2,0.1-0.4,0.1-0.5,0.2c0.1,0.3,0.3,0.4,0.4,0.5c0.7,0.4,0.9,0.3,1.3-0.7c0.1-0.2,0.2-0.3,0.3-0.5
	C27,95.1,27,95.1,27.5,94.9z M28.9,69.3c-0.2,0.2-0.3,0.2-0.5,0.4c0.1,0.2,0.2,0.3,0.3,0.6C28.8,69.9,28.9,69.7,28.9,69.3z
	 M29.8,40.9c0-0.1,0-0.2,0-0.2c-0.1,0-0.2,0-0.4,0c0,0.1,0,0.2,0,0.3C29.6,41,29.7,40.9,29.8,40.9z M27.6,52.2
	c0.3,0.5,0.5,0.9,0.8,1.3c0,0.1,0.1,0,0.3,0c0-0.3,0-0.6-0.1-0.9c0.1-0.1,0.1-0.2,0.2-0.3c0.1-0.1,0.1-0.2,0.2-0.3
	c-0.1-0.2-0.1-0.3-0.2-0.5C28,51.8,28,51.8,27.6,52.2z M27.8,32.4c-0.3,0.2-0.4,0.3-0.6,0.4C27.5,32.9,27.7,33.1,27.8,32.4z
	 M27.4,40.7c0-0.1-0.1-0.2-0.2-0.2c-0.1,0.2-0.2,0.4-0.3,0.6c0,0.1,0.1,0.1,0.1,0.2C27.1,41.1,27.2,40.9,27.4,40.7z M27.9,96.3
	c0.1,0.4,0.2,0.7,0.3,1.1c0.3-0.6,0.6-1,0.8-1.4C28.6,95.7,28.3,95.7,27.9,96.3z M29.6,61.8c-0.2-0.6-0.4-1.1-0.5-1.5
	c-0.5-0.1-0.4,0.7-0.6,1c-0.2,0.1-0.3,0.3-0.5,0.4c0,0.3,0,0.7,0.1,1c0.1,0,0.1,0,0.2,0c0.1-0.3,0.3-0.6,0.4-0.9
	C29,61.8,29.2,61.8,29.6,61.8z M29.8,56.5c-0.1-0.4-0.1-0.7-0.2-1c-0.1,0-0.1,0-0.2,0c-0.2,0.4-0.3,0.8-0.5,1.2
	c0,0.1,0.1,0.2,0.1,0.3C29.4,56.7,29.6,56.6,29.8,56.5z M29.3,88.3c0.3,0,0.6-0.1,1-0.1c-0.2-0.5-0.3-0.7-0.4-1
	C29.7,87.5,29.3,87.5,29.3,88.3z M23.9,89.9c0.3,0.1,0.5,0.2,0.7,0.3c0.1,0.3,0.2,0.6,0.3,1c0.5-0.2,1-0.5,1.4-0.5
	c0.5-0.1,0.9-0.3,1.2-0.8c0.3-0.5,0.7-0.8,1.2-1.4c-0.4-0.2-0.6-0.3-0.8-0.5c-0.2,0.4-0.3,0.6-0.5,1c-0.6-0.5-1.1-0.9-1.6-1.4
	c0,0.4,0.1,0.6,0.2,0.8c0.1,0.2,0.1,0.5,0.1,0.7c-0.5,0.1-0.9,0.2-1.4,0.3C24.2,89.2,24.2,89.2,23.9,89.9z M26.2,85.1
	c0.4,0.1,0.5-0.2,0.5-0.7C26.3,84.3,26.2,84.5,26.2,85.1z M23.6,95.6c0.1-0.1,0.2-0.2,0.2-0.2c0-0.1,0-0.1-0.1-0.2
	c-0.1,0.1-0.2,0.1-0.3,0.2C23.6,95.4,23.6,95.5,23.6,95.6z M23.6,92.3c0.5-0.1,0.6-0.3,0.5-0.8c0-0.1-0.1-0.1-0.3-0.3
	C23.7,91.6,23.7,91.9,23.6,92.3z M28.4,107.3c0.3,0,0.5,0,1,0c-0.4-0.7-0.6-1.1-0.9-1.6C28,106.4,28,106.4,28.4,107.3z M26.6,71.6
	c0.2,0,0.3-0.1,0.6-0.1C26.8,71,26.8,71,26.6,71.6z M24.6,101.8c-0.3,0.2-0.6,0.3-0.9,0.4c-0.2-0.5-0.4-0.8-0.6-1.3
	c-0.2,0.6-0.5,1.1-0.7,1.7c-0.3,0.1-0.6,0.1-0.9,0.2c0,0.4,0.1,0.7,0.2,1.3c1.2-0.6,2.2-1.1,3.4-1.7
	C24.9,102.1,24.8,101.9,24.6,101.8z M29.9,65.1c-0.3-0.1-0.5-0.1-0.9-0.2C29.6,65.6,29.6,65.6,29.9,65.1z M27.5,99.4
	c0.6,0.6,1,1.1,1.5,1.6c0-0.1,0.1-0.1,0.1-0.2c-0.3-0.7-0.6-1.4-0.9-2.2C28,98.9,27.8,99.1,27.5,99.4z M29.7,158.3
	c-0.1-0.4-0.2-0.5-0.6-0.2c0.2,0.2,0.3,0.3,0.5,0.4C29.7,158.4,29.7,158.4,29.7,158.3z M30.1,60.4c0,0-0.1-0.1-0.1-0.1
	c-0.1,0.1-0.1,0.2-0.2,0.2c0,0.1,0.1,0.1,0.1,0.2C30,60.6,30.1,60.5,30.1,60.4z M28.1,71.1L28.1,71.1L28.1,71.1L28.1,71.1z
	 M27.8,77.4c0,0.1,0.1,0.3,0.1,0.4c0,0,0.1-0.1,0.1-0.1c0-0.1-0.1-0.3-0.1-0.4C27.9,77.3,27.8,77.4,27.8,77.4z M23.7,128.6
	c0.4,0.1,0.8,0.1,1.1-0.6c-0.3-0.4-0.6-0.7-0.9-1C23.5,127.6,23.5,127.6,23.7,128.6z M20.8,214.7c0-0.1,0-0.2,0-0.3
	c-0.1,0-0.2,0-0.2,0.1c0,0,0,0.2,0,0.2C20.6,214.7,20.7,214.7,20.8,214.7z M27.7,321.2c0.3-0.8,0.6-1.5,0.9-2.2
	c-0.3-0.9-0.5-1.7-1.2-1.5c-0.3,0.8-0.3,1.6,0,2.3c-0.1,0.4-0.1,0.7-0.2,1C27.4,321,27.5,321.1,27.7,321.2z M20.6,192.7
	c0,0-0.1,0-0.1,0c0,0.2-0.1,0.4-0.1,0.6c0.1,0,0.1,0,0.2,0C20.6,193,20.6,192.9,20.6,192.7z M34.3,307.9c0.1,0.3,0.1,0.6,0.5,0.5
	c-0.2-0.3-0.3-0.5-0.4-0.7C34.4,307.7,34.4,307.8,34.3,307.9z M32.2,317.6c0.4,0.6,0.4,0.6,1,0.7c-0.2-0.6-0.3-0.9-0.4-1.3
	C32.4,316.9,32.2,317,32.2,317.6z M33.7,201.3c-0.4-0.6-0.8-1.3-1.4-2.1c-0.2,0.6-0.2,1.2-0.4,1.5c-0.5,0.9-0.5,1.8-0.1,2.7
	c0.4,0.1,0.8,0.2,1.2,0.4c0.1-0.2,0.3-0.4,0.4-0.5C33.5,202.6,33.6,202,33.7,201.3z M33.1,226.9c-0.1-0.1-0.2-0.2-0.2-0.3
	c0,0.1-0.1,0.2-0.1,0.3c0.1,0.1,0.2,0.2,0.3,0.3C33.1,227.1,33.1,227,33.1,226.9z M22.5,232.9c0-0.9-0.4-1.3-0.8-1.7
	c-0.3,0.3-0.5,0.5-0.7,0.8c-0.1,0.3-0.1,0.7-0.3,1.2C21.4,233.1,22,233.8,22.5,232.9z M25.9,157.7c0,0,0-0.1,0.1-0.2
	c0,0-0.1-0.1-0.1-0.1c0,0,0,0.1-0.1,0.2C25.8,157.7,25.9,157.7,25.9,157.7z M20.6,146.2c1-0.4,1.9-1.1,2.7-0.2
	c0.3-0.1,0.6-0.6,0.9,0c0,0.3,0,0.6,0,1c0.1,0,0.2,0,0.4,0.1c0.2-0.6,0.4-1.2,0.6-1.7c-0.4-0.7-0.8-0.9-1.2-0.7
	c-0.1,0.2-0.2,0.4-0.3,0.6c-0.7,0.2-1-0.8-1.4-1.3c-0.2,0.1-0.4,0.2-0.5,0.3c-0.2,0-0.4,0-0.7,0C20.8,144.8,20.7,145.4,20.6,146.2z
	 M24.5,165.4c0.3-0.4,0.5-0.7,0.8-1c0.2,0.2,0.4,0.3,0.6,0.4c-0.1-0.8-0.2-1.4-0.9-1.7C25,164,24.3,164.4,24.5,165.4z M25.6,146.7
	c-0.1,0-0.2,0.1-0.3,0.1c0,0.1,0,0.2,0,0.4c0.1,0,0.3,0,0.6-0.1C25.7,146.9,25.7,146.8,25.6,146.7z M23.3,139.7
	c-0.6-0.5-0.9-0.5-1.4-0.1C22.6,140.2,22.9,140.2,23.3,139.7z M20.7,127.6c-0.1,0.9-0.6,1.4-0.4,2.3c0.4-0.4,0.8-0.8,1.3-1.4
	C21.2,128.2,21,127.9,20.7,127.6z M24.5,171.6c0.2-0.7,0.2-1.4-0.1-2.2C24.1,170.3,24.5,170.9,24.5,171.6z M44.3,123.5
	c0.1,0.1,0.3,0.2,0.4,0.4c0-0.3,0.1-0.4,0.1-0.6c-0.2,0-0.3,0-0.5,0C44.4,123.3,44.4,123.4,44.3,123.5z M44.7,121
	c0.1-0.4,0.1-0.8,0.2-1.3c-0.3,0-0.4,0-0.6,0C44.2,120.3,44.2,120.8,44.7,121z M38.5,121.3C38.5,121.3,38.5,121.3,38.5,121.3
	C38.5,121.3,38.5,121.3,38.5,121.3C38.5,121.3,38.5,121.3,38.5,121.3L38.5,121.3z M34.7,231.5c-0.2-0.1-0.5-0.1-0.9-0.2
	c0,0.7,0,1.2,0,1.8c0.3-0.1,0.5-0.1,0.8-0.2c-0.1,0.4-0.2,0.6-0.3,0.9c0.1,0.1,0.2,0.2,0.3,0.4c0.3-0.3,0.5-0.5,0.8-0.8
	C35.2,232.7,35,232.1,34.7,231.5z M40.3,146c0.2,0.4,0.4,0.8,0.5,1.1c0.6-0.1,0.6-0.1,1.1-0.9C41.4,146.2,40.9,145.7,40.3,146z
	 M40.5,156.7c0-0.1,0.1-0.1,0.1-0.2c0,0,0,0,0,0C40.5,156.5,40.5,156.6,40.5,156.7C40.5,156.6,40.5,156.7,40.5,156.7z M39.7,119.4
	c-0.6-0.1-0.8,0.7-1.3,1.1c0,0.3,0.1,0.5,0.1,0.7c0.5-0.4,1-0.8,1.6-1.3C39.9,119.8,39.8,119.5,39.7,119.4z M27.7,132.7
	c0.7-0.1,1.3-0.2,2-0.3c0-0.4,0.1-0.7,0.1-1.1c-0.3-0.1-0.5-0.1-0.7-0.1c-0.2-0.3-0.4-0.5-0.6-0.8c-0.3,0.8-1.1,0.6-1.3,1.8
	C27.5,132.4,27.6,132.6,27.7,132.7z M39.6,160.6c0.6-0.4,0.6-1.1,0.2-1.7C39.7,159.5,39.6,160,39.6,160.6z M27.4,122.7
	c0.4-0.2,0.7,0.5,1.1,0.1c0-0.1,0-0.2,0-0.3c-0.4-0.1-0.7-0.1-1.1-0.2C27.4,122.4,27.4,122.6,27.4,122.7z M27.8,128.6
	c0.3,0.3,0.5,0.5,0.7,0.7c0.7-0.7,0.7-0.7,1.6-0.6c0.2,0,0.4,0,0.6,0c1-0.2,2,0,3,0.8c0.2-0.2,0.4-0.3,0.7-0.6
	c0.4,0.5,0.8,1,1.1,1.5c0.3,0.6,0.6,1.3,1,2.1c0.2-0.2,0.4-0.3,0.7-0.6c-0.4-0.3-0.6-0.5-0.9-0.7c0-0.5-0.1-0.9-0.1-1.2
	c-0.3-0.4-0.6-0.8-0.9-1.3c0.1-0.6,0.1-1.3-0.4-1.7c-0.2-0.1-0.5-0.1-0.8-0.2c-1,1.2-2.3,1.1-3.7,1.2c-0.8-0.4-1.7-0.2-2.7,0.3
	C27.8,128.4,27.8,128.5,27.8,128.6z M38.1,119.9c-0.3,0.2-0.6,0.2-0.7,0.4c-0.4,0.6-0.9,0.8-1.4,0.9c-0.1,0.1-0.3,0.1-0.5,0.2
	c0,0.5-0.3,1,0,1.5c1.2-1.4,1.6-1.6,2.1-1.3c0,0.3-0.1,1.4-0.1,1.6c0.8,0,0.9,0,1.9-1.1c-0.4-0.2-0.9-0.1-0.9-0.9
	c-0.1-0.1-0.2-0.1-0.4-0.2C38.1,120.8,38.1,120.4,38.1,119.9z M26.7,186.7c-0.3-0.8-0.6-1.6-0.9-2.2c0.1-1.3,0.7-2.6-0.4-3.6
	c-0.6,1.5-0.2,2.8,0.2,4.1c-0.2,0.3-0.4,0.5-0.7,0.8c0.3,0.6,0.5,1.1,0.8,1.6C26.1,187.2,26.4,187,26.7,186.7z M34.4,226.1
	c0.1-0.3,0.2-0.5,0.3-0.8c-0.1-0.1-0.1-0.1-0.2-0.2C34.3,225.4,34.2,225.5,34.4,226.1z M36,182.2c-0.1,0.1-0.1,0.2-0.2,0.4
	c0.1,0.1,0.2,0.2,0.2,0.3c0.1-0.1,0.1-0.3,0.2-0.4C36.1,182.3,36.1,182.2,36,182.2z M23.5,210.1L23.5,210.1L23.5,210.1L23.5,210.1z
	 M36.1,200.1c0.1-0.3,0.2-0.4,0.4-0.8c-0.3-0.1-0.4-0.1-0.8-0.2C35.9,199.5,36,199.7,36.1,200.1z M35.7,156.7c0-0.1,0-0.1,0-0.2
	c-0.1,0-0.2,0-0.3,0c0,0.1,0,0.1,0,0.2C35.5,156.7,35.6,156.7,35.7,156.7z M35,175.9l0-0.1L35,175.9L35,175.9z M30.1,186.2
	c-0.3-0.2-0.5-0.3-0.7-0.5C29.5,186.2,29.6,186.5,30.1,186.2z M27.8,228.1c0-0.1,0.1-0.1,0.1-0.2c0,0,0-0.1-0.1-0.1
	C27.8,227.9,27.8,228,27.8,228.1C27.7,228.1,27.8,228.1,27.8,228.1z M28.2,219.3c-0.4-0.4-0.8-0.8-1.3-0.2c0,0.2,0.1,0.3,0.1,0.5
	c0.4,0.1,0.7,0.2,1.1,0.4C28.1,219.7,28.2,219.6,28.2,219.3z M28.6,306.4c0,0,0-0.1-0.1-0.3c-0.1,0.2-0.3,0.3-0.4,0.5
	C28.5,306.7,28.5,306.7,28.6,306.4z M34.9,150c0.4,0.6,0.6,1,0.9,1.4c0.4-0.5,0.8-0.9,1.2-1.3c0-0.1,0-0.2,0-0.3
	c-0.6,0.7-1.1,0.5-1.6,0.1C35.4,149.8,35.2,149.9,34.9,150z M30,165.4c-0.3,0.2-0.5,0.4-0.7,0.6c-0.3-0.4-0.7-0.8-0.9-1.1
	c-0.5,0.3-0.8,0.6-1.2,0.9c0.3,0.7,0.8,0.2,1,0.6c0.1,0.3,0.3,0.6,0.5,1c0.6,0,1.2-0.1,1.9-0.2C30.3,166.6,30.4,165.8,30,165.4z
	 M29.5,221.5c0.2-0.7,0.2-1.1-0.2-1.4C29,220.6,29,221,29.5,221.5z M36.3,239.4c0,0.5-0.1,1.1-0.2,1.7c0.2,0.1,0.3,0.2,0.5,0.3
	C36.6,239.7,36.6,239.7,36.3,239.4z M25.4,221.8c-0.1,0.4-0.2,0.7-0.3,1.3C25.7,222.6,25.7,222.6,25.4,221.8z M35.8,145.1
	c0.1,0.4,0.1,0.8,0.2,1.3c0.3-0.3,0.6-0.6,0.9-0.9C36.5,144.6,36.5,144.6,35.8,145.1z M31.1,163c0.5-0.2,0.9-0.4,1.3-0.6
	c0-0.1,0-0.2,0.1-0.4c-0.6-0.4-0.6-0.4-1.3-0.1C31.1,162.3,30.8,162.6,31.1,163z M28.4,152.9c0.4-0.1,0.7,0.1,1-0.3
	C28.8,151.9,28.8,151.9,28.4,152.9z M22.2,290.1c-0.2,0.3-0.4,0.5-0.6,0.8c0.1,0.5,0.1,0.8,0.2,1.3
	C22.6,291.7,22.7,291.1,22.2,290.1z M23.9,212.7c0.2,0.1,0.4,0.2,0.7,0.3c0.2-0.5,0.5-1,0.7-1.5c-0.6-0.6-1-0.2-1.4,0.1
	c-0.2-0.1-0.4-0.3-0.5-0.4c-0.2,0.1-0.5,0.3-0.7,0.4c-0.3-0.3-0.6-0.6-0.8-0.9c0-0.4-0.1-0.8-0.1-1.1c0,0,0,0-0.1-0.1
	c-0.6,1.1-0.1,2.1,0,3.1C22.5,213.7,23.2,212.8,23.9,212.7z M25.4,200.2C25.4,200.2,25.4,200.1,25.4,200.2c-0.1,0-0.1,0-0.1,0.1
	c0,0,0.1,0,0.1,0.1C25.4,200.2,25.4,200.2,25.4,200.2z M32.8,179.2c-0.1,0-0.2,0.1-0.3,0.3c-0.2,0.2-0.4,0.5-0.7,0.7
	c0.3,0.5,0.6,0.9,0.9,1.3c0.3-0.2,0.6-0.6,1-0.6c0.4,0,0.7,0.4,1.1,0.6c0.2-0.2,0.3-0.4,0.5-0.5c0.4-0.1,0.9-0.2,1.3-0.3
	c0-0.5,0-0.9,0-1.2C35.3,178.5,34,179.4,32.8,179.2z M34.9,152.6c-0.3,0.3-0.8,0.1-0.8,0.9C34.6,153.6,34.6,153.6,34.9,152.6z
	 M35.6,148.4c0.5,0.4,0.5,0.4,0.8-0.1c-0.2-0.2-0.5-0.3-0.7-0.5C35.6,148.1,35.6,148.2,35.6,148.4z M31.5,175
	c0.6,0.1,1.1,0.2,1.6,0.3c0.3,0,0.6-0.1,0.7-0.8c-0.4-0.3-0.9-0.6-1.4-0.9C31.8,173.7,31.6,174.3,31.5,175z M32.9,160.7
	c0,0.1,0,0.2,0,0.4c0,0,0.1,0.1,0.1,0.1c0-0.1,0-0.2,0.1-0.4C33.1,160.8,33,160.8,32.9,160.7z M32.3,145.9c-0.1-0.1-0.3-0.1-0.4-0.2
	c0,0.1,0,0.2,0,0.3c0.1,0.1,0.3,0.1,0.4,0.2C32.2,146.1,32.3,146,32.3,145.9z M19.1,301.8c-0.4,0.1-0.8,0-0.8,1
	c0.2,0.2,0.4,0.4,0.6,0.6C19.4,302.9,19,302.3,19.1,301.8z M47.7,132.8c-0.2,0-0.3,0.1-0.5,0.1C47.5,133.2,47.5,133.2,47.7,132.8z
	 M46.2,179.7c0,0.1-0.1,0.1-0.1,0.1c0,0,0.1,0.1,0.1,0.1c0,0,0-0.1,0-0.1C46.2,179.8,46.2,179.7,46.2,179.7z M48.7,221.8
	c0.2-0.5,0.4-1.1,0.6-1.7c-0.7-0.6-0.3-2-1-2.7c0.1,0.3,0.2,0.6,0.4,0.9c-0.2,0.8-0.5,1.5-0.6,2.1C48.3,221,48.5,221.4,48.7,221.8z
	 M37.2,20.8c-0.4-0.1-0.5,0-0.3,0.5C37.1,21.1,37.2,20.9,37.2,20.8z M45.3,10.2L45.3,10.2C45.3,10.2,45.2,10.2,45.3,10.2
	C45.2,10.2,45.2,10.2,45.3,10.2C45.3,10.2,45.3,10.2,45.3,10.2z M41.5,12.1c0.1,0.5,0.2,1.1,0.7,0.9C42.2,12.3,41.8,12.3,41.5,12.1z
	 M49,272.1c0.1-0.1,0.2-0.2,0.3-0.3v3.3c0,0,0,0,0,0c-0.3,0.4-0.3,0.7,0,1c0,0,0,0,0.1-0.1v1c-0.1,0.3-0.3,0.5-0.4,0.8
	c-0.5-0.1-0.9,0.2-1.2,0.9c0,0.5,0.1,1.1,0.1,1.7c0.5,0.1,0.8-0.1,1.2-0.5c-0.1-0.4-0.2-0.7-0.3-1.2c0.2-0.2,0.4-0.4,0.6-0.7v24.2
	c-0.4-1.3-0.7-2.7-0.7-4.3c-0.2-0.4-0.3-0.7-0.4-1c0-1.6,0-3.3,0-5c0.2-0.2,0.5-0.5,0.7-0.7c0-0.7,0-0.7-0.5-1.2
	c0-1.4-0.1-2.8-0.8-4c0-1.3-0.3-2.6-0.7-3.8c-0.3-0.8-0.6-1.6-1-2.4c0-0.4-0.1-0.8-0.1-1.2c-0.2-0.2-0.3-0.5-0.5-0.7
	c0.1-1,0.1-1.9,0.2-3c0.2-0.3,0.4,0.1,0.6,0.3c0.2,0.1,0.4,0.1,0.6,0.2c0-0.1,0.1-0.2,0.1-0.3c-0.2-0.4-0.3-0.9-0.5-1.5
	c0.2-1.1-0.3-2-0.7-2.9c-0.4-0.8-0.9-1.5-1.1-2.5c0-0.3-0.3-0.5-0.4-0.7c0-0.9,0.5-1.3,0.8-2.1c0-0.7-0.1-1.6-0.1-2.4
	c0.1-0.9,0.3-1.7,0.4-2.5c0-0.6-0.6-1-0.2-1.7c0.4-0.2,0.6,0.4,0.8,0.7c0,1,0.1,1.8,0.1,2.7c0.3,0.3,0.6,0.5,0.9,0.8
	c0,0.3,0,0.7,0,1.1c0.4,0.3,0.7,0.5,1.1,0.8c0.2,0,0.4,0,0.7,0c0,0.2,0.1,0.4,0.1,0.6c-0.3,0.2-0.5,0.4-0.8,0.6
	c0.1,0.7,0.2,1.5,0.2,2.2c0.1,0.3,0.3,0.6,0.5,0.9c0,0.4,0,0.9,0,1.3c-0.6,1.9-0.6,2,0.2,2.9C48.8,272.9,48.9,272.5,49,272.1z
	 M48.5,275.6c-0.3,0.1-0.6,0.2-1,0.3c0.1,0.7,0.1,0.7,0.5,1C48.3,276.7,48.5,276.3,48.5,275.6z M36.1,81.6c0.1-0.1,0.2-0.2,0.2-0.2
	c0-0.1,0-0.1-0.1-0.2c-0.1,0.1-0.2,0.2-0.2,0.2C36,81.4,36.1,81.5,36.1,81.6z M47.9,130.7c-0.2,0.6-0.2,1.2,0.1,1.9
	c0.2-0.1,0.4-0.1,0.6-0.2C48.6,131.5,48.2,131.2,47.9,130.7z M38.7,12.6c-0.1-0.2-0.2-0.5-0.4-0.8c-0.1,0.3-0.2,0.4-0.3,0.7
	c0.3,0.1,0.4,0.2,0.6,0.3C38.7,12.7,38.7,12.6,38.7,12.6z M36,77C36,77,36,77,36,77c0.1-0.1,0.1-0.2,0.1-0.3c0,0-0.1,0-0.1,0
	C36,76.7,36,76.8,36,77z M40.9,54.8c-0.2,0-0.4-0.1-0.5,0.3C40.7,55.4,40.8,55,40.9,54.8z M40.9,54.8C40.9,54.8,40.9,54.8,40.9,54.8
	C40.9,54.8,40.9,54.8,40.9,54.8C40.9,54.8,40.9,54.8,40.9,54.8C40.9,54.8,40.9,54.8,40.9,54.8z M40,48.8c0,0.2,0,0.3,0,0.5
	c0,0,0.1,0,0.1,0c0-0.2,0-0.3,0-0.5C40.1,48.8,40,48.8,40,48.8z M41.1,51.9c0,0-0.1,0-0.1,0c0,0.1,0,0.2,0,0.4c0,0,0.1,0,0.1,0
	C41.1,52.1,41.1,52,41.1,51.9z M45.1,17.7c0,0.1,0,0.1,0.1,0.2c0.1-0.1,0.1-0.1,0.2-0.1c0-0.1-0.1-0.2-0.1-0.3
	C45.2,17.5,45.2,17.6,45.1,17.7z M37.4,23.1c-0.2,0.6-0.2,1,0,1.5c0.3-0.3,0.5-0.5,0.8-0.7c0.1,0.5,0.1,0.9,0.2,1.3
	c0.2,0,0.3,0,0.6,0c-0.1-0.4-0.2-0.7-0.3-1c0.1-0.3,0.2-0.5,0.3-0.8c-0.1-0.2-0.1-0.4-0.2-0.6c0.2-0.8,0.4-1.6,0.6-2.5
	c-0.5-0.2-1-0.4-1.7-0.6c0.2,0.5,0.3,0.8,0.5,1.1c0,0.5,0,1,0,1.4c0.3,0.7,0.3,0.7,0.1,1.4C37.8,23.4,37.6,23.3,37.4,23.1z M40.5,53
	c0-0.6,0-1-0.1-1.4c-0.2-0.4-0.4-0.8-0.7-1.3C39.4,51.9,39.7,52.8,40.5,53z M38.4,17.9c0.1-1.1,0.1-1.2-0.5-1
	C37.9,17.5,38.1,17.7,38.4,17.9z M36.8,24.9c-0.2-0.7,0-1.7-0.6-2.5C36.2,23.5,36,24.5,36.8,24.9z M36.3,21.1
	c-0.1-0.1-0.3-0.2-0.4-0.4C35.8,21.4,36,21.5,36.3,21.1z M39.9,14.1c-0.1,0-0.2,0-0.3-0.1c0,0.1,0,0.2,0,0.3c0.1,0,0.2,0,0.3,0
	C39.9,14.3,39.9,14.2,39.9,14.1z M39.3,19.6c0,0.1,0.1,0.2,0.1,0.2c0.2-0.2,0.3-0.3,0.5-0.5c0-0.1-0.1-0.2-0.1-0.2
	C39.6,19.3,39.4,19.5,39.3,19.6z M39.4,30.4c0.3-0.1,0.5-0.1,0.7-0.2C39.7,29.7,39.7,29.7,39.4,30.4z M41.8,8.6c0,0.1,0,0.2,0,0.2
	c0.3,0,0.7,0,1.1,0C43,8.5,43.1,8.2,43.2,8c0.2-0.2,0.4-0.3,0.7-0.5c0-0.2,0-0.3-0.1-0.5c-0.4,0.1-0.6,0.5-0.9,0.9
	C42.5,8.2,42.2,8.3,41.8,8.6z M40.4,12.7L40.4,12.7L40.4,12.7L40.4,12.7z M39.5,21.7c0.2-0.2,0.4-0.4,0.5-0.5
	C39.8,21.2,39.6,21.2,39.5,21.7z M40,21.3C40,21.2,40,21.2,40,21.3C40,21.2,40,21.2,40,21.3C40,21.3,40,21.3,40,21.3z M42.2,10.4
	L42.2,10.4L42.2,10.4L42.2,10.4z M42.4,1.3c0,0.5,0,1,0,1.5c0.1,0,0.2-0.1,0.3-0.1C42.7,1.7,42.7,1.7,42.4,1.3z M41.3,26.7
	c-0.4-0.5-0.6-0.1-0.8,0.2C40.8,26.9,41.1,27,41.3,26.7z M39.8,24.4c-0.2,0.4-0.3,0.7-0.4,1c0.2,0.4,0.4,0.8,0.6,1.2
	c0.2-0.5,0.4-1,0.6-1.5c-0.3-2.6-0.3-2.6-0.8-2.9C39.5,22.9,39.6,23.7,39.8,24.4z M45.2,4c-0.4,0.6-0.6,1.1-0.8,1.6
	c0.2,0,0.5,0,0.7,0C45.1,5,45.1,4.6,45.2,4z M44.4,5.6C44.4,5.6,44.4,5.6,44.4,5.6C44.4,5.6,44.3,5.6,44.4,5.6L44.4,5.6L44.4,5.6
	C44.3,5.6,44.3,5.6,44.4,5.6L44.4,5.6C44.3,5.6,44.3,5.6,44.4,5.6C44.3,5.6,44.3,5.6,44.4,5.6C44.3,5.6,44.3,5.6,44.4,5.6L44.4,5.6z
	 M43.6,1.7c0.1,0,0.1-0.2,0.1-0.3c0-0.4,0-0.8-0.4-0.9c0,0.4,0,0.8,0,1.2C43.4,1.7,43.5,1.8,43.6,1.7z M42.7,13.7
	c0,0.1,0.1,0.1,0.1,0.1c0-0.1,0.1-0.2,0-0.2c0,0-0.1-0.1-0.1-0.1C42.7,13.6,42.7,13.6,42.7,13.7z M44.9,9.9c0.1,0.1,0.2,0.2,0.3,0.2
	c0-0.3,0-0.5,0-0.9c-0.5,0.2-0.9,0.4-1.5,0.7c0.3,0.4,0.5,0.6,0.7,0.9C44.6,10.5,44.8,10.2,44.9,9.9z M43.7,6
	c0.2,0.2,0.4,0.4,0.8,0.6c-0.1-0.5-0.1-0.8-0.1-1c-0.2,0-0.4,0.1-0.6,0.1C43.7,5.8,43.7,5.9,43.7,6z M44.6,8.9
	c0.2-0.3,0.3-0.6,0.5-0.9c-0.5-0.5-0.9,0.4-1.4,0.2C43.9,9.1,44.2,9,44.6,8.9z M42.9,4.1C42.9,4.1,42.8,4.1,42.9,4.1
	c-0.1,0.1-0.1,0.2-0.1,0.2c0,0,0.1,0,0.1,0C42.9,4.3,42.9,4.2,42.9,4.1z M31.5,31.6c0,0,0.1-0.1,0.1-0.1c0-0.1-0.1-0.2-0.1-0.3
	C31.5,31.3,31.5,31.4,31.5,31.6z M34.5,27.7c-0.3-0.4-0.5-0.8-0.9-1.3c-0.1,1,0.2,1.4,0.5,2.2C34.3,28.2,34.4,28,34.5,27.7z
	 M32.1,35.9C32,35.9,32,35.9,32.1,35.9C32,35.9,32,35.9,32.1,35.9C32,36,32,36,32.1,36C32.1,36,32.1,36,32.1,35.9z M31.8,29.8
	c-0.2-0.3-0.4-0.5-0.5-0.8c0,0,0,0-0.1,0c-0.1,0.2-0.2,0.5-0.2,0.7C31.2,30.3,31.4,30.2,31.8,29.8z M37.5,53.1
	c-0.2,0.3-0.3,0.5-0.5,0.7c0.3,0.3,0.5,0.5,0.7,0.7C37.7,54.1,37.6,53.7,37.5,53.1z M31.6,28.1c0-0.1,0-0.1-0.1-0.2
	c0,0-0.1,0.1-0.1,0.1c0,0.1,0,0.1,0.1,0.2S31.5,28.2,31.6,28.1z M32.1,41.6c0.1-0.4,0.2-0.8,0.3-1.1c0,0-0.1,0-0.1,0
	c0-0.9,0-1.8,0-2.7c-0.2-0.1-0.5-0.6-0.8-0.1c0.2,0.4,0.3,0.7,0.5,1.1c-0.3,0.3-0.4,0.4-0.6,0.6c0.2,0.3,0.4,0.5,0.7,0.8
	c-0.1,0.5-0.2,0.9-0.3,1.4C31.9,41.6,32,41.6,32.1,41.6z M33.9,52L33.9,52L33.9,52L33.9,52z M34.5,41.6c-0.3-0.4-0.4-0.9-0.8-0.8
	c0.1,0.4,0.2,0.7,0.3,1c-0.1,0.3-0.1,0.6-0.2,0.9c0,0,0.1,0,0.1,0.1C34.1,42.4,34.3,42,34.5,41.6z M34.3,24.4c0,0-0.1,0-0.1-0.1
	c0,0.1,0,0.2-0.1,0.4c0,0,0.1,0,0.1,0.1C34.3,24.7,34.3,24.5,34.3,24.4z M33,31.8c0.5,0.7,0.7-0.3,1-0.1c0.5,0.2,0,1,0.3,1.4
	c0.2-0.5,0.3-0.9,0.5-1.4C34.2,31.1,33.7,31.5,33,31.8z M34.3,37.4c-0.2,0.1-0.3,0.1-0.4,0.1c0.1,0.4,0.1,0.7,0.2,1
	C34.1,38.8,34,39,34,39c0.4,0.8,0.7,1.4,0.9,2C35.1,39.5,34.4,38.7,34.3,37.4z M49.3,3.3c-0.2,0.2-0.4,0.4-0.6,0.6
	c0.2,0.4,0.4,0.5,0.6,0.4v0.6c0,0,0,0.1,0,0.1c0,0,0,0.1,0,0.1c0,0,0,0,0,0v1.9c0,0,0,0,0,0c-0.1,0.2-0.1,0.3-0.2,0.4
	c0.1,0,0.1,0.1,0.2,0.2v3.4c0,0,0,0,0,0c0,0.1-0.1,0.1-0.1,0.2c0,0.1,0.1,0.1,0.1,0.2v7c-0.2,0.4-0.1,0.8,0,1.3v9.5
	c0,0-0.1-0.1-0.1-0.1c0,0.3,0,0.5,0,0.8c0.1,0,0.1-0.1,0.2-0.1v2.1c-0.5-0.4-0.9-0.3-1.3,0.1c0.4,0.4,0.8,0.6,1.3,0.2v55.2
	c-0.2-0.4-0.4-0.8-0.6-1c-0.9-0.5-1.8-1-2.7-1.6c-0.2,0.1-0.6,0.7-1.1,0.5c0-0.4,0.1-0.8,0.1-1.3c-0.6-0.1-1.1-0.1-1.6-0.1
	c-0.2-0.5-0.3-0.9-0.5-1.4c-0.4,0.3-0.4,0.9-0.7,1.4c0.3,0.3,0.6,0.6,1,1c-0.3,0.3-0.6,0.5-0.9,0.7c0,0.9,0.4,1.1,0.8,1.2
	c0.2-0.2,0.4-0.5,0.6-0.8c0.2,0.1,0.4,0.1,0.7,0.2c0.1,0.7,0.3,1.3,0.4,2c0,0.4-0.2,0.8-0.5,0.8c-0.1-0.1-0.1-0.2-0.2-0.4
	c-0.1-0.9-0.5-1.1-1-1.2c-0.6-0.2-1.1-0.6-1.7-1c0-0.1-0.1-0.3-0.1-0.4c0.1-0.1,0.3-0.2,0.4-0.3s0.3-0.2,0.4-0.3
	c0.2-0.9-0.2-1.2-0.5-1.6c0.1-0.4,0.2-0.8,0.3-1.1c-0.1-0.7-0.2-1.3-0.7-1.4c-0.4,0.6,0,1.3-0.3,2c-0.1,0-0.2,0-0.4,0.1
	c-0.2-0.6-0.4-1.2-0.6-1.8c0.2-1,0.1-2-0.5-2.7c0-0.5,0.1-0.9,0.1-1.4c-0.1-0.4-0.3-0.9-0.5-1.5c-0.5,0.9-0.9,1.6-1.3,2.5
	c0,0.2,0.1,0.6,0.2,1c-0.1,0.2-0.3,0.4-0.4,0.7c0,0-0.1,0-0.1-0.1c0-0.6,0.1-1.2,0-1.8c-0.1-0.6-0.3-1.1-0.5-1.8
	c0.2-0.1,0.4-0.1,0.6-0.2c0.1-0.3,0.2-0.7,0.3-1.1c0.2-0.3,0.4-0.5,0.6-0.8c0.1-0.7-0.1-1-0.5-1c0-0.4,0.1-0.7,0.1-1.1
	c-0.5-0.7-0.7-1.9-1.6-1.7c-0.2-1.1-0.7-1.8-1.4-2c-0.3-1.4-1.2-1.5-1.9-2c-0.2,0.3-0.3,0.5-0.5,0.7c-0.3,0-0.6,0.2-0.8-0.4
	c0.2-0.4,0.4-0.8,0.6-1.2c-0.6-0.6-1.2-1-1.8-1.5c-0.1,0.3-0.3,0.6-0.6,1.1c0-0.8-0.1-1.4-0.1-1.8c0.3-0.6,0.6-1.2,1-1.9
	c0.1,0,0.3,0,0.5,0c0.3-0.4,0.6-0.7,0.9-1.1c-0.4-0.3-0.9-0.5-1-1.5c0.3,0.1,0.5,0.1,0.8,0.1c0.1-0.3,0.3-0.6,0.4-0.9
	c-0.1-0.4-0.1-0.8-0.2-1.2c-0.5-0.8-1.1-1.2-1.3-2.3c0.6-0.5,1.2-1,1.8-1.4c0.2,0.1,0.4,0.2,0.6,0.3c0.6-0.4,1.1-0.8,1.7-1.2
	c0-0.3,0-0.5-0.1-0.8c-0.3-0.1-0.5-0.1-0.8-0.2c0.2-0.3,0.3-0.5,0.3-0.5c0.5,0.2,0.9,0.5,1.3,0.8c-0.1,0.6-0.2,1.1-0.3,1.4
	c0.4,0.9,0.8,1.7,1.2,2.6c0.1,0.1,0.3,0.2,0.6,0.3c-0.1,0.3-0.1,0.6-0.2,1.1c0.3,0.2,0.6,0.5,0.8,0.7c0.2-0.5,0.4-0.9,0.5-1.4
	c-0.1-0.3-0.2-0.7-0.3-1.1c0.2,0,0.3,0,0.3,0c0.2,0.6,0.4,1.1,0.5,1.7c0,0,0.1,0,0.1,0c0,0.5,0,0.9,0,1.4c0.2,0,0.3,0,0.4,0
	c0.1,0,0.2,0,0.4,0c0,0.8-0.4,1.5,0,2.3c0.3-0.5,0.3-1.1,0.2-1.6c-0.1-1.4-0.1-1.4,0.2-2.3c0.1,0,0.2-0.1,0.3-0.2
	c0.1-0.1,0.2-0.1,0.4-0.2c0-0.3,0-0.5,0-0.8c-0.3,0-0.5,0-0.7-0.1c-0.1-0.3-0.1-0.5-0.2-0.8c0.3-0.3,0.6-0.5,0.9-0.8
	c0.2,0.2,0.4,0.3,0.6,0.5c0.3-0.2,0.6-0.4,1-0.7c-0.2-0.4-0.3-0.7-0.4-1c-0.3,0.2-0.6,0.4-0.9,0.6c-0.2-1.1-0.4-2.1-0.6-3.2
	c0.1-0.3,0.1-0.6,0.2-1c-0.1-0.7-0.3-1.1-0.8-1.2c-0.2,0.1-0.4,0.2-0.7,0.4C40.1,47.4,40,47.2,40,47c-0.2,0.2-0.5,0.4-0.8,0.6
	c0-0.5,0.1-0.9,0.1-1.4c-0.1-0.2-0.2-0.3-0.4-0.6c-0.2,0.2-0.4,0.4-0.6,0.5c0,0.5,0,1.1,0.1,1.8c0,0.1,0.1,0.4,0.2,0.7
	c0,0.2,0,0.4-0.1,0.5c-0.3,0.9-0.2,1.7,0.2,2.4c0.2,0.4,0.3,1,0.5,1.6c-0.7,0.2-0.9-1-1.4-1c-0.2-0.9-0.3-1.7-0.5-2.7
	c0.1-0.1,0.2-0.4,0.3-0.7c0.1-0.2,0.3-0.4,0.5-0.5c-0.1-0.9-0.6-0.6-0.8-1c0.1-1.7-0.1-2-0.9-2.2c-0.5,0.5-0.1,1.1-0.2,1.8
	c-0.1,0.6-0.3,1.2-0.4,1.8c-0.4-0.4-0.3-1.1-0.4-1.5c-0.3-0.4-0.6-0.8-0.9-1.2c0-0.5,0-1,0-1.5c0.3-0.1,0.6-0.3,1-0.4
	c0.1-0.4,0.2-0.8,0.3-1.2c-0.1-0.5-0.3-1-0.5-1.8c0.4,0.2,0.6,0.3,0.9,0.5c0.2-0.4,0.3-0.8,0.5-1.2c0-0.4-0.1-0.7-0.1-1.1
	c0.1-0.2,0.2-0.3,0.3-0.5c0.3,0.1,0.6,0.2,0.9,0.2c0.1,0.3,0.2,0.6,0.3,1c0.4-0.1,0.5,1,1.1,0.8c-0.1-0.4-0.2-0.8-0.3-1
	c0.1-1.5,0.2-2.8,0.2-4.2c0.3,0.2,0.5,0.3,0.6,0.4c0.5-0.1,0.6-0.8,0.7-1.4c0.2-0.1,0.4-0.2,0.5-0.3c0.1-0.6-1.1-1.1-1.9-0.8
	c-0.1,0.4-0.2,0.9-0.3,1.4c-0.2-0.1-0.4-0.3-0.7-0.4c0-0.1-0.1-0.1-0.1-0.2c-0.2,0.4-0.4,0.7-0.6,1c0.1,0.1,0.1,0.1,0.1,0.2
	c-0.2,0.8,0.6,2-0.4,2.8c-0.1-0.4-0.2-0.8-0.4-1.2c-0.2-0.1-0.4-0.1-0.7-0.2c-0.1-0.6-0.2-1.2-0.3-1.9c-0.2-0.3-0.5-0.5-0.8-0.8
	c0-0.2,0-0.4,0-0.8c0.2,0.3,0.4,0.5,0.6,0.7c0.1-0.1,0.2-0.2,0.2-0.3c0-0.4-0.1-0.7-0.2-1.1c-0.1-0.3-0.3-0.6-0.4-0.9
	c0.1-0.4,0.2-0.8,0.4-1.3c-0.3-0.7-0.6-1.4-0.9-2.1c0.2-0.4,0.3-1.2,0.9-1.3c0.2,0.1,0.5,0.3,0.9,0.5c0.3-0.1,0.7-0.2,1.1-0.3
	c-0.1-0.4-0.1-0.6-0.1-0.9c0.3-0.1,0.6-0.1,0.9-0.2c0,0,0,0.1,0,0.1c0.5,0.2,1,0.3,1.5,0.5c0.1,0,0.2-0.2,0.3-0.3
	c0.2,0.1,0.3,0.2,0.5,0.3c0,0,0,0,0,0v0c0,0,0,0,0,0c0,0,0,0,0,0c0,0,0,0,0,0c0,0.4-0.2,0.6-0.4,0.6c-0.4,0-0.7,0-1.1-0.2
	c-0.3-0.1-0.6-0.1-0.9,0.5c0.7,0.4,1.4,0.4,2.1,0.9c-0.4,0.4-0.4,0.4-1,0.4c-0.1,0.5-0.2,1-0.3,1.5c0.1,0.1,0.3,0.2,0.4,0.3
	c0.1,0.1,0.3,0.2,0.4,0.3c0.4-0.1,0.7-0.1,1.1-0.2c0.2-0.2,0.4-0.4,0.6-0.6c0.4,0.2,0.7,0.5,1,0.7c0.5-0.3,0.9-0.6,1.5-1
	c0.1-0.4,0.3-1.1,0.6-1.9c0.1,0,0.3,0,0.6,0c0.1-0.2,0.1-0.4,0.2-0.6c-0.3-0.2-0.5-0.4-0.8-0.6c-0.2,0.3-0.5,0.5-0.7,0.7
	c0,0.4,0.1,0.6,0.1,1.1c-1.1,0.6-2.2,0.9-3.4,0.9c0.3-0.5,0.5-0.9,0.8-1.5c0.2,0.2,0.5,0.3,0.8,0.6c0.3-0.3,0.7-0.6,1-0.9
	c-0.4-0.2-0.8-0.4-1.2-0.6c0-0.3,0.1-0.5,0.1-0.7c0.3,0.3,0.5,0.5,0.7,0.6c0.4,0,0.8-0.1,1.3-0.1C44,26.6,44,26.3,44,26
	c-0.3,0-0.5,0.1-0.7,0.1c-0.2-0.2-0.4-0.3-0.7-0.5c-0.1-0.3-0.2-0.7-0.3-1c-0.3-0.1-0.6-0.3-1-0.4c0.3-0.5,0.5-0.5,0.7-0.2
	c0.3,0.4,0.7,0.4,1,0.1c0-1-0.6-0.6-0.9-1c0.1-0.3,0.1-0.7,0.3-1.2c-0.2-0.1-0.4-0.1-0.7-0.1c0,0.5,0,0.9,0,1.5
	c-0.3-0.1-0.6-0.1-1-0.2c0.2-0.4,0.3-0.7,0.5-1c-0.1-0.2-0.1-0.4-0.2-0.7c0.3-0.1,0.6-0.2,0.9-0.3c0.5,0.6,1,1,1.6,0.5
	c0.2-0.5,0.5-1,0.3-1.9c-0.2-0.1-0.4-0.2-0.6-0.3c0-0.3,0-0.6-0.1-1c-0.3,0.1-0.5,0.2-0.8,0.4c-0.1-0.2-0.3-0.4-0.5-0.6
	c-0.1,0.1-0.2,0.1-0.4,0.2c-0.1-0.1-0.3-0.3-0.4-0.5c-0.1,0.1-0.3,0.2-0.5,0.4c-0.3-0.2-0.7-0.4-1.2-0.7c0.6-0.6,1.1-0.1,1.5-0.1
	c0.4,0,0.9,0,1.4,0c0.1-0.1,0.2-0.4,0.4-0.8c-0.2-0.4-0.3-0.8-0.6-1.3c0.1,0,0.3,0,0.4,0.1c0.2,0.1,0.4,0.2,0.6,0.3
	c0.4-0.5,0.2-1,0.1-1.5c0.3-0.6,0.6-1.1,0.8-1.7c-0.3-0.7-0.6-0.1-0.8,0.1c0.1-0.7,0.2-1.3,0.3-1.9c0.1,0.3,0.2,0.6,0.3,0.9
	c0.2,0,0.5,0,0.7,0.1c0.3-0.5,0.7-0.7,0.7-1.4c0.5-0.4,0.9-0.8,1.4-1.3c-0.1-0.4-0.2-0.7-0.3-1C46.2,7.9,46,8,45.8,8
	c0-0.2,0-0.4,0-0.6c0.3-0.1,0.5-0.2,0.7-0.2c0.4-0.7,0.1-1.2,0-1.9c0.3-0.3,0.6-0.7,0.9-1.1c0-0.3,0.1-0.7,0.1-1.2
	c-0.1-0.3-0.2-0.5-0.4-0.9c0.1-0.4,0.1-0.8,0.2-1.1c0.4-0.5,0.4-0.5,1-0.3c0.1-0.3,0.2-0.6,0.2-0.8h0.8V3.3z M35.3,28
	c-0.2,0.2-0.3,0.4-0.3,0.5c0.1,0.1,0.2,0.3,0.3,0.4C35.4,28.8,35.6,28.8,35.3,28z M38,29.7c0.2-0.2,0.4-0.4,0.7-0.8
	c-0.4-0.4-0.7-0.6-1-0.8C37.4,29,37.4,29.1,38,29.7z M37.7,30.1c-0.2,0.2-0.2,0.5,0,0.9c0.2-0.2,0.3-0.3,0.5-0.5
	C38.1,30,37.9,29.9,37.7,30.1z M37.1,28.8c-0.6-0.4-1-0.2-1.5,0.5c0,0.2,0.1,0.4,0.1,0.6C36.2,29.7,36.7,29.6,37.1,28.8z M36.3,30.8
	c0.3,0.2,0.6,0.2,0.8-0.4C36.5,29.8,36.4,29.9,36.3,30.8z M37.5,33.5c-0.4-0.4-0.8-0.8-1.4-0.5c-0.1,0.3-0.1,0.6-0.2,1
	c0.2,0.6,0.4,1.2,0.7,1.8C37.1,35.1,37.6,34.6,37.5,33.5z M39.6,32.6c-0.3-0.2-0.4-0.3-0.6-0.4c-0.1-0.3-0.2-0.7-0.3-1.1
	c-0.4,0.2-0.7,0.4-1,0.5c-0.3,0.1-0.7-0.3-0.9,0.6c0.2,0.2,0.4,0.5,0.6,0.7c0.3-0.3,0.6-0.5,0.8-0.7C38.7,32.5,39,33,39.6,32.6z
	 M36.4,43.4c-0.1,0.2-0.2,0.3-0.5,0.7c0.2,0.2,0.4,0.4,0.5,0.5C36.7,44.1,36.7,43.8,36.4,43.4z M37.3,43c-0.5-0.3,0-1.4-0.8-1.5
	c-0.1,0.8,0.3,1.3,0.3,2C37,43.4,37.1,43.2,37.3,43z M37.3,40.8l0-0.1L37.3,40.8L37.3,40.8z M38.2,46.2c-0.1-0.2-0.2-0.5-0.3-0.9
	c-0.1,0.4-0.1,0.5-0.2,0.8C37.9,46.1,38,46.2,38.2,46.2z M38.1,41.2c-0.2,0.2-0.4,0.4-0.7,0.7c0.3,0.5,0.3,1,0.7,0.9
	C38.3,42.3,38.4,41.8,38.1,41.2z M32.9,64.4l0-0.1L32.9,64.4L32.9,64.4z M34.7,57.2c0-0.1,0-0.1,0-0.1c-0.1,0-0.1,0-0.2,0
	c0,0.1,0,0.2,0,0.2C34.5,57.3,34.6,57.3,34.7,57.2z M36,63.6c0.1,0.5,0.1,1,0.2,1.4c0.1-0.1,0.2-0.1,0.3-0.1
	C36.6,64.3,36.6,63.8,36,63.6z M38.8,58.7c-0.7,0.1-0.8,0.4-0.5,1.3C38.9,59.7,38.9,59.7,38.8,58.7z M41.5,77.3
	C41.5,77.3,41.5,77.2,41.5,77.3C41.5,77.3,41.5,77.3,41.5,77.3c-0.1,0.1-0.1,0.1,0,0.1C41.5,77.4,41.5,77.3,41.5,77.3z M42,58.4
	c-0.2,0.2-0.3,0.3-0.4,0.5C41.9,59.2,41.9,59.2,42,58.4z M42.3,56.5c-0.3,0-0.5,0.2-0.5,0.7C42,57,42.4,57.1,42.3,56.5z M48,3
	c0.1-0.2,0.1-0.3,0.2-0.4c0-0.1-0.1-0.1-0.2-0.2C47.9,2.5,47.7,2.6,48,3z M47.8,3.4c0,0.3,0,0.5,0,0.8C48,4,48.1,3.9,48.3,3.7
	C48.1,3.6,48,3.5,47.8,3.4z M46.8,7.4c0,0.2,0,0.3,0.1,0.4c0,0.1,0.1,0.1,0.2,0.3c0.4-0.3,0.6-0.6,0.4-1.4C47.2,7,47,7.2,46.8,7.4z
	 M47.2,8.6c0,0-0.1,0-0.1,0C47,9,47,9.4,46.9,10.1c0.2-0.1,0.4-0.1,0.6-0.2C47.4,9.4,47.3,9,47.2,8.6z M46.4,12.1
	c0.2,0.1,0.3,0.2,0.5,0.4c0.2-0.5,0.4-0.8,0.6-1.3c-0.2-0.2-0.3-0.4-0.5-0.6C46.8,11.2,46.6,11.6,46.4,12.1z M44.3,13.7
	c0.1,0.1,0.1,0.2,0.3,0.5c0.1-0.5,0.3-0.8,0.3-1.1c0.3-0.2,0.5-0.4,0.7-0.6c0-0.1,0-0.2,0-0.3c-0.3-0.1-0.5-0.3-0.7-0.4
	C44.7,12.6,44.5,13.1,44.3,13.7z M45.1,14.2c0.1-0.1,0.3-0.2,0.4-0.2c0.2-0.1,0.3-0.1,0.5-0.2c0-0.2,0.1-0.5,0.1-0.7
	C45.3,13.5,45.3,13.5,45.1,14.2z M43.9,15.2c0.3,0.3,0.5,0.4,0.7-0.1C44.2,14.9,44.2,14.9,43.9,15.2z M44.3,16.6
	c-0.3-0.2-0.5-0.4-0.9-0.7c-0.1,0.4-0.3,0.7-0.4,1.2C43.9,17.2,43.9,17.2,44.3,16.6z M44.7,24.7c-0.5,0-0.9,0-1.3,0c0,0.2,0,0.5,0,1
	C43.8,25.1,44.4,25.8,44.7,24.7z M44,23.5c0-0.1,0-0.1-0.1-0.2c0,0.1,0,0.1,0,0.2C44,23.5,44,23.5,44,23.5z M44.7,23
	c-0.1-0.6-0.2-1-0.2-1.4c-0.5-0.1-0.5-0.1-0.6,0.7C44.1,22.6,44.3,22.7,44.7,23z M45.4,21.3c0-0.5-0.1-0.9-0.1-1.3
	c-0.3-0.2-0.5-0.1-0.6,0.4c0.1,0.2,0.1,0.5,0.2,0.7c-0.1,0.3-0.2,0.6-0.3,0.9C45.2,22.2,45.3,21.7,45.4,21.3z M45.2,28.8
	c0,0.1,0,0.1,0,0.2c0.1,0,0.2,0,0.3,0c0-0.1,0-0.2,0-0.3C45.5,28.7,45.3,28.8,45.2,28.8z M45.1,34.8c0.1,0.4,0.1,0.7,0.2,1.2
	c0.2-0.6,0.3-1,0.5-1.5C45.4,34.2,45.2,34.4,45.1,34.8z M44.9,32.7c-0.3,0.3-0.3,0.6-0.1,0.9c0.1,0.2,0.3,0.1,0.4,0.2
	C45.4,33.1,45.2,32.8,44.9,32.7z M43.9,31.6c0.3,0.4,0.4,0.9,0.9,0.7C44.6,31.6,44.4,31.2,43.9,31.6z M43.8,36.1
	c-0.3,0.7-0.6,1.4-1.2,1.5c-0.2-0.5-0.4-0.9-0.3-1.5c0.2,0,0.5,0.2,0.7-0.3c-0.2-0.2-0.4-0.4-0.6-0.6c0.1-0.4,0.1-0.8,0.2-1.3
	c-0.3,0.1-0.5,0.2-0.6,0.3c0,0.5,0,0.8,0,1.2c0,0-0.1,0-0.1-0.1c-0.2,0.8-0.4,1.6-0.6,2.4c0.2,0.3,0.3,0.6,0.5,0.9
	c-0.1,0.7,0,1.2,0.5,1.5c0.1-0.2,0.3-0.4,0.4-0.6c0.1-0.3,0.2-0.6,0.4-1c0.2,0,0.4,0.1,0.5,0.1c0.8-1.1,1.1-2.2,0.5-2.7
	C44.1,36,43.9,36.1,43.8,36.1z M41,32.9c0.1,0.2,0.3,0.5,0.4,0.8c0.2-0.1,0.5-0.2,0.7-0.3c0-0.3-0.1-0.6-0.1-0.8
	c0.4-0.1,0.9-0.1,1.3-0.2c0-0.3,0.1-0.6,0.1-0.8c-0.7,0-1.4,0.1-2,0.1c-0.3,0-0.5,0.1-0.8,0.2c-0.3,0.1-0.4,0.4-0.2,0.9
	C40.6,32.8,40.8,32.9,41,32.9z M40.3,41.5c0.2-0.2,0.4-0.4,0.6-0.6c0-0.8,0.1-1.5,0-2.3c-0.1-0.9-0.4-1.1-0.9-0.8
	C39.7,39.9,39.8,40.5,40.3,41.5z M39.7,42.6c-0.1-0.3-0.2-0.6-0.3-0.9c-0.6,0.1-0.9,0.7-1,1.5c0.2,0.5,0.1,1.2,0.6,1.7
	c0.2-0.3,0.5-0.5,0.7-0.8C39.7,43.6,39.7,43.1,39.7,42.6C39.7,42.6,39.7,42.6,39.7,42.6z M39.7,42.6c0.3,0.2,0.6,0.6,0.9-0.2
	c-0.1-0.5-0.3-0.6-0.5-0.4C39.9,42.2,39.8,42.4,39.7,42.6z M42.1,51.1c0.8-0.9,0.8-2.1,1-3c0-0.8,0-1.4,0-2c-0.6-0.8-0.5-2-0.4-3.2
	c-0.2-0.2-0.3-0.4-0.5-0.7c-0.2,0.4-0.3,0.6-0.5,0.9c0,0.5,0.1,0.9,0.1,1.3c-0.2,0.8-0.4,1.4-1,1.8c-0.1-0.3-0.1-0.4-0.2-0.6
	c-0.1-0.2-0.1-0.3-0.3-0.6c-0.3,0.2-0.5,0.5-0.7,0.6c0.1,0.6,0.1,1,0.2,1.4c0.3,0,0.5,0,0.8,0c0.2-0.2,0.4-0.3,0.6-0.5
	c0.2,0.4,0.5,0.7,0.6,0.9C42.2,48.6,41.8,49.9,42.1,51.1z M42.9,50.4c0.1,0.4,0.1,0.7,0.2,1.1C43.4,50.9,43.4,50.9,42.9,50.4z
	 M43.1,56.7c0.1,0,0.1-0.1,0.2-0.1c0-0.1-0.1-0.2-0.2-0.4C43.1,56.5,43.1,56.6,43.1,56.7z M42.9,59.5c0.1,0.2,0.2,0.4,0.3,0.5
	c0,0,0.1-0.1,0.1-0.1c0-0.1,0-0.3,0-0.4c-0.1-0.1-0.2-0.2-0.3-0.2C42.9,59.4,42.9,59.5,42.9,59.5z M43.4,79.4
	c-0.2-0.4-0.4-0.6-0.7-0.3c0.1,0.4,0.3,0.9,0.4,1.2c-0.2,0.3-0.3,0.6-0.5,0.9c0.2,0.2,0.3,0.3,0.4,0.4C43.4,81,43.4,80.2,43.4,79.4z
	 M43.9,48.9c0.2-0.1,0.5-0.3,0.7-0.4c-0.1-0.9-0.5-0.9-0.9-1C43.6,48.1,43.6,48.4,43.9,48.9z M44.6,58.5c0.2-0.3,0.3-0.6,0-1
	C44.3,58.1,44.3,58.1,44.6,58.5z M44.7,59.8c0,0,0.1,0.1,0.1,0.1c0-0.1,0-0.1,0.1-0.2c0,0,0-0.1,0-0.1
	C44.8,59.7,44.8,59.8,44.7,59.8z M45,81.7c-0.1-0.3-0.1-0.5-0.2-0.7c-0.1,0-0.1,0-0.2-0.1c-0.1,0.2-0.1,0.4-0.2,0.8
	C44.7,81.7,44.8,81.7,45,81.7z M45.5,42.6c-0.4-1.4-0.8-2.6-1.2-3.9c-0.4,0.4-0.6,0.7-1,1c0.3,0.2,0.4,0.2,0.6,0.4
	c0,0.4-0.1,0.8-0.1,1c0.2,1.1,0.5,2,0.7,3C45.1,44,45.2,43.1,45.5,42.6z M46.4,47.9c-0.2-0.6-0.3-0.9-0.3-1.3
	c-0.1-0.4-0.2-0.7-0.6-0.5c0,0.5,0,0.9,0,1.1c0.2,0.5,0.3,0.8,0.6,1.4C46.2,48.2,46.3,48,46.4,47.9z M46.8,39.4
	c-0.3-1.2-0.5-2.3-0.8-3.3c-0.5,0.2-0.7,0.6-0.7,1c0.2,0.7,0.3,1.2,0.5,1.6c0.2,0.5,0.4,0.9,0.8,1C46.7,39.6,46.8,39.5,46.8,39.4z
	 M46.3,21.3c0.1-0.6,0.4-0.9,0.2-1.4c-0.3-0.2-0.5-0.3-0.7,0.3C46,20.5,46.1,20.8,46.3,21.3z M47.5,24.7c-0.3-0.6-0.5-0.5-0.7-0.1
	C47.1,24.9,47.1,24.9,47.5,24.7z M47.8,44.5c0-0.2-0.1-0.4-0.2-0.6c-0.4,0.3-0.4,0.3-0.6,0.8C47.4,45.1,47.6,45,47.8,44.5z M48.1,52
	c-0.2,0.5-0.3,1,0.1,1.5c0.3-0.2,0.6-0.4,0.8-0.6c0.2-0.7,0.1-1.1-0.2-1.3C48.5,51.5,48.2,51.6,48.1,52z M48.4,37.6
	c-0.3-0.6-0.6-0.5-0.8-0.2c-0.2,0.4-0.2,0.8,0.1,1.3C47.9,38.4,48.1,38,48.4,37.6z M48.3,36c-0.2-0.6-0.4-0.9-0.7-0.8
	C47.7,36.3,47.7,36.3,48.3,36z M47.1,33.3c0,0.1,0,0.2,0,0.3c0.3-0.1,0.7-0.2,1.1-0.3c-0.1-0.2-0.1-0.3-0.2-0.5
	C47.7,33,47.4,33.1,47.1,33.3z M48.2,20.8c0-1,0-1.8,0-2.7c-0.6-0.6-1.1-1.2-1.6-1.9c0-0.3,0.1-0.6,0.1-1.1c-0.6,0-1-0.8-1.5,0
	c0,0.1,0,0.2,0,0.4c0.2,0.1,0.4,0.3,0.7,0.5c-0.5,0.3-0.8,0.6-1.2,0.8c0,0.5,0,0.9,0,1.4c-0.2,0-0.4,0-0.6-0.1
	c-0.2-0.1-0.4-0.1-0.6,0.4c0.2,0.3,0.4,0.6,0.6,0.8c0.5-0.3,0.9-0.5,1.3-0.7c0.4,0.4,0.8,0.8,1.2,0.4c0-0.3-0.1-0.5-0.1-0.9
	c-0.3,0.1-0.5,0.1-0.7,0.1c0,0,0-0.1-0.1-0.1c0-0.1,0-0.2,0-0.3c0-0.1,0.1-0.2,0.1-0.3c0.9-0.5,1.1-0.4,1.6,0.9
	c0.1,0.3,0.2,0.5,0.4,0.8c0,0.6,0,1.2,0.1,1.8c0.1,0.6,0.2,1.1,0.3,1.6c0.5,0,0.7-0.6,1-1c0.1-0.1,0-0.4,0-0.5
	C48.8,21,48.5,20.9,48.2,20.8z M48,16.9c0-0.1,0-0.1,0-0.2c0,0-0.1,0-0.1,0C47.9,16.8,47.9,16.9,48,16.9z M48.8,9.3
	c-0.3,0.1-0.6,0.2-1,0.4c0.1,0.6,0.2,1.1,0.3,1.7c-0.3,0.6-0.7,1.1-0.9,1.7c-0.3,0.7-0.1,1.5,0.3,2.2c0.1-0.7,0.2-1.3,0.2-1.9
	c0.3-0.2,0.5-0.4,0.8-0.6c0-0.3,0-0.6-0.1-0.9c0.1-0.1,0.2-0.2,0.3-0.3c0-0.3-0.1-0.6-0.1-0.8C48.6,10.2,49,9.9,48.8,9.3z
	 M42.3,36.2L42.3,36.2L42.3,36.2L42.3,36.2C42.3,36.2,42.3,36.2,42.3,36.2z M37,91.1c0-0.3,0.1-0.5,0.1-0.7c0,0,0,0,0,0
	c0,0,0,0,0-0.1c0,0,0,0,0,0c0,0,0,0,0,0c-0.4-0.1-0.7-0.3-1.2-0.5C36.2,90.7,36.5,90.8,37,91.1z M37,72.1c0,0-0.1,0-0.1,0.1
	c0,0.1,0,0.1,0,0.2c0.1,0,0.1-0.1,0.2-0.1C37,72.2,37,72.2,37,72.1z M39,83.1c-0.3-0.1-0.6,0.1-0.5,0.9c0.2,0.2,0.5,0.5,0.8,0.8
	C39.4,83.6,39.3,83.2,39,83.1z M37.3,89.3c-0.1,0.5-0.2,0.8-0.3,1.1c0.2-0.1,0.5-0.2,0.8-0.3C37.7,89.7,37.5,89.6,37.3,89.3z
	 M37.5,82.7c0,0,0,0.1,0,0.3c0.2,0,0.4-0.1,0.6-0.1C37.8,82.5,37.8,82.5,37.5,82.7z M48.8,88.9c0.2-0.1,0.3-0.2,0.5-0.4v5.8
	c0,0,0,0,0,0c0,0,0,0,0,0v17.4c0-0.4-0.2-0.4-0.6-0.2c0,0.2,0,0.5,0,0.9c0.2,0,0.4,0,0.6-0.1v7.7c-0.2-0.1-0.3,0-0.8,0.6
	c-0.5,0.1-1,0.6-1.6,0.2c0.3-0.5,0.6-0.8,0.9-1.2c-0.1-0.3-0.3-0.6-0.4-0.9c0.2-0.2,0.4-0.4,0.5-0.5c-0.2-0.9-0.5-0.9-0.8-0.6
	c-0.3,0.3-0.5,0.4-0.9,0.1c-0.1-0.3-0.3-0.6-0.4-1c-0.3-0.2-0.6-0.4-1-0.8c-0.3,0.2-0.8,0.5-1.2,0.6c-0.4,0.1-0.9,0.3-1.3,0
	c-1-0.8-1.7,0.1-2.5,0.9c0-0.3,0-0.6,0-1.1c-0.2-0.1-0.5-0.1-0.7-0.2c-0.1,0.5-0.3,0.9-0.4,1.3c-0.6,0.2-1.2,0.5-1.8,0.7
	c-0.1,0.5-0.2,0.9-0.3,1.5c-0.6-0.2-1.1-0.3-1.6-0.6c-0.4-0.2-0.7-0.3-1.2-0.1c-0.3,0.1-0.5,0-0.8,0c-0.1-0.5-0.2-0.9-0.3-1.4
	c-0.3,0.1-0.6,0.1-0.8,0.2c-0.5-0.4-1-0.7-1.4-1c-0.2-0.1-0.4,0.1-0.6,0.2c0,0.4,0,0.8-0.1,1.2c-0.1,0.1-0.3,0.2-0.5,0.4
	c0.1-0.6,0.1-1,0.2-1.5c-0.5-0.4-0.9-0.7-1.4-1.1c-0.2,0.3-0.4,0.6-0.7,0.9c-0.2-0.2-0.3-0.3-0.4-0.4c-0.4-0.1-0.8-0.2-1.1-0.3
	c-0.4-0.1-0.8,0-1.2,0.5c-0.3,0.4-0.5,0.8-0.8,1.1c-0.1,0.1-0.3,0.1-0.6,0.1c0.4-0.6,0.6-1,0.8-1.4c0.3-0.3,0.6-0.5,0.9-0.7
	c-0.1-1-0.4-1.6-1-1.8c-0.2,0.3-0.3,0.6-0.5,1c-0.3,0.1-0.6,0.2-0.9,0.3c-0.2-0.2-0.4-0.4-0.6-0.7c-0.1,0.3-0.3,0.5-0.5,0.9
	c-0.2-0.1-0.5-0.2-0.9-0.4c0.5-0.6,1.3-0.4,1.1-1.7c-0.3-0.4-0.6,0.6-0.9-0.1c0.1-0.7,0.2-1.4,0.3-2.2c0.4,0.3,0.7,0.5,1,0.8
	c0,0.3,0.1,0.6,0.1,1c0.6,0.1,1.2,0.3,1.8,0.4c0.5,0.5,1,1.2,1.6,1.8c0.7,0.2,0.7,0.2,1.2-0.2c0-0.4,0.1-0.8,0.1-1.2
	c0.2,0,0.3,0,0.5,0c-0.1,0.4-0.2,0.8-0.3,1.3c0.2,0.3,0.4,0.5,0.6,0.8c0.2-0.1,0.4-0.2,0.6-0.3c0.2-0.1,0.4-0.3,0.5-0.5
	c0.6,0.5,1.1,1,1.7,1.5c0.2-0.2,0.4-0.3,0.7-0.5c0.4,0.3,0.8,0.7,1.4,1.1c0.4-0.1,0.6-0.5,0.9-1.1c-0.1-0.3-0.1-0.7-0.2-1
	c0.4-0.6,0.6,0.2,1,0.1c0.1-0.1,0.4-0.3,0.6-0.5c0.1-0.5,0.3-1,0.4-1.6c0.3,0.3,0.5,0.6,0.7,0.8c-0.2,0.6-0.3,1-0.5,1.5
	c-0.2,0.1-0.5,0.2-0.8,0.4c0.3,0.6,0.5,1.2,0.7,1.8c0.4-0.4,0.7-0.8,1.1-1.2c0-0.3,0.1-0.7,0.1-1c0.5-0.3,0.9-0.5,1.4-0.8
	c0.1,0.1,0.3,0.3,0.5,0.5c0.2,0,0.4-0.1,0.6-0.1c0.2,0.1,0.5,0.3,0.7,0.4c0.3-0.1,0.7-0.3,1-0.4c0-0.6,0.1-1.2,0.1-1.9
	c-0.5-1.2-0.6-1.2-2,0.2c0-0.6,0.6-0.8,0.3-1.6c-0.4,0-0.9,0-1.5,0c0-0.4,0.1-0.8,0.1-1.1c-0.5-0.1-0.9-0.2-1.4-0.4
	c-0.1,0.3-0.3,0.7-0.4,1.2c-0.2-0.1-0.3-0.2-0.6-0.3c0-1,0.1-1.9,0.1-2.8c0.6-0.4,0.7,0.6,1.2,0.8c0.4-0.2,0.6-1.1,1.2-0.8
	c0.2,1.1,0.8,1.5,1.7,1.4c0.1-0.2,0.4-0.5,0.6-0.8c-0.2-0.4-0.4-0.8-0.5-1.1c0-2.2,0-2.2-0.9-2.5c-0.6,0.7-1.2,1.3-1.8,2
	c-0.1-0.1-0.2-0.1-0.2-0.2c0-0.1-0.1-0.2-0.1-0.4c0.1-0.2,0.3-0.5,0.4-0.7c0-0.3,0-0.5,0-0.6c0.4-1.1,0.7-2,1.1-3.1
	c-0.2-0.3-0.4-0.6-0.6-0.8c-0.3,0.2-0.6,0.3-0.8,0.4c-0.2,0.2-0.4,0.4-0.7,0.6c0,0.7-0.1,1.3-0.1,2c-0.2,0.2-0.4,0.5-0.6,0.7
	c0.1,0.3,0.2,0.7,0.3,1c-0.1,0.1-0.2,0.2-0.2,0.2c-0.4-0.4-0.8-0.9-1.2-1.3c0.2-0.7,0.4-1.3,0.6-2c0.3-0.1,0.7-0.2,0.8-1.1
	c-0.2-0.3-0.3-0.7-0.5-1c-0.6-0.2-1-0.4-1.6-0.6c0.2-0.5,0.3-0.8,0.4-1.1c-0.1-0.2-0.1-0.5-0.2-0.8c0.3-0.8,0.6-1.5,0.8-2.1
	c0.6,0,1,0,1.5,0c0.2-0.4,0.4-0.8,0.7-1.3c-0.4-0.4-0.7-0.8-1.1-1.2c0.2-0.4,0.4-0.9,0.5-1.3c0.3,0,0.6,0,0.9,0
	c0.7,1.1,0.7,1.1,1.2,0.6c0-0.9-0.1-1.8-0.1-2.8c0.3,0.1,0.7,0.2,1,0.3c0.3-0.7,0.5-1.3,0.7-1.8c-0.2-1-0.2-1-0.8-0.9
	c0,0.4,0,0.8,0,1.2c-0.6,0.2-0.3-0.8-0.5-0.9c-0.6-0.6-1-0.1-1.5-0.1c0.2-0.5,0.3-0.9,0.4-1.3c0.3-0.1,0.7-0.2,1.2-0.3
	c0,0,0.3,0.2,0.5,0.3c0.3-0.2,0.5-0.3,0.9-0.5c0.8,0.7,1.3,1.9,2,3.2c0.2,0.2,0.5,0.4,0.9,0.7c0.4-0.1,0.6-0.8,1-1.4
	c0.3,0.2,0.7,0.5,1.1,0.8c0.3-0.6,0.7-1.2,1.1-2c0-0.4-0.1-0.9-0.2-1.4c-0.3,0-0.4-0.1-0.7-0.1c-0.1,0.5-0.2,0.9-0.3,1.3
	c-0.1,0-0.3,0-0.4,0c-0.2-1.3,0.6-1.4,0.9-2c0.5,0.2,0.9,0.3,1.4,0.5c0.2,0.3,0.3,0.6,0.5,0.9c-0.1,0.3-0.2,0.5-0.3,0.9
	C48.1,88.3,48.4,88.5,48.8,88.9z M35.3,118.3c0-0.8-0.3-1.2-0.7-1.5c-0.6,0.3-0.6,0.3-0.9,1C34.4,118.9,34.7,119,35.3,118.3z
	 M43.6,91.2L43.6,91.2L43.6,91.2L43.6,91.2z M42.8,93.9c0.1,0.1,0.3,0.1,0.6,0.1c-0.1-0.9-0.3-1.1-0.6-0.9
	C42.7,93.4,42.6,93.8,42.8,93.9z M42,90.8c0,0.1,0.1,0.1,0.1,0.2c0.1-0.2,0.2-0.4,0.3-0.5c0-0.1-0.1-0.1-0.1-0.2
	C42.2,90.5,42.1,90.7,42,90.8z M41.3,89.4c0.1,0,0.2,0,0.2-0.1c0-0.1,0-0.1,0-0.2c-0.1,0-0.2,0-0.2-0.1
	C41.3,89.2,41.3,89.3,41.3,89.4z M41,95.3c0.2,0.5,0.4,0.5,0.7,0.1C41.5,94.9,41.3,94.8,41,95.3z M41,91.6c0.1,0.3,0.2,0.6,0.2,0.8
	c0.4-0.3,0.4-0.6,0.2-1C41.3,91.4,41.2,91.5,41,91.6z M39.1,95.6c-0.2,0.1-0.4,0.1-0.5,0.2c-0.2,1-0.3,1.8-0.6,2.6
	c-0.3,1.2-0.3,1.4,0.3,2.3c0.5,0.1,0.6-0.4,0.6-1c0-0.8-0.1-1.6-0.1-2.3C39,96.8,39.6,96.4,39.1,95.6z M40.2,93.6
	c0.4,0.2,0.9,0.3,1.3,0.4c0-0.8-0.3-0.8-0.4-1c-0.2-0.2-0.4-0.4-0.6-0.6c-0.2-0.2-0.3-0.6-0.5-0.9c-0.2,0.3-0.3,0.5-0.4,0.7
	C39.8,92.7,40,93.1,40.2,93.6z M40,94.2c0,0.3,0,0.6,0,0.8C40.4,94.7,40.4,94.5,40,94.2z M41.7,100.6c0-0.5-0.1-0.9-0.1-1.2
	c-0.5-0.5-0.9-0.2-1.1,0.3c-0.2,0.4-0.3,0.9,0,1.5C40.8,101.1,41.2,100.9,41.7,100.6z M42.5,107.7c0.3-0.3,0.5-0.5,0.6-0.7
	c-0.1-0.7-0.2-1.3-0.3-1.9c-0.6,0.2-0.6,0.2-0.9,1.3C42.1,106.8,42.3,107.2,42.5,107.7z M42.8,108.5c0,0.1-0.1,0.2-0.1,0.3
	c0.1,0.1,0.2,0.2,0.3,0.3c0-0.1,0.1-0.1,0.1-0.2C43,108.8,42.9,108.6,42.8,108.5z M42.4,111.5c0,0.5,0.1,0.9,0.6,0.9
	c0.1-0.3,0.1-0.6,0.2-0.8C42.9,111.1,42.6,111,42.4,111.5z M44.1,114.2c-1-0.8-1.5-0.3-1.5,1.5c0.2,0.2,0.4,0.3,0.5,0.5
	c0.3-0.1,0.6-0.2,1-0.4C44.1,115.1,44.1,114.6,44.1,114.2z M45.4,92c-0.1-0.9-0.1-0.9-0.7-1c-0.1,0.7-0.8,0.9-0.7,2
	C44.6,93.1,44.8,92,45.4,92z M45.4,108.8c-0.5,0.5-0.7,1.2-0.5,2c0.2,0.6,0.4,0.7,0.7,0.4C45.9,110.3,45.6,109.6,45.4,108.8z
	 M46,106.1c0,0-0.1-0.1-0.1-0.1c0,0.1,0,0.1-0.1,0.2c0,0,0.1,0.1,0.1,0.1C46,106.3,46,106.2,46,106.1z M46.7,88.6
	c0,0.2,0.1,0.4,0.1,0.8c0.3-0.2,0.6-0.3,0.8-0.5C47.3,88.1,47.3,88.1,46.7,88.6z M46.8,95.4c0-0.1-0.1-0.1-0.1-0.2
	c-0.2,0.1-0.4,0.1-0.1,0.6C46.7,95.7,46.7,95.6,46.8,95.4z M47.8,114.1c-0.2,0-0.5,0-0.8,0.1c0,0.8,0,1.3,0.4,1.5
	C47.9,115.2,47.9,115.2,47.8,114.1z M48.2,94.1C48.1,94.1,48.1,94.1,48.2,94.1C48.1,94.1,48.1,94.1,48.2,94.1c-0.1,0.1,0,0.1,0,0.1
	C48.1,94.2,48.1,94.1,48.2,94.1z M33.8,25.1C33.8,25.1,33.8,25.1,33.8,25.1C33.7,25,33.7,25,33.8,25.1
	C33.7,25.1,33.7,25.1,33.8,25.1C33.7,25.1,33.8,25.1,33.8,25.1z M31.6,35c0,0,0.1-0.1,0.1-0.1c0-0.1,0-0.1-0.1-0.2
	C31.6,34.8,31.5,34.9,31.6,35C31.5,35,31.6,35,31.6,35z M31.4,31.2L31.4,31.2C31.4,31.1,31.4,31.1,31.4,31.2L31.4,31.2z M31.5,31.1
	C31.5,31.1,31.5,31.1,31.5,31.1C31.5,31.1,31.5,31.1,31.5,31.1L31.5,31.1z M46,4.4c0,0,0-0.1,0.1-0.2c0,0-0.1-0.1-0.1-0.1
	C45.9,4.2,45.9,4.3,46,4.4C45.9,4.4,46,4.4,46,4.4z M36.9,52.3c0,0,0.1-0.1,0.1-0.1c0,0,0-0.1-0.1,0C36.9,52.2,36.9,52.3,36.9,52.3z
	 M31.6,59.9c0,0,0,0.1,0,0.1c0.1,0,0.1,0,0.2,0c0,0,0-0.1,0-0.1C31.7,59.9,31.6,59.9,31.6,59.9z M30.9,55.8c0.3,0.3,0.5,0.2,0.6-0.3
	C31.3,55.3,31.1,55.3,30.9,55.8z M46.6,0.2c-0.1,0.3-0.2,0.4-0.3,0.7c0.2-0.1,0.3-0.1,0.4-0.2C46.7,0.7,46.7,0.5,46.6,0.2z M34,35.6
	c-0.1,0.4,0,0.7,0.3,0.9C34.4,36,34.3,35.8,34,35.6z M31.2,42.2c-0.2-0.4-0.5-0.8-0.9-1.3c0.1,1.2,0.2,2,0.2,3.1
	C30.9,43.3,31.3,43,31.2,42.2z M40.7,20.2c0.8,0.2,1.4,0.3,2.1,0.5c-0.1-0.4-0.3-0.8-0.4-1.1c-0.3-0.1-0.4-0.1-0.6-0.2
	c-0.2,0.2-0.5,0.4-0.7,0.6c-0.2-0.1-0.4-0.2-0.6-0.3c-0.1,0.7-0.7,0.8-0.6,1.6C40.3,20.8,40.4,20.2,40.7,20.2z M32.8,51.2
	C32.8,51.2,32.8,51.2,32.8,51.2C32.8,51.2,32.8,51.2,32.8,51.2C32.8,51.2,32.8,51.2,32.8,51.2C32.8,51.2,32.8,51.2,32.8,51.2z
	 M32.4,34.8c0.2-0.4,0.3-0.7,0.6-1.3c-0.3-0.1-0.5-0.2-0.7-0.3C32.1,33.8,32,34.3,32.4,34.8z M33.3,50.7c0-0.6,0-1,0-1.5
	c-0.4,0.2-0.8,0.4-1.3,0.7c0.3,0.2,0.6,0.5,0.8,0.7c0,0.2,0,0.4,0,0.6C33,51,33.1,50.8,33.3,50.7z M32.2,52.5
	c0.6-0.3,0.6-0.3,0.6-1.3c-0.2,0.1-0.3,0.2-0.6,0.3C32.2,51.8,32.2,52.1,32.2,52.5z M32.1,27.8c0.4,0.4,0.7,0.6,1.1,0.9
	C32.8,27.9,32.4,27.6,32.1,27.8z M33.1,29.8c-0.1,0-0.2,0-0.3-0.1c0,0.1,0,0.1,0,0.2c0.1,0.1,0.2,0.1,0.3,0.2
	C33,30,33,29.9,33.1,29.8z M32.7,45.5c-0.1-0.4-0.3-0.6-0.6-0.6c0.2,0.8,0.4,1.5,0.7,2.5c0,0.1,0,0.4,0,0.8
	C33.1,47.5,33,46.3,32.7,45.5z"/>
</svg>
